<svg width="104" height="104" viewBox="0 0 104 104" fill="none" xmlns="http://www.w3.org/2000/svg">
<g id="SVGRepo_iconCarrier">
<g id="Group 1171278552">
<path id="Vector" d="M52.0143 103.333C80.5488 103.333 103.681 80.2016 103.681 51.6666C103.681 23.1319 80.5488 0 52.0143 0C23.4796 0 0.347656 23.1319 0.347656 51.6666C0.347656 80.2016 23.4796 103.333 52.0143 103.333Z" fill="#F1F1F1"/>
<path id="Vector_2" d="M52.0273 25.4766C41.3323 25.4766 32.6523 34.1566 32.6523 44.8514C32.6523 55.3397 40.8673 63.8647 51.769 64.1747C51.924 64.1747 52.1307 64.1747 52.234 64.1747C52.3373 64.1747 52.4923 64.1747 52.5957 64.1747C52.6473 64.1747 52.699 64.1747 52.699 64.1747C63.1357 63.813 71.3507 55.3397 71.4023 44.8514C71.4023 34.1566 62.7223 25.4766 52.0273 25.4766Z" fill="#DBDBDB"/>
<path id="Vector_3" d="M87.0249 89.6343C77.8282 98.1077 65.5315 103.326 51.9948 103.326C38.4582 103.326 26.1615 98.1077 16.9648 89.6343C18.2048 84.9327 21.5632 80.6443 26.4715 77.3377C40.5765 67.9343 63.5165 67.9343 77.5182 77.3377C82.4782 80.6443 85.7849 84.9327 87.0249 89.6343Z" fill="#DBDBDB"/>
</g>
</g>
</svg>
