<svg width="20" height="20" viewBox="0 0 20 20" fill="none" xmlns="http://www.w3.org/2000/svg">
<g id="Frame">
<g id="SVGRepo_iconCarrier">
<path id="Vector" d="M17.4866 17.5936H6.6389C2.2998 17.5936 2.2998 17.5936 2.2998 13.2545V2.40674" stroke="#686A74" stroke-width="1.62716" stroke-linecap="round" stroke-linejoin="round"/>
<path id="Vector_2" d="M13.2762 4.84767C12.8269 4.84767 12.4626 5.21193 12.4626 5.66125C12.4626 6.11058 12.8269 6.47483 13.2762 6.47483V4.84767ZM17.4862 6.47483C17.9355 6.47483 18.2998 6.11058 18.2998 5.66125C18.2998 5.21193 17.9355 4.84767 17.4862 4.84767V6.47483ZM18.2998 5.66125C18.2998 5.21193 17.9355 4.84767 17.4862 4.84767C17.0369 4.84767 16.6726 5.21193 16.6726 5.66125H18.2998ZM16.6726 9.57403C16.6726 10.0233 17.0369 10.3876 17.4862 10.3876C17.9355 10.3876 18.2998 10.0233 18.2998 9.57403H16.6726ZM18.1116 6.18165C18.3989 5.83626 18.352 5.32328 18.0066 5.03587C17.6612 4.74847 17.1482 4.79547 16.8608 5.14086L18.1116 6.18165ZM13.1471 10.8758L13.6936 11.4785C13.7218 11.4529 13.7481 11.4254 13.7725 11.3961L13.1471 10.8758ZM11.4451 10.9419L10.941 11.5805L10.947 11.5852L11.4451 10.9419ZM10.3072 10.0437L10.8113 9.40513L10.8071 9.40188L10.3072 10.0437ZM8.48259 10.2422L7.85624 9.72297C7.84821 9.73262 7.8404 9.74249 7.83281 9.75258L8.48259 10.2422ZM8.34374 10.4071L8.92453 10.9769C8.92865 10.9726 8.93277 10.9683 8.93678 10.9641L8.34374 10.4071ZM4.82747 12.8303C4.51284 13.1512 4.51783 13.6662 4.83862 13.9808C5.15941 14.2955 5.67453 14.2905 5.98914 13.9697L4.82747 12.8303ZM13.2762 6.47483H17.4862V4.84767H13.2762V6.47483ZM16.6726 5.66125V9.57403H18.2998V5.66125H16.6726ZM16.8608 5.14086L12.5217 10.3554L13.7725 11.3961L18.1116 6.18165L16.8608 5.14086ZM12.6006 10.2731C12.4166 10.4399 12.1395 10.4506 11.9431 10.2987L10.947 11.5852C11.7673 12.2203 12.9251 12.1753 13.6936 11.4785L12.6006 10.2731ZM11.9491 10.3033L10.8113 9.40513L9.80308 10.6823L10.941 11.5805L11.9491 10.3033ZM10.8071 9.40188C9.89833 8.69395 8.5915 8.83617 7.85624 9.72297L9.10883 10.7615C9.28283 10.5516 9.5921 10.518 9.80721 10.6856L10.8071 9.40188ZM7.83281 9.75258C7.80721 9.78654 7.77977 9.81919 7.75059 9.85021L8.93678 10.9641C9.0061 10.8902 9.0713 10.8127 9.13226 10.7319L7.83281 9.75258ZM7.76284 9.83741L4.82747 12.8303L5.98914 13.9697L8.92453 10.9769L7.76284 9.83741Z" fill="#686A74"/>
</g>
</g>
</svg>
