<svg width="32" height="21" viewBox="0 0 32 21" fill="none" xmlns="http://www.w3.org/2000/svg">
<g id="apple-icloud-seeklogo 1" clip-path="url(#clip0_1597_8666)">
<path id="rect955" d="M18.3459 0.400394C16.8181 0.40348 15.3187 0.813156 14.0016 1.58735C12.6845 2.36155 11.5971 3.47236 10.8513 4.80573C10.2093 4.4931 9.50473 4.33015 8.79066 4.32914C7.67146 4.33208 6.58969 4.73249 5.73829 5.45894C4.88689 6.18539 4.32122 7.19066 4.14216 8.29544C2.95994 8.79046 1.95038 9.62383 1.24034 10.6908C0.530295 11.7579 0.151437 13.0109 0.151367 14.2926C0.153035 16.0165 0.839239 17.6692 2.05911 18.8873C3.27898 20.1054 4.93266 20.7892 6.65657 20.7884C6.92938 20.7859 7.20176 20.7663 7.4721 20.7296H25.5473C25.6422 20.7364 25.7373 20.741 25.8324 20.7434C25.9231 20.7408 26.0137 20.7362 26.1041 20.7296H26.537V20.6974C28.0087 20.5234 29.3657 19.8128 30.3508 18.7005C31.3358 17.5882 31.8805 16.1514 31.8815 14.6625V14.6509C31.8781 13.2368 31.3843 11.8682 30.4851 10.7804C29.5859 9.6926 28.3375 8.95371 26.9547 8.69081C26.8726 6.46315 25.9294 4.35421 24.3237 2.80791C22.7181 1.26161 20.5751 0.398552 18.3459 0.400394Z" fill="url(#paint0_linear_1597_8666)"/>
</g>
<defs>
<linearGradient id="paint0_linear_1597_8666" x1="31.9779" y1="14.679" x2="0.139648" y2="14.2399" gradientUnits="userSpaceOnUse">
<stop stop-color="#3E82F4"/>
<stop offset="1" stop-color="#93DCF7"/>
</linearGradient>
<clipPath id="clip0_1597_8666">
<rect width="32" height="20.8" fill="white" transform="translate(0 0.0996094)"/>
</clipPath>
</defs>
</svg>
