<svg width="18" height="18" viewBox="0 0 18 18" fill="none" xmlns="http://www.w3.org/2000/svg">
<g id="Frame">
<g id="SVGRepo_iconCarrier">
<path id="Vector" d="M9.95508 2.45508C9.95508 2.45508 11.6051 2.60508 13.7051 4.70508C15.8051 6.80508 15.9551 8.45508 15.9551 8.45508" stroke="#686A74" stroke-width="1.125" stroke-linecap="round"/>
<path id="Vector_2" d="M10.1104 5.10645C10.1104 5.10645 10.8529 5.31858 11.9665 6.43227C13.0802 7.54597 13.2924 8.28843 13.2924 8.28843" stroke="#686A74" stroke-width="1.125" stroke-linecap="round"/>
<path id="Vector_3" d="M6.98328 4.94221L7.47003 5.8144C7.9093 6.60151 7.73298 7.63407 7.04111 8.32593C7.04111 8.32593 6.20199 9.16518 7.72345 10.6867C9.24445 12.2077 10.0842 11.3691 10.0842 11.3691C10.7761 10.6772 11.8086 10.5009 12.5958 10.9401L13.4679 11.4269C14.6565 12.0902 14.7969 13.757 13.7522 14.8017C13.1244 15.4295 12.3554 15.918 11.5053 15.9501C10.0742 16.0044 7.6438 15.6423 5.20585 13.2043C2.76793 10.7664 2.40574 8.33599 2.45999 6.9049C2.49222 6.05478 2.98068 5.28575 3.60844 4.658C4.65315 3.61329 6.31996 3.75366 6.98328 4.94221Z" stroke="#686A74" stroke-width="1.125" stroke-linecap="round"/>
</g>
</g>
</svg>
