<svg width="34" height="35" viewBox="0 0 34 35" fill="none" xmlns="http://www.w3.org/2000/svg">
<g id="Group 1171278693">
<path id="Vector" d="M7.16763 21.9903C7.16763 23.9648 5.57177 25.5607 3.59724 25.5607C1.62271 25.5607 0.0268555 23.9648 0.0268555 21.9903C0.0268555 20.0158 1.62271 18.4199 3.59724 18.4199H7.16763V21.9903ZM8.95282 21.9903C8.95282 20.0158 10.5487 18.4199 12.5232 18.4199C14.4977 18.4199 16.0936 20.0158 16.0936 21.9903V30.9163C16.0936 32.8908 14.4977 34.4867 12.5232 34.4867C10.5487 34.4867 8.95282 32.8908 8.95282 30.9163V21.9903Z" fill="#E01E5A"/>
<path id="Vector_2" d="M12.5234 7.65445C10.5489 7.65445 8.95302 6.0586 8.95302 4.08406C8.95302 2.10953 10.5489 0.513672 12.5234 0.513672C14.4979 0.513672 16.0938 2.10953 16.0938 4.08406V7.65445H12.5234ZM12.5234 9.4667C14.4979 9.4667 16.0938 11.0626 16.0938 13.0371C16.0938 15.0116 14.4979 16.6075 12.5234 16.6075H3.57039C1.59585 16.6075 0 15.0116 0 13.0371C0 11.0626 1.59585 9.4667 3.57039 9.4667H12.5234Z" fill="#36C5F0"/>
<path id="Vector_3" d="M26.8322 13.0371C26.8322 11.0626 28.4281 9.4667 30.4026 9.4667C32.3771 9.4667 33.973 11.0626 33.973 13.0371C33.973 15.0116 32.3771 16.6075 30.4026 16.6075H26.8322V13.0371ZM25.047 13.0371C25.047 15.0116 23.4512 16.6075 21.4766 16.6075C19.5021 16.6075 17.9062 15.0116 17.9062 13.0371V4.08406C17.9062 2.10953 19.5021 0.513672 21.4766 0.513672C23.4512 0.513672 25.047 2.10953 25.047 4.08406V13.0371Z" fill="#2EB67D"/>
<path id="Vector_4" d="M21.4766 27.3459C23.4512 27.3459 25.047 28.9418 25.047 30.9163C25.047 32.8908 23.4512 34.4867 21.4766 34.4867C19.5021 34.4867 17.9062 32.8908 17.9062 30.9163V27.3459H21.4766ZM21.4766 25.5607C19.5021 25.5607 17.9062 23.9648 17.9062 21.9903C17.9062 20.0158 19.5021 18.4199 21.4766 18.4199H30.4297C32.4042 18.4199 34 20.0158 34 21.9903C34 23.9648 32.4042 25.5607 30.4297 25.5607H21.4766Z" fill="#ECB22E"/>
</g>
</svg>
