<svg width="32" height="33" viewBox="0 0 32 33" fill="none" xmlns="http://www.w3.org/2000/svg">
<g id="Frame">
<g id="Group 1171278632">
<g id="Group 1171278631" opacity="0.3">
<g id="SVGRepo_iconCarrier">
<path id="Vector" d="M9.55019 14.7774C7.79809 14.7774 6.37773 13.3039 6.37773 11.4863C6.37773 9.66876 7.79809 8.19531 9.55019 8.19531C11.3023 8.19531 12.7227 9.66876 12.7227 11.4863C12.7227 13.3039 11.3023 14.7774 9.55019 14.7774Z" fill="#6139FF"/>
<path id="Vector_2" d="M9.5517 23.8282C6.48552 23.8282 3.99989 22.3547 3.99989 20.5371C3.99989 18.7195 6.48552 17.2461 9.5517 17.2461C12.6179 17.2461 15.1035 18.7195 15.1035 20.5371C15.1035 22.3547 12.6179 23.8282 9.5517 23.8282Z" fill="#957AFF"/>
</g>
</g>
<g id="Group 1171278630">
<g id="SVGRepo_iconCarrier_2">
<path id="Vector_3" d="M18.1169 14.0265C15.3143 14.0265 13.0424 11.67 13.0424 8.76324C13.0424 5.85643 15.3143 3.5 18.1169 3.5C20.9195 3.5 23.1914 5.85643 23.1914 8.76324C23.1914 11.67 20.9195 14.0265 18.1169 14.0265Z" fill="#6139FF"/>
<path id="Vector_4" d="M18.1196 28.4991C13.2151 28.4991 9.23927 26.1427 9.23927 23.2359C9.23927 20.3291 13.2151 17.9727 18.1196 17.9727C23.0241 17.9727 27 20.3291 27 23.2359C27 26.1427 23.0241 28.4991 18.1196 28.4991Z" fill="#B09CFF"/>
</g>
</g>
</g>
</g>
</svg>
