<svg width="32" height="33" viewBox="0 0 32 33" fill="none" xmlns="http://www.w3.org/2000/svg">
<g id="Frame" clip-path="url(#clip0_1597_8619)">
<g id="SVGRepo_iconCarrier">
<path id="Vector" d="M0 25.1154H7.58974V8.08974H24.6154V0.5H3.79487C1.26496 0.5 0 1.69658 0 4.08974" fill="#4285F4"/>
<path id="Vector_2" d="M24.4102 0.5V8.29487H31.9999V4.08974C31.9999 1.69658 30.8033 0.5 28.4102 0.5" fill="#1967D2"/>
<path id="Vector_3" d="M24.4102 8.08984H31.9999V24.9104H24.4102" fill="#FBBC04"/>
<path id="Vector_4" d="M0 24.9102V28.9102C0 31.3033 1.19658 32.4999 3.58974 32.4999H7.79487V24.9102" fill="#188038"/>
<path id="Vector_5" d="M7.58984 24.9102H24.4104V32.4999H7.58984" fill="#34A853"/>
<path id="Vector_6" d="M24.4102 32.4999V24.9102H31.9999" fill="#EA4335"/>
<path id="Vector_7" d="M10.667 13.7311C10.774 13.3199 11.0102 12.9438 11.3486 12.6458C11.6869 12.3477 12.114 12.1396 12.5812 12.0451C13.0483 11.9505 13.5368 11.9733 13.9912 12.111C14.4455 12.2486 14.8474 12.4955 15.1512 12.8235C15.4549 13.1516 15.6484 13.5477 15.7095 13.9668C15.7707 14.3859 15.697 14.8111 15.497 15.1941C15.297 15.5772 14.9785 15.9027 14.578 16.1336C14.1774 16.3645 13.7108 16.4915 13.2311 16.5003M13.2311 16.5003H12.308M13.2311 16.5003C13.7095 16.5137 14.1747 16.6447 14.5741 16.8783C14.9734 17.112 15.291 17.4391 15.4908 17.8226C15.6906 18.2061 15.7648 18.6307 15.7048 19.0484C15.6449 19.466 15.4532 19.86 15.1515 20.1858C14.8499 20.5116 14.4502 20.7562 13.9979 20.8919C13.5455 21.0276 13.0584 21.0489 12.5918 20.9536C12.1251 20.8583 11.6975 20.65 11.3574 20.3524C11.0172 20.0548 10.7781 19.6797 10.667 19.2695M17.4362 13.9362L20.2055 11.9875H20.6157V11.2695V21.8336" stroke="#4285F4" stroke-width="1.53846" stroke-linejoin="bevel"/>
</g>
</g>
<defs>
<clipPath id="clip0_1597_8619">
<rect width="32" height="32" fill="white" transform="translate(0 0.5)"/>
</clipPath>
</defs>
</svg>
