<svg width="18" height="16" viewBox="0 0 18 16" fill="none" xmlns="http://www.w3.org/2000/svg">
<g id="Group 1171278844">
<path id="Vector" d="M10.2006 5.05396V8.13002L14.3476 4.78494V1.81393C14.3476 1.16298 13.8158 0.635742 13.1606 0.635742H4.17599L4.16797 5.05396H10.2006Z" fill="#FBBC05"/>
<path id="Vector_2" d="M10.2 11.2069H4.15743L4.15039 15.363H13.1601C13.8163 15.363 14.3471 14.8358 14.3471 14.1848V11.5025L10.2 8.13086V11.2069Z" fill="#34A853"/>
<path id="Vector_3" d="M4.1762 0.635742L0 5.05396H4.16916L4.1762 0.635742Z" fill="#EA4335"/>
<path id="Vector_4" d="M0 11.207V14.1849C0 14.8359 0.538835 15.3631 1.2041 15.3631H4.15116L4.15812 11.207H0Z" fill="#1967D2"/>
<path id="Vector_5" d="M4.16916 5.05371H0V11.2068H4.15812L4.16916 5.05371Z" fill="#4285F4"/>
<path id="Vector_6" d="M17.9941 13.1369V3.02415C17.7602 1.682 16.2882 3.22051 16.2882 3.22051L14.3486 4.78456V11.5012L17.1251 13.7584C18.1275 13.8899 17.9941 13.1369 17.9941 13.1369Z" fill="#34A853"/>
<path id="Vector_7" d="M10.2012 8.13015L14.3493 11.5027V4.78613L10.2012 8.13015Z" fill="#188038"/>
</g>
</svg>
