<svg width="32" height="33" viewBox="0 0 32 33" fill="none" xmlns="http://www.w3.org/2000/svg">
<g id="Frame">
<g id="Group 1171278632">
<g id="Group 1171278633">
<g id="Group 1171278631">
<g id="SVGRepo_iconCarrier">
<path id="Vector" d="M23.8966 15.5272C25.3504 15.5272 26.529 14.3487 26.529 12.8949C26.529 11.4412 25.3504 10.2627 23.8966 10.2627C22.4427 10.2627 21.2642 11.4412 21.2642 12.8949C21.2642 14.3487 22.4427 15.5272 23.8966 15.5272Z" fill="#6139FF"/>
<path id="Vector_2" d="M23.8924 22.7655C26.4366 22.7655 28.4991 21.587 28.4991 20.1332C28.4991 18.6795 26.4366 17.501 23.8924 17.501C21.3481 17.501 19.2856 18.6795 19.2856 20.1332C19.2856 21.587 21.3481 22.7655 23.8924 22.7655Z" fill="#957AFF"/>
</g>
</g>
<g id="Group 1171278632_2">
<g id="SVGRepo_iconCarrier_2">
<path id="Vector_3" d="M8.11141 15.5272C9.56525 15.5272 10.7438 14.3487 10.7438 12.8949C10.7438 11.4412 9.56525 10.2627 8.11141 10.2627C6.65757 10.2627 5.479 11.4412 5.479 12.8949C5.479 14.3487 6.65757 15.5272 8.11141 15.5272Z" fill="#6139FF"/>
<path id="Vector_4" d="M8.1072 22.7655C10.6514 22.7655 12.7139 21.587 12.7139 20.1332C12.7139 18.6795 10.6514 17.501 8.1072 17.501C5.56298 17.501 3.50049 18.6795 3.50049 20.1332C3.50049 21.587 5.56298 22.7655 8.1072 22.7655Z" fill="#957AFF"/>
</g>
</g>
<g id="Group 1171278630">
<g id="SVGRepo_iconCarrier_3">
<path id="Vector_5" d="M16.0002 14.9203C18.3257 14.9203 20.2108 13.0356 20.2108 10.7106C20.2108 8.3857 18.3257 6.50098 16.0002 6.50098C13.6747 6.50098 11.7896 8.3857 11.7896 10.7106C11.7896 13.0356 13.6747 14.9203 16.0002 14.9203Z" fill="#6139FF"/>
<path id="Vector_6" d="M16.0019 26.4984C20.0715 26.4984 23.3706 24.6137 23.3706 22.2888C23.3706 19.9638 20.0715 18.0791 16.0019 18.0791C11.9323 18.0791 8.6333 19.9638 8.6333 22.2888C8.6333 24.6137 11.9323 26.4984 16.0019 26.4984Z" fill="#B09CFF"/>
</g>
</g>
</g>
</g>
</g>
</svg>
