<svg width="20" height="20" viewBox="0 0 20 20" fill="none" xmlns="http://www.w3.org/2000/svg">
<g id="info-square-svgrepo-com 1">
<rect width="20" height="20" rx="10" transform="matrix(-1 0 0 1 20 0)" fill="#6139FF"/>
<g id="Vector">
<path d="M9.23101 15.0776C9.23101 15.5069 9.57552 15.8548 10.0005 15.8548C10.4254 15.8548 10.7699 15.5069 10.7699 15.0776V8.85996C10.7699 8.43073 10.4254 8.08275 10.0005 8.08275C9.57552 8.08275 9.23101 8.43073 9.23101 8.85996V15.0776Z" fill="white"/>
<path d="M8.97454 5.75112C8.97454 5.17881 9.43384 4.71484 10.0005 4.71484C10.5671 4.71484 11.0264 5.17881 11.0264 5.75112C11.0264 6.32344 10.5671 6.7874 10.0005 6.7874C9.43384 6.7874 8.97454 6.32344 8.97454 5.75112Z" fill="white"/>
</g>
</g>
</svg>
