<svg width="18" height="18" viewBox="0 0 18 18" fill="none" xmlns="http://www.w3.org/2000/svg">
<g id="users">
<g id="Group 1171278845">
<path id="Vector" d="M11.875 14.2285V13.0566C11.875 12.435 11.6281 11.8389 11.1885 11.3994C10.749 10.9598 10.1529 10.7129 9.53125 10.7129H4.84375C4.22215 10.7129 3.62601 10.9598 3.18647 11.3994C2.74693 11.8389 2.5 12.435 2.5 13.0566V14.2285" stroke="#686A74" stroke-width="1.2" stroke-linecap="round" stroke-linejoin="round"/>
<path id="Vector_2" d="M7.1875 8.36914C8.48192 8.36914 9.53125 7.31981 9.53125 6.02539C9.53125 4.73097 8.48192 3.68164 7.1875 3.68164C5.89308 3.68164 4.84375 4.73097 4.84375 6.02539C4.84375 7.31981 5.89308 8.36914 7.1875 8.36914Z" stroke="#686A74" stroke-width="1.2" stroke-linecap="round" stroke-linejoin="round"/>
<path id="Vector_3" d="M15.3906 14.2285V13.0566C15.3902 12.5373 15.2174 12.0329 14.8992 11.6224C14.5811 11.212 14.1356 10.9189 13.6328 10.7891" stroke="#686A74" stroke-width="1.2" stroke-linecap="round" stroke-linejoin="round"/>
<path id="Vector_4" d="M11.2891 3.75781C11.7932 3.8869 12.2401 4.1801 12.5592 4.5912C12.8783 5.0023 13.0515 5.50791 13.0515 6.02832C13.0515 6.54873 12.8783 7.05434 12.5592 7.46544C12.2401 7.87654 11.7932 8.16975 11.2891 8.29883" stroke="#686A74" stroke-width="1.2" stroke-linecap="round" stroke-linejoin="round"/>
</g>
</g>
</svg>
