<svg width="28" height="28" viewBox="0 0 28 28" fill="none" xmlns="http://www.w3.org/2000/svg">
<g id="Frame" clip-path="url(#clip0_1100_5247)">
<g id="SVGRepo_iconCarrier">
<path id="Vector" d="M7.10007 27.901C5.4349 27.8252 4.53033 27.5481 3.92867 27.3135C3.13145 27.0031 2.56308 26.6336 1.96475 26.0361C1.36642 25.4386 0.996107 24.8702 0.687372 24.073C0.4527 23.4713 0.175588 22.5668 0.0998603 20.9016C0.0166434 19.1016 0 18.5615 0 14.0012C0 9.44096 0.0183077 8.90172 0.0990281 7.10007C0.174756 5.4349 0.453532 4.53199 0.68654 3.92867C0.996939 3.13145 1.36725 2.56308 1.96392 1.96392C2.56142 1.36642 3.12979 0.995274 3.92784 0.68654C4.5295 0.451868 5.43407 0.174756 7.09924 0.0990281C8.90005 0.0166434 9.44096 0 13.9996 0C18.5599 0 19.0991 0.0183077 20.9008 0.0990281C22.5659 0.174756 23.4688 0.453532 24.0722 0.68654C24.8694 0.995274 25.4378 1.36642 26.0361 1.96392C26.6344 2.56142 27.0031 3.13062 27.3135 3.92784C27.5481 4.5295 27.8252 5.43407 27.901 7.09924C27.9834 8.90088 28 9.44013 28 14.0004C28 18.559 27.9834 19.0999 27.901 20.9016C27.8252 22.5668 27.5465 23.4713 27.3135 24.073C27.0031 24.8702 26.6336 25.4386 26.0361 26.0361C25.4386 26.6336 24.8694 27.0031 24.0722 27.3135C23.4705 27.5481 22.5659 27.8252 20.9008 27.901C19.1008 27.9834 18.5599 28 13.9996 28C9.44096 28 8.90005 27.9842 7.10007 27.901Z" fill="url(#paint0_radial_1100_5247)"/>
<path id="Vector_2" d="M7.10007 27.901C5.4349 27.8252 4.53033 27.5481 3.92867 27.3135C3.13145 27.0031 2.56308 26.6336 1.96475 26.0361C1.36642 25.4386 0.996107 24.8702 0.687372 24.073C0.4527 23.4713 0.175588 22.5668 0.0998603 20.9016C0.0166434 19.1016 0 18.5615 0 14.0012C0 9.44096 0.0183077 8.90172 0.0990281 7.10007C0.174756 5.4349 0.453532 4.53199 0.68654 3.92867C0.996939 3.13145 1.36725 2.56308 1.96392 1.96392C2.56142 1.36642 3.12979 0.995274 3.92784 0.68654C4.5295 0.451868 5.43407 0.174756 7.09924 0.0990281C8.90005 0.0166434 9.44096 0 13.9996 0C18.5599 0 19.0991 0.0183077 20.9008 0.0990281C22.5659 0.174756 23.4688 0.453532 24.0722 0.68654C24.8694 0.995274 25.4378 1.36642 26.0361 1.96392C26.6344 2.56142 27.0031 3.13062 27.3135 3.92784C27.5481 4.5295 27.8252 5.43407 27.901 7.09924C27.9834 8.90088 28 9.44013 28 14.0004C28 18.559 27.9834 19.0999 27.901 20.9016C27.8252 22.5668 27.5465 23.4713 27.3135 24.073C27.0031 24.8702 26.6336 25.4386 26.0361 26.0361C25.4386 26.6336 24.8694 27.0031 24.0722 27.3135C23.4705 27.5481 22.5659 27.8252 20.9008 27.901C19.1008 27.9834 18.5599 28 13.9996 28C9.44096 28 8.90005 27.9842 7.10007 27.901Z" fill="url(#paint1_radial_1100_5247)"/>
<path id="Vector_3" d="M11.3055 14.0572C11.3055 12.5524 12.5251 11.3322 14.0299 11.3322C15.5347 11.3322 16.7549 12.5524 16.7549 14.0572C16.7549 15.562 15.5347 16.7823 14.0299 16.7823C12.5251 16.7823 11.3055 15.562 11.3055 14.0572ZM9.83242 14.0572C9.83242 16.3755 11.7116 18.2547 14.0299 18.2547C16.3482 18.2547 18.2274 16.3755 18.2274 14.0572C18.2274 11.739 16.3482 9.85976 14.0299 9.85976C11.7116 9.85976 9.83249 11.7388 9.83249 14.0572M17.4127 9.69333C17.4126 9.88734 17.47 10.077 17.5778 10.2384C17.6855 10.3997 17.8386 10.5255 18.0178 10.5998C18.1971 10.6742 18.3943 10.6937 18.5846 10.6559C18.7749 10.6181 18.9497 10.5248 19.0869 10.3876C19.2242 10.2505 19.3177 10.0757 19.3556 9.88548C19.3935 9.69521 19.3742 9.49797 19.3 9.3187C19.2258 9.13943 19.1002 8.98618 18.9389 8.87833C18.7776 8.77048 18.588 8.71287 18.394 8.7128H18.3936C18.1335 8.71292 17.8842 8.81625 17.7002 9.0001C17.5163 9.18395 17.4129 9.43328 17.4127 9.69333ZM10.7274 20.7111C9.93045 20.6748 9.49727 20.542 9.2094 20.4299C8.82775 20.2813 8.55545 20.1043 8.26915 19.8184C7.98284 19.5325 7.80562 19.2605 7.6577 18.8788C7.54548 18.5911 7.41273 18.1578 7.3765 17.3608C7.33687 16.4992 7.32896 16.2403 7.32896 14.0574C7.32896 11.8744 7.33752 11.6163 7.3765 10.7539C7.41279 9.95694 7.54653 9.52448 7.6577 9.23589C7.80628 8.85425 7.98324 8.58194 8.26915 8.29564C8.55505 8.00934 8.8271 7.83212 9.2094 7.68419C9.49714 7.57197 9.93045 7.43922 10.7274 7.40299C11.5891 7.36336 11.8479 7.35545 14.0299 7.35545C16.2119 7.35545 16.471 7.36389 17.3333 7.40312C18.1303 7.43942 18.5628 7.57315 18.8514 7.68432C19.233 7.83225 19.5053 8.00986 19.7916 8.29577C20.0779 8.58168 20.2545 8.85438 20.4031 9.23602C20.5153 9.52376 20.648 9.95707 20.6843 10.754C20.7239 11.6164 20.7318 11.8745 20.7318 14.0575C20.7318 16.2405 20.7239 16.4986 20.6843 17.3609C20.648 18.1579 20.5146 18.5911 20.4031 18.879C20.2545 19.2606 20.0775 19.5329 19.7916 19.8186C19.5057 20.1042 19.233 20.2814 18.8514 20.43C18.5636 20.5422 18.1303 20.675 17.3333 20.7112C16.4717 20.7508 16.2128 20.7587 14.0299 20.7587C11.8469 20.7587 11.5888 20.7508 10.7274 20.7112M10.6597 5.93232C9.78952 5.97195 9.19488 6.10993 8.67558 6.312C8.13809 6.52068 7.68248 6.80064 7.22753 7.25487C6.77257 7.70911 6.49334 8.16478 6.28466 8.70292C6.08259 9.22255 5.9446 9.81687 5.90497 10.6871C5.86469 11.5587 5.85547 11.8373 5.85547 14.0572C5.85547 16.2771 5.86469 16.5558 5.90497 17.4274C5.9446 18.2977 6.08259 18.8919 6.28466 19.4115C6.49334 19.949 6.77264 20.4055 7.22753 20.8596C7.68242 21.3136 8.13744 21.5932 8.67558 21.8025C9.19586 22.0045 9.78952 22.1425 10.6597 22.1821C11.5318 22.2218 11.81 22.2316 14.0299 22.2316C16.2498 22.2316 16.5284 22.2224 17.4 22.1821C18.2703 22.1425 18.8646 22.0045 19.3842 21.8025C19.9217 21.5932 20.3773 21.3138 20.8322 20.8596C21.2872 20.4053 21.5659 19.949 21.7751 19.4115C21.9772 18.8919 22.1158 18.2976 22.1548 17.4274C22.1944 16.5551 22.2037 16.2771 22.2037 14.0572C22.2037 11.8373 22.1944 11.5587 22.1548 10.6871C22.1152 9.8168 21.9772 9.22223 21.7751 8.70292C21.5659 8.16544 21.2865 7.70983 20.8322 7.25487C20.378 6.79992 19.9217 6.52068 19.3848 6.312C18.8646 6.10993 18.2703 5.97129 17.4007 5.93232C16.529 5.89249 16.2505 5.88281 14.0309 5.88281C11.8113 5.88281 11.5321 5.89203 10.6601 5.93232" fill="white"/>
</g>
</g>
<defs>
<radialGradient id="paint0_radial_1100_5247" cx="0" cy="0" r="1" gradientUnits="userSpaceOnUse" gradientTransform="translate(1.81213 27.3866) scale(35.5496)">
<stop offset="0.09" stop-color="#FA8F21"/>
<stop offset="0.78" stop-color="#D82D7E"/>
</radialGradient>
<radialGradient id="paint1_radial_1100_5247" cx="0" cy="0" r="1" gradientUnits="userSpaceOnUse" gradientTransform="translate(19.3946 26.4875) scale(31.284)">
<stop offset="0.64" stop-color="#8C3AAA" stop-opacity="0"/>
<stop offset="1" stop-color="#8C3AAA"/>
</radialGradient>
<clipPath id="clip0_1100_5247">
<rect width="28" height="28" fill="white"/>
</clipPath>
</defs>
</svg>
