<svg width="28" height="28" viewBox="0 0 28 28" fill="none" xmlns="http://www.w3.org/2000/svg">
<g id="Frame">
<g id="SVGRepo_iconCarrier">
<g id="7935ec95c421cee6d86eb22ecd125aef">
<path id="Vector" fill-rule="evenodd" clip-rule="evenodd" d="M7.44443 24.9419V9.46327H2.3002V24.9418H7.44443V24.9419ZM4.87286 7.35071C6.66619 7.35071 7.7833 6.16113 7.7833 4.6758C7.74939 3.15746 6.66619 2.00146 4.90649 2.00146C3.1465 2.00151 1.99609 3.15751 1.99609 4.67585C1.99609 6.16118 3.11259 7.35075 4.839 7.35075L4.87286 7.35071ZM10.2916 24.9419C10.2916 24.9419 10.3591 10.9156 10.2916 9.46332H15.4366V11.7081H15.4024C16.079 10.6518 17.2977 9.09984 20.0728 9.09984C23.4584 9.09984 25.9961 11.3121 25.9961 16.0666V24.9419H20.8519V16.6613C20.8519 14.5806 20.1076 13.1608 18.2454 13.1608C16.8245 13.1608 15.9776 14.118 15.6058 15.0433C15.4697 15.3726 15.4366 15.8352 15.4366 16.2978V24.9419H10.2916Z" fill="white"/>
</g>
</g>
</g>
</svg>
