<svg width="34" height="33" viewBox="0 0 34 33" fill="none" xmlns="http://www.w3.org/2000/svg">
<g id="Microsoft_Office_Outlook_(2018&#226;&#128;&#147;present) 1" clip-path="url(#clip0_1597_8636)">
<path id="Vector" d="M33.9993 17.289C34.0011 17.0232 33.8637 16.7757 33.6371 16.6367H33.6332L33.6189 16.6288L21.8375 9.65486C21.7867 9.62049 21.7339 9.58908 21.6794 9.56078C21.2245 9.32609 20.6841 9.32609 20.2292 9.56078C20.1748 9.5891 20.122 9.62049 20.0711 9.65486L8.28974 16.6288L8.27552 16.6367C7.91544 16.8606 7.80505 17.3341 8.02897 17.6941C8.09494 17.8002 8.18581 17.8886 8.2937 17.9516L20.0751 24.9256C20.1261 24.9597 20.1789 24.9911 20.2332 25.0197C20.6881 25.2544 21.2285 25.2544 21.6834 25.0197C21.7377 24.9911 21.7905 24.9597 21.8415 24.9256L33.6229 17.9516C33.8583 17.8144 34.0019 17.5615 33.9993 17.289Z" fill="#0A2767"/>
<path id="Vector_2" d="M9.66322 12.6328H17.3947V19.7198H9.66322V12.6328ZM32.4179 5.42875V2.18689C32.4365 1.37635 31.7949 0.703993 30.9844 0.68457H10.9212C10.1107 0.703993 9.46913 1.37635 9.4877 2.18689V5.42875L21.3482 8.59153L32.4179 5.42875Z" fill="#0364B8"/>
<path id="Vector_3" d="M9.48828 5.42871H17.3952V12.545H9.48828V5.42871Z" fill="#0078D4"/>
<path id="Vector_4" d="M25.3015 5.42871H17.3945V12.545L25.3015 19.6613H32.4178V12.545L25.3015 5.42871Z" fill="#28A8EA"/>
<path id="Vector_5" d="M17.3945 12.5449H25.3015V19.6612H17.3945V12.5449Z" fill="#0078D4"/>
<path id="Vector_6" d="M17.3945 19.6611H25.3015V26.7774H17.3945V19.6611Z" fill="#0364B8"/>
<path id="Vector_7" d="M9.66309 19.7197H17.3945V26.1623H9.66309V19.7197Z" fill="#14447D"/>
<path id="Vector_8" d="M25.3018 19.6611H32.418V26.7774H25.3018V19.6611Z" fill="#0078D4"/>
<path id="Vector_9" d="M33.6371 17.9082L33.6221 17.9161L21.8407 24.5421C21.7893 24.5737 21.7371 24.6038 21.6826 24.6307C21.4824 24.726 21.2651 24.7798 21.0437 24.7888L20.4 24.4124C20.3457 24.3852 20.2929 24.3548 20.2419 24.3215L8.30238 17.5073H8.29685L7.90625 17.2891V30.7025C7.91234 31.5974 8.64254 32.318 9.53745 32.3123H32.3933C32.4068 32.3123 32.4186 32.306 32.4329 32.306C32.6219 32.2939 32.8082 32.255 32.9864 32.1905C33.0633 32.1579 33.1376 32.1193 33.2085 32.0751C33.2615 32.0451 33.3524 31.9794 33.3524 31.9794C33.7575 31.6797 33.9972 31.2064 33.9992 30.7025V17.2891C33.999 17.5456 33.8606 17.7822 33.6371 17.9082Z" fill="url(#paint0_linear_1597_8636)"/>
<path id="Vector_10" opacity="0.5" d="M33.3674 17.236V18.0584L21.0483 26.5402L8.29435 17.5128C8.29435 17.5084 8.2908 17.5049 8.28644 17.5049L7.11621 16.8011V16.2081L7.59854 16.2002L8.61853 16.7853L8.64224 16.7932L8.72921 16.8486C8.72921 16.8486 20.7162 23.6881 20.7478 23.7039L21.2064 23.9727C21.2459 23.9569 21.2855 23.9411 21.3329 23.9253C21.3566 23.9095 33.2329 17.2281 33.2329 17.2281L33.3674 17.236Z" fill="#0A2767"/>
<path id="Vector_11" d="M33.6371 17.9082L33.6221 17.9169L21.8407 24.5429C21.7893 24.5745 21.7371 24.6046 21.6825 24.6315C21.225 24.855 20.6899 24.855 20.2324 24.6315C20.1782 24.6046 20.1254 24.5751 20.0743 24.5429L8.2929 17.9169L8.27867 17.9082C8.05121 17.7849 7.90861 17.5478 7.90625 17.2891V30.7025C7.91191 31.5972 8.64185 32.318 9.5366 32.3123C9.5366 32.3123 9.53663 32.3123 9.53667 32.3123H32.3688C33.2636 32.318 33.9936 31.5973 33.9993 30.7025C33.9993 30.7025 33.9993 30.7025 33.9993 30.7025V17.2891C33.999 17.5456 33.8606 17.7822 33.6371 17.9082Z" fill="#1490DF"/>
<path id="Vector_12" opacity="0.1" d="M22.0126 24.4453L21.8363 24.5442C21.7852 24.5767 21.7324 24.6065 21.6781 24.6335C21.4839 24.7288 21.2726 24.7848 21.0566 24.798L25.5391 30.0988L33.3583 31.983C33.5726 31.8212 33.743 31.6084 33.8541 31.3639L22.0126 24.4453Z" fill="black"/>
<path id="Vector_13" opacity="0.05" d="M22.8112 23.9961L21.8363 24.544C21.7852 24.5766 21.7324 24.6064 21.6781 24.6334C21.4839 24.7287 21.2726 24.7846 21.0566 24.7979L23.1567 30.5881L33.3607 31.9805C33.7627 31.6787 33.9993 31.2055 33.9995 30.7028V30.5296L22.8112 23.9961Z" fill="black"/>
<path id="Vector_14" d="M9.5588 32.3123H32.3665C32.7174 32.3141 33.0597 32.2032 33.343 31.996L20.3993 24.414C20.3449 24.3867 20.2921 24.3564 20.2411 24.3231L8.30159 17.5089H8.29605L7.90625 17.2891V30.6566C7.90536 31.5701 8.64523 32.3114 9.5588 32.3123Z" fill="#28A8EA"/>
<path id="Vector_15" opacity="0.1" d="M18.976 8.45911V25.3247C18.9746 25.916 18.615 26.4475 18.0667 26.6689C17.8968 26.7419 17.7139 26.7795 17.529 26.7796H7.90625V7.80046H9.48765V7.00977H17.529C18.3278 7.01279 18.9743 7.6603 18.976 8.45911Z" fill="black"/>
<path id="Vector_16" opacity="0.2" d="M18.1853 9.25019V26.1157C18.1873 26.3068 18.1468 26.4958 18.0667 26.6692C17.8471 27.2105 17.3224 27.5656 16.7383 27.5682H7.90625V7.80085H16.7383C16.9678 7.79855 17.1939 7.85577 17.3946 7.9669C17.8793 8.21109 18.1851 8.70746 18.1853 9.25019Z" fill="black"/>
<path id="Vector_17" opacity="0.2" d="M18.1853 9.25019V24.5344C18.1815 25.3328 17.5368 25.98 16.7384 25.9869H7.90625V7.80085H16.7383C16.9678 7.79855 17.1939 7.85577 17.3946 7.9669C17.8793 8.21109 18.1851 8.70746 18.1853 9.25019Z" fill="black"/>
<path id="Vector_18" opacity="0.2" d="M17.3946 9.25012V24.5343C17.3938 25.334 16.7473 25.9829 15.9476 25.9868H7.90625V7.80078H15.9476C16.7472 7.80121 17.395 8.44976 17.3946 9.24934C17.3946 9.2496 17.3946 9.24986 17.3946 9.25012Z" fill="black"/>
<path id="Vector_19" d="M1.44885 7.80078H15.9455C16.746 7.80078 17.3948 8.44968 17.3948 9.25012V23.7468C17.3948 24.5472 16.746 25.1961 15.9455 25.1961H1.44885C0.648397 25.1961 -0.000488281 24.5472 -0.000488281 23.7468V9.25012C-0.000488281 8.44968 0.648415 7.80078 1.44885 7.80078Z" fill="url(#paint1_linear_1597_8636)"/>
<path id="Vector_20" d="M4.52894 13.88C4.88616 13.119 5.46274 12.4821 6.18467 12.0512C6.98417 11.5934 7.89445 11.3653 8.81533 11.3917C9.66882 11.3732 10.511 11.5896 11.2499 12.0171C11.9446 12.4314 12.5041 13.0385 12.8605 13.7646C13.2487 14.5647 13.4421 15.4452 13.4251 16.3344C13.4439 17.2636 13.2449 18.1843 12.8439 19.0227C12.479 19.7748 11.9018 20.4035 11.1835 20.831C10.4161 21.2717 9.54264 21.4938 8.65798 21.4731C7.78626 21.4941 6.92551 21.2753 6.16965 20.8405C5.46892 20.4257 4.90239 19.818 4.53765 19.0899C4.1472 18.3014 3.95145 17.4308 3.96677 16.551C3.95051 15.6297 4.14269 14.7166 4.52894 13.88ZM6.29378 18.1735C6.48423 18.6547 6.80721 19.0719 7.22522 19.377C7.65099 19.6745 8.16082 19.8281 8.68009 19.815C9.23311 19.8369 9.77822 19.6781 10.233 19.3627C10.6457 19.0587 10.9602 18.6402 11.1376 18.1593C11.3358 17.6221 11.4337 17.0531 11.4262 16.4806C11.4323 15.9027 11.3403 15.3278 11.1542 14.7806C10.9898 14.2866 10.6854 13.8509 10.2781 13.5266C9.83469 13.1963 9.29105 13.0287 8.7386 13.0522C8.20807 13.0384 7.68682 13.1932 7.24973 13.4942C6.82465 13.8005 6.49554 14.2215 6.30089 14.7079C5.86909 15.8229 5.86684 17.0585 6.29456 18.1751L6.29378 18.1735Z" fill="white"/>
<path id="Vector_21" d="M25.3018 5.42871H32.418V12.545H25.3018V5.42871Z" fill="#50D9FF"/>
</g>
<defs>
<linearGradient id="paint0_linear_1597_8636" x1="20.9528" y1="17.2891" x2="20.9528" y2="32.3123" gradientUnits="userSpaceOnUse">
<stop stop-color="#35B8F1"/>
<stop offset="1" stop-color="#28A8EA"/>
</linearGradient>
<linearGradient id="paint1_linear_1597_8636" x1="3.02143" y1="6.66829" x2="14.3729" y2="26.3286" gradientUnits="userSpaceOnUse">
<stop stop-color="#1784D9"/>
<stop offset="0.5" stop-color="#107AD5"/>
<stop offset="1" stop-color="#0A63C9"/>
</linearGradient>
<clipPath id="clip0_1597_8636">
<rect width="34" height="31.6279" fill="white" transform="translate(0 0.686523)"/>
</clipPath>
</defs>
</svg>
