<svg width="32" height="33" viewBox="0 0 32 33" fill="none" xmlns="http://www.w3.org/2000/svg">
<g id="Layer_1" clip-path="url(#clip0_2156_2335)">
<g id="SVGRepo_iconCarrier">
<g id="Group 1171278644">
<g id="SVGRepo_iconCarrier_2">
<path id="Vector" d="M15.658 7.33006C13.9728 7.33006 12.6066 5.91303 12.6066 4.16503C12.6066 2.41703 13.9728 1 15.658 1C17.3433 1 18.7095 2.41703 18.7095 4.16503C18.7095 5.91303 17.3433 7.33006 15.658 7.33006Z" fill="#6139FF"/>
<path id="Vector_2" d="M15.66 16.0322C12.7108 16.0322 10.32 14.6152 10.32 12.8672C10.32 11.1192 12.7108 9.70215 15.66 9.70215C18.6092 9.70215 21 11.1192 21 12.8672C21 14.6152 18.6092 16.0322 15.66 16.0322Z" fill="#B09CFF"/>
</g>
</g>
<g id="Group 1171278648">
<g id="Group 1171278630">
<g id="SVGRepo_iconCarrier_3">
<path id="Vector_3" d="M24.0898 21.9147C22.0586 21.9147 20.412 20.207 20.412 18.1004C20.412 15.9938 22.0586 14.2861 24.0898 14.2861C26.121 14.2861 27.7676 15.9938 27.7676 18.1004C27.7676 20.207 26.121 21.9147 24.0898 21.9147Z" fill="#6139FF"/>
<path id="Vector_4" d="M24.0917 32.4039C20.5371 32.4039 17.6556 30.6962 17.6556 28.5897C17.6556 26.4831 20.5371 24.7754 24.0917 24.7754C27.6463 24.7754 30.5278 26.4831 30.5278 28.5897C30.5278 30.6962 27.6463 32.4039 24.0917 32.4039Z" fill="#B09CFF"/>
</g>
</g>
<g id="Group 1171278647">
<g id="SVGRepo_iconCarrier_4">
<path id="Vector_5" d="M6.93207 21.9127C4.90088 21.9127 3.25428 20.205 3.25428 18.0984C3.25428 15.9919 4.90088 14.2842 6.93207 14.2842C8.96326 14.2842 10.6099 15.9919 10.6099 18.0984C10.6099 20.205 8.96326 21.9127 6.93207 21.9127Z" fill="#6139FF"/>
<path id="Vector_6" d="M6.93398 32.402C3.3794 32.402 0.497843 30.6943 0.497843 28.5877C0.497843 26.4811 3.3794 24.7734 6.93398 24.7734C10.4886 24.7734 13.3701 26.4811 13.3701 28.5877C13.3701 30.6943 10.4886 32.402 6.93398 32.402Z" fill="#B09CFF"/>
</g>
</g>
</g>
</g>
</g>
<defs>
<clipPath id="clip0_2156_2335">
<rect width="32" height="32" fill="white" transform="translate(0 0.5)"/>
</clipPath>
</defs>
</svg>
