<svg width="20" height="20" viewBox="0 0 20 20" fill="none" xmlns="http://www.w3.org/2000/svg">
<g id="Frame">
<g id="SVGRepo_iconCarrier">
<path id="Vector" d="M10 12.5C11.3807 12.5 12.5 11.3807 12.5 10C12.5 8.61929 11.3807 7.5 10 7.5C8.61929 7.5 7.5 8.61929 7.5 10C7.5 11.3807 8.61929 12.5 10 12.5Z" stroke="#686A74" stroke-width="1.5"/>
<path id="Vector_2" d="M11.4725 1.79484C11.1662 1.66797 10.778 1.66797 10.0014 1.66797C9.2248 1.66797 8.83655 1.66797 8.53021 1.79484C8.12186 1.96399 7.7974 2.28845 7.62824 2.69683C7.55102 2.88325 7.5208 3.10005 7.50897 3.41629C7.4916 3.88104 7.25326 4.31121 6.8505 4.54374C6.44775 4.77627 5.95604 4.76759 5.54487 4.55027C5.26509 4.40239 5.06222 4.32015 4.86216 4.29382C4.42391 4.23612 3.9807 4.35488 3.63001 4.62397C3.367 4.82579 3.17286 5.16205 2.78457 5.83458C2.39629 6.50711 2.20215 6.84337 2.15887 7.17206C2.10118 7.6103 2.21994 8.05352 2.48903 8.40422C2.61185 8.5643 2.78446 8.6988 3.05237 8.86714C3.44621 9.11464 3.69962 9.53622 3.6996 10.0013C3.69957 10.4664 3.44617 10.8879 3.05236 11.1353C2.78442 11.3037 2.61178 11.4383 2.48895 11.5984C2.21986 11.9491 2.1011 12.3922 2.1588 12.8305C2.20206 13.1591 2.39621 13.4955 2.78449 14.168C3.17278 14.8405 3.36692 15.1768 3.62993 15.3786C3.98061 15.6476 4.42383 15.7664 4.86208 15.7087C5.06212 15.6824 5.26498 15.6001 5.54475 15.4523C5.95594 15.235 6.44768 15.2263 6.85046 15.4588C7.25325 15.6914 7.4916 16.1216 7.50897 16.5864C7.52081 16.9026 7.55102 17.1194 7.62824 17.3058C7.7974 17.7141 8.12186 18.0386 8.53021 18.2078C8.83655 18.3346 9.2248 18.3346 10.0014 18.3346C10.778 18.3346 11.1662 18.3346 11.4725 18.2078C11.8809 18.0386 12.2054 17.7141 12.3745 17.3058C12.4517 17.1194 12.482 16.9026 12.4938 16.5863C12.5111 16.1216 12.7495 15.6914 13.1522 15.4588C13.555 15.2262 14.0467 15.235 14.458 15.4523C14.7377 15.6001 14.9405 15.6823 15.1405 15.7086C15.5788 15.7664 16.022 15.6476 16.3727 15.3786C16.6357 15.1767 16.8299 14.8405 17.2181 14.1679C17.6065 13.4954 17.8006 13.1591 17.8439 12.8305C17.9015 12.3922 17.7828 11.949 17.5137 11.5983C17.3909 11.4382 17.2182 11.3036 16.9503 11.1353C16.5565 10.8879 16.3031 10.4663 16.3031 10.0012C16.3031 9.53614 16.5565 9.11472 16.9503 8.8673C17.2183 8.69889 17.391 8.56439 17.5138 8.40422C17.7829 8.05358 17.9016 7.61036 17.844 7.17211C17.8007 6.84343 17.6065 6.50716 17.2182 5.83464C16.83 5.16211 16.6358 4.82584 16.3728 4.62403C16.0221 4.35494 15.5789 4.23618 15.1406 4.29388C14.9406 4.32021 14.7378 4.40244 14.458 4.5503C14.0468 4.76763 13.555 4.77632 13.1523 4.54377C12.7495 4.31123 12.5111 3.88102 12.4938 3.41625C12.482 3.10004 12.4517 2.88324 12.3745 2.69683C12.2054 2.28845 11.8809 1.96399 11.4725 1.79484Z" stroke="#686A74" stroke-width="1.5"/>
</g>
</g>
</svg>
