<svg width="20" height="20" viewBox="0 0 20 20" fill="none" xmlns="http://www.w3.org/2000/svg">
<g id="Frame">
<g id="Group 1171278736">
<path id="Vector 6959" d="M17.5 2.5H18.25V1.75H17.5V2.5ZM16.75 7.5C16.75 7.91421 17.0858 8.25 17.5 8.25C17.9142 8.25 18.25 7.91421 18.25 7.5H16.75ZM12.5 1.75C12.0858 1.75 11.75 2.08579 11.75 2.5C11.75 2.91421 12.0858 3.25 12.5 3.25V1.75ZM7.53033 13.5303L18.0303 3.03033L16.9697 1.96967L6.46967 12.4697L7.53033 13.5303ZM16.75 2.5V7.5H18.25V2.5H16.75ZM17.5 1.75H12.5V3.25H17.5V1.75Z" fill="#686A74"/>
<path id="Vector 6960" d="M17.5 11.0003L17.5001 16.0003C17.5002 17.1049 16.6047 18.0003 15.5001 18.0003H4.64641C3.5503 18.0003 2.65841 17.1181 2.64653 16.022L2.52191 4.52167C2.50985 3.40869 3.40875 2.5 4.52179 2.5H8.5" stroke="#686A74" stroke-width="1.5" stroke-linecap="round"/>
</g>
</g>
</svg>
