<svg width="28" height="28" viewBox="0 0 28 28" fill="none" xmlns="http://www.w3.org/2000/svg">
<g id="icons">
<g id="SVGRepo_iconCarrier">
<path id="Vector" d="M21.9868 6.97695C21.8211 6.89133 21.6598 6.79746 21.5035 6.6957C21.0491 6.39526 20.6324 6.04124 20.2625 5.64127C19.3369 4.58224 18.9912 3.50786 18.8639 2.75565H18.869C18.7626 2.13127 18.8066 1.72729 18.8133 1.72729H14.5976V18.0285C14.5976 18.2474 14.5976 18.4637 14.5884 18.6775C14.5884 18.7041 14.5858 18.7286 14.5843 18.7572C14.5843 18.769 14.5843 18.7813 14.5817 18.7935C14.5817 18.7966 14.5817 18.7997 14.5817 18.8028C14.5373 19.3876 14.3498 19.9526 14.0357 20.4481C13.7217 20.9435 13.2907 21.3541 12.7807 21.6439C12.2492 21.9463 11.648 22.1049 11.0364 22.1041C9.07229 22.1041 7.48042 20.5025 7.48042 18.5246C7.48042 16.5466 9.07229 14.945 11.0364 14.945C11.4082 14.9447 11.7778 15.0032 12.1313 15.1184L12.1364 10.826C11.0632 10.6874 9.97297 10.7727 8.93442 11.0765C7.89586 11.3803 6.93154 11.8961 6.10229 12.5912C5.37568 13.2225 4.76481 13.9758 4.29718 14.8172C4.11923 15.124 3.44781 16.3569 3.3665 18.3579C3.31536 19.4936 3.65644 20.6703 3.81906 21.1566V21.1668C3.92133 21.4531 4.31764 22.4304 4.96349 23.2542C5.48428 23.915 6.09958 24.4955 6.78957 24.977V24.9667L6.79979 24.977C8.84065 26.3638 11.1034 26.2728 11.1034 26.2728C11.4951 26.2569 12.8073 26.2728 14.2974 25.5666C15.9501 24.7837 16.891 23.6172 16.891 23.6172C17.4921 22.9203 17.9701 22.126 18.3045 21.2685C18.6859 20.2658 18.8133 19.063 18.8133 18.5824V9.93417C18.8644 9.96485 19.5455 10.4154 19.5455 10.4154C19.5455 10.4154 20.5268 11.0443 22.0579 11.4539C23.1563 11.7454 24.6362 11.8068 24.6362 11.8068V7.62178C24.1176 7.67803 23.0647 7.5144 21.9868 6.97695Z" fill="white"/>
</g>
</g>
</svg>
