<svg width="18" height="18" viewBox="0 0 18 18" fill="none" xmlns="http://www.w3.org/2000/svg">
<g id="trash-2">
<path id="Vector" d="M2.25 4.5H3.75H15.75" stroke="#686A74" stroke-width="1.5" stroke-linecap="round" stroke-linejoin="round"/>
<path id="Vector_2" d="M14.2471 4.5V15C14.2471 15.3978 14.089 15.7794 13.8077 16.0607C13.5264 16.342 13.1449 16.5 12.7471 16.5H5.24707C4.84925 16.5 4.46771 16.342 4.18641 16.0607C3.90511 15.7794 3.74707 15.3978 3.74707 15V4.5M5.99707 4.5V3C5.99707 2.60218 6.15511 2.22064 6.43641 1.93934C6.71772 1.65804 7.09925 1.5 7.49707 1.5H10.4971C10.8949 1.5 11.2764 1.65804 11.5577 1.93934C11.839 2.22064 11.9971 2.60218 11.9971 3V4.5" stroke="#686A74" stroke-width="1.5" stroke-linecap="round" stroke-linejoin="round"/>
<path id="Vector_3" d="M7.50098 8.25V12.75" stroke="#686A74" stroke-width="1.5" stroke-linecap="round" stroke-linejoin="round"/>
<path id="Vector_4" d="M10.4971 8.25V12.75" stroke="#686A74" stroke-width="1.5" stroke-linecap="round" stroke-linejoin="round"/>
</g>
</svg>
