<svg width="28" height="28" viewBox="0 0 28 28" fill="none" xmlns="http://www.w3.org/2000/svg">
<g id="Frame" clip-path="url(#clip0_819_2502)">
<g id="SVGRepo_iconCarrier">
<g id="Page-1">
<g id="Dribbble-Light-Preview">
<g id="icons">
<path id="youtube-[#168]" fill-rule="evenodd" clip-rule="evenodd" d="M11.3638 17.3787V10.0323C13.9718 11.2595 15.9917 12.445 18.3806 13.7231C16.4103 14.8158 13.9718 16.0418 11.3638 17.3787ZM25.8981 6.37862C25.4482 5.78591 24.6815 5.32454 23.8652 5.1718C21.4659 4.71617 6.49736 4.71487 4.09932 5.1718C3.44472 5.29451 2.86182 5.59113 2.36109 6.05198C0.25123 8.01025 0.912358 18.5118 1.42092 20.2129C1.63477 20.9492 1.91123 21.4803 2.25939 21.8288C2.70796 22.2897 3.32213 22.607 4.02759 22.7493C6.00314 23.1579 16.1808 23.3864 23.8235 22.8106C24.5276 22.6879 25.1509 22.3604 25.6425 21.88C27.5933 19.9295 27.4603 8.8382 25.8981 6.37862Z" fill="white"/>
</g>
</g>
</g>
</g>
</g>
<defs>
<clipPath id="clip0_819_2502">
<rect width="26.1818" height="26.1818" fill="white" transform="translate(0.90625 0.90918)"/>
</clipPath>
</defs>
</svg>
