<svg width="18" height="18" viewBox="0 0 18 18" fill="none" xmlns="http://www.w3.org/2000/svg">
<g id="Frame" clip-path="url(#clip0_3493_1650)">
<g id="SVGRepo_iconCarrier">
<path id="Vector" d="M15.3 0H2.7C1.20883 0 0 1.20883 0 2.7V15.3C0 16.7912 1.20883 18 2.7 18H15.3C16.7912 18 18 16.7912 18 15.3V2.7C18 1.20883 16.7912 0 15.3 0Z" fill="#2D8CFF"/>
<path id="Vector_2" d="M15.0469 12.5508C15.3281 12.6211 15.5742 12.4805 15.7148 12.2695C15.7852 12.1641 15.7852 11.9883 15.7852 11.6016V6.29297C15.7852 5.90625 15.7852 5.76562 15.7148 5.625C15.6094 5.34375 15.3281 5.23828 15.0469 5.34375C14.3086 5.83594 12.6914 7.27734 12.6562 7.875C12.6281 7.98047 12.6281 8.15625 12.6281 8.40234V9.73828C12.6281 10.0195 12.6281 10.125 12.6562 10.2656C12.6914 10.5469 12.7969 10.793 12.9375 10.9336C13.3594 11.25 14.7656 12.5156 15.082 12.5156L15.0469 12.5508ZM2.25 6.57422C2.25 6.04688 2.25 5.76562 2.35547 5.625C2.42578 5.48438 2.63672 5.34375 2.74219 5.23828C2.88281 5.13281 3.12891 5.13281 3.69141 5.13281H8.22656C9.5625 5.13281 10.2305 5.13281 10.7578 5.41406C11.1445 5.69531 11.5664 5.94141 11.8125 6.46875C12.0938 6.99609 12.0938 7.66406 12.0938 9V11.3906C12.0938 11.918 12.0938 12.1992 11.9883 12.3398C11.918 12.4805 11.707 12.6211 11.6016 12.7266C11.4609 12.832 11.2148 12.832 10.6523 12.832H6.11719C4.78125 12.832 4.11328 12.832 3.58594 12.5508C3.19922 12.2695 2.77734 12.0234 2.53125 11.4961C2.25 10.9688 2.25 10.3008 2.25 8.96484V6.57422Z" fill="white"/>
</g>
</g>
<defs>
<clipPath id="clip0_3493_1650">
<rect width="18" height="18" fill="white"/>
</clipPath>
</defs>
</svg>
