<svg width="79" height="96" viewBox="0 0 79 96" fill="none" xmlns="http://www.w3.org/2000/svg">
<g id="Group 1171278679">
<g id="Laptop">
<path id="Vector" d="M6.92984 65.1407L72.1026 65.1407C73.0042 65.1407 73.777 65.7847 73.938 66.6863L78.5748 93.2835C78.768 94.3139 78.0596 95.2799 77.0614 95.4409C76.9648 95.4731 76.836 95.4731 76.7394 95.4731L2.26083 95.4731C1.23043 95.4731 0.393234 94.6359 0.393234 93.6055C0.393234 93.5089 0.393234 93.3801 0.425438 93.2835L5.06224 66.6863C5.22324 65.7847 5.99604 65.1407 6.92984 65.1407Z" fill="white"/>
<path id="Vector_2" d="M13.9172 78.1493L65.1152 78.1493C65.244 78.1493 65.3406 78.2459 65.3406 78.3747C65.3406 78.5035 65.244 78.6001 65.1152 78.6001L13.9494 78.6001C13.8206 78.6001 13.724 78.5035 13.724 78.3747C13.6918 78.2459 13.7884 78.1493 13.9172 78.1493Z" fill="#231F20"/>
</g>
<g id="hand">
<path id="Vector_3" d="M22.1158 6.31149L24.0478 21.7675C24.0478 21.7675 22.47 34.7441 24.0478 41.4739C25.6256 48.2037 32.6452 54.1285 34.9958 55.3843C35.2534 55.5131 36.4126 54.9657 36.638 54.8691C37.6362 54.5149 38.6022 54.0641 39.5038 53.5167C41.4036 52.4219 43.3034 51.1339 44.4304 49.2019C45.3642 47.6241 45.6218 45.7243 45.5896 43.8889C47.747 43.6313 48.874 40.7977 47.9724 38.9623C46.8776 36.7727 42.4984 30.2039 42.6594 29.4311C42.8204 28.6583 42.4018 22.3793 38.6988 17.5493L39.0208 4.66929L22.1158 6.31149Z" fill="white"/>
<path id="Vector_4" d="M38.9886 4.4439C39.053 4.4439 39.0852 4.47609 39.1496 4.50829C39.214 4.54049 39.214 4.60489 39.214 4.66929L38.892 17.4849C42.5628 22.3149 43.0458 28.5617 42.8526 29.4955C42.8204 29.9463 44.6558 33.0053 45.9116 35.0339C46.8454 36.5795 47.747 38.0285 48.1656 38.8657C48.6808 39.9927 48.6164 41.2807 48.0046 42.3755C47.586 43.2449 46.7488 43.8889 45.815 44.0821C45.8472 46.1429 45.4608 47.8817 44.6236 49.2985C43.4966 51.2627 41.5324 52.5507 39.6326 53.6777C38.6988 54.2251 37.7328 54.7081 36.7024 55.0623C36.638 55.0945 36.5736 55.1267 36.4448 55.1589C35.5754 55.5131 35.1246 55.6741 34.8992 55.5453C32.291 54.1607 25.4002 48.1393 23.8546 41.4739C22.3412 34.9373 23.758 22.4115 23.8546 21.7353L21.9226 6.31149C21.9226 6.24709 21.9226 6.18269 21.9548 6.15049C21.987 6.11829 22.0514 6.0861 22.1158 6.0539L38.9886 4.4439ZM35.0924 55.1589C35.4788 55.0623 35.8652 54.9335 36.2516 54.7403C36.3804 54.6759 36.5092 54.6437 36.5414 54.6115C37.5396 54.2573 38.4734 53.8065 39.375 53.2591C41.2426 52.1643 43.1424 50.9085 44.205 49.0409C45.01 47.6563 45.3964 45.9175 45.332 43.8567C45.332 43.7279 45.3964 43.6313 45.5252 43.6313C46.4268 43.5025 47.1996 42.9229 47.586 42.1179C48.1334 41.1519 48.1656 40.0249 47.747 39.0267C47.3284 38.2217 46.459 36.7405 45.5252 35.2271C43.3356 31.6207 42.3052 29.8819 42.434 29.3667C42.595 28.5939 42.112 22.3793 38.5056 17.6781C38.4734 17.6459 38.4412 17.5815 38.4734 17.5493L38.7954 4.9269L22.4056 6.5369L24.3054 21.7353C24.3054 21.7675 24.3054 21.7675 24.3054 21.7997C24.3054 21.9285 22.7598 34.8085 24.3054 41.4095C25.7866 47.8817 32.5164 53.8065 35.0924 55.1589Z" fill="#231F20"/>
<path id="Vector_5" d="M51.7398 78.1812L59.0492 51.2942C59.5966 49.33 58.4374 47.3336 56.4732 46.7862L32.8706 40.3784C30.9064 39.831 28.91 40.9902 28.3626 42.9222C28.3626 42.9222 28.3626 42.9222 28.3626 42.9544L18.767 78.1811L51.7398 78.1812Z" fill="white"/>
<path id="Vector_6" d="M18.7993 78.1815L28.3949 42.9547C28.8135 41.3447 30.2947 40.2499 31.9369 40.2499C32.2589 40.2499 32.5809 40.2821 32.9029 40.3787L56.4733 46.7865C58.4375 47.3017 59.5967 49.3303 59.0493 51.2945L51.7399 78.1815L18.7993 78.1815ZM18.7993 78.6323L51.7399 78.6323C51.9331 78.6323 52.1263 78.5035 52.1907 78.3103L59.4679 51.3911C60.0475 49.2015 58.7595 46.9475 56.5699 46.3357L32.9673 39.9279C30.7777 39.3161 28.5237 40.6363 27.9119 42.8259L18.3485 78.0205C18.3163 78.0849 18.3163 78.1171 18.3163 78.1815C18.3163 78.4391 18.5095 78.6323 18.7993 78.6323Z" fill="#231F20"/>
<path id="Vector_7" d="M35.2536 78.1812L35.7688 76.2814C36.1552 74.8646 35.318 73.4156 33.9012 73.0292L27.9442 71.4192C26.5274 71.0328 25.0784 71.87 24.692 73.2868L23.5328 77.505C23.4684 77.7304 23.4362 77.9558 23.4684 78.2134L35.2536 78.1812Z" fill="#68E1FD"/>
<path id="Vector_8" d="M31.0675 56.0602C30.1981 55.8348 29.6829 54.9332 29.9083 54.0638L32.1301 45.9494C32.3555 45.08 33.2571 44.5648 34.1265 44.7902C34.9959 45.0156 35.5111 45.9172 35.2857 46.7866L33.0639 54.901C32.8385 55.8026 31.9369 56.3178 31.0675 56.0602Z" fill="#D1D3D4"/>
<path id="Vector_9" d="M45.6863 78.1812C45.5897 78.0202 45.4287 77.9236 45.2355 77.8592L43.5611 77.4083C43.1103 77.2795 42.6595 77.5372 42.5629 77.988L42.4985 78.1812L45.6863 78.1812Z" fill="#D1D3D4"/>
<path id="Vector_10" d="M45.6541 76.2173L43.9797 75.7665C43.5289 75.6377 43.2713 75.1869 43.4001 74.7683L45.0745 68.6503C45.2033 68.1995 45.6541 67.9419 46.0727 68.0707L47.7471 68.5215C48.1979 68.6503 48.4555 69.1011 48.3267 69.5197L46.6523 75.6377C46.5557 76.0885 46.1049 76.3461 45.6541 76.2173Z" fill="#D1D3D4"/>
<path id="Vector_11" d="M48.1978 66.912L46.5234 66.4612C46.0726 66.3324 45.815 65.8816 45.9438 65.463L47.6182 59.345C47.747 58.8942 48.1978 58.6366 48.6164 58.7654L50.2908 59.2162C50.7416 59.345 50.9992 59.7958 50.8704 60.2144L49.196 66.3324C49.0672 66.751 48.6164 67.0408 48.1978 66.912Z" fill="#D1D3D4"/>
<path id="Vector_12" d="M50.7418 57.5738L49.0674 57.123C48.6166 56.9942 48.359 56.5434 48.4878 56.1248L50.1622 50.0068C50.291 49.556 50.7418 49.2984 51.1604 49.4272L52.8348 49.878C53.2856 50.0068 53.5432 50.4576 53.4144 50.8762L51.74 56.9942C51.6112 57.445 51.1604 57.7026 50.7418 57.5738Z" fill="#D1D3D4"/>
<path id="Vector_13" d="M39.6649 24.0854C39.6649 24.0854 39.6649 28.7866 39.0531 34.5504C39.0531 34.5504 43.8831 47.527 42.3375 50.0386C40.7919 52.5502 38.1193 50.9724 36.7025 48.6218C35.2857 46.2712 30.6167 35.1622 30.6167 35.1622" fill="white"/>
<path id="Vector_14" d="M39.665 23.8602C39.7938 23.8602 39.8904 23.9568 39.8904 24.0856C39.8904 24.1178 39.8904 28.819 39.2786 34.5184C39.665 35.5166 44.0764 47.6238 42.5308 50.1354C41.9512 51.037 41.2106 51.52 40.3412 51.52L40.309 51.52C39.021 51.52 37.5398 50.4252 36.5094 48.7186C35.0926 46.4002 30.5846 35.7098 30.3914 35.259C30.3592 35.1302 30.4236 35.0014 30.5202 34.9692C30.6168 34.937 30.7456 34.9692 30.81 35.098C30.8422 35.1946 35.5112 46.207 36.8958 48.5254C37.8295 50.071 39.1498 51.0692 40.309 51.1014L40.3412 51.1014C41.0496 51.1014 41.6614 50.715 42.1444 49.9422C43.368 47.978 40.1802 38.2536 38.86 34.6472C38.86 34.615 38.86 34.5828 38.86 34.5506C39.4718 28.8512 39.4718 24.15 39.4718 24.0856C39.4396 23.989 39.5362 23.8924 39.665 23.8602Z" fill="#231F20"/>
<path id="Vector_15" d="M41.2429 32.9403C41.3395 32.9403 41.4039 32.9725 41.4361 33.0691C41.5649 33.2945 44.3985 38.2533 45.2357 40.1209C45.7509 41.2479 45.9119 42.5037 45.6543 43.6951C45.6221 43.8239 45.4933 43.8883 45.3645 43.8239C45.2679 43.7917 45.2035 43.6629 45.2035 43.5663C45.4289 42.4393 45.2679 41.3123 44.7849 40.2819C43.9799 38.4465 41.0497 33.3267 41.0175 33.2623C40.9531 33.1657 40.9853 33.0047 41.0819 32.9403C41.0819 32.9403 41.0819 32.9403 41.1141 32.9403C41.1785 32.9403 41.2107 32.9403 41.2429 32.9403Z" fill="#231F20"/>
<path id="Vector_16" d="M42.1121 30.429C42.4341 30.429 42.7239 30.5256 42.9815 30.6866C43.3357 30.912 43.6255 31.2018 43.8831 31.4916C43.9797 31.5882 43.9797 31.717 43.8831 31.8136C43.7865 31.9102 43.6577 31.9102 43.5611 31.8136C43.3357 31.5238 43.0459 31.2984 42.7561 31.073C42.4985 30.8798 42.1443 30.8476 41.8223 30.912C41.4359 31.1052 41.1783 31.5238 41.1783 31.9424C41.1783 32.4254 41.3071 32.9084 41.5003 33.3592C41.5325 33.488 41.5003 33.6168 41.3715 33.649C41.2749 33.6812 41.1461 33.649 41.1139 33.5524C40.9207 33.2304 40.5665 33.005 40.1801 32.9728C39.9869 32.9728 39.7937 33.0694 39.6649 33.1982C39.5683 33.2948 39.5039 33.4236 39.5039 33.5524C39.5039 33.6812 39.4073 33.7778 39.2785 33.7778C39.1497 33.7778 39.0531 33.6812 39.0531 33.5524C39.0531 33.2948 39.1497 33.0372 39.3429 32.844C39.5683 32.6186 39.8581 32.4898 40.1801 32.4576C40.4055 32.4576 40.6309 32.522 40.8241 32.6186C40.7597 32.361 40.7275 32.0712 40.7275 31.8136C40.7275 31.2018 41.0817 30.6222 41.6613 30.3646C41.8223 30.4612 41.9511 30.429 42.1121 30.429Z" fill="#231F20"/>
<path id="Vector_17" d="M19.6043 0.225423L41.5969 0.225425L40.4377 12.4614L21.2465 12.4614L19.6043 0.225423Z" fill="#231F20"/>
<path id="Vector_18" d="M19.6045 0.000202141L41.6293 0.000204067C41.6937 0.000204072 41.7581 0.0324078 41.7903 0.0646076C41.8225 0.0968075 41.8547 0.161208 41.8547 0.225608L40.6955 12.4938C40.6955 12.6226 40.5989 12.687 40.4701 12.687L21.3111 12.687C21.1823 12.687 21.1179 12.5904 21.0857 12.4938L19.4113 0.225606C19.4113 0.161206 19.4113 0.0968036 19.4757 0.0324039C19.4435 0.0324039 19.5079 0.000202133 19.6045 0.000202141ZM41.3717 0.451012L19.8621 0.45101L21.4721 12.2684L40.2447 12.2684L41.3717 0.451012Z" fill="#231F20"/>
</g>
</g>
</svg>
