<svg width="18" height="18" viewBox="0 0 18 18" fill="none" xmlns="http://www.w3.org/2000/svg">
<g id="Frame">
<g id="SVGRepo_iconCarrier">
<path id="Vector" fill-rule="evenodd" clip-rule="evenodd" d="M7.33333 15.75H10.6667C13.0075 15.75 14.1778 15.75 15.0186 15.1985C15.3825 14.9597 15.695 14.6528 15.9382 14.2955C16.5 13.4701 16.5 12.3209 16.5 10.0227C16.5 7.72455 16.5 6.57541 15.9382 5.74995C15.695 5.39261 15.3825 5.08578 15.0186 4.84701C14.4783 4.4926 13.802 4.36592 12.7665 4.32064C12.2723 4.32064 11.8469 3.95301 11.75 3.47727C11.6046 2.76367 10.9664 2.25 10.2253 2.25H7.77472C7.03354 2.25 6.39536 2.76367 6.25 3.47727C6.15309 3.95301 5.72764 4.32064 5.2335 4.32064C4.198 4.36592 3.52166 4.4926 2.98143 4.84701C2.61746 5.08578 2.30496 5.39261 2.06177 5.74995C1.5 6.57541 1.5 7.72455 1.5 10.0227C1.5 12.3209 1.5 13.4701 2.06177 14.2955C2.30496 14.6528 2.61746 14.9597 2.98143 15.1985C3.82218 15.75 4.99256 15.75 7.33333 15.75ZM9 6.95455C7.27411 6.95455 5.875 8.32822 5.875 10.0227C5.875 11.7172 7.27411 13.0909 9 13.0909C10.7259 13.0909 12.125 11.7172 12.125 10.0227C12.125 8.32822 10.7259 6.95455 9 6.95455ZM9 8.18182C7.96448 8.18182 7.125 9.006 7.125 10.0227C7.125 11.0394 7.96448 11.8637 9 11.8637C10.0355 11.8637 10.875 11.0394 10.875 10.0227C10.875 9.006 10.0355 8.18182 9 8.18182ZM12.5417 7.56818C12.5417 7.22928 12.8215 6.95455 13.1667 6.95455H14C14.3452 6.95455 14.625 7.22928 14.625 7.56818C14.625 7.9071 14.3452 8.18182 14 8.18182H13.1667C12.8215 8.18182 12.5417 7.9071 12.5417 7.56818Z" fill="white"/>
</g>
</g>
</svg>
