<svg width="150" height="110" viewBox="0 0 150 110" fill="none" xmlns="http://www.w3.org/2000/svg">
<g id="work-video-conference">
<g id="Group 1">
<g id="Group">
<path id="Vector" d="M71.2812 13.2468C65.6885 13.4028 61.2777 17.6718 61.4337 22.7808C61.6047 28.7283 67.7232 32.8128 73.8567 31.4748L73.529 27.6183C73.4576 26.9792 73.513 26.3322 73.6919 25.7144C73.8707 25.0967 74.1695 24.5203 74.5713 24.0181C74.9731 23.5159 75.47 23.0978 76.0333 22.7876C76.5965 22.4776 77.216 22.2815 77.855 22.2108L81.6545 21.8838C81.3418 16.9323 76.7593 13.0901 71.2812 13.2468Z" fill="#54D3E2"/>
<path id="Vector_2" fill-rule="evenodd" clip-rule="evenodd" d="M65.9883 113.124L111.58 109.282C112.825 109.176 113.977 108.579 114.783 107.624C115.589 106.668 115.983 105.432 115.878 104.187L113.231 73.0953C113.124 71.8503 112.528 70.6986 111.573 69.8929C110.618 69.0871 109.382 68.6933 108.137 68.7978L83.7769 70.8475C83.3464 71.504 83.0659 71.846 82.4194 72.3542C81.7256 72.8847 80.9164 73.2426 80.0569 73.3984C79.1981 73.5541 78.3139 73.5031 77.4784 73.2497C76.6429 72.9963 75.8794 72.5477 75.2516 71.941C75.1406 71.8316 75.0296 71.7218 74.9188 71.6117L67.3192 72.2501C69.8402 81.1968 70.105 87.4038 70.2901 96.268C70.4435 98.8735 70.0868 101.484 69.2401 103.953L65.9883 113.124ZM92.5406 92.8893L97.1374 95.038L96.3116 85.276L92.1424 88.1785C91.9961 87.259 91.5064 86.4295 90.7721 85.8565C90.0379 85.2835 89.1146 85.0105 88.1869 85.0915L79.2926 85.8603C78.8089 85.9 78.3379 86.0358 77.9059 86.2585C77.4746 86.4813 77.0921 86.788 76.7801 87.16C76.4674 87.5313 76.2326 87.9618 76.0871 88.4253C75.9424 88.888 75.8906 89.3755 75.9349 89.8593L76.2904 93.9843C76.3301 94.468 76.4659 94.939 76.6886 95.3703C76.9114 95.8015 77.2181 96.1848 77.5901 96.4968C77.9614 96.8088 78.3919 97.0443 78.8546 97.1898C79.3181 97.3345 79.8056 97.3863 80.2894 97.342L89.1686 96.6025C89.6516 96.5613 90.1226 96.4248 90.5531 96.2013C90.9836 95.9778 91.3654 95.671 91.6774 95.2998C91.9894 94.9285 92.2249 94.4988 92.3704 94.036C92.4874 93.664 92.5451 93.2763 92.5406 92.8878V92.8893Z" fill="#54D3E2"/>
<path id="Vector_3" d="M125.95 73.2244C125.989 73.5642 125.96 73.9083 125.865 74.2368C125.77 74.5653 125.611 74.8717 125.397 75.1384C125.182 75.4054 124.918 75.6267 124.618 75.7902C124.318 75.9544 123.988 76.0572 123.648 76.0924C123.307 76.1284 122.964 76.0962 122.636 75.9987C122.308 75.9004 122.003 75.7392 121.738 75.5224C121.474 75.3057 121.255 75.0394 121.093 74.7377C120.932 74.4361 120.832 74.1056 120.799 73.7652L120.387 69.8652C120.322 69.1854 120.527 68.5072 120.959 67.9783C121.392 67.4495 122.015 67.1128 122.695 67.0415C123.373 66.9702 124.054 67.1701 124.586 67.5976C125.119 68.0252 125.461 68.6458 125.538 69.3244L125.95 73.2244Z" fill="#54D3E2"/>
</g>
<g id="Group_2">
<path id="Vector_4" d="M97.4062 26.2253C97.6267 26.7428 97.794 27.2817 97.9043 27.8333C98.331 26.937 98.583 25.9674 98.646 24.9766C98.2042 25.4603 97.791 25.8698 97.4062 26.2253Z" fill="#E9E9E9"/>
<path id="Vector_5" d="M58.7148 45.7891C58.8372 46.462 59.068 47.1107 59.3981 47.7098C60.4938 47.7098 61.7036 47.5681 62.0021 47.1271C62.0448 47.0521 62.0876 46.9703 62.1303 46.8848C61.7178 47.6978 60.2253 46.8728 58.7148 45.7891Z" fill="#E9E9E9"/>
<path id="Vector_6" d="M21.0487 77.438C18.4019 73.6385 1.56821 87.5128 3.98696 91.013L4.39946 91.3828C7.90043 93.3328 23.1119 80.4268 21.0487 77.438Z" fill="#E9E9E9"/>
<path id="Vector_7" d="M17.3041 89.5039C17.2374 89.7492 17.2183 90.0057 17.2479 90.2584C17.3904 91.1689 18.5566 91.2117 19.3396 90.9979C18.7913 90.3432 18.093 89.8309 17.3041 89.5039Z" fill="#E9E9E9"/>
<path id="Vector_8" d="M24.8633 82.0761C25.404 82.7451 25.959 83.4134 26.457 84.0261C26.5404 83.7876 26.5931 83.5386 26.6138 83.2866C26.628 83.0729 26.5865 82.8584 26.4933 82.6656C26.4 82.4721 26.2583 82.3071 26.0819 82.1849C25.9056 82.0626 25.7005 81.9891 25.487 81.9696C25.2734 81.9509 25.0585 81.9876 24.8633 82.0761Z" fill="#E9E9E9"/>
<path id="Vector_9" d="M50.7592 53.248C50.6015 53.265 50.4524 53.3282 50.3307 53.4299C50.2091 53.5315 50.1203 53.667 50.0755 53.8191C50.0308 53.9712 50.0322 54.1332 50.0795 54.2846C50.1269 54.4359 50.2181 54.5698 50.3415 54.6693C50.465 54.7689 50.6151 54.8295 50.7731 54.8437C50.931 54.8579 51.0896 54.8249 51.2288 54.749C51.368 54.673 51.4815 54.5575 51.555 54.417C51.6286 54.2766 51.6588 54.1174 51.6419 53.9598C51.6322 53.8545 51.6014 53.7522 51.5514 53.6591C51.5015 53.5659 51.4333 53.4837 51.351 53.4173C51.2687 53.351 51.1739 53.3018 51.0722 53.2727C50.9706 53.2436 50.8641 53.2352 50.7592 53.248Z" fill="#E9E9E9"/>
<path id="Vector_10" d="M45.0678 59.8641C44.9101 59.8811 44.761 59.9443 44.6393 60.046C44.5176 60.1476 44.4288 60.2831 44.3841 60.4352C44.3394 60.5873 44.3408 60.7494 44.3881 60.9007C44.4355 61.052 44.5266 61.1859 44.6501 61.2855C44.7735 61.385 44.9237 61.4457 45.0816 61.4598C45.2396 61.474 45.3981 61.441 45.5373 61.3651C45.6765 61.2891 45.7901 61.1736 45.8637 61.0331C45.9372 60.8927 45.9674 60.7335 45.9505 60.5759C45.9395 60.4711 45.9079 60.3695 45.8575 60.277C45.8071 60.1844 45.7389 60.1028 45.657 60.0366C45.5749 59.9706 45.4806 59.9213 45.3795 59.8916C45.2784 59.862 45.1725 59.8526 45.0678 59.8641Z" fill="#E9E9E9"/>
<path id="Vector_11" d="M48.4396 68.6022C48.2819 68.619 48.1327 68.6822 48.0109 68.7837C47.8891 68.8854 47.8001 69.0208 47.7554 69.1729C47.7105 69.325 47.7118 69.4871 47.7591 69.6384C47.8064 69.7899 47.8975 69.9238 48.0209 70.0234C48.1443 70.123 48.2945 70.1838 48.4525 70.198C48.6104 70.2122 48.7691 70.1793 48.9083 70.1034C49.0475 70.0274 49.1611 69.9119 49.2347 69.7713C49.3082 69.6309 49.3385 69.4717 49.3216 69.314C49.3104 69.2093 49.2788 69.1079 49.2284 69.0154C49.1781 68.923 49.11 68.8414 49.0281 68.7753C48.9462 68.7092 48.852 68.6599 48.7511 68.6302C48.6501 68.6005 48.5442 68.591 48.4396 68.6022Z" fill="#E9E9E9"/>
<path id="Vector_12" d="M41.0411 58.3561C40.8834 58.3729 40.7342 58.4361 40.6124 58.5377C40.4906 58.6393 40.4017 58.7747 40.3569 58.9268C40.3121 59.079 40.3134 59.241 40.3607 59.3923C40.4079 59.5438 40.499 59.6777 40.6225 59.7773C40.7459 59.8769 40.8961 59.9377 41.054 59.9519C41.212 59.9662 41.3706 59.9332 41.5099 59.8573C41.6491 59.7813 41.7627 59.6658 41.8362 59.5252C41.9098 59.3848 41.94 59.2256 41.9231 59.0679C41.912 58.9633 41.8804 58.8618 41.83 58.7694C41.7797 58.6769 41.7116 58.5953 41.6297 58.5292C41.5478 58.4631 41.4536 58.4138 41.3526 58.3841C41.2517 58.3544 41.1458 58.3449 41.0411 58.3561Z" fill="#E9E9E9"/>
<path id="Vector_13" d="M57.5332 56.3757C57.3755 56.3925 57.2263 56.4557 57.1045 56.5573C56.9827 56.659 56.8938 56.7944 56.849 56.9466C56.8042 57.0988 56.8056 57.2608 56.8529 57.4122C56.9002 57.5636 56.9914 57.6976 57.115 57.7971C57.2385 57.8967 57.3887 57.9574 57.5467 57.9715C57.7047 57.9856 57.8634 57.9526 58.0026 57.8765C58.1418 57.8005 58.2553 57.6848 58.3288 57.5442C58.4022 57.4036 58.4323 57.2444 58.4152 57.0867C58.404 56.9821 58.3723 56.8807 58.3219 56.7884C58.2715 56.696 58.2034 56.6145 58.1215 56.5485C58.0396 56.4825 57.9455 56.4332 57.8446 56.4036C57.7436 56.3739 57.6379 56.3644 57.5332 56.3757Z" fill="#E9E9E9"/>
<path id="Vector_14" d="M52.8958 62.868C52.7381 62.885 52.589 62.9483 52.4673 63.05C52.3456 63.1517 52.2568 63.2872 52.2121 63.4394C52.1675 63.5916 52.1689 63.7536 52.2164 63.9049C52.2638 64.0563 52.355 64.1901 52.4785 64.2896C52.602 64.3891 52.7523 64.4497 52.9102 64.4638C53.0682 64.4778 53.2268 64.4448 53.366 64.3687C53.5051 64.2927 53.6186 64.177 53.692 64.0365C53.7655 63.8959 53.7956 63.7367 53.7786 63.579C53.7675 63.4743 53.7357 63.3729 53.6853 63.2804C53.6349 63.188 53.5668 63.1064 53.4847 63.0403C53.4027 62.9742 53.3085 62.925 53.2074 62.8955C53.1064 62.8659 53.0004 62.8566 52.8958 62.868Z" fill="#E9E9E9"/>
<path id="Vector_15" d="M61.2169 65.8835C61.0592 65.9003 60.91 65.9634 60.7882 66.065C60.6664 66.1666 60.5775 66.3021 60.5327 66.4542C60.4879 66.6063 60.4892 66.7683 60.5364 66.9197C60.5837 67.0711 60.6748 67.2051 60.7982 67.3047C60.9217 67.4043 61.0718 67.465 61.2298 67.4793C61.3878 67.4935 61.5464 67.4605 61.6856 67.3846C61.8249 67.3086 61.9385 67.1931 62.012 67.0526C62.0856 66.9121 62.1158 66.753 62.0989 66.5952C62.0878 66.4905 62.0561 66.3891 62.0058 66.2967C61.9554 66.2043 61.8873 66.1227 61.8054 66.0566C61.7235 65.9904 61.6294 65.9412 61.5284 65.9115C61.4274 65.8818 61.3216 65.8722 61.2169 65.8835Z" fill="#E9E9E9"/>
<path id="Vector_16" d="M64.6779 52.0799C64.5202 52.0967 64.371 52.1599 64.2492 52.2614C64.1274 52.3631 64.0385 52.4985 63.9936 52.6506C63.9488 52.8028 63.9501 52.9648 63.9974 53.1161C64.0447 53.2676 64.1357 53.4015 64.2592 53.5011C64.3826 53.6007 64.5328 53.6615 64.6908 53.6757C64.8487 53.69 65.0074 53.657 65.1466 53.5811C65.2859 53.5051 65.3994 53.3896 65.473 53.249C65.5466 53.1086 65.5768 52.9494 65.5599 52.7917C65.5501 52.6865 65.5194 52.5843 65.4694 52.4912C65.4195 52.3981 65.3514 52.3159 65.2692 52.2495C65.187 52.1832 65.0923 52.134 64.9907 52.1048C64.8891 52.0757 64.7828 52.0673 64.6779 52.0799Z" fill="#E9E9E9"/>
<path id="Vector_17" d="M72.1349 65.5397C71.9772 65.5565 71.828 65.6196 71.7062 65.7212C71.5844 65.8228 71.4955 65.9582 71.4506 66.1103C71.4059 66.2625 71.4071 66.4245 71.4544 66.5759C71.5017 66.7273 71.5928 66.8612 71.7162 66.9608C71.8397 67.0604 71.9898 67.1212 72.1478 67.1354C72.3058 67.1497 72.4644 67.1167 72.6036 67.0408C72.7429 66.9648 72.8564 66.8493 72.93 66.7088C73.0036 66.5683 73.0338 66.4091 73.0169 66.2514C72.9942 66.0401 72.8886 65.8464 72.7232 65.713C72.5579 65.5795 72.3462 65.5172 72.1349 65.5397Z" fill="#E9E9E9"/>
<path id="Vector_18" d="M72.1619 58.0686C72.2666 58.0576 72.368 58.026 72.4605 57.9757C72.553 57.9254 72.6347 57.8573 72.7008 57.7754C72.7669 57.6934 72.8162 57.5992 72.8459 57.4982C72.8755 57.3971 72.8849 57.2913 72.8736 57.1866C72.8456 56.9797 72.738 56.7918 72.5737 56.663C72.4094 56.5341 72.2012 56.4745 71.9936 56.4968C71.7859 56.519 71.5952 56.6215 71.4619 56.7823C71.3286 56.943 71.2633 57.1494 71.2799 57.3576C71.2909 57.4623 71.3225 57.5638 71.3728 57.6562C71.4232 57.7487 71.4912 57.8303 71.5732 57.8963C71.6552 57.9623 71.7493 58.0116 71.8503 58.0412C71.9513 58.0707 72.0573 58.0801 72.1619 58.0686Z" fill="#E9E9E9"/>
<path id="Vector_19" d="M80.8574 67.235C80.6999 67.2518 80.5506 67.315 80.4284 67.4166C80.3069 67.5182 80.2176 67.6536 80.1734 67.8057C80.1284 67.9579 80.1299 68.1199 80.1771 68.2712C80.2244 68.4227 80.3151 68.5566 80.4389 68.6562C80.5619 68.7558 80.7126 68.8166 80.8701 68.8308C81.0284 68.8451 81.1866 68.8121 81.3261 68.7362C81.4656 68.6602 81.5789 68.5447 81.6524 68.4041C81.7259 68.2637 81.7559 68.1045 81.7394 67.9468C81.7281 67.8421 81.6966 67.7407 81.6464 67.6482C81.5961 67.5558 81.5279 67.4742 81.4461 67.4081C81.3636 67.342 81.2699 67.2927 81.1686 67.263C81.0681 67.2333 80.9616 67.2238 80.8574 67.235Z" fill="#E9E9E9"/>
<path id="Vector_20" d="M81.8535 58.7547C81.696 58.7715 81.5467 58.8347 81.4245 58.9363C81.303 59.0379 81.2137 59.1734 81.1695 59.3256C81.1245 59.4777 81.126 59.6398 81.1732 59.7912C81.2205 59.9426 81.312 60.0765 81.435 60.1761C81.5587 60.2757 81.7087 60.3363 81.867 60.3505C82.0252 60.3646 82.1835 60.3315 82.323 60.2555C82.4617 60.1794 82.5757 60.0638 82.6492 59.9232C82.7227 59.7826 82.7527 59.6234 82.7355 59.4657C82.7242 59.361 82.6927 59.2596 82.6425 59.1672C82.5922 59.0748 82.524 58.9933 82.4422 58.9272C82.3597 58.8612 82.266 58.812 82.1647 58.7823C82.0642 58.7527 81.9577 58.7433 81.8535 58.7547Z" fill="#E9E9E9"/>
<path id="Vector_21" d="M88.9664 55.9083C88.9499 55.7506 88.8862 55.6014 88.7849 55.4796C88.6829 55.3578 88.5479 55.2689 88.3957 55.2241C88.2434 55.1792 88.0814 55.1806 87.9299 55.2278C87.7784 55.2751 87.6449 55.3662 87.5452 55.4897C87.4454 55.613 87.3847 55.7633 87.3704 55.9212C87.3562 56.0792 87.3892 56.2378 87.4649 56.3771C87.5414 56.5163 87.6569 56.6299 87.7972 56.7035C87.9374 56.777 88.0972 56.8073 88.2547 56.7903C88.3597 56.7792 88.4609 56.7476 88.5532 56.6972C88.6454 56.6468 88.7272 56.5787 88.7932 56.4968C88.8592 56.4149 88.9087 56.3208 88.9387 56.2198C88.9679 56.1188 88.9777 56.013 88.9664 55.9083Z" fill="#E9E9E9"/>
<path id="Vector_22" d="M112.717 11.3831C112.63 10.2798 112.153 9.24352 111.371 8.46067C110.588 7.67782 109.552 7.19969 108.449 7.11221C107.345 7.02473 106.247 7.33364 105.351 7.98344C104.455 8.63317 103.82 9.58124 103.561 10.6571C102.275 10.0588 100.857 9.80167 99.4434 9.91042C98.0297 10.0192 96.6684 10.4902 95.4894 11.278C94.3104 12.0659 93.3542 13.144 92.7129 14.4087C92.0717 15.6733 91.7672 17.0818 91.8279 18.4984C93.5417 18.0338 95.3034 17.7663 97.0779 17.7011C97.1739 18.284 97.3067 18.8602 97.4762 19.4261C97.6329 19.7816 97.8744 19.8101 98.3012 19.1554C99.2552 17.7754 101.19 19.9099 98.9274 21.5606C99.9039 23.2508 101.144 24.7738 102.602 26.0719C104.39 25.4962 105.929 24.3312 106.968 22.7673C108.007 21.2035 108.485 19.3333 108.323 17.4626C108.294 17.1193 108.244 16.7782 108.173 16.4411C108.276 16.4416 108.378 16.4359 108.48 16.4239C109.089 16.3711 109.682 16.1989 110.225 15.9169C110.768 15.6351 111.249 15.2491 111.642 14.781C112.036 14.3129 112.334 13.7719 112.517 13.1889C112.702 12.6059 112.769 11.9923 112.717 11.3831Z" fill="#E9E9E9"/>
<path id="Vector_23" d="M52.4102 86.3594L52.5669 92.1344L54.5994 90.2991C53.7131 89.0789 52.9779 87.7566 52.4102 86.3594Z" fill="#E9E9E9"/>
<path id="Vector_24" d="M65.4727 59.9922L67.4931 62.8669L67.6071 66.5524L65.4727 59.9922Z" fill="#E9E9E9"/>
<path id="Vector_25" d="M61.9865 40.5129C62.2341 40.4676 62.4573 40.3356 62.6165 40.1407C62.7756 39.9457 62.8602 39.7005 62.8551 39.4489C62.85 39.1973 62.7555 38.9557 62.5884 38.7674C62.4215 38.5791 62.193 38.4563 61.9437 38.4212C62.1365 38.2803 62.2762 38.0786 62.3404 37.8487C62.4046 37.6187 62.3895 37.3739 62.2974 37.1535C62.2054 36.9332 62.0419 36.7503 61.8333 36.6343C61.6246 36.5183 61.383 36.4758 61.1472 36.5139C61.268 36.3134 61.3192 36.0787 61.293 35.8461C61.2668 35.6135 61.1646 35.3961 61.0023 35.2275C60.8399 35.0589 60.6264 34.9486 60.3951 34.9136C60.1636 34.8787 59.9271 34.9211 59.7222 35.0342C59.7712 34.7954 59.7369 34.5472 59.625 34.3307C59.5132 34.1142 59.3305 33.9425 59.1075 33.8444C58.8844 33.7463 58.6345 33.7275 58.3993 33.7913C58.1641 33.8551 57.9579 33.9975 57.815 34.1949C57.792 33.9384 57.6802 33.698 57.4989 33.515C57.3177 33.3321 57.0783 33.2182 56.8219 33.1928C56.5656 33.1676 56.3085 33.2324 56.095 33.3763C55.8814 33.5202 55.7247 33.7341 55.652 33.9812C55.5513 33.7595 55.3779 33.5791 55.1604 33.4698C54.9429 33.3605 54.6945 33.329 54.4566 33.3806C54.2187 33.4322 54.0057 33.5636 53.853 33.7532C53.7003 33.9427 53.6171 34.1788 53.6172 34.4222C53.4396 34.2695 53.2168 34.1794 52.983 34.1658C52.7493 34.1522 52.5175 34.2158 52.3234 34.3468C52.1293 34.4778 51.9837 34.669 51.9088 34.8909C51.834 35.1128 51.8343 35.3531 51.9095 35.5749C51.6882 35.4926 51.4457 35.4863 51.2205 35.5574C50.9952 35.6284 50.8002 35.7725 50.6662 35.967C50.5322 36.1615 50.4669 36.3951 50.4807 36.6308C50.4946 36.8666 50.5867 37.091 50.7425 37.2684C50.4914 37.2546 50.2434 37.3301 50.0425 37.4813C49.8417 37.6326 49.7007 37.85 49.6445 38.0951C49.5883 38.3402 49.6206 38.5973 49.7356 38.821C49.8506 39.0447 50.0409 39.2205 50.273 39.3174C50.0263 39.3652 49.8046 39.499 49.6474 39.695C49.4902 39.8909 49.4076 40.1363 49.4145 40.3874C49.4214 40.6386 49.5171 40.8792 49.6848 41.0663C49.8525 41.2534 50.0811 41.3749 50.33 41.4092C50.1413 41.5523 50.0059 41.7545 49.9454 41.9834C49.8849 42.2125 49.9027 42.4551 49.996 42.6728C50.0893 42.8905 50.2528 43.0707 50.4603 43.1847C50.6679 43.2988 50.9077 43.3401 51.1415 43.3022C51.0235 43.5036 50.9751 43.7383 51.0038 43.97C51.0324 44.2016 51.1365 44.4175 51.2999 44.5841C51.4633 44.7508 51.6771 44.8591 51.9081 44.8922C52.1392 44.9255 52.3748 44.8817 52.5785 44.7677C52.5314 45.0059 52.5673 45.253 52.6802 45.4679C52.7931 45.6829 52.9762 45.8527 53.199 45.9491C53.4218 46.0455 53.6709 46.0628 53.9049 45.9979C54.1389 45.933 54.3436 45.7901 54.485 45.5927C54.4974 45.7703 54.5536 45.9422 54.6487 46.0928C54.7438 46.2434 54.8748 46.3679 55.0299 46.4555C55.1851 46.5429 55.3595 46.5905 55.5375 46.5941C55.7157 46.5975 55.8918 46.5568 56.0502 46.4754C56.1785 46.3187 57.9252 44.1699 58.541 43.3869C57.0327 41.6799 58.2845 40.5699 59.096 41.6942C59.5227 42.3062 60.146 42.1352 59.7785 40.3134C60.25 40.1084 60.7018 39.8609 61.1285 39.5739C61.4285 40.7259 61.6535 41.7084 61.8395 42.5334C62.0556 42.4769 62.2485 42.3541 62.3913 42.1823C62.5341 42.0106 62.6196 41.7985 62.6358 41.5757C62.652 41.353 62.598 41.1308 62.4816 40.9402C62.3652 40.7496 62.1921 40.6002 61.9865 40.5129Z" fill="#E9E9E9"/>
</g>
<g id="Group_3">
<path id="Vector_26" d="M61.8434 42.5297C61.6589 41.7047 61.4309 40.7229 61.1324 39.5702C60.7057 39.8571 60.2539 40.1046 59.7824 40.3097C60.1529 42.1314 59.5311 42.2987 59.0999 41.6904C58.2974 40.5594 57.0366 41.6762 58.5449 43.3832C57.9329 44.1662 56.1824 46.3149 56.0541 46.4717C55.8957 46.5531 55.7196 46.5938 55.5414 46.5903C55.3634 46.5868 55.189 46.5392 55.0338 46.4517C54.8787 46.3642 54.7477 46.2396 54.6526 46.089C54.5575 45.9384 54.5013 45.7666 54.4889 45.589C54.3475 45.7863 54.1428 45.9293 53.9088 45.9942C53.6748 46.059 53.4257 46.0418 53.2029 45.9453C52.9801 45.8489 52.797 45.6791 52.6841 45.4641C52.5712 45.2493 52.5353 45.0021 52.5824 44.7639C52.3787 44.8779 52.1431 44.9217 51.912 44.8885C51.681 44.8554 51.4672 44.7471 51.3038 44.5804C51.1404 44.4137 51.0363 44.1979 51.0077 43.9662C50.979 43.7346 51.0274 43.4999 51.1454 43.2984C50.9116 43.3364 50.6718 43.2951 50.4642 43.181C50.2567 43.0669 50.0932 42.8867 49.9999 42.6691C49.9066 42.4514 49.8888 42.2087 49.9493 41.9797C50.0098 41.7507 50.1452 41.5486 50.3339 41.4054C50.085 41.3712 49.8564 41.2497 49.6887 41.0625C49.521 40.8754 49.4253 40.6349 49.4184 40.3837C49.4115 40.1326 49.4941 39.8871 49.6513 39.6912C49.8085 39.4953 50.0302 39.3615 50.2769 39.3137C50.0448 39.2168 49.8545 39.0409 49.7394 38.8173C49.6245 38.5936 49.5922 38.3365 49.6484 38.0914C49.7046 37.8462 49.8456 37.6288 50.0464 37.4775C50.2473 37.3263 50.4953 37.2509 50.7464 37.2647C50.5906 37.0872 50.4984 36.8628 50.4846 36.6271C50.4708 36.3913 50.5361 36.1577 50.6701 35.9633C50.8041 35.7688 50.9991 35.6247 51.2244 35.5536C51.4496 35.4826 51.6921 35.4888 51.9134 35.5712C51.8403 35.35 51.8415 35.1111 51.9169 34.8906C51.9923 34.6703 52.1376 34.4805 52.3308 34.3504C52.5239 34.2203 52.7543 34.1569 52.9869 34.1698C53.2194 34.1828 53.4414 34.2715 53.6189 34.4222C53.6187 34.1788 53.7019 33.9426 53.8546 33.7531C54.0074 33.5637 54.2204 33.4321 54.4583 33.3806C54.6962 33.3291 54.9445 33.3605 55.162 33.4698C55.3795 33.579 55.553 33.7596 55.6536 33.9812C55.7264 33.7341 55.8831 33.5202 56.0967 33.3763C56.3102 33.2324 56.5673 33.1675 56.8236 33.1929C57.0799 33.2182 57.3193 33.3321 57.5006 33.5151C57.6819 33.698 57.7936 33.9384 57.8166 34.1949C57.9595 33.9975 58.1658 33.8551 58.401 33.7913C58.6362 33.7275 58.8861 33.7463 59.1091 33.8445C59.3322 33.9426 59.5149 34.1142 59.6267 34.3307C59.7386 34.5472 59.7729 34.7955 59.7239 35.0342C59.9288 34.9211 60.1653 34.8787 60.3967 34.9137C60.6281 34.9486 60.8415 35.0589 61.0039 35.2275C61.1663 35.3961 61.2684 35.6136 61.2947 35.8461C61.3209 36.0787 61.2696 36.3135 61.1489 36.5139C61.3846 36.4758 61.6263 36.5182 61.8349 36.6342C62.0436 36.7503 62.2071 36.9332 62.2991 37.1536C62.3911 37.3738 62.4063 37.6187 62.3421 37.8487C62.2779 38.0787 62.1381 38.2803 61.9454 38.4212C62.1946 38.4564 62.4231 38.5791 62.5901 38.7674C62.757 38.9557 62.8516 39.1973 62.8567 39.4488C62.8619 39.7005 62.7773 39.9457 62.6181 40.1407C62.459 40.3356 62.2357 40.4676 61.9881 40.5129C62.1924 40.6008 62.3642 40.75 62.4798 40.9399C62.5953 41.1298 62.6488 41.3511 62.6329 41.5728C62.617 41.7945 62.5324 42.0058 62.391 42.1773C62.2494 42.3488 62.058 42.4719 61.8434 42.5297Z" stroke="black" stroke-width="0.564931" stroke-linecap="round" stroke-linejoin="round"/>
<path id="Vector_27" d="M62.0156 36.697L65.8294 36.3842C66.2847 36.3445 66.7433 36.3951 67.179 36.5333C67.6147 36.6715 68.0187 36.8945 68.3678 37.1894C68.7169 37.4843 69.0043 37.8454 69.2134 38.2517C69.4225 38.6582 69.5491 39.1019 69.5861 39.5575L70.6249 52.0367" stroke="black" stroke-width="0.564931" stroke-linecap="round" stroke-linejoin="round"/>
<path id="Vector_28" d="M67.75 66.3523L68.3335 66.3096C68.8429 66.3039 69.3405 66.156 69.7705 65.8828" stroke="black" stroke-width="0.564931" stroke-linecap="round" stroke-linejoin="round"/>
<path id="Vector_29" d="M41.3422 68.5699L33.687 69.2247C32.7683 69.3016 31.8568 69.0106 31.1524 68.4157C30.4482 67.8208 30.0089 66.9708 29.931 66.0522L27.981 43.0564C27.9037 42.1375 28.1947 41.2255 28.7897 40.521C29.3848 39.8165 30.2353 39.3772 31.1542 39.2997L49.8724 37.7227" stroke="black" stroke-width="0.564931" stroke-linecap="round" stroke-linejoin="round"/>
<path id="Vector_30" d="M65.9844 113.124L111.576 109.282C112.821 109.176 113.973 108.579 114.779 107.624C115.585 106.668 115.979 105.432 115.874 104.187L113.227 73.0953C113.12 71.8503 112.524 70.6986 111.569 69.8929C110.614 69.0871 109.378 68.6933 108.133 68.7978L83.7729 70.8475" stroke="black" stroke-width="0.564931" stroke-linecap="round" stroke-linejoin="round"/>
<path id="Vector_31" d="M67.3398 72.2421L74.9103 71.6016" stroke="black" stroke-width="0.564931" stroke-linecap="round" stroke-linejoin="round"/>
<path id="Vector_32" d="M91.8982 20.9961L77.8387 22.2058C76.551 22.3495 75.3727 22.9978 74.5617 24.0085C73.7509 25.0192 73.3737 26.3101 73.5126 27.5983L76.3305 60.0283" stroke="black" stroke-width="0.564931" stroke-linecap="round" stroke-linejoin="round"/>
<path id="Vector_33" d="M86.4922 64.7873L129.139 61.1018C130.085 61.0163 130.984 60.6474 131.718 60.0431C132.451 59.4389 132.985 58.6275 133.251 57.7148" stroke="black" stroke-width="0.564931" stroke-linecap="round" stroke-linejoin="round"/>
<path id="Vector_34" d="M131.882 37.3916L130.615 22.6638C130.53 21.3699 129.936 20.1624 128.963 19.3061C127.988 18.4497 126.715 18.0143 125.421 18.0956L108.246 19.5761" stroke="black" stroke-width="0.564931" stroke-linecap="round" stroke-linejoin="round"/>
<path id="Vector_35" d="M116.272 41.6758C114.807 43.9805 111.719 50.7118 109.926 55.0798C113.368 56.4254 116.269 58.872 118.176 62.0383" stroke="black" stroke-width="0.564931" stroke-linecap="round" stroke-linejoin="round"/>
<path id="Vector_36" d="M93.3516 49.0469C93.8721 51.7269 94.5516 54.3735 95.3863 56.9729C94.6033 59.9181 94.2906 62.5364 93.9208 64.1444" stroke="black" stroke-width="0.564931" stroke-linecap="round" stroke-linejoin="round"/>
<path id="Vector_37" d="M94.7155 38.0898C93.6408 39.7467 93.0138 41.6535 92.8945 43.6248" stroke="black" stroke-width="0.564931" stroke-linecap="round" stroke-linejoin="round"/>
<path id="Vector_38" d="M109.911 55.0938C105.899 57.9827 98.3138 59.5188 95.3828 56.9725" stroke="black" stroke-width="0.564931" stroke-linecap="round" stroke-linejoin="round"/>
<path id="Vector_39" d="M108.09 56.1914C110.23 57.8653 111.946 60.0201 113.098 62.4809" stroke="black" stroke-width="0.564931" stroke-linecap="round" stroke-linejoin="round"/>
<path id="Vector_40" d="M97.914 27.8168C98.334 26.9242 98.5822 25.9608 98.646 24.9766C98.205 25.4603 97.791 25.8698 97.4062 26.2253" stroke="black" stroke-width="0.564931" stroke-linecap="round" stroke-linejoin="round"/>
<path id="Vector_41" d="M114.237 45.4907L119.332 54.0992C123.273 61.2429 131.482 63.4899 136.635 52.8189C139.067 47.7812 140.221 44.3949 142.355 40.8939C138.865 39.8988 135.686 38.0278 133.123 35.4587C130.753 39.0245 128.647 42.7575 126.818 46.6284C116.502 24.7007 115.235 28.5669 108.362 28.1867C106.265 28.1288 104.245 27.3839 102.613 26.0664" stroke="black" stroke-width="0.564931" stroke-linecap="round" stroke-linejoin="round"/>
<path id="Vector_42" d="M87.5859 45.6588C89.6207 38.7431 94.1792 35.5466 96.1802 33.3648C97.1214 32.4618 97.7492 31.2805 97.9689 29.9946C98.1894 28.7087 97.9914 27.3861 97.4042 26.2211C93.8184 29.3801 91.8407 26.8616 91.8407 18.4961" stroke="black" stroke-width="0.564931" stroke-linecap="round" stroke-linejoin="round"/>
<path id="Vector_43" d="M109.233 28.2148C106.381 30.507 103.807 33.1248 101.563 36.0148C101.211 36.4526 100.752 36.7918 100.23 36.999C99.7083 37.2062 99.1413 37.2745 98.5848 37.1972C98.0291 37.1199 97.5018 36.8996 97.0563 36.5579C96.6108 36.2162 96.2613 35.7647 96.0423 35.2476C95.8593 34.8201 95.7003 34.4226 95.5586 34.0378" stroke="black" stroke-width="0.564931" stroke-linecap="round" stroke-linejoin="round"/>
<path id="Vector_44" d="M126.818 46.6289L125.125 50.4427" stroke="black" stroke-width="0.564931" stroke-linecap="round" stroke-linejoin="round"/>
<path id="Vector_45" d="M56.0549 46.4727C54.0659 49.0227 52.6581 48.8554 48.9119 50.5279C41.2844 53.9292 43.9026 67.5612 43.9026 67.5612" stroke="black" stroke-width="0.564931" stroke-linecap="round" stroke-linejoin="round"/>
<path id="Vector_46" d="M61.8457 42.5312C62.4674 45.4135 62.4112 46.5168 62.0024 47.113C61.7024 47.5548 60.4942 47.6965 59.3984 47.6965" stroke="black" stroke-width="0.564931" stroke-linecap="round" stroke-linejoin="round"/>
<path id="Vector_47" d="M62.1326 46.8731C61.7343 47.6981 60.2238 46.8731 58.7148 45.7773C58.9998 47.0868 59.1986 48.6558 60.2658 48.7226C69.7263 49.3158 70.7253 50.3876 78.9356 64.4726" stroke="black" stroke-width="0.564931" stroke-linecap="round" stroke-linejoin="round"/>
<path id="Vector_48" d="M77.9248 62.7236C78.2803 61.7276 80.486 57.1879 81.767 53.0899C84.572 52.7879 87.3913 53.5217 89.693 55.1531C88.8103 59.3366 86.2498 65.6839 84.0433 70.3489C83.6683 71.1374 83.111 71.8253 82.4173 72.3558C81.7235 72.8863 80.9143 73.2442 80.0548 73.3999C79.196 73.5557 78.3118 73.5047 77.4763 73.2513C76.6408 72.9979 75.8773 72.5493 75.2495 71.9426C71.5655 68.3202 68.2919 64.3028 65.4883 59.9629" stroke="black" stroke-width="0.564931" stroke-linecap="round" stroke-linejoin="round"/>
<path id="Vector_49" d="M65.5039 59.9609L67.6099 66.5497" stroke="black" stroke-width="0.564931" stroke-linecap="round" stroke-linejoin="round"/>
<path id="Vector_50" d="M49.9492 71.9294C54.1755 73.2794 61.404 72.7686 67.0537 71.2319C67.9072 69.5526 67.5517 62.9219 67.5517 62.9219" stroke="black" stroke-width="0.564931" stroke-linecap="round" stroke-linejoin="round"/>
<path id="Vector_51" d="M49.9054 71.6025C48.0844 74.2208 44.5054 74.3175 42.8614 71.5883C40.7899 68.1383 39.9019 63.2213 39.4609 57.7568C39.4609 57.7568 42.6859 56.7248 44.0359 57.129" stroke="black" stroke-width="0.564931" stroke-linecap="round" stroke-linejoin="round"/>
<path id="Vector_52" d="M54.5993 90.2969L39.5731 103.602C38.5791 104.476 37.302 104.961 35.9783 104.966C34.6545 104.971 33.3737 104.496 32.3731 103.63L17.5898 90.8399" stroke="black" stroke-width="0.564931" stroke-linecap="round" stroke-linejoin="round"/>
<path id="Vector_53" d="M37.4543 92.8763L26.2695 82.332" stroke="black" stroke-width="0.564931" stroke-linecap="round" stroke-linejoin="round"/>
<path id="Vector_54" d="M47.6148 57.6562C47.6148 57.6562 50.0898 67.6313 49.9345 72.1845C46.9237 73.8959 44.5972 76.596 43.3495 79.8263C41.5323 84.7365 35.2383 90.7118 35.2383 90.7118" stroke="black" stroke-width="0.564931" stroke-linecap="round" stroke-linejoin="round"/>
<path id="Vector_55" d="M67.0535 71.2305C69.842 80.7217 70.1195 87.0555 70.3115 96.246C70.4648 98.8515 70.1082 101.461 69.2615 103.93L62.7448 122.258C58.7591 121.84 54.9277 120.49 51.56 118.317L58.0775 99.6472C58.203 96.4582 57.1332 93.3375 55.0775 90.8962C53.0424 88.4175 51.7675 85.4025 51.4062 82.2157" stroke="black" stroke-width="0.564931" stroke-linecap="round" stroke-linejoin="round"/>
<path id="Vector_56" d="M52.7812 49.0051C52.7812 49.0051 55.0575 51.5094 60.465 48.7344" stroke="black" stroke-width="0.564931" stroke-linecap="round" stroke-linejoin="round"/>
<path id="Vector_57" d="M40.5851 57.4305C40.5406 55.2594 40.2976 53.0969 39.859 50.97C39.4393 49.3331 38.8379 47.7483 38.0658 46.245C36.9333 44.037 37.3008 43.4393 39.1195 45.4485C40.9156 47.7031 42.3947 50.1927 43.516 52.848" stroke="black" stroke-width="0.564931" stroke-linecap="round" stroke-linejoin="round"/>
<path id="Vector_58" d="M42.8867 51.4425C43.7905 52.467 44.3312 49.3425 44.671 48.651C45.1405 47.6978 45.721 46.6598 45.6812 49.5908C45.67 50.4015 45.7667 51.6968 45.895 52.977" stroke="black" stroke-width="0.564931" stroke-linecap="round" stroke-linejoin="round"/>
<path id="Vector_59" d="M39.0076 48.3376C38.5951 47.8823 37.6576 46.9726 37.3854 46.7153C36.1419 45.5258 35.8944 45.9451 36.0354 46.1903C36.5754 47.1368 37.5879 48.5948 38.0604 49.4903C38.8164 50.9408 40.3509 53.7023 40.4364 55.1251" stroke="black" stroke-width="0.564931" stroke-linecap="round" stroke-linejoin="round"/>
<path id="Vector_60" d="M38.0115 49.4009C37.7693 49.2306 37.5691 49.0904 37.4566 49.0169C36.0151 48.0771 35.8628 48.5046 36.0316 48.7169C36.7148 49.5704 37.9553 50.8349 38.565 51.6479C39.2809 52.6495 39.9002 53.7168 40.4145 54.8354" stroke="black" stroke-width="0.564931" stroke-linecap="round" stroke-linejoin="round"/>
<path id="Vector_61" d="M89.026 54.6817C89.7895 52.4057 90.751 50.2011 91.9007 48.0936C92.8735 46.503 94.024 45.0279 95.3297 43.6964C97.2467 41.7464 97.0547 40.9784 94.4762 42.5009C91.846 44.2972 89.4715 46.4417 87.418 48.8759" stroke="black" stroke-width="0.564931" stroke-linecap="round" stroke-linejoin="round"/>
<path id="Vector_62" d="M88.611 47.5252C87.1755 48.5955 87.705 44.94 87.5707 44.0797C87.39 42.9262 87.1297 41.6325 86.2042 44.7487C85.9485 45.6015 84.909 48.2445 82.9492 53.0152" stroke="black" stroke-width="0.564931" stroke-linecap="round" stroke-linejoin="round"/>
<path id="Vector_63" d="M93.6476 45.5893C94.2311 45.2338 95.5121 44.5933 95.8818 44.4088C97.5896 43.5545 97.7013 44.0938 97.4898 44.2948C96.6146 45.1265 95.0718 46.331 94.2881 47.126C93.0236 48.4093 90.5028 50.8258 89.9336 52.3063" stroke="black" stroke-width="0.564931" stroke-linecap="round" stroke-linejoin="round"/>
<path id="Vector_64" d="M94.3625 47.0571C94.6753 46.9574 94.9318 46.8726 95.0743 46.8321C96.8983 46.2734 96.923 46.8164 96.668 46.9889C95.6675 47.6639 93.9515 48.5991 93.0388 49.2651C91.9588 50.0905 90.959 51.0147 90.0508 52.0259" stroke="black" stroke-width="0.564931" stroke-linecap="round" stroke-linejoin="round"/>
<path id="Vector_65" d="M21.0486 77.4348C18.5158 73.7965 2.99005 86.3478 3.77905 90.5028C3.9013 91.1463 4.4578 91.7223 5.75605 91.546C10.7458 90.8703 22.9198 80.1273 21.0486 77.4348Z" stroke="black" stroke-width="0.564931" stroke-linecap="round" stroke-linejoin="round"/>
<path id="Vector_66" d="M21.0469 77.4375C21.8291 78.4335 24.5186 81.6495 26.4401 84.0375" stroke="black" stroke-width="0.564931" stroke-linecap="round" stroke-linejoin="round"/>
<path id="Vector_67" d="M24.8493 82.0761C25.0444 81.9876 25.2591 81.9509 25.4726 81.9696C25.6861 81.9884 25.891 82.0626 26.0674 82.1849C26.2437 82.3064 26.3854 82.4721 26.4785 82.6649C26.5717 82.8584 26.6132 83.0721 26.599 83.2859C26.3635 86.2859 20.7903 91.4249 18.2845 91.1219C17.5345 91.0304 17.059 90.5001 17.3095 89.4906" stroke="black" stroke-width="0.564931" stroke-linecap="round" stroke-linejoin="round"/>
<path id="Vector_68" d="M61.8555 116.962L66.2227 103.149C66.9806 100.991 67.2999 98.7024 67.1617 96.4187C66.5565 86.5299 65.8245 78.8874 64.0455 71.9297" stroke="black" stroke-width="0.564931" stroke-linecap="round" stroke-linejoin="round"/>
<path id="Vector_69" d="M21.8008 94.4845C26.1125 93.1037 28.532 89.9845 29.9833 85.918" stroke="black" stroke-width="0.564931" stroke-linecap="round" stroke-linejoin="round"/>
<path id="Vector_70" d="M52.4095 86.3594L40.3 97.0889C39.3039 97.9761 38.0179 98.4689 36.684 98.4741C35.35 98.4794 34.0601 97.9971 33.0572 97.1174L26.668 91.5104" stroke="black" stroke-width="0.564931" stroke-linecap="round" stroke-linejoin="round"/>
<path id="Vector_71" d="M54.4589 75.7121C54.2744 75.7406 54.0036 79.3271 54.4874 80.7783C55.4127 82.0571 56.5956 83.1288 57.9599 83.9231C58.7403 82.6233 59.677 81.4233 60.7491 80.3516C60.6066 78.5441 60.4356 77.5908 60.2369 75.6836C58.3212 75.9573 56.3771 75.9671 54.4589 75.7121Z" stroke="black" stroke-width="0.564931" stroke-linecap="round" stroke-linejoin="round"/>
<path id="Vector_72" d="M46.3918 74.9883C47.1223 74.9988 47.8396 75.184 48.4836 75.529C47.1741 76.1688 45.8511 79.429 45.8511 79.429L42.9336 80.824" stroke="black" stroke-width="0.564931" stroke-linecap="round" stroke-linejoin="round"/>
<path id="Vector_73" d="M138.969 28.4961C141.219 29.2071 142.47 30.3598 143.919 32.2101" stroke="black" stroke-width="0.564931" stroke-linecap="round" stroke-linejoin="round"/>
<path id="Vector_74" d="M138.414 29.5508C139.199 30.3477 139.81 31.2996 140.207 32.3455C140.603 33.3915 140.777 34.5086 140.719 35.6258" stroke="black" stroke-width="0.564931" stroke-linecap="round" stroke-linejoin="round"/>
<path id="Vector_75" d="M142.741 30.803C143.614 29.6528 144.344 28.4009 144.916 27.0747C145.966 24.6132 146.609 25.2965 146.026 27.6297C145.869 28.256 145.713 28.7967 145.57 29.252C145.159 30.5615 144.754 31.8837 144.375 33.2082C143.972 34.6152 141.3 40.565 141.3 40.565C138.796 39.896 136.192 38.075 134.157 36.3957C134.2 36.3102 135.282 34.319 135.323 34.247C135.544 33.849 135.637 33.3932 135.592 32.9406C135.546 32.488 135.363 32.0601 135.067 31.7142C134.038 30.4797 132.661 28.6392 133.117 28.142C133.826 27.3717 136.063 29.9765 137.258 30.1347C137.685 30.191 138.027 28.8965 138.097 28.427C138.226 27.5735 138.676 24.6695 138.709 24.386C139.019 21.7475 139.962 22.1945 139.948 24.5277C139.933 26.7477 139.933 28.1847 139.933 28.1847" stroke="black" stroke-width="0.564931" stroke-linecap="round" stroke-linejoin="round"/>
<path id="Vector_76" d="M139.754 28.7545C139.754 28.7545 141.306 23.8885 141.404 23.5607C142.176 21.0145 142.985 21.5972 142.599 23.8877C142.23 26.08 141.831 28.7545 141.831 28.7545" stroke="black" stroke-width="0.564931" stroke-linecap="round" stroke-linejoin="round"/>
<path id="Vector_77" d="M141.449 29.5386C142.192 28.0504 142.847 26.5203 143.413 24.9561C144.335 22.4511 145.013 23.0909 144.58 25.3694C144.342 26.7859 144.004 28.1839 143.569 29.5529" stroke="black" stroke-width="0.564931" stroke-linecap="round" stroke-linejoin="round"/>
<path id="Vector_78" d="M125.95 73.2244C125.989 73.5642 125.96 73.9083 125.865 74.2368C125.77 74.5653 125.611 74.8717 125.397 75.1384C125.182 75.4054 124.918 75.6267 124.618 75.7902C124.318 75.9544 123.988 76.0572 123.648 76.0924C123.307 76.1284 122.964 76.0962 122.636 75.9987C122.308 75.9004 122.003 75.7392 121.738 75.5224C121.474 75.3057 121.255 75.0394 121.093 74.7377C120.932 74.4361 120.832 74.1056 120.799 73.7652L120.387 69.8652C120.322 69.1854 120.527 68.5072 120.959 67.9783C121.392 67.4495 122.015 67.1128 122.695 67.0415C123.373 66.9702 124.054 67.1701 124.586 67.5976C125.119 68.0252 125.461 68.6458 125.538 69.3244L125.95 73.2244Z" stroke="black" stroke-width="0.564931" stroke-linecap="round" stroke-linejoin="round"/>
<path id="Vector_79" d="M118.691 72.2007L118.89 74.1215C118.952 74.7119 119.129 75.2847 119.412 75.8067C119.695 76.3287 120.078 76.79 120.539 77.1635C121 77.5377 121.531 77.8167 122.099 77.9862C122.669 78.155 123.266 78.2105 123.856 78.149C124.447 78.0867 125.019 77.9097 125.541 77.627C126.063 77.3435 126.524 76.961 126.899 76.4997C127.272 76.0385 127.552 75.5082 127.721 74.939C127.889 74.3699 127.945 73.7729 127.883 73.1825L127.685 71.2617" stroke="black" stroke-width="0.564931" stroke-linecap="round" stroke-linejoin="round"/>
<path id="Vector_80" d="M123.859 78.1484L124.243 81.7342" stroke="black" stroke-width="0.564931" stroke-linecap="round" stroke-linejoin="round"/>
<path id="Vector_81" d="M122.32 81.9342L126.148 81.5352" stroke="black" stroke-width="0.564931" stroke-linecap="round" stroke-linejoin="round"/>
<path id="Vector_82" d="M92.5389 92.8906L97.1356 95.0393L96.3099 85.2773L92.1406 88.1798" stroke="black" stroke-width="0.564931" stroke-linecap="round" stroke-linejoin="round"/>
<path id="Vector_83" d="M88.1853 85.0921C89.1131 85.0111 90.0363 85.2841 90.7706 85.8571C91.5048 86.4301 91.9945 87.2596 92.1408 88.1791L92.5248 92.6041C92.5676 93.0871 92.5143 93.5739 92.3688 94.0366C92.2233 94.4994 91.9878 94.9291 91.6758 95.3004C91.3638 95.6716 90.9821 95.9784 90.5516 96.2019C90.1211 96.4254 89.6501 96.5619 89.1671 96.6031L80.2878 97.3426C79.8041 97.3869 79.3166 97.3351 78.8531 97.1904C78.3903 97.0449 77.9598 96.8094 77.5885 96.4974C77.2165 96.1854 76.9098 95.8021 76.6871 95.3709C76.4643 94.9396 76.3286 94.4686 76.2888 93.9849L75.9333 89.8599C75.8891 89.3761 75.9408 88.8886 76.0856 88.4259C76.2311 87.9624 76.4658 87.5319 76.7786 87.1606C77.0906 86.7886 77.4731 86.4819 77.9043 86.2591C78.3363 86.0364 78.8073 85.9006 79.2911 85.8609L88.1853 85.0921Z" stroke="black" stroke-width="0.564931" stroke-linecap="round" stroke-linejoin="round"/>
<path id="Vector_84" d="M112.716 11.3826C112.628 10.282 112.151 9.24888 111.37 8.46805C110.589 7.68715 109.557 7.20953 108.456 7.12059C107.355 7.03165 106.259 7.33719 105.363 7.98258C104.467 8.62795 103.83 9.571 103.566 10.6431C104.735 11.1821 105.761 11.9862 106.564 12.9917C107.367 13.9971 107.925 15.176 108.192 16.4346C108.827 16.4199 109.452 16.275 110.03 16.009C110.607 15.7431 111.123 15.3615 111.548 14.8881C111.972 14.4147 112.294 13.8594 112.495 13.2564C112.696 12.6535 112.771 12.0157 112.716 11.3826Z" stroke="black" stroke-width="0.564931" stroke-linecap="round" stroke-linejoin="round"/>
<path id="Vector_85" d="M108.32 17.4585C108.141 15.3028 107.124 13.3033 105.487 11.8892C103.85 10.4752 101.724 9.75929 99.565 9.89526C97.4065 10.0312 95.3867 11.0082 93.94 12.6165C92.494 14.2248 91.735 16.3361 91.828 18.4972C93.5417 18.0327 95.3035 17.7652 97.078 17.7C97.174 18.2829 97.3067 18.859 97.4762 19.425C97.633 19.7805 97.8745 19.809 98.3012 19.1542C99.2552 17.7742 101.19 19.9087 98.9275 21.5595C99.904 23.2497 101.144 24.7727 102.602 26.0707C104.39 25.4944 105.929 24.3287 106.967 22.7643C108.005 21.1999 108.483 19.3293 108.32 17.4585Z" stroke="black" stroke-width="0.564931" stroke-linecap="round" stroke-linejoin="round"/>
<path id="Vector_86" d="M13.0391 65.4828L16.0128 65.1836" stroke="black" stroke-width="0.564931" stroke-linecap="round" stroke-linejoin="round"/>
<path id="Vector_87" d="M21.2773 64.6423L24.2518 64.3438" stroke="black" stroke-width="0.564931" stroke-linecap="round" stroke-linejoin="round"/>
<path id="Vector_88" d="M18.0742 59.3086L18.3735 62.2831" stroke="black" stroke-width="0.564931" stroke-linecap="round" stroke-linejoin="round"/>
<path id="Vector_89" d="M18.9141 67.5471L19.2126 70.5209" stroke="black" stroke-width="0.564931" stroke-linecap="round" stroke-linejoin="round"/>
<path id="Vector_90" d="M14.2773 61.3555L16.5963 63.2335" stroke="black" stroke-width="0.564931" stroke-linecap="round" stroke-linejoin="round"/>
<path id="Vector_91" d="M20.6914 66.5781L23.0112 68.4704" stroke="black" stroke-width="0.564931" stroke-linecap="round" stroke-linejoin="round"/>
<path id="Vector_92" d="M22.203 60.5469L20.3242 62.8666" stroke="black" stroke-width="0.564931" stroke-linecap="round" stroke-linejoin="round"/>
<path id="Vector_93" d="M16.9782 66.9609L15.0859 69.2807" stroke="black" stroke-width="0.564931" stroke-linecap="round" stroke-linejoin="round"/>
<path id="Vector_94" d="M81.9385 31.4169L80.2135 27.2049C81.268 25.6372 81.778 23.7661 81.6648 21.8799C81.352 16.9299 76.7553 13.0862 71.2773 13.2429C65.6845 13.3989 61.2738 17.6679 61.4298 22.7769C61.585 28.1702 66.6303 32.0312 72.142 31.7064C74.1164 31.5819 76.0203 30.9252 77.6516 29.8059L81.9385 31.4169Z" stroke="black" stroke-width="0.564931" stroke-linecap="round" stroke-linejoin="round"/>
<path id="Vector_95" d="M49.1515 29.2659C48.8884 29.5179 48.5564 29.6863 48.1976 29.7496C47.8389 29.813 47.4694 29.7686 47.1358 29.622C46.8023 29.4754 46.5197 29.2331 46.3239 28.9258C46.1281 28.6186 46.0277 28.2602 46.0356 27.8959C46.0435 27.5317 46.1592 27.178 46.3681 26.8795C46.577 26.581 46.8697 26.3511 47.2093 26.2191C47.5489 26.087 47.92 26.0586 48.2757 26.1373C48.6313 26.2161 48.9557 26.3987 49.2077 26.6619C49.5444 27.0152 49.7275 27.4875 49.7169 27.9755C49.7064 28.4635 49.5031 28.9274 49.1515 29.2659Z" stroke="black" stroke-width="0.564931" stroke-linecap="round" stroke-linejoin="round"/>
<path id="Vector_96" d="M125.254 4.99219L125.894 12.7622" stroke="black" stroke-width="0.564931" stroke-linecap="round" stroke-linejoin="round"/>
<path id="Vector_97" d="M129.465 8.55078L121.695 9.20553" stroke="black" stroke-width="0.564931" stroke-linecap="round" stroke-linejoin="round"/>
<path id="Vector_98" d="M19.3405 90.9975C18.7989 90.3338 18.1 89.8155 17.3072 89.49C15.9272 88.9913 14.5735 89.4323 12.9655 89.8883C9.72545 90.7883 6.25219 92.7428 4.42969 91.3935" stroke="black" stroke-width="0.564931" stroke-linecap="round" stroke-linejoin="round"/>
<path id="Vector_99" d="M52.5669 92.1366L52.4102 86.3594" stroke="black" stroke-width="0.564931" stroke-linecap="round" stroke-linejoin="round"/>
</g>
</g>
</g>
</svg>
