<svg width="203" height="135" viewBox="0 0 203 135" fill="none" xmlns="http://www.w3.org/2000/svg">
<g id="product launch_outline I_black 1" clip-path="url(#clip0_1738_1838)">
<g id="Group 1171278659">
<g id="Group 1171278660">
<path id="Vector" d="M70.4527 16.911L70.4528 16.9111C70.5168 17.0056 70.5145 17.066 70.4937 17.1299C70.4669 17.2126 70.3964 17.322 70.2676 17.4467C69.2027 17.9484 68.1989 18.5707 67.2759 19.3013C66.9539 19.5541 66.7062 19.8298 66.5866 20.1431C66.4562 20.4846 66.499 20.8156 66.6558 21.1005C66.7997 21.3621 67.0307 21.5707 67.2631 21.7389C67.5008 21.9109 67.7796 22.0683 68.0608 22.2143C68.286 22.3312 68.5075 22.4389 68.7229 22.5437C69.0767 22.7158 69.4144 22.88 69.726 23.0643C69.9665 23.2065 70.1544 23.3408 70.2856 23.4693C70.4175 23.5986 70.4623 23.6929 70.4744 23.7536L70.4747 23.7549C70.506 23.9099 70.4842 23.98 70.4731 24.005C70.4627 24.0284 70.4402 24.0609 70.373 24.0992C70.2091 24.1928 69.9338 24.2389 69.5749 24.2683L69.5748 24.2683C60.175 25.0414 52.3493 29.4692 45.4432 36.252C45.259 36.4328 45.0785 36.6543 44.913 36.8573L44.9108 36.8599L44.9079 36.8636C44.7357 37.0747 44.5731 37.2741 44.4026 37.4502C44.0471 37.8174 43.7653 37.9679 43.4916 37.9427C43.3066 37.9249 42.9388 37.764 42.5791 37.4809C42.4087 37.3467 42.2623 37.202 42.1571 37.0635C42.0481 36.9198 42.0064 36.8131 41.9974 36.7522C41.9666 36.5433 42.0777 36.2362 42.3601 35.8164C42.4918 35.6205 42.6418 35.4268 42.7934 35.2335C42.8075 35.2156 42.8216 35.1976 42.8358 35.1795C42.9691 35.0098 43.107 34.8344 43.2151 34.6754L43.2153 34.675C47.4564 28.4275 52.4641 23.1804 59.166 19.8537L59.166 19.8538L59.1741 19.8496C62.0552 18.353 65.1672 17.351 68.3801 16.8854C68.5166 16.8681 68.6792 16.8391 68.8381 16.8108C68.901 16.7995 68.9633 16.7884 69.0232 16.7782C69.2512 16.7391 69.4762 16.7064 69.6878 16.6968C70.1445 16.6761 70.3574 16.7702 70.4527 16.911Z" stroke="black"/>
<path id="Vector_2" d="M43.5976 40.4617C40.6892 39.5576 39.5856 36.0076 38.6149 33.4474C38.5741 33.3611 38.5007 33.2945 38.4109 33.2622C38.3211 33.23 38.2222 33.2347 38.1358 33.2753C37.7926 33.4375 38.0194 33.5635 37.6073 37.3756C37.4157 39.1489 36.9639 40.2444 35.4078 41.2006C34.9677 41.1432 34.7196 41.7975 35.1804 41.9321C36.0009 42.1644 36.7701 42.5498 37.4475 43.0678C39.0663 44.3204 39.4014 46.5653 39.8057 48.4702C39.8285 48.5669 39.8867 48.6515 39.9689 48.7073C40.051 48.7631 40.1511 48.7861 40.2494 48.7716C40.3477 48.7572 40.4369 48.7063 40.4995 48.6292C40.5621 48.5521 40.5935 48.4543 40.5874 48.3552C40.4676 46.8965 40.1434 45.0775 40.711 43.6618C41.2004 42.438 42.5042 41.7354 43.6115 41.1804C43.8858 41.0405 43.9413 40.5676 43.5976 40.4617Z" fill="#111111"/>
</g>
</g>
<g id="Layer 2">
<g id="outline">
<path id="Vector_3" d="M123.103 13.6923C123.119 13.8591 123.133 14.0258 123.138 14.1908C120.273 14.4871 117.408 16.1689 116.966 17.001C116.921 17.0865 116.854 17.1582 116.771 17.2082C116.688 17.2582 116.593 17.2847 116.496 17.2848C116.41 17.284 116.325 17.2627 116.248 17.2227C116.185 17.1901 116.13 17.1454 116.085 17.0912C116.04 17.037 116.006 16.9744 115.986 16.9071C115.965 16.8398 115.958 16.769 115.965 16.699C115.972 16.6289 115.993 16.5609 116.026 16.4989C116.635 15.3493 119.785 13.4386 123.03 13.1157C123.057 13.2931 123.078 13.4528 123.096 13.6178C122.959 12.3191 122.541 10.8875 121.758 9.30319C121.803 9.39721 121.849 9.4806 121.891 9.58172C119.835 10.1849 117.302 11.3327 115.82 13.4847C115.771 13.5558 115.706 13.6139 115.63 13.6541C115.553 13.6943 115.468 13.7153 115.382 13.7154C115.285 13.7153 115.19 13.6887 115.107 13.6386C115.024 13.5884 114.956 13.5165 114.911 13.4307C114.866 13.3449 114.845 13.2484 114.851 13.1516C114.857 13.0548 114.889 12.9614 114.944 12.8815C116.562 10.5309 119.202 9.27658 121.391 8.61129C121.451 8.71774 121.512 8.82241 121.568 8.9324C116.079 -1.5844 97.3946 7.33572 94.0558 18.2233C90.7169 29.1109 107.099 31.3516 112.85 26.5988C116.115 23.9093 123.788 20.7425 123.103 13.6923Z" fill="#111111"/>
<path id="Vector_4" d="M123.096 13.6216C123.096 13.6446 123.096 13.6695 123.096 13.6925C123.099 13.6695 123.097 13.6446 123.096 13.6216Z" fill="#111111"/>
<g id="project launch">
<g id="stars">
<path id="Vector_5" d="M142.679 5.73741C142.679 5.87856 142.735 6.01394 142.835 6.11375C142.934 6.21356 143.07 6.26963 143.211 6.26963C143.352 6.26963 143.488 6.21356 143.587 6.11375C143.687 6.01394 143.743 5.87856 143.743 5.73741V3.66704H145.814C145.955 3.66704 146.09 3.61097 146.19 3.51116C146.29 3.41135 146.346 3.27597 146.346 3.13482C146.346 2.99366 146.29 2.85829 146.19 2.75848C146.09 2.65866 145.955 2.60259 145.814 2.60259H143.743V0.532227C143.743 0.391072 143.687 0.255698 143.587 0.155886C143.488 0.0560737 143.352 0 143.211 0C143.07 0 142.934 0.0560737 142.835 0.155886C142.735 0.255698 142.679 0.391072 142.679 0.532227V2.60259H140.608C140.467 2.60259 140.332 2.65866 140.232 2.75848C140.132 2.85829 140.076 2.99366 140.076 3.13482C140.076 3.27597 140.132 3.41135 140.232 3.51116C140.332 3.61097 140.467 3.66704 140.608 3.66704H142.679V5.73741Z" fill="#111111"/>
<path id="Vector_6" d="M173.737 58.6026H171.667V56.5322C171.667 56.3911 171.611 56.2557 171.511 56.1559C171.411 56.0561 171.276 56 171.135 56C170.994 56 170.858 56.0561 170.758 56.1559C170.659 56.2557 170.603 56.3911 170.603 56.5322V58.6026H168.532C168.391 58.6026 168.256 58.6587 168.156 58.7585C168.056 58.8583 168 58.9937 168 59.1348C168 59.276 168.056 59.4113 168.156 59.5112C168.256 59.611 168.391 59.667 168.532 59.667H170.603V61.7374C170.603 61.8786 170.659 62.0139 170.758 62.1137C170.858 62.2136 170.994 62.2696 171.135 62.2696C171.276 62.2696 171.411 62.2136 171.511 62.1137C171.611 62.0139 171.667 61.8786 171.667 61.7374V59.667H173.737C173.879 59.667 174.014 59.611 174.114 59.5112C174.214 59.4113 174.27 59.276 174.27 59.1348C174.27 58.9937 174.214 58.8583 174.114 58.7585C174.014 58.6587 173.879 58.6026 173.737 58.6026Z" fill="#111111"/>
</g>
<g id="rocket">
<path id="flame" d="M61.7494 70.6084C56.2621 72.5723 52.7601 76.5268 52.7601 76.5268L41.2285 89.4421C41.1066 89.5892 41.0368 89.7724 41.0299 89.9633C41.023 90.1542 41.0794 90.342 41.1903 90.4975C41.3013 90.653 41.4605 90.7674 41.6433 90.823C41.826 90.8785 42.022 90.8721 42.2007 90.8046L51.1244 89.435C51.1244 89.435 39.0606 103.562 42.5928 109.747C46.125 115.931 65.9363 111.093 65.9363 111.093L60.4809 118.631C60.3643 118.782 60.3007 118.967 60.2999 119.158C60.2991 119.349 60.3612 119.534 60.4765 119.686C60.5919 119.838 60.754 119.948 60.9379 119.998C61.1218 120.049 61.3173 120.037 61.4939 119.965L77.6594 114.428C77.6594 114.428 85.8203 110.444 89.757 103.019L61.7494 70.6084Z" fill="#FF9D13"/>
<g id="lines and circles">
<path id="Vector_7" d="M23.6169 95.5395C25.2003 95.5395 26.4839 94.256 26.4839 92.6726C26.4839 91.0892 25.2003 89.8057 23.6169 89.8057C22.0336 89.8057 20.75 91.0892 20.75 92.6726C20.75 94.256 22.0336 95.5395 23.6169 95.5395Z" fill="#111111"/>
<path id="Vector_8" d="M67.5157 77.2773L26.4277 92.107" stroke="#111111" stroke-width="1.06445" stroke-linecap="round" stroke-linejoin="round"/>
<path id="Vector_9" d="M27.0661 122.925C28.6495 122.925 29.9331 121.641 29.9331 120.058C29.9331 118.474 28.6495 117.191 27.0661 117.191C25.4828 117.191 24.1992 118.474 24.1992 120.058C24.1992 121.641 25.4828 122.925 27.0661 122.925Z" fill="#111111"/>
<path id="Vector_10" d="M74.3023 85.126L29.707 118.378" stroke="#111111" stroke-width="1.06445" stroke-linecap="round" stroke-linejoin="round"/>
<path id="Vector_11" d="M55.9431 135.01C57.5265 135.01 58.81 133.726 58.81 132.143C58.81 130.559 57.5265 129.276 55.9431 129.276C54.3597 129.276 53.0762 130.559 53.0762 132.143C53.0762 133.726 54.3597 135.01 55.9431 135.01Z" fill="#111111"/>
<path id="Vector_12" d="M81.303 93.5757L57.1719 129.552" stroke="#111111" stroke-width="1.06445" stroke-linecap="round" stroke-linejoin="round"/>
<path id="Vector_13" d="M164.916 13.9192L171.654 9.26758" stroke="#111111" stroke-width="1.06445" stroke-linecap="round" stroke-linejoin="round"/>
<path id="Vector_14" d="M173.086 10.8589C174.669 10.8589 175.953 9.57529 175.953 7.99193C175.953 6.40857 174.669 5.125 173.086 5.125C171.502 5.125 170.219 6.40857 170.219 7.99193C170.219 9.57529 171.502 10.8589 173.086 10.8589Z" fill="#111111"/>
</g>
<path id="rocket_2" d="M91.8447 44.139L71.7425 59.8042C71.3278 60.1272 70.9843 60.5323 70.7335 60.9942C70.4827 61.4561 70.33 61.9648 70.2851 62.4885C70.2401 63.0122 70.3038 63.5395 70.4722 64.0374C70.6405 64.5353 70.9099 64.9931 71.2635 65.382L72.7661 67.0354L60.791 69.4979L90.9239 104.364L96.0422 92.6728L98.1995 95.0501C98.8753 95.7941 99.8173 96.2416 100.821 96.2954C101.825 96.3492 102.809 96.005 103.561 95.3375L136.518 66.065C143.15 60.1746 148.388 52.8818 151.852 44.7156L164.98 13.7666L134.925 20.7743" stroke="#111111" stroke-width="1.06445" stroke-linecap="round" stroke-linejoin="round"/>
<g id="white lines">
<path id="Vector_15" d="M124.399 48.2676C124.321 48.2677 124.244 48.2507 124.174 48.2179C124.103 48.1851 124.041 48.1373 123.991 48.0778L119.79 43.0624C119.743 43.0091 119.708 42.9469 119.685 42.8797C119.663 42.8124 119.654 42.7414 119.66 42.6707C119.665 42.6 119.685 42.5312 119.717 42.4681C119.75 42.4051 119.794 42.3492 119.849 42.3038C119.903 42.2583 119.966 42.2241 120.034 42.2032C120.102 42.1824 120.173 42.1753 120.243 42.1823C120.314 42.1893 120.382 42.2104 120.445 42.2442C120.507 42.2781 120.562 42.324 120.606 42.3794L124.465 46.992L127.816 44.1748L122.162 37.4332C122.114 37.3801 122.078 37.318 122.055 37.2506C122.032 37.1832 122.023 37.1118 122.028 37.0408C122.033 36.9697 122.052 36.9004 122.085 36.8369C122.117 36.7735 122.162 36.7171 122.216 36.6713C122.271 36.6254 122.334 36.591 122.402 36.57C122.47 36.549 122.542 36.5419 122.613 36.5491C122.683 36.5563 122.752 36.5776 122.815 36.6119C122.877 36.6461 122.932 36.6925 122.976 36.7484L128.973 43.9086C129.063 44.0167 129.107 44.1562 129.095 44.2965C129.082 44.4369 129.015 44.5666 128.907 44.6573L124.741 48.1469C124.645 48.226 124.524 48.2687 124.399 48.2676Z" fill="#111111"/>
<path id="Vector_16" d="M96.3585 59.1943C96.2812 59.1943 96.2048 59.1775 96.1346 59.1451C96.0645 59.1126 96.0022 59.0652 95.9522 59.0062L88.6607 50.4321C88.5867 50.3454 88.5425 50.2373 88.5345 50.1237C88.5265 50.01 88.5552 49.8968 88.6164 49.8007C88.6776 49.7046 88.768 49.6306 88.8743 49.5897C88.9807 49.5488 89.0973 49.5431 89.2071 49.5734L90.2166 49.8519C90.3525 49.8893 90.468 49.979 90.5378 50.1014C90.6077 50.2237 90.6261 50.3688 90.5892 50.5048C90.5566 50.6276 90.4803 50.7343 90.3745 50.8046L96.4206 57.9152L99.7754 55.105L97.4389 52.3162C97.352 52.2075 97.3111 52.0692 97.3249 51.9307C97.3387 51.7923 97.4062 51.6648 97.5129 51.5755C97.6196 51.4862 97.757 51.4422 97.8957 51.453C98.0344 51.4638 98.1634 51.5284 98.255 51.6331L100.932 54.8265C100.977 54.8801 101.011 54.942 101.032 55.0087C101.053 55.0754 101.061 55.1456 101.055 55.2153C101.049 55.285 101.029 55.3528 100.997 55.4149C100.964 55.4769 100.92 55.532 100.866 55.5769L96.6973 59.0772C96.6013 59.1543 96.4816 59.1956 96.3585 59.1943Z" fill="#111111"/>
<path id="Vector_17" d="M93.3961 69.1894H93.3482C93.2099 69.1754 93.0825 69.1079 92.9933 69.0013L86.3174 61.0321C86.2725 60.9784 86.2386 60.9164 86.2177 60.8497C86.1968 60.7829 86.1892 60.7126 86.1955 60.6429C86.2018 60.5732 86.2217 60.5054 86.2542 60.4434C86.2867 60.3815 86.3311 60.3265 86.3849 60.2817L90.5504 56.792C90.6041 56.7471 90.6661 56.7132 90.7329 56.6923C90.7997 56.6714 90.8699 56.6638 90.9396 56.6701C91.0093 56.6764 91.0771 56.6963 91.1391 56.7288C91.2011 56.7613 91.2561 56.8057 91.3009 56.8595L97.975 64.8269C98.02 64.8805 98.054 64.9424 98.0751 65.0091C98.0962 65.0758 98.1039 65.146 98.0978 65.2157C98.0917 65.2854 98.0719 65.3532 98.0396 65.4153C98.0072 65.4773 97.963 65.5324 97.9093 65.5773L93.742 69.067C93.6448 69.1475 93.5222 69.1909 93.3961 69.1894ZM87.4724 60.7625L93.4635 67.9138L96.8112 65.109L90.8201 57.9558L87.4724 60.7625Z" fill="#111111"/>
<path id="Vector_18" d="M134.227 48.2549H134.188C134.048 48.246 133.917 48.1822 133.824 48.0775L127.034 40.2006C126.989 40.1476 126.954 40.0861 126.931 40.0196C126.909 39.9531 126.901 39.8829 126.906 39.813C126.911 39.7432 126.93 39.675 126.961 39.6124C126.993 39.5498 127.036 39.4941 127.089 39.4484L131.2 35.9002C131.253 35.8543 131.314 35.8193 131.381 35.7972C131.447 35.7751 131.518 35.7663 131.588 35.7714C131.657 35.7765 131.726 35.7954 131.788 35.8269C131.851 35.8585 131.907 35.902 131.952 35.9552L138.743 43.8197C138.835 43.9269 138.882 44.0656 138.873 44.2065C138.864 44.347 138.801 44.4784 138.696 44.5719L134.585 48.1201C134.486 48.208 134.359 48.256 134.227 48.2549ZM128.179 39.9167L134.28 46.9758L137.587 44.1178L131.486 37.0587L128.179 39.9167Z" fill="#111111"/>
<path id="Vector_19" d="M86.9397 56.627C86.8219 56.6269 86.7074 56.5878 86.6142 56.5157C86.521 56.4436 86.4544 56.3426 86.4248 56.2286C86.3952 56.1145 86.4042 55.9939 86.4505 55.8856C86.4968 55.7772 86.5778 55.6873 86.6807 55.6299C87.5003 55.174 88.4636 54.459 88.398 53.6518C88.2986 52.4348 86.0438 51.232 85.4477 51.0173C85.3143 50.9745 85.2032 50.8808 85.1384 50.7566C85.0737 50.6324 85.0605 50.4876 85.1017 50.3538C85.122 50.2861 85.1555 50.2232 85.2003 50.1686C85.2451 50.114 85.3003 50.0689 85.3627 50.0359C85.4251 50.0029 85.4935 49.9826 85.5638 49.9763C85.6341 49.9699 85.705 49.9776 85.7723 49.999C85.806 50.0096 89.2283 51.3544 89.4536 53.5117C89.5707 54.6329 88.8131 55.6583 87.1987 56.556C87.1199 56.6014 87.0307 56.6258 86.9397 56.627Z" fill="#111111"/>
<path id="Vector_20" d="M122.244 36.0564C121.792 37.3569 121.259 38.6279 120.648 39.8618C114.689 51.0386 99.7134 53.4282 88.6857 49.2804C88.5535 49.2306 88.4069 49.2352 88.2781 49.2935C88.1494 49.3517 88.049 49.4587 87.9991 49.5909C87.9493 49.7231 87.9539 49.8697 88.0122 49.9985C88.0704 50.1272 88.1774 50.2276 88.3096 50.2775C91.8477 51.5871 95.5913 52.254 99.364 52.2467C108.273 52.2467 117.222 48.5513 121.588 40.3603C122.304 38.9134 122.916 37.4177 123.421 35.8843L122.244 36.0564Z" fill="#111111"/>
<path id="Vector_21" d="M123.762 28.6961L124.826 28.5187C124.836 27.8719 124.802 27.2252 124.723 26.5832C124.711 26.4874 123.675 26.7606 123.682 26.8138C123.751 27.4221 123.779 28.0344 123.765 28.6465C123.763 28.666 123.762 28.6802 123.762 28.6961Z" fill="#111111"/>
<path id="Vector_22" d="M82.981 75.344C82.8896 75.3445 82.7982 75.338 82.7078 75.3245C82.2227 75.2543 81.7837 74.9986 81.4832 74.6113C81.1828 74.224 81.0443 73.7353 81.0969 73.2479C81.1495 72.7606 81.3891 72.3126 81.7652 71.9984C82.1414 71.6841 82.6248 71.528 83.1138 71.5629C83.6027 71.5978 84.059 71.8211 84.3867 72.1856C84.7144 72.5502 84.8879 73.0276 84.8707 73.5175C84.8535 74.0074 84.6469 74.4715 84.2945 74.8121C83.942 75.1528 83.4712 75.3435 82.981 75.344ZM82.981 72.6119C82.7645 72.6271 82.5624 72.7257 82.4172 72.887C82.272 73.0483 82.1951 73.2596 82.2027 73.4765C82.2103 73.6934 82.3018 73.8989 82.4579 74.0496C82.614 74.2004 82.8225 74.2846 83.0395 74.2846C83.2565 74.2846 83.4651 74.2004 83.6212 74.0496C83.7773 73.8989 83.8688 73.6934 83.8764 73.4765C83.884 73.2596 83.8071 73.0483 83.6619 72.887C83.5167 72.7257 83.3146 72.6271 83.0981 72.6119C83.058 72.6082 83.0176 72.6082 82.9774 72.6119H82.981Z" fill="#111111"/>
<path id="Vector_23" d="M76.527 67.6338C76.4356 67.6343 76.3443 67.6277 76.2538 67.6142C75.8822 67.561 75.5347 67.3986 75.2552 67.1478C74.9758 66.897 74.7771 66.569 74.6841 66.2052C74.5911 65.8414 74.6081 65.4583 74.733 65.1042C74.8578 64.75 75.0848 64.4409 75.3853 64.2158C75.6858 63.9907 76.0464 63.8598 76.4213 63.8397C76.7962 63.8195 77.1687 63.9109 77.4916 64.1025C77.8146 64.294 78.0735 64.577 78.2355 64.9157C78.3976 65.2544 78.4557 65.6335 78.4023 66.0051C78.3375 66.4566 78.1123 66.8696 77.768 67.1687C77.4236 67.4678 76.9831 67.6329 76.527 67.6338ZM76.527 64.9017C76.3274 64.9019 76.1345 64.9736 75.9832 65.1038C75.8319 65.234 75.7322 65.414 75.7021 65.6113C75.6708 65.8303 75.7278 66.0528 75.8606 66.2298C75.9933 66.4068 76.1909 66.5238 76.41 66.5551C76.629 66.5864 76.8515 66.5294 77.0285 66.3967C77.2055 66.2639 77.3225 66.0663 77.3538 65.8473C77.3693 65.7387 77.3633 65.6281 77.336 65.5218C77.3087 65.4156 77.2607 65.3158 77.1948 65.2281C77.1289 65.1404 77.0463 65.0666 76.9518 65.0109C76.8573 64.9552 76.7528 64.9187 76.6441 64.9034C76.6034 64.9 76.5625 64.8994 76.5217 64.9017H76.527Z" fill="#111111"/>
<path id="Vector_24" d="M90.7751 83.5596C90.6849 83.5599 90.5948 83.5539 90.5054 83.5419C90.1333 83.4889 89.7852 83.3268 89.5052 83.0759C89.2252 82.8251 89.026 82.4969 88.9326 82.1327C88.8392 81.7686 88.856 81.385 88.9807 81.0304C89.1054 80.6758 89.3325 80.3661 89.6333 80.1406C89.934 79.9151 90.2949 79.7839 90.6703 79.7635C91.0456 79.7432 91.4186 79.8346 91.7419 80.0263C92.0653 80.218 92.3245 80.5013 92.4869 80.8403C92.6492 81.1794 92.7073 81.5589 92.6538 81.931C92.5886 82.3829 92.3628 82.7962 92.0178 83.0953C91.6728 83.3944 91.2317 83.5592 90.7751 83.5596ZM90.7751 80.8275C90.5756 80.8282 90.3829 80.9 90.2316 81.0301C90.0804 81.1602 89.9806 81.34 89.9501 81.5372C89.9192 81.7564 89.9766 81.9789 90.1097 82.1559C90.2427 82.3329 90.4406 82.4498 90.6598 82.481C90.8789 82.5114 91.1012 82.4538 91.278 82.3209C91.4549 82.1879 91.5719 81.9903 91.6036 81.7714C91.6193 81.6627 91.6135 81.5521 91.5863 81.4457C91.5591 81.3394 91.5112 81.2395 91.4452 81.1517C91.3792 81.064 91.2966 80.9902 91.202 80.9346C91.1074 80.8789 91.0027 80.8425 90.8939 80.8275C90.8537 80.8254 90.8134 80.826 90.7733 80.8293L90.7751 80.8275Z" fill="#111111"/>
<path id="Vector_25" d="M98.6581 91.7468C98.5673 91.7474 98.4765 91.7409 98.3867 91.7273C98.0149 91.6744 97.6672 91.5125 97.3876 91.2619C97.1079 91.0114 96.9088 90.6835 96.8154 90.3198C96.7221 89.9561 96.7387 89.5729 96.8632 89.2187C96.9877 88.8644 97.2144 88.555 97.5148 88.3297C97.8151 88.1043 98.1755 87.9731 98.5504 87.9525C98.9254 87.932 99.298 88.0232 99.6211 88.2144C99.9442 88.4057 100.203 88.6885 100.366 89.0271C100.528 89.3656 100.586 89.7447 100.533 90.1165C100.469 90.5684 100.244 90.9821 99.8999 91.2815C99.5555 91.581 99.1146 91.7462 98.6581 91.7468ZM98.6581 89.0147C98.526 89.0147 98.3958 89.0461 98.2782 89.1063C98.1606 89.1665 98.0589 89.2538 97.9817 89.361C97.9044 89.4682 97.8538 89.5922 97.8338 89.7228C97.8139 89.8534 97.8253 89.9869 97.8671 90.1122C97.9089 90.2376 97.9798 90.3512 98.0741 90.4437C98.1684 90.5363 98.2834 90.6051 98.4095 90.6445C98.5356 90.6839 98.6693 90.6927 98.7995 90.6703C98.9297 90.6479 99.0527 90.5949 99.1584 90.5156C99.2467 90.4503 99.321 90.368 99.3771 90.2736C99.4331 90.1791 99.4698 90.0744 99.4848 89.9657C99.5152 89.7465 99.4577 89.5242 99.3247 89.3474C99.1917 89.1705 98.9942 89.0535 98.7752 89.0218C98.7334 89.0166 98.6913 89.0142 98.6492 89.0147H98.6581Z" fill="#111111"/>
<path id="Vector_26" d="M116.196 76.0872C116.121 76.0873 116.047 76.0716 115.978 76.041C115.91 76.0104 115.849 75.9657 115.799 75.9098L110.996 70.5468C110.93 70.4729 110.885 70.3818 110.868 70.2839C110.85 70.186 110.861 70.0851 110.897 69.9927C110.934 69.9004 110.996 69.8202 111.077 69.7614C111.157 69.7025 111.252 69.6673 111.351 69.6597L115.643 69.2801C116.558 64.0838 120.938 63.2482 123.512 63.2127C123.866 63.2071 124.215 63.2873 124.531 63.4464C124.846 63.6056 125.118 63.8389 125.324 64.1263C125.535 64.4181 125.673 64.7563 125.727 65.1126C125.78 65.4689 125.747 65.8327 125.631 66.1736C123.663 71.9962 119.244 72.1239 117.757 71.9891L116.709 75.7147C116.683 75.8065 116.633 75.8897 116.564 75.9555C116.495 76.0214 116.41 76.0675 116.317 76.089C116.277 76.0927 116.236 76.0921 116.196 76.0872ZM112.499 70.6284L115.946 74.4799L116.86 71.2475C116.897 71.116 116.983 71.0037 117.101 70.934C117.218 70.8643 117.358 70.8426 117.491 70.8732C117.695 70.9193 122.562 71.9288 124.623 65.8259C124.683 65.6483 124.7 65.4588 124.671 65.2734C124.642 65.0881 124.569 64.9125 124.458 64.7615C124.353 64.611 124.212 64.4889 124.048 64.406C123.885 64.323 123.703 64.2818 123.52 64.286C120.711 64.3197 117.236 65.3132 116.627 69.8531C116.611 69.9729 116.555 70.0837 116.467 70.1672C116.38 70.2507 116.267 70.302 116.146 70.3126L112.499 70.6284Z" fill="#111111"/>
<path id="Vector_27" d="M133.313 63.3917C133.243 63.3856 133.173 63.3932 133.106 63.4142C133.04 63.4352 132.978 63.4692 132.924 63.5141L128.759 67.0037C128.705 67.0487 128.661 67.1037 128.629 67.1658C128.596 67.2278 128.576 67.2956 128.57 67.3653C128.564 67.435 128.572 67.5053 128.593 67.572C128.614 67.6387 128.648 67.7006 128.693 67.7542L131.219 70.7701L132.016 70.0605L129.85 67.4739L133.201 64.6673L135.286 67.151L136.082 66.4413L133.675 63.5673C133.582 63.4637 133.452 63.4006 133.313 63.3917Z" fill="#111111"/>
<path id="Vector_28" d="M137.123 56.7974L132.957 60.2871C132.903 60.3319 132.859 60.3868 132.826 60.4488C132.794 60.5108 132.774 60.5786 132.768 60.6483C132.761 60.718 132.769 60.7883 132.79 60.855C132.811 60.9218 132.845 60.9838 132.89 61.0375L136.851 65.7672C137.116 65.5277 137.383 65.2882 137.637 65.0469L134.048 60.7625L137.399 57.9559L140.731 61.9334C140.974 61.6708 141.214 61.4012 141.451 61.1386L137.873 56.8648C137.828 56.8111 137.773 56.7667 137.711 56.7342C137.649 56.7017 137.582 56.6817 137.512 56.6755C137.442 56.6692 137.372 56.6768 137.305 56.6977C137.238 56.7186 137.176 56.7525 137.123 56.7974Z" fill="#111111"/>
<path id="Vector_29" d="M113.186 79.9918C113.116 79.9857 113.046 79.9933 112.98 80.0143C112.913 80.0353 112.851 80.0693 112.797 80.1142L108.632 83.6038C108.578 83.6488 108.534 83.7038 108.502 83.7659C108.469 83.8279 108.45 83.8957 108.443 83.9654C108.437 84.0351 108.445 84.1054 108.466 84.1721C108.487 84.2388 108.521 84.3007 108.566 84.3543L111.706 88.1029L112.503 87.3933L109.723 84.0757L113.074 81.2691L115.771 84.4909L116.567 83.7812L113.551 80.1887C113.507 80.1331 113.451 80.087 113.389 80.0531C113.326 80.0193 113.257 79.9984 113.186 79.9918Z" fill="#111111"/>
<path id="Vector_30" d="M105.035 82.4117C104.99 82.3579 104.935 82.3135 104.873 82.2811C104.811 82.2486 104.744 82.2286 104.674 82.2223C104.604 82.2161 104.534 82.2236 104.467 82.2446C104.4 82.2655 104.338 82.2994 104.285 82.3443L100.119 85.8339L101.081 86.4176L104.56 83.5028L109.82 89.7813L110.616 89.0716L105.035 82.4117Z" fill="#111111"/>
<path id="Vector_31" d="M132.067 23.6646L131.07 24.0797C135.655 31.3162 142.558 40.804 150.656 47.3504C150.814 47.0228 150.969 46.6928 151.123 46.3605C143.28 39.9525 136.57 30.752 132.067 23.6646Z" fill="#111111"/>
<path id="Vector_32" d="M135.144 21.4824L134.594 22.5806C138.921 29.095 145.192 37.3233 152.404 43.1902C152.429 43.2099 152.456 43.2277 152.484 43.2434L152.913 42.2286C145.682 36.2996 139.412 27.9578 135.144 21.4824Z" fill="#111111"/>
<path id="Vector_33" d="M96.3249 92.2067L73.0418 66.5693L71.8301 66.8195L95.8566 93.2747L96.3249 92.2067Z" fill="#111111"/>
<path id="Vector_34" d="M73.6133 58.3464L105.946 93.2179L106.743 92.5118L74.456 57.6899L73.6133 58.3464Z" fill="#111111"/>
<path id="Vector_35" d="M82.3492 58.4524C84.2103 58.4524 86.3942 57.7428 88.6615 55.5252C88.7162 55.4776 88.7606 55.4193 88.792 55.3539C88.8234 55.2885 88.8411 55.2174 88.844 55.1449C88.8469 55.0724 88.835 55.0001 88.809 54.9324C88.7829 54.8647 88.7433 54.8031 88.6926 54.7512C88.6418 54.6994 88.581 54.6585 88.5139 54.631C88.4467 54.6035 88.3747 54.59 88.3022 54.5914C88.2296 54.5928 88.1582 54.609 88.0921 54.639C88.0261 54.669 87.9669 54.7122 87.9181 54.7659C82.4592 60.1077 77.7579 55.7097 77.561 55.5199L77.4208 55.3779L76.5781 56.0361C76.9028 56.3342 79.3209 58.4524 82.3492 58.4524Z" fill="#111111"/>
</g>
</g>
<g id="cat">
<path id="arm" d="M115.462 25.0144C115.462 25.0144 129.229 19.7205 133.242 20.1569C137.255 20.5933 133.886 23.0487 133.37 23.258L112.276 30.7447C112.276 30.7447 111.639 27.7429 115.462 25.0144Z" stroke="#111111" stroke-width="1.06445" stroke-linecap="round" stroke-linejoin="round"/>
<path id="astronaut suit" d="M122.732 22.3817C123.225 21.5994 123.706 20.8383 124.085 20.2528C125.366 18.2818 126.995 13.6035 124.878 9.32976C123.133 5.79577 118.258 -0.438379 108.502 1.58408C97.9283 3.77686 81.5587 8.33804 82.7208 22.639C83.8828 36.9399 94.703 33.0635 94.703 33.0635L91.5096 46.3834C94.8626 49.6247 111.612 48.067 116.572 38.8613" stroke="#111111" stroke-width="1.06445" stroke-linecap="round" stroke-linejoin="round"/>
<path id="astronaut suit_2" d="M119.299 29.8274L119.732 28.3301" stroke="#111111" stroke-width="1.06445" stroke-linecap="round" stroke-linejoin="round"/>
<path id="tail" d="M73.1513 45.1982C71.6839 47.2678 70.2638 48.6475 69.0213 49.4584C67.7668 50.2771 66.7513 50.481 66.0589 50.3234C65.4113 50.176 64.9308 49.6847 64.7619 48.7821C64.5887 47.8558 64.759 46.5222 65.4691 44.8537C66.8949 41.5036 69.0393 39.2425 71.6682 38.2667C74.2931 37.2925 77.4961 37.5646 81.1152 39.4728L81.1152 39.4729C87.1112 42.6329 88.8103 49.5632 88.3998 53.496L88.3997 53.497C88.3408 54.072 88.1668 54.6292 87.888 55.1355C87.6094 55.6414 87.232 56.086 86.7781 56.443C86.1118 56.9605 84.6681 57.6214 83.0501 57.8611C81.434 58.1005 79.7564 57.9048 78.5269 56.8589L78.5267 56.8588C77.8674 56.2983 77.6626 55.5195 77.7534 54.5069C77.8458 53.4757 78.2383 52.2956 78.681 51.0422C78.72 50.9318 78.7594 50.8209 78.7989 50.7094C79.1981 49.585 79.6136 48.4146 79.7969 47.345C79.9985 46.1692 79.9441 44.9826 79.1561 44.0703C78.4462 43.2485 77.6819 42.8621 76.9116 42.8146C76.1568 42.768 75.4782 43.052 74.9352 43.4069C74.3904 43.7628 73.9446 44.2141 73.6393 44.5671C73.4853 44.7453 73.3638 44.9024 73.28 45.0161C73.2381 45.073 73.2054 45.1192 73.1827 45.152C73.1714 45.1684 73.1625 45.1815 73.1562 45.1908L73.1513 45.1982Z" fill="#FEE253" stroke="black"/>
<g id="cat_2">
<path id="Vector_36" d="M116.965 17.001C116.92 17.0866 116.853 17.1582 116.77 17.2082C116.687 17.2582 116.592 17.2847 116.495 17.2848C116.409 17.284 116.324 17.2628 116.247 17.2227C116.185 17.1901 116.129 17.1454 116.084 17.0912C116.039 17.037 116.006 16.9745 115.985 16.9071C115.964 16.8398 115.957 16.7691 115.964 16.699C115.971 16.6289 115.992 16.5609 116.025 16.4989C116.415 15.7644 117.844 14.7248 119.671 13.9744C119.295 13.0021 118.768 12.0951 118.11 11.2866C117.213 11.866 116.436 12.6115 115.819 13.483C115.771 13.554 115.705 13.6122 115.629 13.6523C115.552 13.6925 115.467 13.7135 115.381 13.7136C115.284 13.7135 115.189 13.687 115.106 13.6368C115.023 13.5867 114.955 13.5148 114.91 13.429C114.865 13.3431 114.844 13.2466 114.85 13.1498C114.856 13.053 114.888 12.9597 114.943 12.8798C115.608 11.9347 116.44 11.1194 117.398 10.4741C114.329 7.24704 109.612 5.50666 107.857 5.23877C101.781 7.34639 95.8076 12.5125 94.0566 18.2216C90.716 29.1038 104.918 30.4415 112.851 26.597C114.297 25.4031 116.612 24.1133 118.681 22.4386C119.251 21.452 119.66 20.3805 119.891 19.2647C120.277 17.8756 120.31 16.412 119.987 15.0069C118.436 15.6491 117.239 16.4865 116.965 17.001Z" fill="#FEE253"/>
<path id="eye II" d="M105.372 17.09C105.851 16.8979 105.993 16.1281 105.69 15.3705C105.386 14.6129 104.751 14.1544 104.272 14.3465C103.793 14.5386 103.65 15.3085 103.954 16.0661C104.258 16.8237 104.892 17.2821 105.372 17.09Z" fill="#111111"/>
<path id="eye" d="M112.278 14.5007C112.757 14.3086 112.9 13.5387 112.596 12.7811C112.292 12.0235 111.658 11.5651 111.178 11.7572C110.699 11.9493 110.557 12.7191 110.86 13.4767C111.164 14.2343 111.799 14.6928 112.278 14.5007Z" fill="#111111"/>
<g id="nose and mouth">
<path id="Vector_37" d="M111.601 15.9064L110.918 17.425C110.867 17.5314 110.777 17.6138 110.666 17.6546C110.556 17.6953 110.433 17.6913 110.326 17.6432L108.906 17.0134C108.831 16.9825 108.766 16.9295 108.72 16.8612C108.675 16.793 108.651 16.7127 108.652 16.6307C108.653 16.5488 108.679 16.4691 108.726 16.4019C108.773 16.3347 108.839 16.2832 108.915 16.2541L111.025 15.367C111.102 15.3323 111.187 15.3211 111.271 15.3348C111.354 15.3486 111.431 15.3867 111.493 15.4444C111.555 15.5021 111.598 15.5768 111.617 15.659C111.636 15.7412 111.631 15.8273 111.601 15.9064Z" fill="#111111"/>
<path id="Vector_38" d="M110.561 17.0488C110.938 17.9483 112.627 19.7987 112.613 17.9944" stroke="#111111" stroke-width="1.06445" stroke-linecap="round" stroke-linejoin="round"/>
<path id="Vector_39" d="M110.605 17.0312C110.983 17.9325 111.567 20.8243 109.807 19.0697" stroke="#111111" stroke-width="1.06445" stroke-linecap="round" stroke-linejoin="round"/>
</g>
<g id="whiskers">
<path id="Vector_40" d="M101.796 18.8494C100.021 17.9623 96.6311 18.0883 93.711 19.7205C93.6436 20.1524 93.611 20.589 93.6134 21.0262C96.3189 19.2361 99.6985 18.9842 101.317 19.7985C101.379 19.8341 101.448 19.8567 101.52 19.8647C101.592 19.8727 101.664 19.8661 101.733 19.8453C101.802 19.8244 101.866 19.7898 101.922 19.7434C101.977 19.697 102.022 19.6399 102.055 19.5756C102.087 19.5112 102.106 19.4409 102.111 19.3689C102.115 19.297 102.105 19.2249 102.081 19.1569C102.056 19.089 102.019 19.0268 101.97 18.9739C101.921 18.921 101.861 18.8787 101.796 18.8494Z" fill="#111111"/>
<path id="Vector_41" d="M102.198 20.4974C99.6541 20.32 96.3703 21.0917 94.1172 23.6003C94.2644 23.953 94.4425 24.292 94.6494 24.6133C97.2307 21.4199 101.285 21.5033 102.124 21.5601C102.265 21.5697 102.404 21.5229 102.511 21.4299C102.617 21.3369 102.683 21.2054 102.692 21.0642C102.702 20.9231 102.655 20.7839 102.562 20.6772C102.469 20.5706 102.338 20.5053 102.196 20.4956L102.198 20.4974Z" fill="#111111"/>
</g>
</g>
<path id="glass" d="M112.238 26.5883C116.794 24.337 127.058 19.4512 121.569 8.93436C116.08 -1.58245 97.3956 7.33768 94.0568 18.2253C90.7179 29.1129 104.581 30.376 112.238 26.5883Z" stroke="#111111" stroke-width="1.06445" stroke-linecap="round" stroke-linejoin="round"/>
<path id="arm II" d="M105.693 33.6173C105.803 33.525 105.915 33.4399 106.03 33.3441C106.563 32.9342 107.179 32.6466 107.836 32.5014C112.014 31.5434 129.354 27.5446 131.527 26.6913C134 25.7208 132.04 31.9319 128.234 33.3742C126.029 34.2116 117.59 38.2477 110.87 41.4925C105.867 43.9123 101.446 37.201 105.693 33.6173Z" stroke="#111111" stroke-width="1.06445" stroke-linecap="round" stroke-linejoin="round"/>
<g id="ear">
<path id="Vector_42" d="M93.3694 10.776C95.3292 8.283 97.9487 6.38935 100.931 5.31007C93.8112 3.89079 88.6894 3.46679 88.3594 6.62999C88.739 7.87717 91.9945 9.94754 93.3694 10.776Z" fill="#FEE253"/>
<path id="Vector_43" d="M94.6594 9.31939C94.9539 9.02312 95.2502 8.74281 95.5464 8.48202C91.8705 7.45127 91.0793 5.42349 91.0385 5.32237C90.9914 5.18921 90.8934 5.0802 90.766 5.01931C90.6385 4.95843 90.4921 4.95066 90.359 4.99771C90.2258 5.04476 90.1168 5.14278 90.0559 5.27021C89.9951 5.39763 89.9873 5.54403 90.0343 5.67718C90.0751 5.78186 90.9054 8.05979 94.6594 9.31939Z" fill="#111111"/>
</g>
<g id="ear II">
<path id="Vector_44" d="M89.3832 19.3198C90.2099 15.878 91.5227 13.2435 93.0218 11.2246C85.3489 11.3364 79.0065 11.2956 79.7463 15.9401C81.1656 19.577 89.1401 19.7278 89.1401 19.7278L89.3832 19.3198Z" fill="#FEE253"/>
<path id="Vector_45" d="M90.0385 17.0435C88.4486 17.3672 86.805 17.3154 85.2386 16.8922C83.6722 16.469 82.2262 15.6862 81.0155 14.6059C80.9665 14.5539 80.9076 14.5122 80.8421 14.4835C80.7767 14.4547 80.7062 14.4394 80.6347 14.4385C80.5633 14.4376 80.4924 14.4511 80.4262 14.4782C80.3601 14.5053 80.3001 14.5454 80.2498 14.5961C80.1995 14.6469 80.16 14.7073 80.1335 14.7737C80.1071 14.84 80.0942 14.9111 80.0958 14.9825C80.0974 15.054 80.1134 15.1244 80.1428 15.1895C80.1721 15.2546 80.2143 15.3132 80.2668 15.3617C82.3702 17.2592 85.0999 18.3135 87.9327 18.3226C88.5183 18.3218 89.1031 18.2767 89.6819 18.1878C89.7955 17.7963 89.9143 17.4149 90.0385 17.0435Z" fill="#111111"/>
</g>
</g>
</g>
</g>
</g>
<g id="Group 1171278658">
<path id="Vector_46" d="M156.427 87.2821C156.368 87.1931 156.331 87.0909 156.32 86.9843C156.308 86.8777 156.324 86.77 156.364 86.6707C156.404 86.5714 156.468 86.4836 156.551 86.4148C156.633 86.3461 156.731 86.2986 156.836 86.2765C159.19 85.7761 161.16 85.4818 163.656 85.047C164.733 84.8125 165.837 84.7249 166.938 84.7864C167.15 84.7943 167.356 84.8565 167.537 84.9672C167.718 85.0778 167.868 85.2332 167.971 85.4183C168.032 85.5929 168.05 85.7795 168.023 85.9623C167.996 86.1451 167.925 86.3187 167.817 86.4685C166.209 88.7527 162.775 90.3098 160.298 91.3525C155.477 93.3701 150.531 95.0768 145.492 96.462C141.745 97.4992 135.9 99.0134 132.887 99.4135C131.845 99.5518 129.86 99.9791 128.993 99.2143C126.731 97.2146 133.786 93.9698 134.946 93.4225C136.618 92.6335 137.463 92.26 138.91 91.5859C139.058 91.5184 139.226 91.508 139.382 91.5568C139.538 91.6055 139.67 91.71 139.753 91.85C139.837 91.9901 139.865 92.1561 139.834 92.3161C139.803 92.4761 139.714 92.619 139.584 92.7174C139.4 92.8534 139.202 93.0151 139.148 93.0474C138.59 93.4401 137.655 94.0722 137.786 94.8426C137.918 95.613 138.949 95.6213 139.533 95.4782C145.612 93.9884 151.597 92.135 157.454 89.928C159.24 89.2317 160.403 88.336 160.142 87.7061C159.831 86.9595 158.262 87.4469 157.308 87.649C157.141 87.6846 156.967 87.6695 156.809 87.6057C156.65 87.5419 156.514 87.4323 156.418 87.2909L156.427 87.2821Z" fill="#AC47F5"/>
<path id="Vector_47" d="M155.482 87.441C153.887 83.9612 149.665 83.2601 146.348 84.4405C146.319 84.4514 146.292 84.4682 146.27 84.4899C146.248 84.5115 146.23 84.5376 146.218 84.5663C141.78 86.0923 139.525 90.6027 141.564 94.9538C141.766 94.9034 141.966 94.8486 142.17 94.7932C142.11 94.685 142.057 94.5662 142.005 94.4538C141.548 93.4514 141.337 92.3539 141.391 91.2534C141.445 90.1528 141.761 89.0812 142.315 88.1283C143.267 86.5806 144.767 85.667 146.374 84.9594C146.421 84.977 146.472 84.9797 146.52 84.9672C151.061 83.7195 155.395 85.4332 155.581 90.6351L156.212 90.3976C156.156 89.3751 155.908 88.3721 155.482 87.441ZM151.066 97.257C148.702 98.1513 145.939 98.2147 143.97 96.8654L143.175 97.0835C144.001 97.8112 145.02 98.2846 146.109 98.4465C150.101 99.0451 154.862 97.2044 155.937 93.0614C155.671 93.1681 155.403 93.2629 155.136 93.3602C154.781 94.2661 154.233 95.0839 153.53 95.7568C152.827 96.4297 151.986 96.9416 151.066 97.257Z" fill="#191919"/>
</g>
</g>
<defs>
<clipPath id="clip0_1738_1838">
<rect width="202.026" height="135.01" fill="white" transform="translate(0.367188)"/>
</clipPath>
</defs>
</svg>
