<svg width="150" height="115" viewBox="0 0 150 115" fill="none" xmlns="http://www.w3.org/2000/svg">
<g id="marketing-digital-ads-performance">
<g id="Group">
<path id="Vector" d="M109.523 79.4513C104.689 74.3783 91.9911 67.6178 85.8741 64.2578C83.7951 67.7768 76.1414 68.2418 71.8949 66.9511C69.644 68.6884 67.9539 71.0494 67.0349 73.7401C68.1018 75.2858 67.0349 80.5351 66.6314 84.3713C67.1925 87.4853 68.0435 90.5401 69.1731 93.4958C66.8481 90.9023 64.4136 88.3516 62.4471 86.4136C54.0471 81.4178 55.9506 82.5136 52.9139 80.7421C52.5146 80.9446 52.129 81.1733 51.7596 81.4261C49.9193 82.6703 48.4185 84.3541 47.3934 86.3251C46.3682 88.2953 45.851 90.4913 45.8886 92.7121C47.0744 93.6871 63.0921 105.312 69.8001 109.655C77.7374 114.771 83.2949 111.992 84.1071 104.739C84.5174 100.97 85.8846 83.3078 85.9596 82.2953C88.0491 84.5093 94.5959 89.7458 97.7016 90.5033C97.4976 92.6453 95.4186 110.658 95.2791 111.821C99.1041 115.031 106.211 115.879 109.415 114.401C110.201 109.751 112.062 93.0451 112.322 87.4253C112.45 84.6263 112.384 82.4513 109.523 79.4513Z" fill="#FFD076"/>
<path id="Vector_2" d="M108.147 21.2235C106.797 21.4935 106.647 25.1235 106.637 26.5103C108.163 26.3301 109.711 26.5364 111.137 27.1103C110.384 23.5605 109.187 21.0953 108.147 21.2235Z" fill="#FFD076"/>
<path id="Vector_3" d="M111.895 33.207C110.656 34.106 109.213 34.6837 107.695 34.8885C108.032 36.2025 109.072 39.732 110.417 39.648C111.452 39.5198 112.009 36.8408 111.895 33.207Z" fill="#FFD076"/>
<path id="Vector_4" d="M101.335 28.3906L93.4549 29.3596C92.7139 30.6706 92.9299 33.3496 93.7826 34.7746C94.3826 34.3329 95.7326 34.2046 96.8321 34.0906C97.7441 34.0051 97.9294 34.2901 98.0719 34.8031C98.1004 34.9029 98.1146 35.0026 98.1431 35.1166C98.8121 34.7176 100.199 34.2489 100.708 34.5039L102.058 34.3329C100.876 33.1644 100.48 29.8869 101.335 28.3906Z" fill="#FFD076"/>
</g>
<g id="Group_2">
<path id="Vector_5" d="M42.002 39.7072C43.8908 39.7072 45.422 38.176 45.422 36.2872C45.422 34.3984 43.8908 32.8672 42.002 32.8672C40.1132 32.8672 38.582 34.3984 38.582 36.2872C38.582 38.176 40.1132 39.7072 42.002 39.7072Z" fill="#E9E9E9"/>
<path id="Vector_6" d="M104.943 115.09C102.039 115.019 99.1984 114.225 96.6776 112.781C95.9224 115.106 94.4974 116.643 93.9844 117.797C96.2074 122.471 105.028 130.322 110.13 133.397C109.821 125.066 104.652 121.19 104.943 115.09Z" fill="#E9E9E9"/>
<path id="Vector_7" d="M49.0398 79.0663C49.7665 79.5508 50.593 80.5055 51.7473 81.4318C50.2715 82.4443 49.0106 83.738 48.0373 85.2395C47.0638 86.7418 46.3972 88.421 46.0758 90.1813C41.9005 90.737 37.3833 93.2308 30.9258 92.333C33.1083 88.3858 44.0665 80.4485 49.0398 79.0663Z" fill="#E9E9E9"/>
<path id="Vector_8" d="M67.85 89.5399C68.2205 90.7939 68.6622 92.1191 69.1752 93.5014C66.8502 90.9221 64.4157 88.3571 62.4492 86.3906C64.715 87.7301 66.71 88.9024 67.85 89.5399Z" fill="#E9E9E9"/>
<path id="Vector_9" d="M85.9498 82.3008C85.8215 83.854 85.6933 85.5925 85.5508 87.4008C86.5055 87.643 93.26 89.41 96.5375 90.2365C92.687 88.0488 89.1298 85.3825 85.9498 82.3008Z" fill="#E9E9E9"/>
<path id="Vector_10" d="M85.6758 59.4023C86.3455 61.4543 87.1308 63.4667 88.027 65.4301C87.3288 65.0453 86.6163 64.6606 85.8753 64.2616C85.8468 62.4376 85.7755 60.8273 85.6758 59.4023Z" fill="#E9E9E9"/>
<path id="Vector_11" d="M52.7156 71.3867C52.1156 72.427 51.9889 73.3817 52.4156 73.9367C52.8574 74.4925 53.6554 74.7062 55.2799 74.2075C54.2675 73.4237 53.3998 72.469 52.7156 71.3867Z" fill="#E9E9E9"/>
<path id="Vector_12" d="M62.8904 67.4661C63.051 67.7404 63.1063 68.0637 63.046 68.3757C62.9857 68.6878 62.8139 68.9672 62.5627 69.1618C61.6364 68.2498 60.7814 67.3948 60.0547 66.6118C61.6949 66.3966 62.3932 66.8646 62.8904 67.4661Z" fill="#E9E9E9"/>
<path id="Vector_13" d="M66.9225 55.0273C66.2568 56.4275 65.5195 57.7926 64.7137 59.1171C63.6022 57.9921 62.619 57.0508 61.9492 56.4921C63.93 55.8966 65.8522 55.3266 66.9225 55.0273Z" fill="#E9E9E9"/>
<path id="Vector_14" d="M90.2354 46.832C88.8531 47.117 87.8414 47.7013 87.8841 48.2428C87.8841 49.0385 90.3501 49.2725 90.4491 49.283C90.4064 48.77 90.3209 47.858 90.2354 46.832Z" fill="#E9E9E9"/>
<path id="Vector_15" d="M101.065 47.415C101.037 47.8995 100.068 48.4553 98.4716 48.8543C98.4146 48.3555 98.2151 47.3438 98.0156 46.332C100.196 46.4888 101.094 46.9163 101.065 47.415Z" fill="#E9E9E9"/>
<path id="Vector_16" d="M100.922 41.4317C100.368 41.7838 99.7471 42.0166 99.0983 42.1157C98.0153 42.2867 97.2743 41.3747 98.8561 40.4485C97.7018 40.6735 96.7756 39.7217 98.4571 38.653C98.3213 38.6513 98.1863 38.6272 98.0581 38.5817C97.7161 38.938 97.0606 38.6672 96.4336 36.2305C96.6991 37.2478 96.7088 38.3149 96.4621 39.337C96.5206 40.8635 96.9406 42.3544 97.6876 43.687C97.7168 43.7536 97.7551 43.8159 97.8016 43.8722C99.0406 43.5861 100.231 43.1204 101.336 42.49C101.165 42.1511 101.026 41.7967 100.922 41.4317Z" fill="#E9E9E9"/>
<path id="Vector_17" d="M87.8295 27.367C90.252 26.4835 89.1833 23.5622 87.459 22.9637C89.1975 22.0945 88.6703 19.0877 86.49 19.2017C87.7155 17.563 86.7323 15.2687 84.21 15.625C84.5378 13.5445 83.1128 12.175 80.8613 13.1312C80.9183 10.7942 78.0863 9.78245 76.8285 11.35C76.3035 9.04145 73.7363 8.19995 71.7983 10.45C71.2733 8.0987 67.5375 8.02745 67.1955 10.393C65.6138 8.36795 62.1368 9.5237 62.379 11.8322C60.2273 9.62345 57.306 12.046 57.504 14.4572C55.2668 13.2032 53.2005 16.2955 54.129 18.3047C51.2933 18.718 50.679 21.4547 52.5045 23.1047C49.8398 24.0452 50.2245 26.6387 51.963 27.8357C49.9253 29.2322 50.424 32.011 52.8465 32.3815C51.108 34.3315 52.9605 37.5115 55.3403 37.0555C54.015 39.2642 55.8248 41.701 58.1903 40.7305C57.9878 41.2951 57.9991 41.9143 58.2221 42.4711C58.4452 43.0278 58.8644 43.4836 59.4008 43.7522C61.0965 43.1395 65.1293 41.6147 65.1293 41.6147C69.7748 39.805 70.8863 36.2852 71.784 32.623C69.2048 31.798 70.3305 29.2172 71.6273 30.2147C72.867 31.1695 72.468 29.887 72.3398 28.519C73.9963 28.0339 75.7035 27.7423 77.427 27.6497C79.5375 34.0045 79.1783 37.1087 76.6103 36.9925C75.3758 36.8163 74.1928 36.3818 73.1378 35.7175C73.4921 36.6067 74.0147 37.4193 74.6768 38.1107C74.6768 39.5905 75.7223 41.4655 77.94 42.7L78.738 43.1417C79.1228 43.3555 79.5503 43.5977 79.992 43.8685C80.5073 43.7359 80.9528 43.411 81.2363 42.9605C81.5198 42.51 81.6203 41.9681 81.5168 41.446C81.963 41.7387 82.4895 41.8842 83.022 41.862C83.5553 41.8398 84.0675 41.651 84.4883 41.3222C84.9083 40.9934 85.2143 40.5411 85.3635 40.0291C85.5135 39.517 85.4985 38.9709 85.3215 38.4677C87.801 38.4392 88.1288 35.7032 86.8035 34.3922C88.8983 33.8935 88.8128 31.813 87.2738 30.9722C89.2118 30.3595 89.3115 28.2077 87.8295 27.367Z" fill="#E9E9E9"/>
</g>
<g id="Group_3">
<path id="Vector_18" d="M96.0492 105.156L83.5234 107.365" stroke="black" stroke-width="0.564931" stroke-linecap="round" stroke-linejoin="round"/>
<path id="Vector_19" d="M109.672 39.3672L120.516 100.842L110.926 102.537" stroke="black" stroke-width="0.564931" stroke-linecap="round" stroke-linejoin="round"/>
<path id="Vector_20" d="M86.3438 35.2771L90.9038 34.4648" stroke="black" stroke-width="0.564931" stroke-linecap="round" stroke-linejoin="round"/>
<path id="Vector_21" d="M41.6002 53.6577L39.8047 43.4832L55.8574 40.6484" stroke="black" stroke-width="0.564931" stroke-linecap="round" stroke-linejoin="round"/>
<path id="Vector_22" d="M46.2714 80.1764L43.3359 63.5039" stroke="black" stroke-width="0.564931" stroke-linecap="round" stroke-linejoin="round"/>
<path id="Vector_23" d="M69.9675 109.761L52.041 112.925L48.8633 94.9414" stroke="black" stroke-width="0.564931" stroke-linecap="round" stroke-linejoin="round"/>
<path id="Vector_24" d="M51.4931 20.915L38.9634 23.1223C37.6898 23.3455 36.4726 23.8175 35.3815 24.5113C34.2903 25.2051 33.3466 26.1071 32.6042 27.1658C31.8618 28.2245 31.3353 29.4191 31.0548 30.6814C30.7742 31.9436 30.7452 33.2488 30.9692 34.5223V34.5365L39.763 84.2053M134.096 136.754L113.505 19.979C113.282 18.7059 112.81 17.4893 112.115 16.399C111.422 15.3085 110.519 14.3657 109.46 13.6245C108.401 12.8833 107.207 12.3582 105.944 12.0793C104.683 11.8003 103.378 11.773 102.105 11.999L84.3002 15.1356L134.096 136.754ZM49.0667 136.754L41.0405 91.421L49.0667 136.754Z" stroke="black" stroke-width="0.564931" stroke-linecap="round" stroke-linejoin="round"/>
<path id="Vector_25" d="M131.815 48.9148C133.814 48.9148 135.434 47.2943 135.434 45.2953C135.434 43.2963 133.814 41.6758 131.815 41.6758C129.816 41.6758 128.195 43.2963 128.195 45.2953C128.195 47.2943 129.816 48.9148 131.815 48.9148Z" stroke="black" stroke-width="0.564931" stroke-linecap="round" stroke-linejoin="round"/>
<path id="Vector_26" d="M142.631 56.3523C144.63 56.3523 146.251 54.7318 146.251 52.7328C146.251 50.7338 144.63 49.1133 142.631 49.1133C140.632 49.1133 139.012 50.7338 139.012 52.7328C139.012 54.7318 140.632 56.3523 142.631 56.3523Z" stroke="black" stroke-width="0.564931" stroke-linecap="round" stroke-linejoin="round"/>
<path id="Vector_27" d="M130.473 58.5617L143.939 39.3242" stroke="black" stroke-width="0.564931" stroke-linecap="round" stroke-linejoin="round"/>
<path id="Vector_28" d="M144.226 19.0466C143.866 18.788 143.419 18.6818 142.981 18.7512C142.544 18.8206 142.152 19.0598 141.889 19.4171L141.533 19.9016C141.533 19.9016 141.008 19.5311 140.991 19.5168C140.623 19.2777 140.175 19.1931 139.745 19.2812C139.314 19.3693 138.936 19.623 138.691 19.9877C138.446 20.3524 138.354 20.7987 138.435 21.2305C138.516 21.6622 138.764 22.0448 139.125 22.2956L142.359 24.5613L144.625 21.3266C144.867 20.9687 144.96 20.5313 144.885 20.1062C144.811 19.681 144.575 19.3013 144.226 19.0466Z" stroke="black" stroke-width="0.564931" stroke-linecap="round" stroke-linejoin="round"/>
<path id="Vector_29" d="M72.9918 118.696C73.3044 118.045 73.4041 117.312 73.2768 116.601C73.2097 115.779 72.8952 114.996 72.3748 114.355C71.8544 113.715 71.1522 113.246 70.3608 113.012C69.5693 112.778 68.7255 112.788 67.9402 113.043C67.1549 113.297 66.4649 113.782 65.9608 114.436C65.4567 115.089 65.1622 115.881 65.1158 116.705C65.0695 117.528 65.2736 118.347 65.7012 119.053C66.1289 119.76 66.7601 120.32 67.5119 120.66C68.2638 121.001 69.1011 121.106 69.9138 120.962C70.7404 120.816 71.5073 120.435 72.1226 119.865L73.9181 120.249L72.9918 118.696Z" stroke="black" stroke-width="0.564931" stroke-linecap="round" stroke-linejoin="round"/>
<path id="Vector_30" d="M115.301 113.666L118.407 110.046L122.554 112.383L121.257 105.059L114.004 106.341L115.301 113.666Z" stroke="black" stroke-width="0.564931" stroke-linecap="round" stroke-linejoin="round"/>
<path id="Vector_31" d="M47.3555 35.3489L52.1486 34.5039" stroke="black" stroke-width="0.564931" stroke-linecap="round" stroke-linejoin="round"/>
<path id="Vector_32" d="M15.918 87.9023C16.9017 87.9023 17.6992 87.1051 17.6992 86.1211C17.6992 85.1371 16.9017 84.3398 15.918 84.3398C14.9342 84.3398 14.1367 85.1371 14.1367 86.1211C14.1367 87.1051 14.9342 87.9023 15.918 87.9023Z" stroke="black" stroke-width="0.564931" stroke-linecap="round" stroke-linejoin="round"/>
<path id="Vector_33" d="M26.5508 86.0195C27.5346 86.0195 28.332 85.2223 28.332 84.2383C28.332 83.2543 27.5346 82.457 26.5508 82.457C25.567 82.457 24.7695 83.2543 24.7695 84.2383C24.7695 85.2223 25.567 86.0195 26.5508 86.0195Z" stroke="black" stroke-width="0.564931" stroke-linecap="round" stroke-linejoin="round"/>
<path id="Vector_34" d="M17.6602 85.8087L24.7994 84.5547" stroke="black" stroke-width="0.564931" stroke-linecap="round" stroke-linejoin="round"/>
<path id="Vector_35" d="M3.75 69.8754L7.626 69.1914L15.1357 84.5244" stroke="black" stroke-width="0.564931" stroke-linecap="round" stroke-linejoin="round"/>
<path id="Vector_36" d="M13.8686 81.9436L27.2066 78.1388L28.7029 70.9141L10.0781 74.2058" stroke="black" stroke-width="0.564931" stroke-linecap="round" stroke-linejoin="round"/>
<path id="Vector_37" d="M16.6055 39.5664L18.1445 48.3017" stroke="black" stroke-width="0.564931" stroke-linecap="round" stroke-linejoin="round"/>
<path id="Vector_38" d="M21.747 43.1719L13.0117 44.7109" stroke="black" stroke-width="0.564931" stroke-linecap="round" stroke-linejoin="round"/>
<path id="Vector_39" d="M137.043 72.9688L139.736 88.3018" stroke="black" stroke-width="0.564931" stroke-linecap="round" stroke-linejoin="round"/>
<path id="Vector_40" d="M146.066 79.2969L130.719 81.9901" stroke="black" stroke-width="0.564931" stroke-linecap="round" stroke-linejoin="round"/>
<path id="Vector_41" d="M98.4695 48.843C98.3555 47.7885 97.5575 44.4397 97.6858 43.668" stroke="black" stroke-width="0.564931" stroke-linecap="round" stroke-linejoin="round"/>
<path id="Vector_42" d="M96.4766 39.4648C96.6003 41.0101 97.0518 42.5113 97.8018 43.8681C99.0431 43.5883 100.234 43.1223 101.336 42.4858C101.163 42.1542 101.025 41.8056 100.923 41.4456" stroke="black" stroke-width="0.564931" stroke-linecap="round" stroke-linejoin="round"/>
<path id="Vector_43" d="M111.906 33.2116C112.02 36.8453 111.45 39.5273 110.424 39.6526C109.113 39.8131 107.545 35.8193 106.918 30.7321C106.291 25.6448 106.847 21.3863 108.158 21.2273C109.198 21.1006 110.395 23.5643 111.15 27.1126" stroke="black" stroke-width="0.564931" stroke-linecap="round" stroke-linejoin="round"/>
<path id="Vector_44" d="M102.06 34.3368C100.877 33.1683 100.478 29.8908 101.333 28.3945" stroke="black" stroke-width="0.564931" stroke-linecap="round" stroke-linejoin="round"/>
<path id="Vector_45" d="M93.7833 34.7783C92.9283 33.3533 92.7146 30.6743 93.4556 29.3633" stroke="black" stroke-width="0.564931" stroke-linecap="round" stroke-linejoin="round"/>
<path id="Vector_46" d="M106.652 26.5137C110.258 26.1575 113.364 27.6387 113.635 29.9195C113.906 32.2002 111.269 34.3797 107.678 34.8927" stroke="black" stroke-width="0.564931" stroke-linecap="round" stroke-linejoin="round"/>
<path id="Vector_47" d="M100.707 34.5069L102.061 34.3359L109.799 39.4517" stroke="black" stroke-width="0.564931" stroke-linecap="round" stroke-linejoin="round"/>
<path id="Vector_48" d="M107.604 21.5664L101.334 28.3914L92.8272 29.4317C89.0937 29.8877 89.4072 35.5022 93.1835 35.4024" stroke="black" stroke-width="0.564931" stroke-linecap="round" stroke-linejoin="round"/>
<path id="Vector_49" d="M90.2315 46.8333C88.835 47.1183 87.8375 47.7026 87.8802 48.2298C87.9372 48.9281 89.7327 49.5506 94.6632 49.3413C98.4252 49.1816 101.023 48.2163 101.061 47.4033C101.084 46.9181 100.178 46.4771 98.012 46.3203" stroke="black" stroke-width="0.564931" stroke-linecap="round" stroke-linejoin="round"/>
<path id="Vector_50" d="M62.5586 69.1781C62.8105 68.9839 62.9828 68.7045 63.0432 68.3922C63.1035 68.0799 63.0478 67.7564 62.8864 67.4824C62.2301 66.4511 59.9201 65.9674 56.3741 67.9811C53.0944 69.8434 51.4946 72.7766 52.4126 73.9519C52.8439 74.5046 53.6524 74.7214 55.2769 74.2226" stroke="black" stroke-width="0.564931" stroke-linecap="round" stroke-linejoin="round"/>
<path id="Vector_51" d="M60.0352 66.6133C61.7024 68.4088 64.0004 70.5568 66.4619 72.926C66.857 73.3378 67.1533 73.8343 67.3286 74.3773C67.5039 74.9203 67.5535 75.4963 67.4737 76.061C67.3882 77.315 66.5902 84.554 66.4619 85.58C66.2909 86.8618 64.8119 87.5458 64.9087 78.1985" stroke="black" stroke-width="0.564931" stroke-linecap="round" stroke-linejoin="round"/>
<path id="Vector_52" d="M52.7148 71.3711C53.4359 72.5643 54.4011 73.5911 55.5471 74.3853C56.6931 75.1788 57.9939 75.7218 59.3643 75.9776" stroke="black" stroke-width="0.564931" stroke-linecap="round" stroke-linejoin="round"/>
<path id="Vector_53" d="M59.6234 75.3047C59.5379 75.5754 59.0819 76.6442 59.0234 76.8047" stroke="black" stroke-width="0.564931" stroke-linecap="round" stroke-linejoin="round"/>
<path id="Vector_54" d="M57.2001 75.332C57.1004 76.4863 57.3426 77.9248 58.4399 78.6523C59.7936 79.5523 60.3779 79.1225 61.7744 76.13" stroke="black" stroke-width="0.564931" stroke-linecap="round" stroke-linejoin="round"/>
<path id="Vector_55" d="M60.1094 78.8373C61.7054 79.7778 62.4179 79.4643 63.7716 76.3008" stroke="black" stroke-width="0.564931" stroke-linecap="round" stroke-linejoin="round"/>
<path id="Vector_56" d="M62.1055 79.0671C63.559 79.8921 64.414 79.7226 65.7677 76.4023" stroke="black" stroke-width="0.564931" stroke-linecap="round" stroke-linejoin="round"/>
<path id="Vector_57" d="M61.3516 74.1354C62.8842 74.1174 64.4165 74.1924 65.9401 74.3604" stroke="black" stroke-width="0.564931" stroke-linecap="round" stroke-linejoin="round"/>
<path id="Vector_58" d="M53.082 56.1797C55.3905 58.6014 61.5893 65.9267 62.886 67.4514" stroke="black" stroke-width="0.564931" stroke-linecap="round" stroke-linejoin="round"/>
<path id="Vector_59" d="M55.2656 58.6041C56.7904 58.0626 64.3144 55.7541 66.9221 55.0273C66.2524 56.4238 65.5114 57.7918 64.7134 59.1171" stroke="black" stroke-width="0.564931" stroke-linecap="round" stroke-linejoin="round"/>
<path id="Vector_60" d="M66.6211 84.3086C67.2818 87.8981 68.3035 91.4118 69.6706 94.7966" stroke="black" stroke-width="0.564931" stroke-linecap="round" stroke-linejoin="round"/>
<path id="Vector_61" d="M61.9492 56.5078C64.0012 58.2036 68.9032 63.4618 71.8957 66.9531C69.6453 68.673 67.9585 71.0246 67.0507 73.7076" stroke="black" stroke-width="0.564931" stroke-linecap="round" stroke-linejoin="round"/>
<path id="Vector_62" d="M49.0648 70.315C48.7798 67.3225 54.5511 62.05 59.2393 63.19" stroke="black" stroke-width="0.564931" stroke-linecap="round" stroke-linejoin="round"/>
<path id="Vector_63" d="M90.461 49.2834C90.404 48.3429 90.1332 46.0914 90.0905 44.1961C90.0192 41.0326 90.2457 40.2481 91.0595 38.7211C91.7975 37.324 92.6967 36.0184 93.7385 34.8309C94.301 34.3396 95.7192 34.2076 96.8592 34.1041C97.7712 34.0216 97.9482 34.3014 98.099 34.8166C98.3232 35.8216 98.4147 36.8517 98.3697 37.8804C98.3397 38.7496 97.3722 39.7756 96.4745 36.2304C96.9305 38.3536 96.7167 40.2054 95.0352 41.3304" stroke="black" stroke-width="0.564931" stroke-linecap="round" stroke-linejoin="round"/>
<path id="Vector_64" d="M100.907 37.7969C101.662 38.0676 101.67 39.1041 100.878 39.6351C100.266 40.0405 99.5764 40.3169 98.8534 40.4474C97.6969 40.6634 96.7729 39.7206 98.4544 38.6519" stroke="black" stroke-width="0.564931" stroke-linecap="round" stroke-linejoin="round"/>
<path id="Vector_65" d="M100.876 39.6367C101.043 39.7177 101.184 39.8432 101.285 39.9993C101.384 40.1553 101.44 40.3359 101.444 40.5214C101.449 40.7069 101.402 40.89 101.309 41.0506C101.216 41.2113 101.081 41.3433 100.919 41.4322C100.365 41.7851 99.7441 42.0181 99.0946 42.1162C98.0109 42.2842 97.2706 41.3752 98.8524 40.449" stroke="black" stroke-width="0.564931" stroke-linecap="round" stroke-linejoin="round"/>
<path id="Vector_66" d="M98.1992 35.1037C98.8442 34.7195 99.5725 34.4957 100.322 34.4512C101.376 34.389 101.462 35.8012 100.451 36.204C99.7922 36.5015 99.0895 36.6892 98.3702 36.7597" stroke="black" stroke-width="0.564931" stroke-linecap="round" stroke-linejoin="round"/>
<path id="Vector_67" d="M100.778 36.0039C101.533 36.3174 101.533 37.4004 100.707 37.9419C100.294 38.2127 98.9968 38.8419 98.1133 38.5832" stroke="black" stroke-width="0.564931" stroke-linecap="round" stroke-linejoin="round"/>
<path id="Vector_68" d="M80.7578 46.6211C83.1233 48.8298 85.6741 50.7678 85.8878 64.2626C112.022 78.3843 112.607 81.4766 112.336 87.4331C112.079 93.0761 110.17 110.148 109.411 114.394C106.219 115.876 99.1223 115.021 95.2748 111.815C95.7593 107.54 97.5548 92.1071 97.6973 90.5148C95.2891 89.9306 86.6393 87.6648 85.5563 87.3941" stroke="black" stroke-width="0.564931" stroke-linecap="round" stroke-linejoin="round"/>
<path id="Vector_69" d="M95.8633 106.883C98.4283 109.719 105.924 111.201 110.113 109.533" stroke="black" stroke-width="0.564931" stroke-linecap="round" stroke-linejoin="round"/>
<path id="Vector_70" d="M86.3868 76.9141C86.0448 80.8891 84.6438 99.8558 84.0926 104.744C83.2743 111.997 77.7176 114.787 69.7856 109.661C63.0971 105.337 47.4986 93.9856 45.8883 92.7173C45.8506 90.2701 46.4858 87.8596 47.7247 85.7483C48.9635 83.6378 50.7585 81.9076 52.9136 80.7473C57.2883 83.2838 65.0831 88.0006 67.8476 89.5223" stroke="black" stroke-width="0.564931" stroke-linecap="round" stroke-linejoin="round"/>
<path id="Vector_71" d="M49.4653 95.3676C49.4225 91.0641 52.5575 84.8083 57.089 83.2266" stroke="black" stroke-width="0.564931" stroke-linecap="round" stroke-linejoin="round"/>
<path id="Vector_72" d="M71.8945 66.9524C76.483 68.4059 83.95 67.5082 85.888 64.2734" stroke="black" stroke-width="0.564931" stroke-linecap="round" stroke-linejoin="round"/>
<path id="Vector_73" d="M73.9051 67.4102C68.6041 75.3474 70.2856 87.7592 72.9503 100.94C64.6568 95.6529 54.0833 89.2839 51.9023 87.7449" stroke="black" stroke-width="0.564931" stroke-linecap="round" stroke-linejoin="round"/>
<path id="Vector_74" d="M96.6737 112.797C95.9327 115.122 94.4935 116.659 93.9805 117.813C96.2035 122.473 105.038 130.324 110.126 133.402C109.798 124.927 104.454 120.663 104.939 115.12" stroke="black" stroke-width="0.564931" stroke-linecap="round" stroke-linejoin="round"/>
<path id="Vector_75" d="M51.745 81.4319C50.5908 80.5199 49.7643 79.5652 49.0375 79.0664C44.0643 80.4487 33.106 88.3859 30.9258 92.3189C37.381 93.2189 41.9125 90.7372 46.0758 90.1672" stroke="black" stroke-width="0.564931" stroke-linecap="round" stroke-linejoin="round"/>
<path id="Vector_76" d="M101.065 47.418C101.25 68.6362 100.865 70.818 99.2266 71.8567" stroke="black" stroke-width="0.564931" stroke-linecap="round" stroke-linejoin="round"/>
<path id="Vector_77" d="M87.8828 48.2422C88.4671 51.5482 89.8493 60.5827 90.3338 62.8342" stroke="black" stroke-width="0.564931" stroke-linecap="round" stroke-linejoin="round"/>
<path id="Vector_78" d="M88.7656 53.5594C92.1406 54.9559 99.2821 54.6994 101.106 52.3594" stroke="black" stroke-width="0.564931" stroke-linecap="round" stroke-linejoin="round"/>
<path id="Vector_79" d="M85.957 82.3047C89.134 85.3902 92.692 88.0572 96.5448 90.2419" stroke="black" stroke-width="0.564931" stroke-linecap="round" stroke-linejoin="round"/>
<path id="Vector_80" d="M62.4453 86.3906C64.3953 88.3571 66.8486 90.9079 69.1713 93.5014" stroke="black" stroke-width="0.564931" stroke-linecap="round" stroke-linejoin="round"/>
<path id="Vector_81" d="M85.6719 59.3867C86.3394 61.4395 87.1239 63.4521 88.0231 65.4145" stroke="black" stroke-width="0.564931" stroke-linecap="round" stroke-linejoin="round"/>
<path id="Vector_82" d="M74.6597 36.478C74.1411 36.2514 73.6364 35.9939 73.1484 35.707C73.5075 36.5912 74.027 37.4014 74.6807 38.0965" stroke="black" stroke-width="0.564931" stroke-linecap="round" stroke-linejoin="round"/>
<path id="Vector_83" d="M52.3363 73.8411C47.2813 68.5258 44.7883 65.2964 42.2953 62.2086C38.3053 57.2638 40.6843 53.2011 45.8578 49.8538C51.2578 46.3611 58.9078 44.0496 65.138 41.6173C69.782 39.8038 70.8808 36.2878 71.807 32.6256C69.2278 31.8006 70.3505 29.2243 71.6503 30.2173C72.887 31.1616 72.4753 29.8753 72.3628 28.5216C74.0212 28.0447 75.7273 27.7531 77.45 27.6523C80.0068 35.3863 78.926 38.3128 74.6578 36.4746C74.3825 40.0746 76.151 41.7013 77.9488 42.6996C80.5565 44.1531 84.9313 46.5186 88.4795 51.8196" stroke="black" stroke-width="0.564931" stroke-linecap="round" stroke-linejoin="round"/>
<path id="Vector_84" d="M64.3398 41.9297C68.6576 43.3547 74.5398 47.0739 77.6208 49.5249C78.3041 47.4629 78.6828 45.3123 78.7458 43.1409" stroke="black" stroke-width="0.564931" stroke-linecap="round" stroke-linejoin="round"/>
<path id="Vector_85" d="M59.4125 43.7531C58.8779 43.4834 58.4601 43.0281 58.2372 42.4723C58.0143 41.9166 58.0018 41.2987 58.202 40.7344C55.8365 41.7034 54.0267 39.2809 55.352 37.0594C52.9722 37.5154 51.1197 34.3376 52.8582 32.3996C50.4357 32.0149 49.9332 29.2361 51.9747 27.8396C50.2362 26.6396 49.8515 24.0491 52.5162 23.1086C50.6922 21.4586 51.305 18.7196 54.1407 18.3086C53.2145 16.2994 55.2807 13.2086 57.5157 14.4611C57.3162 12.0671 60.2375 9.63036 62.3907 11.8361C62.1485 9.52761 65.6255 8.37336 67.2072 10.3969C67.5492 8.03136 71.2827 8.10261 71.81 10.4539C73.748 8.20386 76.31 9.04311 76.8402 11.3539C78.0942 9.78636 80.93 10.7981 80.873 13.1351C83.123 12.1804 84.548 13.5484 84.2217 15.6289C86.744 15.2726 87.7272 17.5669 86.5017 19.2056C88.6962 19.0916 89.2092 22.0984 87.4707 22.9676C89.1957 23.5676 90.2638 26.4874 87.8413 27.3709C88.1923 27.5611 88.4758 27.8553 88.6535 28.213C88.8313 28.5707 88.8935 28.9745 88.8327 29.3692C88.772 29.7638 88.5905 30.13 88.3137 30.4177C88.037 30.7054 87.6777 30.9004 87.2855 30.9761C88.8245 31.8169 88.91 33.9011 86.801 34.3961C88.1262 35.7071 87.7985 38.4461 85.319 38.4716C85.496 38.9748 85.511 39.5209 85.3618 40.033C85.2118 40.545 84.9057 40.9973 84.4857 41.3261C84.065 41.6549 83.5527 41.8437 83.0195 41.8659C82.487 41.8881 81.9605 41.7426 81.5142 41.4499C81.6177 41.972 81.5172 42.5139 81.2337 42.9644C80.9502 43.4149 80.5047 43.7398 79.9895 43.8724" stroke="black" stroke-width="0.564931" stroke-linecap="round" stroke-linejoin="round"/>
<path id="Vector_86" d="M58.2123 123.027L53.9515 120.035C53.4732 119.7 53.1472 119.19 53.0454 118.615C52.9437 118.04 53.0744 117.448 53.4089 116.97C53.7434 116.492 54.2541 116.166 54.8289 116.064C55.4037 115.962 55.9954 116.093 56.4738 116.427L57.1293 116.883L57.5853 116.228C57.9198 115.75 58.4304 115.424 59.005 115.323C59.5796 115.221 60.171 115.352 60.649 115.686C61.1271 116.021 61.4527 116.532 61.5543 117.106C61.6558 117.681 61.525 118.272 61.1905 118.75L58.2123 123.027Z" stroke="black" stroke-width="0.564931" stroke-linejoin="round"/>
</g>
</g>
</svg>
