<svg width="17" height="20" viewBox="0 0 17 20" fill="none" xmlns="http://www.w3.org/2000/svg">
<g id="Group 3">
<path id="Vector" d="M15.972 9.20741C15.5148 11.8137 13.3886 13.7837 10.5984 13.7837H8.82699C8.46571 13.7837 8.10172 14.1182 8.044 14.4881L7.26829 19.412C7.2233 19.6924 7.09197 19.7856 6.80795 19.7856H3.95868C3.67057 19.7856 3.60241 19.6892 3.64558 19.4052L3.97277 16L0.552728 15.8232C0.265074 15.8232 0.161009 15.6665 0.201908 15.3792L2.5354 0.582463C2.58039 0.302069 2.75489 0.181641 3.038 0.181641H8.95604C11.8049 0.181641 13.6071 2.09941 13.8275 4.58614C15.5226 5.73134 16.3151 7.2551 15.9724 9.20695L15.972 9.20741Z" fill="#001C64"/>
<path id="Vector_2" d="M4.83994 10.4866L3.97334 16.0004L3.4253 19.4597C3.41512 19.5263 3.41942 19.5944 3.43791 19.6593C3.4564 19.7242 3.48864 19.7844 3.53245 19.8357C3.57625 19.887 3.6306 19.9283 3.69177 19.9567C3.75295 19.9851 3.81954 20 3.887 20.0004H6.89624C7.03359 20.0003 7.16638 19.9511 7.27075 19.8618C7.37512 19.7725 7.44422 19.649 7.46564 19.5133L8.25771 14.4871C8.27922 14.3515 8.34836 14.228 8.45272 14.1388C8.55708 14.0496 8.68982 14.0005 8.82711 14.0004H10.5985C11.9482 13.9986 13.253 13.5147 14.2775 12.6359C15.302 11.7571 15.9789 10.5412 16.1861 9.20734C16.4929 7.25004 15.5081 5.46815 13.8227 4.58789C13.8188 4.79643 13.8006 5.00446 13.7681 5.21048C13.5601 6.54361 12.883 7.75866 11.8587 8.63681C10.8343 9.51496 9.53011 9.9985 8.18091 10.0003H5.40889C5.27169 10.0004 5.13902 10.0494 5.03473 10.1385C4.93043 10.2277 4.86136 10.3511 4.83994 10.4866Z" fill="#0070E0"/>
<path id="Vector_3" d="M3.97216 16.0002H0.468053C0.400448 15.9998 0.333709 15.9849 0.272382 15.9565C0.211056 15.928 0.156585 15.8867 0.11268 15.8353C0.0687752 15.7839 0.0364692 15.7236 0.0179636 15.6586C-0.000542051 15.5935 -0.00481233 15.5253 0.00544361 15.4585L2.36666 0.487167C2.38789 0.351486 2.45687 0.227847 2.56119 0.138528C2.6655 0.049209 2.79828 8.23326e-05 2.93561 0H8.95226C11.8011 0 13.8724 2.07319 13.8237 4.58491C13.0655 4.19372 12.2234 3.99298 11.3703 4.00004H6.35428C6.21692 4.00007 6.08407 4.0491 5.97961 4.13832C5.87516 4.22753 5.80595 4.35108 5.78443 4.48675L4.83921 10.4864L3.97216 16.0002Z" fill="#003087"/>
</g>
</svg>
