<svg width="16" height="17" viewBox="0 0 16 17" fill="none" xmlns="http://www.w3.org/2000/svg">
<g id="ph:dots-three-vertical-bold">
<path id="Vector" d="M7 4.25C7 4.05222 7.05865 3.85888 7.16853 3.69443C7.27841 3.52998 7.43459 3.40181 7.61732 3.32612C7.80004 3.25043 8.00111 3.23063 8.19509 3.26922C8.38907 3.3078 8.56725 3.40304 8.70711 3.54289C8.84696 3.68275 8.9422 3.86093 8.98079 4.05491C9.01937 4.24889 8.99957 4.44996 8.92388 4.63268C8.84819 4.81541 8.72002 4.97159 8.55557 5.08147C8.39112 5.19135 8.19778 5.25 8 5.25C7.73478 5.25 7.48043 5.14464 7.29289 4.95711C7.10536 4.76957 7 4.51522 7 4.25ZM8 7.5C7.80222 7.5 7.60888 7.55865 7.44443 7.66853C7.27998 7.77841 7.15181 7.93459 7.07612 8.11732C7.00043 8.30004 6.98063 8.50111 7.01922 8.69509C7.0578 8.88907 7.15304 9.06726 7.29289 9.20711C7.43275 9.34696 7.61093 9.4422 7.80491 9.48079C7.99889 9.51937 8.19996 9.49957 8.38268 9.42388C8.56541 9.34819 8.72159 9.22002 8.83147 9.05557C8.94135 8.89112 9 8.69778 9 8.5C9 8.23478 8.89464 7.98043 8.70711 7.79289C8.51957 7.60536 8.26522 7.5 8 7.5ZM8 11.75C7.80222 11.75 7.60888 11.8087 7.44443 11.9185C7.27998 12.0284 7.15181 12.1846 7.07612 12.3673C7.00043 12.55 6.98063 12.7511 7.01922 12.9451C7.0578 13.1391 7.15304 13.3173 7.29289 13.4571C7.43275 13.597 7.61093 13.6922 7.80491 13.7308C7.99889 13.7694 8.19996 13.7496 8.38268 13.6739C8.56541 13.5982 8.72159 13.47 8.83147 13.3056C8.94135 13.1411 9 12.9478 9 12.75C9 12.4848 8.89464 12.2304 8.70711 12.0429C8.51957 11.8554 8.26522 11.75 8 11.75Z" fill="black"/>
</g>
</svg>
