<svg width="13" height="18" viewBox="0 0 13 18" fill="none" xmlns="http://www.w3.org/2000/svg">
<path id="Vector" fill-rule="evenodd" clip-rule="evenodd" d="M4.99479 5.35553C4.99479 4.57932 5.63601 4.23058 6.67097 4.23058C8.38601 4.26767 10.069 4.70285 11.587 5.50178V0.90072C10.0251 0.288234 8.3598 -0.017331 6.68222 0.000758667C2.67739 0.000758667 0 2.09317 0 5.62552C0 11.0928 7.51468 10.2041 7.51468 12.5665C7.51468 13.4777 6.71597 13.7702 5.62476 13.7702C3.70242 13.6642 1.83091 13.1135 0.157494 12.1615V16.875C1.86265 17.6119 3.69973 17.9946 5.55727 18C9.66334 18 12.4982 15.9751 12.4982 12.3752C12.532 6.51424 4.99479 7.57169 4.99479 5.35553Z" fill="white"/>
</svg>
