<svg width="29" height="29" viewBox="0 0 29 29" fill="none" xmlns="http://www.w3.org/2000/svg">
<g id="stripe 1" clip-path="url(#clip0_2572_2487)">
<g id="Layer_2">
<g id="Layer_1-2">
<path id="Vector" d="M22.39 0H6.48C2.90119 0 0 2.90119 0 6.48V22.39C0 25.9688 2.90119 28.87 6.48 28.87H22.39C25.9688 28.87 28.87 25.9688 28.87 22.39V6.48C28.87 2.90119 25.9688 0 22.39 0Z" fill="#1E1F24"/>
<path id="Vector_2" fill-rule="evenodd" clip-rule="evenodd" d="M13.3004 11.2001C13.3004 10.5101 13.8704 10.2001 14.7904 10.2001C16.3149 10.2331 17.8109 10.6199 19.1604 11.3301V7.24013C17.772 6.69567 16.2916 6.42405 14.8004 6.44013C11.2404 6.44013 8.86035 8.30013 8.86035 11.4401C8.86035 16.3001 15.5404 15.5101 15.5404 17.6101C15.5404 18.4201 14.8304 18.6801 13.8604 18.6801C12.1515 18.5859 10.4879 18.0964 9.00035 17.2501V21.4401C10.5161 22.0951 12.1491 22.4353 13.8004 22.4401C17.4504 22.4401 19.9704 20.6401 19.9704 17.4401C20.0004 12.2301 13.3004 13.1701 13.3004 11.2001Z" fill="white"/>
</g>
</g>
</g>
<defs>
<clipPath id="clip0_2572_2487">
<rect width="28.87" height="28.87" fill="white"/>
</clipPath>
</defs>
</svg>
