<svg width="14" height="14" viewBox="0 0 14 14" fill="none" xmlns="http://www.w3.org/2000/svg">
<path id="Vector" fill-rule="evenodd" clip-rule="evenodd" d="M13.8867 6.38841L13.7263 8.09312C13.4619 10.9019 13.3297 12.3063 12.5019 13.1531C11.6741 14 10.4334 14 7.95193 14H6.04807C3.56662 14 2.32589 14 1.49806 13.1531C0.670234 12.3063 0.538053 10.9019 0.273698 8.09312L0.113265 6.38841C-0.0127416 5.04959 -0.0757415 4.38017 0.153291 4.10345C0.277184 3.95376 0.44566 3.86204 0.625791 3.84622C0.958774 3.81697 1.37695 4.29303 2.21331 5.24515C2.64584 5.73755 2.8621 5.98374 3.10336 6.02189C3.23704 6.04296 3.37324 6.02126 3.49668 5.95917C3.71945 5.84703 3.86799 5.54268 4.16505 4.93396L5.73083 1.7254C6.29216 0.575134 6.57286 0 7 0C7.42714 0 7.70784 0.575134 8.26917 1.72539L9.83493 4.93396C10.132 5.54268 10.2805 5.84703 10.5033 5.95917C10.6268 6.02126 10.763 6.04296 10.8966 6.02189C11.1379 5.98374 11.3541 5.73755 11.7867 5.24515C12.623 4.29303 13.0412 3.81697 13.3742 3.84622C13.5543 3.86204 13.7228 3.95376 13.8467 4.10345C14.0757 4.38017 14.0127 5.04959 13.8867 6.38841ZM7.66668 7.4893L7.59787 7.36589C7.33187 6.8887 7.19887 6.65014 7 6.65014C6.80113 6.65014 6.66813 6.8887 6.40213 7.36589L6.33332 7.4893C6.25779 7.62489 6.21999 7.69272 6.16105 7.73745C6.10211 7.78218 6.02875 7.79877 5.88196 7.83202L5.74833 7.86226C5.23177 7.97909 4.9735 8.03754 4.91206 8.23515C4.85061 8.43276 5.02668 8.63863 5.37882 9.05037L5.46992 9.15691C5.56999 9.27395 5.62002 9.33247 5.64256 9.40485C5.66503 9.47723 5.65747 9.55528 5.64235 9.71138L5.62856 9.85355C5.57533 10.4029 5.54872 10.6777 5.70955 10.7997C5.87048 10.9219 6.11226 10.8105 6.59589 10.5878L6.72098 10.5302C6.85846 10.467 6.92713 10.4353 7 10.4353C7.07287 10.4353 7.14154 10.467 7.27902 10.5302L7.40411 10.5878C7.88774 10.8105 8.12952 10.9219 8.29045 10.7997C8.45131 10.6777 8.42464 10.4029 8.37144 9.85355L8.35765 9.71138C8.34253 9.55528 8.33497 9.47723 8.35744 9.40485C8.37998 9.33247 8.43003 9.27395 8.53006 9.15691L8.6212 9.05037C8.9733 8.63863 9.14942 8.43276 9.08796 8.23515C9.0265 8.03754 8.7682 7.97909 8.25167 7.86226L8.11804 7.83202C7.97125 7.79877 7.89789 7.78218 7.83895 7.73745C7.78001 7.69272 7.74221 7.62489 7.66668 7.4893Z" fill="white"/>
</svg>
