<svg width="22" height="22" viewBox="0 0 22 22" fill="none" xmlns="http://www.w3.org/2000/svg">
<g id="Frame">
<g id="SVGRepo_iconCarrier">
<path id="Vector" fill-rule="evenodd" clip-rule="evenodd" d="M16.0391 2.51953C16.4187 2.51953 16.7266 2.82734 16.7266 3.20703V5.26953H18.7891C19.1687 5.26953 19.4766 5.57734 19.4766 5.95703C19.4766 6.33672 19.1687 6.64453 18.7891 6.64453H16.7266V8.70703C16.7266 9.08672 16.4187 9.39453 16.0391 9.39453C15.6594 9.39453 15.3516 9.08672 15.3516 8.70703V6.64453H13.2891C12.9094 6.64453 12.6016 6.33672 12.6016 5.95703C12.6016 5.57734 12.9094 5.26953 13.2891 5.26953H15.3516V3.20703C15.3516 2.82734 15.6594 2.51953 16.0391 2.51953Z" fill="#1E1F24"/>
<path id="Vector_2" d="M1.83203 5.95703C1.83203 4.01249 1.83203 3.04022 2.43612 2.43612C3.04022 1.83203 4.01249 1.83203 5.95703 1.83203C7.90157 1.83203 8.87385 1.83203 9.47795 2.43612C10.082 3.04022 10.082 4.01249 10.082 5.95703C10.082 7.90157 10.082 8.87385 9.47795 9.47795C8.87385 10.082 7.90157 10.082 5.95703 10.082C4.01249 10.082 3.04022 10.082 2.43612 9.47795C1.83203 8.87385 1.83203 7.90157 1.83203 5.95703Z" fill="#1E1F24"/>
<path id="Vector_3" d="M11.9141 16.0391C11.9141 14.0945 11.9141 13.1222 12.5181 12.5181C13.1222 11.9141 14.0945 11.9141 16.0391 11.9141C17.9836 11.9141 18.9559 11.9141 19.56 12.5181C20.1641 13.1222 20.1641 14.0945 20.1641 16.0391C20.1641 17.9836 20.1641 18.9559 19.56 19.56C18.9559 20.1641 17.9836 20.1641 16.0391 20.1641C14.0945 20.1641 13.1222 20.1641 12.5181 19.56C11.9141 18.9559 11.9141 17.9836 11.9141 16.0391Z" fill="#1E1F24"/>
<path id="Vector_4" d="M1.83203 16.0391C1.83203 14.0945 1.83203 13.1222 2.43612 12.5181C3.04022 11.9141 4.01249 11.9141 5.95703 11.9141C7.90157 11.9141 8.87385 11.9141 9.47795 12.5181C10.082 13.1222 10.082 14.0945 10.082 16.0391C10.082 17.9836 10.082 18.9559 9.47795 19.56C8.87385 20.1641 7.90157 20.1641 5.95703 20.1641C4.01249 20.1641 3.04022 20.1641 2.43612 19.56C1.83203 18.9559 1.83203 17.9836 1.83203 16.0391Z" fill="#1E1F24"/>
</g>
</g>
</svg>
