<svg width="32" height="32" viewBox="0 0 32 32" fill="none" xmlns="http://www.w3.org/2000/svg">
<g id="Frame">
<g id="SVGRepo_iconCarrier">
<g id="Group">
<path id="Vector" d="M26.3191 5.68157C22.7436 2.10614 16.9467 2.10614 13.3712 5.68157L12.4101 6.6427C12.0196 7.03322 12.0196 7.6664 12.4101 8.05692C12.8006 8.44744 13.4337 8.44744 13.8243 8.05692L14.7855 7.09578C17.5799 4.3014 22.1104 4.3014 24.9048 7.09578C27.6992 9.89017 27.6992 14.4208 24.9048 17.2152L23.9437 18.1763C23.5532 18.5668 23.5532 19.2 23.9437 19.5905C24.3343 19.9811 24.9673 19.9811 25.3579 19.5905L26.3191 18.6293C29.8944 15.054 29.8944 9.25701 26.3191 5.68157Z" fill="white"/>
<path id="Vector_2" d="M8.05692 12.4101C8.44744 12.8006 8.44744 13.4337 8.05692 13.8243L7.09578 14.7855C4.3014 17.5799 4.3014 22.1104 7.09578 24.9048C9.89017 27.6992 14.4208 27.6992 17.2152 24.9048L18.1763 23.9437C18.5668 23.5532 19.2 23.5532 19.5905 23.9437C19.9811 24.3341 19.9811 24.9673 19.5905 25.3579L18.6293 26.3191C15.054 29.8944 9.25701 29.8944 5.68157 26.3191C2.10614 22.7436 2.10614 16.9467 5.68157 13.3712L6.6427 12.4101C7.03322 12.0196 7.6664 12.0196 8.05692 12.4101Z" fill="white"/>
</g>
<path id="Vector_3" d="M19.5911 12.4101C19.9816 12.8006 19.9816 13.4337 19.5911 13.8243L13.8243 19.5911C13.4337 19.9816 12.8006 19.9816 12.4101 19.5911C12.0196 19.2005 12.0196 18.5675 12.4101 18.1769L18.1769 12.4101C18.5673 12.0196 19.2005 12.0196 19.5911 12.4101Z" fill="white"/>
</g>
</g>
</svg>
