<svg width="24" height="24" viewBox="0 0 24 24" fill="none" xmlns="http://www.w3.org/2000/svg">
<g id="alert-triangle">
<path id="Vector" d="M10.2868 3.86002L1.81685 18C1.64222 18.3024 1.54981 18.6453 1.54884 18.9945C1.54786 19.3438 1.63834 19.6872 1.81127 19.9905C1.98421 20.2939 2.23357 20.5468 2.53455 20.7239C2.83554 20.901 3.17765 20.9962 3.52685 21H20.4668C20.816 20.9962 21.1582 20.901 21.4591 20.7239C21.7601 20.5468 22.0095 20.2939 22.1824 19.9905C22.3554 19.6872 22.4458 19.3438 22.4449 18.9945C22.4439 18.6453 22.3515 18.3024 22.1768 18L13.7068 3.86002C13.5286 3.56613 13.2776 3.32314 12.978 3.15451C12.6785 2.98587 12.3406 2.89728 11.9968 2.89728C11.6531 2.89728 11.3152 2.98587 11.0157 3.15451C10.7161 3.32314 10.4651 3.56613 10.2868 3.86002Z" stroke="#FF4B55" stroke-width="1.89474" stroke-linecap="round" stroke-linejoin="round"/>
<path id="Vector_2" d="M12 9V13" stroke="#FF4B55" stroke-width="1.89474" stroke-linecap="round" stroke-linejoin="round"/>
<path id="Vector_3" d="M12 17.0002H12.0105" stroke="#FF4B55" stroke-width="1.89474" stroke-linecap="round" stroke-linejoin="round"/>
</g>
</svg>
