<svg width="32" height="32" viewBox="0 0 32 32" fill="none" xmlns="http://www.w3.org/2000/svg">
<g id="Layer_1">
<g id="SVGRepo_iconCarrier">
<path id="Vector" d="M26.3107 29.1424C26.2402 29.635 25.8183 30.0008 25.3207 30.0008H6.68243C6.18454 30.0008 5.76249 29.6346 5.69239 29.1416L3.44349 13.3283C3.35784 12.7261 3.82523 12.1875 4.43353 12.1875H27.5815C28.19 12.1875 28.6575 12.7266 28.5714 13.329L26.3107 29.1424Z" stroke="white" stroke-width="1.5" stroke-miterlimit="10"/>
<path id="Vector_2" d="M16.0006 26.1867C19.5132 26.1867 22.3606 23.9063 22.3606 21.0933C22.3606 18.2804 19.5132 16 16.0006 16C12.4881 16 9.64062 18.2804 9.64062 21.0933C9.64062 23.9063 12.4881 26.1867 16.0006 26.1867Z" stroke="white" stroke-width="1.5" stroke-miterlimit="10"/>
<path id="Vector_3" d="M16.001 22.3615C16.7006 22.3615 17.2677 21.7944 17.2677 21.0948C17.2677 20.3952 16.7006 19.8281 16.001 19.8281C15.3015 19.8281 14.7344 20.3952 14.7344 21.0948C14.7344 21.7944 15.3015 22.3615 16.001 22.3615Z" fill="white"/>
<path id="Vector_4" d="M4.54688 7.09375H27.4535" stroke="white" stroke-width="1.5" stroke-miterlimit="10" stroke-linecap="round"/>
<path id="Vector_5" d="M7.09375 2H24.9071" stroke="white" stroke-width="1.5" stroke-miterlimit="10" stroke-linecap="round"/>
</g>
</g>
</svg>
