<svg width="150" height="150" viewBox="0 0 150 150" fill="none" xmlns="http://www.w3.org/2000/svg">
<g id="boombox" clip-path="url(#clip0_1090_3970)">
<g id="Group">
<path id="Vector" d="M141.969 68.0268C141.211 69.7326 140.296 71.3643 139.235 72.9008L135.858 49.8798L27.4256 48.9604L23.4138 50.8788L134.464 51.8097L137.134 75.1617C135.535 76.9808 133.689 78.5669 131.651 79.8738C124.377 84.5009 20.1373 81.1678 20.0605 81.1697L20.091 81.3049C26.0423 105.917 21.1133 123.965 21.1133 123.965L134.715 125.873C142.377 122.637 146.733 112.404 146.733 112.404C147.36 99.7809 142.565 70.8598 142.094 68.0659C142.091 68.0529 142.085 68.041 142.076 68.0312C142.067 68.0215 142.056 68.0142 142.043 68.0103C142.03 68.0063 142.017 68.0058 142.004 68.0087C141.991 68.0116 141.979 68.0178 141.969 68.0268ZM51.6955 113.945C50.9062 115.388 49.8032 116.634 48.4679 117.593C47.1326 118.552 45.599 119.2 43.9802 119.487C38.6058 120.507 32.8161 117.578 30.1293 112.806C24.6175 103.025 32.6384 89.7691 40.4988 92.5768L42.8843 92.5404C46.7424 92.5278 49.8535 95.8612 51.3903 99.407C53.7642 104.853 53.3412 110.739 51.6955 113.945ZM83.4192 98.8137C77.9387 98.5259 72.4493 98.4478 66.9629 98.5795C66.8132 97.3956 66.6595 96.2079 66.5082 95.0243C66.5872 95.032 82.2745 94.4011 82.8269 94.6865C82.9543 94.755 82.8992 94.579 83.4192 98.8137ZM123.763 112.962C122.973 114.404 121.87 115.65 120.535 116.61C119.2 117.569 117.666 118.216 116.047 118.503C110.673 119.523 104.883 116.594 102.197 111.826C96.6853 102.045 104.704 88.7856 112.567 91.5958L114.953 91.5602C118.811 91.5475 121.922 94.8809 123.459 98.4267C125.834 103.874 125.407 109.761 123.763 112.962Z" fill="#D1A9FF"/>
<path id="Vector_2" d="M123.524 69.8788C122.699 69.9877 117.985 70.2066 118.462 69.3469C118.638 69.0277 119.095 68.9068 119.422 68.7782C121.833 67.8575 124.49 67.8058 126.935 68.6319C126.383 69.497 124.541 69.7443 123.524 69.8788Z" fill="#AC47F5"/>
<path id="Vector_3" d="M126.212 24.3062C131.843 50.9328 117.892 62.4898 114.345 64.9473C108.669 56.0615 95.155 29.1124 117.048 -0.0916563C117.048 -0.0916563 101.846 1.18654 86.6695 16.8785C86.6695 16.8785 84.6559 7.00651 90.9127 -1.50855C90.9127 -1.50855 73.0054 5.77522 61.7259 23.5485L64.1439 23.721C64.2269 23.7258 64.3046 23.7631 64.3602 23.8248C64.4158 23.8865 64.4448 23.9677 64.4409 24.0506C64.4371 24.1336 64.4007 24.2117 64.3397 24.2681C64.2786 24.3244 64.1978 24.3544 64.1148 24.3515C63.1922 24.2871 62.2662 24.218 61.3436 24.1536C61.1932 24.3976 61.0444 24.6482 60.8934 24.8961C60.9344 24.9453 60.959 25.0062 60.9636 25.0701C60.9683 25.1339 60.9529 25.1977 60.9194 25.2524C60.886 25.307 60.8363 25.3498 60.7773 25.3748C60.7183 25.3997 60.653 25.4056 60.5905 25.3915C54.3359 36.1029 50.585 50.3852 54.1208 68.8509C71.9124 68.3814 97.1543 67.7798 116.169 67.595C115.585 66.808 115.027 66.0015 114.498 65.1768C119.899 63.5996 124.878 60.8318 129.068 57.077C147.577 39.9812 126.227 24.3801 126.212 24.3062ZM82.3881 25.1239C82.3835 25.2072 82.3463 25.2854 82.2847 25.3416C82.223 25.3978 82.1417 25.4276 82.0583 25.4245C81.1348 25.3054 80.2031 25.2622 79.2726 25.2956C79.1893 25.2908 79.1112 25.2536 79.055 25.1919C78.9989 25.1303 78.969 25.0491 78.9719 24.9658C78.9782 24.8831 79.0158 24.8059 79.0771 24.75C79.1384 24.6941 79.2188 24.6637 79.3017 24.6651C80.2315 24.6324 81.1625 24.6757 82.0853 24.7945C82.1686 24.7996 82.2467 24.8367 82.3031 24.8981C82.3596 24.9595 82.3901 25.0404 82.3881 25.1239ZM88.3959 24.7142C85.385 24.3821 82.3591 24.2043 79.33 24.1815C78.9246 24.1811 78.9559 23.5501 79.3601 23.5516C82.3902 23.5708 85.4172 23.7492 88.4287 24.086C88.8282 24.1317 88.8033 24.7574 88.3975 24.7107L88.3959 24.7142Z" fill="#FEE253"/>
<path id="Vector_4" d="M32.3756 69.467L20.1141 81.1739C22.5888 81.2518 124.402 84.4893 131.654 79.8771C139.578 74.8366 141.402 69.0083 141.955 68.0387C143.954 66.369 35.0994 69.3998 32.3756 69.467ZM36.5339 74.669C34.6213 75.9083 31.8846 75.1004 31.8519 74.7502L31.6424 72.6547C36.1517 73.3484 36.6723 71.7954 36.6723 71.7954C36.908 74.5715 37.0564 74.3326 36.5339 74.669ZM44.2715 74.6435C42.2554 75.9478 39.6183 75.0263 39.5896 74.7247L39.38 72.6292C43.8893 73.3228 44.4101 71.7706 44.4101 71.7706C44.6459 74.5505 44.7924 74.3067 44.2715 74.6435ZM52.4193 74.5262C50.5334 75.7502 47.7723 74.9709 47.7374 74.6074L47.5279 72.5119C52.038 73.2061 52.5577 71.6526 52.5577 71.6526C52.7934 74.4217 52.9432 74.1926 52.4193 74.5262ZM127.823 72.6467C127.815 73.1845 127.648 73.2391 127.169 73.548C123.626 75.83 118.595 74.3466 118.533 73.6928L118.151 69.8323C126.459 71.1089 127.417 68.2474 127.417 68.2474C127.871 73.1918 127.826 72.4521 127.822 72.6469L127.823 72.6467ZM19.9857 81.2994L20.0942 81.3081L20.0727 81.2126L19.9857 81.2994Z" fill="#FCAFB7"/>
<path id="Vector_5" d="M23.2398 50.9599C23.1286 51.0119 23.1227 50.9994 23.2453 51.0048L23.2398 50.9599Z" fill="#D1A9FF"/>
<path id="Vector_6" d="M23.2334 50.8777C23.3871 52.9719 22.6126 43.6774 25.4201 76.3102L28.3605 73.5996L25.9942 54.5573L131.579 54.8304L134.745 78.3215L137.18 75.5743L134.464 51.8096L23.2334 50.8777Z" fill="#AC47F5"/>
<path id="Vector_7" d="M48.0043 71.8375C46.1616 72.6062 49.0509 73.1187 51.4642 72.5139C51.6909 72.4878 51.9074 72.4049 52.0936 72.2729C52.2798 72.1408 52.4296 71.9639 52.5292 71.7586C51.0645 71.2158 49.4492 71.244 48.0043 71.8375ZM43.3143 72.6324C43.5418 72.6069 43.7591 72.5241 43.946 72.3919C44.1329 72.2597 44.2832 72.0823 44.3831 71.8763C42.9171 71.3347 41.301 71.3647 39.8562 71.9603C37.9954 72.7377 40.9406 73.2275 43.3143 72.6324ZM35.5745 72.6585C35.8012 72.6325 36.0177 72.5497 36.2039 72.4178C36.3901 72.2859 36.54 72.1091 36.6397 71.9038C35.1741 71.3616 33.5581 71.3913 32.1134 71.987C30.2618 72.7607 33.1904 73.2559 35.5745 72.6585ZM12.4269 73.562C10.1703 75.6927 9.69262 78.9757 10.2135 81.9137C10.3955 82.8872 10.6537 83.8449 10.9856 84.778C11.1162 85.1547 11.736 85.0233 11.5992 84.6395C10.846 82.7106 10.5395 80.6361 10.7026 78.5717C10.8679 76.851 11.6305 75.2424 12.8581 74.0253C12.9195 73.9681 12.9557 73.8888 12.9588 73.805C12.9618 73.7211 12.9313 73.6395 12.8742 73.578C12.817 73.5166 12.7377 73.4804 12.6539 73.4774C12.57 73.4743 12.4884 73.5048 12.4269 73.562Z" fill="#AC47F5"/>
<path id="Vector_8" d="M11.9653 68.6565C9.21835 69.4184 7.06809 73.0641 6.18047 75.8172C5.45598 78.038 5.23105 80.3914 5.52177 82.7092C5.8125 85.027 6.6117 87.2519 7.86223 89.2249C8.08473 89.5608 8.64375 89.2664 8.41912 88.9279C6.89568 86.5253 6.07212 83.7456 6.0409 80.901C6.00969 78.0563 6.77206 75.2592 8.24241 72.8238C9.14488 71.3685 10.3818 69.7458 12.1037 69.27C12.4936 69.1604 12.359 68.5468 11.9653 68.6565ZM150.916 111.974C151.643 110.758 151.997 109.355 151.934 107.939C151.871 106.523 151.394 105.157 150.563 104.01C150.322 103.683 149.863 104.117 150.104 104.44C150.843 105.484 151.263 106.72 151.313 107.998C151.363 109.276 151.04 110.541 150.384 111.639C150.173 111.983 150.705 112.32 150.916 111.974Z" fill="#AC47F5"/>
<path id="Vector_9" d="M150.591 97.4568C150.521 97.4144 150.436 97.4013 150.356 97.4203C150.276 97.4393 150.207 97.4889 150.163 97.5585C150.119 97.6281 150.104 97.7121 150.121 97.7926C150.138 97.8731 150.186 97.9436 150.255 97.9891C151.575 99.0843 152.658 100.437 153.438 101.965C154.218 103.492 154.679 105.163 154.792 106.874C154.905 108.586 154.669 110.302 154.097 111.919C153.525 113.536 152.629 115.02 151.465 116.279C151.192 116.572 151.619 117.04 151.894 116.739C153.129 115.414 154.078 113.849 154.684 112.142C155.29 110.436 155.54 108.623 155.418 106.816C155.295 105.009 154.804 103.246 153.974 101.636C153.144 100.027 151.993 98.6042 150.591 97.4568ZM16.5409 119.894C16.6996 119.523 16.0997 119.332 15.941 119.703C15.4645 120.93 15.4771 122.292 15.9762 123.51C16.4752 124.728 17.4226 125.707 18.6229 126.247C18.9977 126.405 19.1835 125.802 18.8141 125.647C17.7724 125.16 16.9565 124.292 16.5338 123.223C16.1111 122.153 16.1136 120.962 16.5409 119.894Z" fill="#AC47F5"/>
<path id="Vector_10" d="M13.1703 119.802C13.2586 119.395 13.3563 118.864 13.7718 118.662C14.1378 118.487 13.8385 117.931 13.474 118.105C12.6649 118.489 12.5272 119.621 12.4377 120.412C12.2476 122.217 12.5936 124.038 13.4326 125.648C14.2715 127.258 15.5662 128.584 17.1548 129.463C17.5107 129.65 17.8491 129.118 17.4903 128.931C15.8988 128.06 14.6237 126.708 13.8477 125.068C13.0717 123.428 12.8345 121.584 13.1703 119.802ZM112.513 86.5658C103.037 85.4717 96.9092 92.3802 96.2796 101.584C95.6417 111.108 101.192 120.776 111.459 121.479C115.625 121.761 120.01 121.533 123.572 119.122C129.356 115.205 131.199 107.034 129.628 100.515C127.79 92.8861 120.055 87.4363 112.513 86.5658ZM123.764 112.962C122.974 114.405 121.871 115.651 120.536 116.61C119.201 117.569 117.667 118.217 116.048 118.504C110.674 119.523 104.884 116.595 102.198 111.826C96.6863 102.046 104.705 88.7864 112.568 91.5966L114.954 91.5609C118.812 91.5483 121.923 94.8809 123.46 98.4275C125.835 103.874 125.408 109.762 123.764 112.962Z" fill="#AC47F5"/>
<path id="Vector_11" d="M15.2665 112.785C15.9614 111.584 12.4759 108.347 11.4398 107.421C12.8938 105.88 14.3512 104.337 15.8117 102.793C16.9493 103.776 18.9095 105.527 19.5535 106.872C19.1267 106.803 18.6897 106.895 18.3267 107.13C17.9637 107.365 17.7005 107.726 17.5879 108.143C17.5136 108.377 17.5071 108.627 17.5693 108.864C17.6314 109.101 17.7596 109.316 17.9389 109.483C18.1183 109.651 18.3415 109.764 18.5825 109.809C18.8235 109.855 19.0725 109.831 19.3006 109.741C21.8475 108.842 19.8647 105.804 17.9417 103.903C16.8406 102.817 15.6673 101.806 14.4298 100.878C14.3716 100.842 14.3031 100.826 14.2349 100.832C14.1666 100.839 14.1023 100.867 14.0517 100.913C13.2335 101.716 9.20135 106.062 9.31014 106.353C9.13533 106.889 10.6531 106.754 13.8426 110.838C13.5462 110.852 13.263 110.965 13.0387 111.159C12.8144 111.353 12.662 111.617 12.6061 111.909C12.5737 112.119 12.5912 112.334 12.6574 112.537C12.7236 112.739 12.8365 112.923 12.9871 113.074C13.1377 113.224 13.3216 113.338 13.524 113.404C13.7264 113.47 13.9416 113.488 14.1521 113.455C14.3767 113.436 14.5939 113.366 14.7871 113.25C14.9802 113.134 15.1442 112.975 15.2665 112.785ZM18.2147 108.768C17.9735 108.041 18.6218 107.28 19.7676 107.526C20.1182 109.186 18.5017 109.619 18.2147 108.768ZM15.3337 102.382L10.9712 107.004C10.694 106.757 10.4124 106.512 10.1321 106.272C11.4162 104.612 12.8054 103.036 14.2913 101.554C14.6393 101.827 14.9941 102.099 15.3337 102.382ZM13.3605 112.575C13.2557 112.443 13.2013 112.277 13.2068 112.108C13.2124 111.939 13.2775 111.778 13.3907 111.652C13.7283 111.283 14.4685 111.374 14.7257 112.172C14.9449 112.88 13.7101 112.978 13.3605 112.575ZM63.576 103.36C71.4162 103.386 79.251 102.942 87.038 102.029C87.1052 102.014 87.1656 101.977 87.2095 101.924C87.2534 101.871 87.2784 101.805 87.2807 101.736C87.2597 98.6985 87.0311 95.666 86.5964 92.6597C86.5803 92.4043 86.5276 92.1525 86.44 91.912C86.2135 91.428 85.7208 91.435 85.2585 91.4428C64.5174 91.7492 62.2198 91.5217 62.2831 92.5344L63.1525 102.287C63.1741 102.365 63.2249 102.431 63.2942 102.473C63.3636 102.514 63.4463 102.528 63.5251 102.51C63.604 102.492 63.673 102.445 63.7178 102.377C63.7627 102.31 63.7799 102.228 63.766 102.149L62.9227 92.6789C63.8709 92.412 64.8559 92.2997 65.8398 92.3465C86.7386 92.0817 85.7579 91.9447 85.8736 92.2043C86.3674 95.2574 86.6232 98.3441 86.6387 101.437C78.9911 102.325 71.2971 102.754 63.5982 102.722C63.2032 102.727 63.1702 103.358 63.576 103.36ZM131.482 80.6245C132.84 84.9919 132.583 87.1303 134.337 124.871C134.356 125.273 134.984 125.307 134.967 124.901C133.131 85.1904 133.389 84.6473 132.099 80.4852C131.975 80.1061 131.36 80.2403 131.482 80.6245ZM57.2487 82.0499C45.2911 81.7365 32.7782 82.1446 22.1568 80.6046C21.7573 80.545 21.7287 81.1746 22.127 81.2353C33.0107 82.8226 46.4644 82.3644 57.216 82.685C57.6232 82.6897 57.6527 82.0606 57.2487 82.0499Z" fill="#1D1D1B"/>
<path id="Vector_12" d="M130.323 81.0228C130.725 80.9831 130.586 80.3658 130.185 80.41C121.031 81.3721 111.922 81.7727 102.755 81.9579C98.1878 82.0501 60.431 82.5374 59.8499 82.5597C59.4468 82.5734 59.4138 83.2071 59.82 83.1903C64.4055 83.0136 88.2671 82.7489 88.6895 82.7494C89.1834 87.6107 91.0265 104.293 91.4369 107.779C83.4334 107.806 75.4209 107.639 67.3992 107.28C60.6451 106.973 60.641 106.896 60.4933 106.93C60.0354 100.02 59.1683 92.1804 57.9139 84.3694C57.8492 83.9694 57.2371 84.1075 57.3004 84.5079C59.1338 95.9133 60.1738 107.432 60.4128 118.981C60.4206 119.386 61.0511 119.415 61.0435 119.011C60.9635 115.187 60.7947 111.366 60.537 107.548C70.8519 108.155 81.1832 108.441 91.5159 108.406C91.9827 112.317 92.4574 116.226 92.9401 120.135C92.9895 120.539 93.6057 120.395 93.5536 119.997C92.9418 115.133 89.5924 85.4297 89.3217 82.7449C102.163 82.6613 117.004 82.4785 130.323 81.0228ZM86.4311 77.8429C86.4999 77.8443 86.5674 77.824 86.6239 77.7849C86.6805 77.7458 86.7234 77.6898 86.7464 77.625C87.2736 75.7158 88.2632 73.966 89.6276 72.5303C89.898 72.2469 89.5018 71.805 89.2187 72.0527C89.1359 72.0281 67.1037 71.9919 61.7442 71.9241C61.3414 71.9184 61.3068 72.5455 61.7148 72.5538C60.1384 73.7301 58.6173 74.9742 57.1517 76.2861C57.0306 76.396 57.0995 77.338 57.4563 77.3756C67.0767 78.4676 76.7804 78.6241 86.4311 77.8429ZM57.564 76.7513C57.944 76.4401 59.8295 74.6873 62.7509 72.5633C65.9581 72.6056 86.8051 72.673 88.665 72.6618C87.5406 73.9995 86.7047 75.5551 86.2097 77.2311C76.6678 77.9885 67.0752 77.8279 57.564 76.7513ZM42.9075 92.2303C42.5011 92.2293 42.4719 92.8598 42.8781 92.8601C50.097 92.8728 54.3607 104.086 52.1792 111.836C51.8211 113.11 51.2156 114.3 50.3973 115.339C49.579 116.379 48.5639 117.246 47.4101 117.893C39.0375 122.654 27.1332 115.425 28.7925 103.484C29.5163 98.2634 33.3035 92.5055 38.4838 92.5459C39.139 92.5511 39.789 92.6632 40.4081 92.8777C40.7907 93.0129 40.9811 92.4094 40.5993 92.2778C36.3757 90.8069 30.6264 93.9366 28.5993 101.331C27.2183 106.377 28.2906 112.074 32.0496 115.842C35.6354 119.434 41.1707 121.058 46.0129 119.237C52.02 116.986 53.9363 111.537 53.2359 105.134C52.9567 102.192 51.9735 99.3604 50.3692 96.8785C48.6304 94.3057 46.0342 92.2174 42.9075 92.2303Z" fill="#1D1D1B"/>
<path id="Vector_13" d="M124.032 113.127C126.348 108.622 125.797 100.86 122.438 95.895C120.697 93.3141 118.102 91.2326 114.976 91.2468C114.57 91.2458 114.541 91.8763 114.947 91.8766C122.069 91.8911 126.463 102.983 124.248 110.853C122.81 115.979 117.67 118.949 112.401 118.302C110.016 117.991 107.758 117.044 105.864 115.562C103.97 114.079 102.509 112.115 101.634 109.874C98.0254 100.418 105.436 89.4522 112.48 91.8935C112.862 92.0288 113.053 91.4252 112.671 91.2936C109.878 90.3208 106.861 91.42 104.769 93.353C99.1016 98.59 98.2404 108.965 104.121 114.855C110.609 121.361 120.63 119.745 124.032 113.127ZM95.2727 75.1945C95.3505 75.197 109.198 75.5766 109.479 75.5301C110.075 75.4335 110.342 74.8792 110.637 74.4234L111.751 72.7048C111.972 72.3661 111.44 72.0298 111.219 72.3692C110.911 72.8403 110.001 74.2425 109.852 74.473C109.482 75.0437 109.388 74.9213 108.548 74.9048C108.269 74.8966 96.5868 74.5984 95.2989 74.5677C95.2158 74.5643 95.1347 74.594 95.0735 74.6503C95.0123 74.7066 94.9759 74.7849 94.9725 74.868C94.969 74.9511 94.9987 75.0322 95.055 75.0935C95.1113 75.1547 95.1896 75.191 95.2727 75.1945ZM109.248 71.9283C109.29 71.9852 109.348 72.0287 109.415 72.0537C109.481 72.0787 109.553 72.0841 109.622 72.0693C109.692 72.0546 109.755 72.0203 109.806 71.9704C109.856 71.9206 109.891 71.8574 109.907 71.7882C110.003 71.3032 109.396 71.305 109.083 71.2915L97.3716 70.8453C97.2906 70.8456 97.2128 70.8769 97.1543 70.9329C97.0958 70.989 97.061 71.0653 97.0572 71.1463C97.0535 71.2272 97.081 71.3064 97.134 71.3677C97.1871 71.4289 97.2617 71.4673 97.3423 71.4751C102.42 71.6777 108.738 71.906 109.248 71.9283ZM92.3099 121.332C83.0577 121.686 73.793 121.526 64.5584 120.855C64.1538 120.824 64.124 121.456 64.5285 121.486C73.7613 122.158 83.0243 122.319 92.275 121.968C92.6823 121.942 92.7163 121.316 92.3099 121.332ZM75.2929 33.0964C74.9963 35.5223 77.1997 37.3718 78.8504 36.8851C79.9629 36.5622 80.8415 35.2513 80.2578 33.1606C80.2362 33.0828 80.1854 33.0162 80.1161 32.9747C80.0467 32.9332 79.964 32.92 79.8852 32.9377C79.8063 32.9555 79.7373 33.003 79.6925 33.0703C79.6476 33.1375 79.6304 33.2195 79.6443 33.2991C79.9053 34.4556 79.9294 35.7328 78.8427 36.2212C77.5798 36.7841 75.6722 35.2015 75.93 33.1241C75.9706 32.7257 75.3416 32.6963 75.2929 33.0964ZM62.9404 20.9992C63.0412 21.3911 63.6547 21.2526 63.5539 20.8607C62.8493 18.1279 60.2753 16.6655 57.8786 15.5948C57.5068 15.4324 57.3233 16.029 57.6873 16.1947C59.8706 17.1715 62.2971 18.5073 62.9404 20.9992ZM62.6921 22.0343C62.9551 22.3441 63.4458 21.9523 63.186 21.6426C61.3567 19.4902 58.4037 19.2978 55.7821 19.3828C55.379 19.3965 55.4736 20.0177 55.8727 20.0071C58.2537 19.9301 61.0283 20.0708 62.6921 22.0343ZM104.136 23.135C104.827 22.5154 105.638 22.0435 106.518 21.7481C109.145 20.5546 111.98 19.5064 114.788 20.2041C115.178 20.3006 115.374 19.6997 114.979 19.6042C111.952 18.848 109.024 19.921 106.222 21.1942C105.29 21.5081 104.433 22.0106 103.705 22.6702C103.438 22.9744 103.865 23.4387 104.136 23.135ZM104.055 25.4089C106.705 24.8437 109.456 24.9759 112.039 25.7926C112.118 25.8167 112.204 25.8086 112.277 25.7701C112.35 25.7316 112.406 25.6658 112.431 25.587C112.456 25.5081 112.449 25.4225 112.411 25.3487C112.374 25.2749 112.309 25.2189 112.23 25.1927C109.54 24.3453 106.675 24.2084 103.916 24.7954C103.838 24.817 103.772 24.8678 103.73 24.9372C103.689 25.0065 103.676 25.0892 103.693 25.1681C103.711 25.2469 103.759 25.3159 103.826 25.3608C103.893 25.4056 103.975 25.4228 104.055 25.4089ZM103.091 27.7985C105.359 28.5975 107.395 29.9411 109.022 31.7111C109.079 31.7707 109.158 31.8054 109.24 31.8076C109.323 31.8097 109.403 31.7792 109.464 31.7227C109.524 31.6661 109.56 31.588 109.563 31.5053C109.567 31.4226 109.537 31.3419 109.481 31.2807C107.776 29.4356 105.647 28.0342 103.278 27.1981C102.9 27.0633 102.71 27.666 103.091 27.7985ZM64.0637 19.5403C64.1076 19.9404 64.7212 19.802 64.6772 19.4019C64.5288 18.125 64.1175 16.8927 63.4694 15.7825C62.8213 14.6724 61.9503 13.7085 60.9114 12.9515C60.5803 12.7127 60.2492 13.2476 60.5751 13.4837C61.5429 14.198 62.3525 15.1048 62.9529 16.1471C63.5532 17.1895 63.9314 18.3447 64.0637 19.5403ZM109.262 45.7815C109.39 46.1634 110.005 46.0287 109.876 45.643C107.675 38.9893 99.9416 34.6673 90.91 37.0688C88.7896 37.6623 86.7283 38.4495 84.7521 39.4205C79.3971 41.9909 74.6252 46.0467 73.524 51.8572C73.2483 52.8323 73.2565 53.8657 73.5476 54.8363C73.6927 55.2417 73.9805 55.5803 74.3571 55.7889C74.7337 55.9975 75.1734 56.0619 75.594 55.9699C76.3273 55.6781 76.9544 55.17 77.3919 54.5133C77.0193 55.6281 76.8989 56.8118 77.0396 57.9788C77.3034 59.5725 79.244 59.5662 80.4082 59.031C81.6985 58.2909 82.7944 57.2547 83.6054 56.0077C85.2736 53.819 83.9481 54.9049 84.4031 56.8701C84.8065 58.6169 86.4822 59.3631 88.215 58.8671C90.0547 58.3384 91.1359 56.6042 92.134 55.1072L94.048 52.2383C95.8375 49.5605 96.8889 48.1904 101.981 47.5851C102.384 47.5359 102.241 46.9241 101.842 46.9716C95.19 47.7553 94.92 49.9636 91.047 55.5942C90.5593 56.3678 89.9527 57.0597 89.2495 57.6445C88.1198 58.5171 86.094 58.8337 85.2608 57.3862C84.2055 55.5395 85.8676 53.2857 86.4046 51.4735C86.5014 51.1428 86.0022 50.8778 85.8397 51.2149C85.2163 52.4802 84.4954 53.6951 83.6837 54.8487C82.6288 56.3338 81.0216 58.5466 79.2124 58.7417C78.633 58.8053 77.8773 58.6662 77.6947 58.0248C77.5711 57.3901 77.5717 56.7375 77.6966 56.1031C77.9059 54.8191 78.308 53.574 78.8895 52.4101C79.3414 51.6699 79.7346 50.8955 80.0657 50.0939C80.2046 49.7652 79.6678 49.518 79.5015 49.8351C79.0827 50.6009 78.6857 51.3785 78.3111 52.1669C77.7651 53.0785 77.1219 53.9281 76.3926 54.7009C76.1005 55.0877 75.6693 55.3456 75.1904 55.42C75.0058 55.4127 74.8257 55.3602 74.666 55.2672C74.5064 55.1741 74.372 55.0433 74.2746 54.8862C73.7506 54.121 73.9532 52.9997 74.1086 52.1484C75.0759 46.7265 79.4426 42.8223 84.3715 40.331C89.7746 37.6046 95.5231 35.916 101.248 37.9384C103.087 38.5596 104.763 39.5873 106.15 40.9452C107.538 42.303 108.602 43.956 109.262 45.7815ZM57.9077 61.3753C58.8246 61.7189 60.7206 62.0726 61.1474 61.2095C61.273 60.832 61.2904 60.4268 61.1978 60.0399C61.0365 58.9536 60.6492 57.9133 60.0609 56.9861C61.2226 58.0244 62.5631 58.8436 64.0171 59.4037C64.9646 59.7428 66.4787 60.1085 67.1848 59.1206C67.3302 58.8218 67.4067 58.4942 67.4085 58.162C67.4104 57.8297 67.3376 57.5012 67.1956 57.2008C66.9993 56.5167 66.7439 55.8509 66.4323 55.211C65.6857 53.6714 65.3664 53.721 65.9581 54.0369C66.9925 54.6644 68.1617 55.0359 69.3686 55.1206C69.8937 55.0748 70.3837 54.8382 70.7463 54.4556C71.1088 54.0731 71.3187 53.571 71.3363 53.0442C71.4569 51.7615 70.6411 50.6475 69.8822 49.6968C65.2748 43.9661 59.2099 39.5811 52.3239 37.002C51.9435 36.8562 51.7543 37.4618 52.1334 37.6017C58.3226 39.9286 63.8454 43.7404 68.2161 48.7021C69.0203 49.5307 69.7274 50.4484 70.3235 51.4373C70.7717 52.2736 70.9612 53.5034 70.1419 54.1948C69.8726 54.3695 69.5646 54.4756 69.2449 54.5038C68.9251 54.5321 68.6033 54.4817 68.3075 54.357C66.738 53.862 65.292 53.0382 64.0658 51.9404C63.8893 51.7667 63.7076 51.5984 63.521 51.4356C63.2203 51.1776 62.7688 51.5721 63.0614 51.8659C65.9109 54.3202 66.8823 57.8484 66.773 58.483C66.6934 58.945 66.2079 59.0962 65.7952 59.1222C65.2475 59.1241 64.705 59.016 64.1999 58.8042C61.828 57.9564 59.8644 56.0505 58.0763 54.2757C58.019 54.216 57.9404 54.1813 57.8577 54.1792C57.7749 54.177 57.6946 54.2075 57.6342 54.2641C57.5738 54.3207 57.5381 54.3987 57.5348 54.4814C57.5315 54.5642 57.5609 54.6448 57.6167 54.706C58.9202 56.3114 60.2516 57.9785 60.5605 60.0354C60.6 60.3029 60.755 60.9181 60.4231 61.0417C59.7103 61.1721 58.9754 61.1042 58.2985 60.8454C56.8861 60.2426 55.5394 59.4959 54.28 58.6171C45.7081 52.933 36.0864 41.296 45.5836 37.6797C47.3384 37.0133 49.2636 36.9421 51.0629 37.4773C51.142 37.5014 51.2275 37.4933 51.3008 37.4548C51.3741 37.4163 51.4293 37.3505 51.4544 37.2717C51.4796 37.1928 51.4727 37.1072 51.4352 37.0334C51.3977 36.9596 51.3326 36.9036 51.2541 36.8774C49.7111 36.4062 48.0697 36.3594 46.5024 36.7419C44.9351 37.1244 43.4997 37.922 42.3472 39.0509C39.9997 41.6106 41.2689 45.4762 42.816 48.1031C45.9902 53.4955 53.8867 59.8718 57.9077 61.3753ZM141.032 69.2305C139.382 73.239 136.155 76.3625 132.918 79.2743C132.614 79.5436 133.046 80.0069 133.348 79.7341C136.702 76.717 139.924 73.6001 141.631 69.4219C141.789 69.0435 141.186 68.8598 141.032 69.2305ZM119.742 67.9992C119.068 68.2206 118.131 68.4801 117.829 69.203C116.988 71.2059 123.876 70.4638 123.953 70.4466C125.228 70.2553 127.215 69.9908 127.673 68.5353C127.697 68.4558 127.689 68.3703 127.65 68.2969C127.612 68.2236 127.546 68.1681 127.467 68.1424C124.98 67.2377 122.261 67.1873 119.742 67.9992ZM123.524 69.8794C122.699 69.9883 117.985 70.2072 118.462 69.3475C118.637 69.0283 119.094 68.9074 119.421 68.7788C121.833 67.8581 124.489 67.8063 126.935 68.6324C126.382 69.4976 124.54 69.7449 123.524 69.8794ZM50.7295 72.9862C51.4942 72.8677 52.5484 72.7009 52.8309 71.8549C52.8545 71.7755 52.8462 71.69 52.8077 71.6166C52.7692 71.5432 52.7036 71.4877 52.6249 71.462C51.389 71.0093 50.0456 70.9383 48.7689 71.258C48.2697 71.383 47.5224 71.5516 47.2548 72.039C46.594 73.2475 49.4119 73.1839 50.7295 72.9862ZM48.5498 71.9707C49.6777 71.6025 50.8913 71.5887 52.0273 71.9312C51.4979 72.206 50.9169 72.3671 50.3217 72.4041C49.4924 72.5038 48.6528 72.4758 47.832 72.3211C48.0389 72.1477 48.2851 72.0275 48.5491 71.9709L48.5498 71.9707ZM42.5801 73.1C43.3443 72.9824 44.3992 72.8154 44.6815 71.9687C44.7051 71.8893 44.6968 71.8038 44.6584 71.7304C44.6199 71.657 44.5543 71.6015 44.4755 71.5758C43.2396 71.1248 41.897 71.0544 40.6207 71.3738C40.1217 71.4995 39.3745 71.6682 39.1061 72.1557C38.4466 73.3601 41.2558 73.2984 42.5801 73.1ZM40.397 72.0899C41.5263 71.7219 42.7412 71.7089 43.8781 72.0527C43.3487 72.3275 42.7678 72.4885 42.1725 72.5256C41.3432 72.6253 40.5036 72.5973 39.6828 72.4426C39.8873 72.2667 40.133 72.1454 40.397 72.0899ZM34.838 73.1265C35.6029 73.0087 36.6579 72.8417 36.9394 71.9952C36.9631 71.9158 36.9548 71.8303 36.9163 71.7569C36.8778 71.6835 36.8122 71.628 36.7334 71.6023C35.4979 71.1512 34.1554 71.0811 32.8796 71.4009C32.3804 71.5259 31.6331 71.6945 31.3648 72.1821C30.7046 73.3866 33.513 73.3251 34.838 73.1265ZM32.6589 72.1132C33.7868 71.7441 35.001 71.7302 36.1371 72.0736C35.6077 72.3484 35.0268 72.5094 34.4315 72.5464C33.6022 72.6462 32.7626 72.6182 31.9418 72.4635C32.1474 72.2881 32.3941 72.1676 32.6589 72.1132ZM44.1781 103.408C41.9866 102.932 39.7659 102.602 37.5308 102.421C37.5018 102.388 37.4665 102.361 37.4272 102.343C37.3878 102.324 37.345 102.313 37.3014 102.311C37.2577 102.309 37.2141 102.315 37.173 102.33C37.132 102.345 37.0943 102.368 37.0622 102.397C37.0082 102.41 36.9585 102.437 36.9182 102.475C36.8779 102.513 36.8485 102.562 36.8329 102.615C36.8173 102.668 36.8161 102.725 36.8294 102.779C36.8427 102.832 36.8701 102.882 36.9087 102.922C36.7118 104.864 36.3184 106.782 35.7346 108.645C35.5587 108.4 35.3042 108.223 35.0136 108.143C34.723 108.063 34.4137 108.085 34.1374 108.206C33.8485 108.371 33.6257 108.63 33.5065 108.941C33.3873 109.251 33.3791 109.594 33.4834 109.909C33.5876 110.225 33.7979 110.495 34.0785 110.674C34.3592 110.852 34.6929 110.928 35.0232 110.889C35.5448 110.771 35.7813 110.242 35.9699 109.797C36.6109 108.181 37.0493 106.492 37.2753 104.769C39.368 105.146 41.4569 105.524 43.5418 105.903C43.3605 107.344 42.9324 110.016 42.1685 111.26C42.0042 110.899 41.724 110.604 41.3724 110.42C41.0209 110.236 40.618 110.175 40.2277 110.246C39.9847 110.286 39.7576 110.393 39.5713 110.554C39.385 110.715 39.2468 110.924 39.1719 111.159C39.0971 111.393 39.0885 111.644 39.1471 111.883C39.2057 112.122 39.3292 112.341 39.504 112.514C39.878 112.823 40.3573 112.974 40.8407 112.936C41.3241 112.898 41.7739 112.674 42.0952 112.311C42.1425 112.318 42.1907 112.313 42.2359 112.298C42.2811 112.282 42.322 112.256 42.3551 112.221C42.3882 112.187 42.4126 112.145 42.4263 112.099C42.4401 112.053 42.4427 112.005 42.4341 111.958C43.1506 110.89 43.605 109.667 43.7602 108.39C43.9383 107.538 44.0822 106.679 44.1915 105.815C44.2176 105.779 44.2338 105.736 44.2386 105.692C44.2433 105.648 44.2364 105.603 44.2185 105.562C44.2928 104.947 44.3552 104.333 44.3952 103.713C44.3964 103.646 44.376 103.58 44.3369 103.525C44.2978 103.47 44.2421 103.429 44.1781 103.408ZM34.003 109.232C34.0503 109.069 34.1547 108.928 34.2972 108.835C34.4396 108.742 34.6107 108.704 34.7792 108.726C34.9596 108.762 35.1198 108.864 35.2273 109.013C35.3348 109.163 35.3815 109.347 35.358 109.529C35.3559 109.565 35.3599 109.601 35.3697 109.636C35.3043 109.796 35.2208 109.948 35.1207 110.089C34.6669 110.71 33.8798 109.771 34.003 109.232ZM39.8382 111.962C39.2158 111.131 40.9727 110.002 41.7329 111.824C41.0003 112.537 40.2016 112.447 39.8375 111.959L39.8382 111.962ZM37.3698 104.157C37.4249 103.788 37.4761 103.421 37.5233 103.055C39.615 103.223 41.6936 103.526 43.7463 103.962C43.7151 104.405 43.6754 104.848 43.6274 105.29C41.541 104.911 39.4551 104.534 37.3698 104.157ZM30.0389 131.344C28.7744 131.078 23.1663 130.115 22.9215 130.333C22.6778 130.372 22.6194 133.683 21.5934 136.579C21.4175 136.334 21.163 136.157 20.8724 136.077C20.5818 135.997 20.2726 136.019 19.9962 136.139C19.7077 136.305 19.4852 136.564 19.3662 136.875C19.2472 137.185 19.2392 137.527 19.3434 137.843C19.4476 138.159 19.6577 138.429 19.9381 138.607C20.2185 138.786 20.552 138.862 20.8822 138.823C21.4038 138.706 21.6401 138.175 21.8287 137.731C22.4709 136.115 22.9106 134.426 23.1378 132.702C25.2305 133.079 27.3194 133.457 29.4043 133.836C29.2227 135.276 28.7955 137.948 28.0309 139.193C27.8665 138.832 27.5863 138.536 27.2348 138.352C26.8832 138.169 26.4804 138.108 26.0902 138.179C25.8471 138.219 25.6197 138.325 25.4333 138.486C25.2468 138.647 25.1085 138.857 25.0336 139.091C24.9587 139.326 24.9502 139.577 25.0089 139.816C25.0677 140.055 25.1914 140.274 25.3665 140.447C27.0177 141.978 28.8345 140.037 29.6215 136.321C29.9414 134.779 30.1539 133.216 30.2574 131.645C30.2592 131.578 30.2387 131.512 30.1992 131.457C30.1597 131.403 30.1034 131.363 30.0389 131.344ZM19.8623 137.161C19.9096 136.997 20.0142 136.856 20.157 136.763C20.2997 136.67 20.4712 136.632 20.64 136.655C21.1252 136.725 21.4742 137.344 20.9806 138.018C20.5313 138.641 19.7418 137.702 19.8623 137.161ZM25.7021 139.891C25.0801 139.058 26.8364 137.93 27.5958 139.753C26.8656 140.469 26.0647 140.379 25.7027 139.894L25.7021 139.891ZM23.2289 132.086C23.2839 131.718 23.3351 131.351 23.3826 130.984C25.4743 131.152 27.5529 131.455 29.6056 131.891C29.5718 132.333 29.5382 132.776 29.4867 133.219C27.4008 132.847 25.315 132.47 23.2296 132.089L23.2289 132.086Z" fill="#1D1D1B"/>
<path id="Vector_14" d="M121.518 103.398C120.856 101.969 120.094 100.588 119.238 99.2657C119.197 99.1938 119.13 99.1403 119.051 99.1163C118.971 99.0922 118.886 99.0995 118.812 99.1365C118.11 99.4493 112.534 102.239 112.521 102.59C112.4 102.787 114.272 105.35 115.21 108.366C114.936 108.271 114.637 108.272 114.363 108.368C114.089 108.464 113.856 108.649 113.701 108.895C113.587 109.085 113.521 109.3 113.509 109.522C113.497 109.743 113.54 109.964 113.632 110.165C113.725 110.367 113.866 110.543 114.042 110.677C114.218 110.812 114.424 110.902 114.643 110.939C114.871 110.999 115.111 111.001 115.339 110.944C115.568 110.886 115.778 110.771 115.95 110.61C116.079 110.437 116.165 110.236 116.198 110.024C116.232 109.811 116.213 109.594 116.144 109.39C115.701 107.623 115.028 105.921 114.14 104.33L119.838 101.5C120.564 102.815 121.815 105.127 121.933 106.624C121.57 106.418 121.146 106.348 120.736 106.427C120.327 106.505 119.958 106.726 119.697 107.051C119.535 107.237 119.429 107.465 119.391 107.709C119.353 107.952 119.384 108.202 119.481 108.428C119.579 108.655 119.737 108.85 119.94 108.99C120.143 109.131 120.381 109.212 120.627 109.223C123.123 109.411 122.87 106.337 121.518 103.398ZM114.18 109.888C114.112 109.732 114.103 109.558 114.153 109.396C114.203 109.234 114.31 109.095 114.454 109.005C114.878 108.733 115.562 109.011 115.572 109.879C115.579 110.632 114.42 110.374 114.18 109.888ZM113.844 103.777L113.31 102.801C115.089 101.691 116.938 100.695 118.844 99.8195C119.083 100.193 119.322 100.569 119.54 100.956C117.642 101.891 115.743 102.831 113.844 103.777ZM120.628 108.596C119.364 108.445 120.238 106.252 121.921 107.316C121.781 108.244 121.191 108.664 120.628 108.596ZM111.142 133.706C110.48 132.277 109.717 130.896 108.861 129.574C108.82 129.502 108.753 129.449 108.674 129.425C108.594 129.401 108.509 129.408 108.435 129.445C107.718 129.769 102.158 132.548 102.144 132.898C102.031 133.085 103.893 135.669 104.837 138.673C104.563 138.579 104.264 138.579 103.991 138.675C103.717 138.771 103.483 138.957 103.328 139.202C103.214 139.392 103.148 139.607 103.136 139.829C103.124 140.05 103.167 140.271 103.259 140.473C103.352 140.674 103.493 140.85 103.669 140.985C103.845 141.119 104.052 141.209 104.271 141.246C104.498 141.307 104.738 141.309 104.966 141.251C105.195 141.194 105.405 141.079 105.577 140.918C105.706 140.745 105.791 140.544 105.825 140.331C105.859 140.119 105.84 139.901 105.771 139.697C105.329 137.93 104.655 136.229 103.767 134.638L109.466 131.807C110.196 133.133 111.442 135.433 111.559 136.931C109.02 135.805 108.038 139.363 110.254 139.532C112.742 139.72 112.487 136.624 111.142 133.706ZM103.81 140.2C103.742 140.044 103.733 139.87 103.783 139.708C103.833 139.546 103.94 139.408 104.084 139.318C104.512 139.043 105.195 139.328 105.202 140.192C105.206 140.94 104.047 140.682 103.81 140.2ZM103.473 134.085L102.939 133.109C104.719 131.999 106.567 131.003 108.474 130.128C108.712 130.501 108.948 130.879 109.169 131.264C107.266 132.204 105.367 133.145 103.471 134.086L103.473 134.085ZM110.257 138.904C109.006 138.753 109.867 136.561 111.551 137.625C111.407 138.557 110.815 138.973 110.256 138.905L110.257 138.904ZM124.837 125.247C124.604 125.244 123.852 128.313 122.136 131.03C122.018 130.749 121.806 130.517 121.537 130.375C121.267 130.232 120.956 130.188 120.658 130.25C120.344 130.35 120.073 130.555 119.892 130.83C119.71 131.104 119.628 131.433 119.659 131.761C119.69 132.089 119.832 132.397 120.062 132.633C120.292 132.869 120.596 133.019 120.923 133.058C121.491 133.072 121.86 132.553 122.153 132.144C123.118 130.732 123.912 129.21 124.516 127.61C126.463 128.451 128.412 129.292 130.363 130.132C129.816 131.568 128.883 133.949 127.814 135.045C127.053 132.433 123.864 133.894 124.895 135.603C125.903 137.27 128.167 136.582 130.005 132.629C130.668 131.195 131.231 129.717 131.69 128.205C131.711 128.139 131.709 128.069 131.685 128.004C131.662 127.94 131.617 127.885 131.559 127.848C130.366 127.284 125.126 125.075 124.837 125.247ZM120.303 131.253C120.377 131.093 120.509 130.967 120.672 130.899C120.835 130.831 121.017 130.827 121.183 130.887C121.619 131.049 121.865 131.667 121.262 132.263C120.69 132.804 120.084 131.789 120.303 131.253ZM125.714 134.356C126.544 133.93 127.147 134.736 127.267 135.488C125.785 136.382 124.73 134.856 125.716 134.356L125.714 134.356ZM124.748 127.032C124.884 126.687 125.014 126.339 125.145 125.991C127.143 126.629 129.098 127.393 130.998 128.279C130.867 128.702 130.728 129.125 130.581 129.549C128.643 128.708 126.699 127.868 124.749 127.029L124.748 127.032ZM57.3212 22.2125C57.3212 22.2125 54.6121 29.2776 58.7175 32.223C62.8229 35.1683 74.3815 32.9911 76.8649 26.8386C77.7426 29.0118 79.2807 30.8544 81.2621 32.1063C83.2435 33.3581 85.5681 33.956 87.9076 33.8154C96.4652 33.6048 101.404 26.8983 102.443 23.8678C96.1276 23.618 61.4613 22.3717 57.3212 22.2125ZM60.9555 25.1884C60.7915 25.7073 60.2286 25.0637 58.1691 25.2481C58.0862 25.2433 58.0085 25.206 57.9529 25.1443C57.8973 25.0825 57.8683 25.0014 57.8721 24.9184C57.8759 24.8354 57.9123 24.7573 57.9734 24.701C58.0344 24.6447 58.1152 24.6147 58.1982 24.6176C59.0542 24.5483 59.9157 24.608 60.7539 24.7946C60.8327 24.8203 60.8981 24.8762 60.9359 24.95C60.9736 25.0237 60.9807 25.1095 60.9555 25.1884ZM64.1127 24.3486C62.0717 24.2012 60.0318 24.0579 57.9927 23.9188C57.9121 23.9111 57.8375 23.8726 57.7844 23.8114C57.7314 23.7502 57.7039 23.6709 57.7077 23.59C57.7114 23.5091 57.7462 23.4327 57.8047 23.3767C57.8632 23.3206 57.941 23.2893 58.022 23.289C60.0617 23.4311 62.1017 23.5741 64.1418 23.7181C64.5463 23.7481 64.5169 24.3779 64.1127 24.3486ZM82.3882 25.1236C82.3835 25.207 82.3464 25.2851 82.2847 25.3414C82.223 25.3976 82.1417 25.4274 82.0583 25.4243C81.1349 25.3051 80.2031 25.262 79.2726 25.2954C79.1893 25.2905 79.1113 25.2533 79.0551 25.1917C78.9989 25.1301 78.969 25.0489 78.9719 24.9656C78.9782 24.8828 79.0158 24.8056 79.0771 24.7498C79.1385 24.6939 79.2188 24.6635 79.3017 24.6649C80.2316 24.6322 81.1625 24.6755 82.0853 24.7943C82.1686 24.7993 82.2467 24.8365 82.3032 24.8979C82.3597 24.9593 82.3901 25.0402 82.3882 25.1236ZM88.3959 24.7139C85.385 24.3818 82.3591 24.204 79.3301 24.1813C78.9246 24.1809 78.9559 23.5499 79.3601 23.5514C82.3902 23.5706 85.4173 23.7489 88.4287 24.0857C88.8282 24.1315 88.8034 24.7571 88.3975 24.7105L88.3959 24.7139ZM69.221 96.417C69.1432 96.9007 69.2549 97.3957 69.5328 97.7991C69.5538 97.841 69.5843 97.8775 69.6219 97.9056C69.6595 97.9337 69.7031 97.9526 69.7493 97.9609C69.7954 97.9691 69.8429 97.9665 69.8879 97.9532C69.9329 97.9398 69.9741 97.9162 70.0083 97.8841C70.2202 97.9738 70.4521 98.0058 70.6804 97.9769C70.9087 97.9479 71.1252 97.8589 71.3079 97.7191C71.4906 97.5792 71.6331 97.3934 71.7207 97.1806C71.8082 96.9679 71.8379 96.7357 71.8066 96.5077C71.7601 96.2046 71.6092 95.9272 71.38 95.7235C71.1509 95.5198 70.8578 95.4024 70.5513 95.3916C70.2449 95.3809 69.9443 95.4774 69.7014 95.6646C69.4585 95.8518 69.2886 96.1179 69.221 96.417ZM71.1739 96.5748C71.1905 96.6691 71.1873 96.7658 71.1645 96.8588C71.1416 96.9517 71.0996 97.0389 71.0411 97.1147C70.9826 97.1905 70.9089 97.2532 70.8248 97.2989C70.7406 97.3446 70.6479 97.3722 70.5524 97.38C70.457 97.3877 70.361 97.3755 70.2706 97.344C70.1802 97.3125 70.0973 97.2625 70.0273 97.1972C69.9574 97.1318 69.9018 97.0526 69.8642 96.9646C69.8266 96.8765 69.8078 96.7816 69.809 96.6858C69.8101 96.5139 69.8756 96.3486 69.9926 96.2226C70.1096 96.0965 70.2695 96.0189 70.4409 96.0049C70.6123 95.9909 70.7827 96.0417 70.9185 96.1472C71.0543 96.2526 71.1457 96.4051 71.1746 96.5746L71.1739 96.5748ZM78.194 97.281C78.3348 97.4395 78.5094 97.5643 78.705 97.6463C78.9005 97.7282 79.1119 97.7652 79.3236 97.7545C79.5354 97.7438 79.742 97.6857 79.9282 97.5844C80.1145 97.4831 80.2756 97.3413 80.3997 97.1694C80.593 96.9311 80.6881 96.6281 80.6657 96.3221C80.6433 96.0161 80.505 95.7301 80.279 95.5226C80.1138 95.3802 79.9201 95.2749 79.7108 95.2137C79.5015 95.1525 79.2816 95.1367 79.0657 95.1676C78.8499 95.1985 78.6431 95.2752 78.4594 95.3926C78.2756 95.51 78.1192 95.6654 78.0005 95.8483C77.9521 95.8451 77.9037 95.8534 77.8591 95.8724C77.8146 95.8915 77.7751 95.9207 77.7439 95.9578C77.7128 95.9949 77.6908 96.0388 77.6797 96.086C77.6687 96.1332 77.6689 96.1823 77.6803 96.2294C77.6886 96.2971 77.7009 96.3642 77.7172 96.4304C77.6396 96.6639 77.5972 96.9076 77.5916 97.1536C77.5917 97.2257 77.6166 97.2956 77.6621 97.3515C77.7075 97.4074 77.7708 97.4461 77.8413 97.461C77.9118 97.4759 77.9853 97.4661 78.0495 97.4334C78.1137 97.4006 78.1647 97.3468 78.194 97.281ZM78.9577 95.8439C78.9633 95.8424 78.9685 95.8399 78.9731 95.8365C79.5972 95.6116 80.3016 96.112 79.962 96.6944C79.5539 97.4043 78.6883 97.1857 78.3828 96.4477C78.4905 96.1805 78.6961 95.9645 78.9577 95.8439Z" fill="#1D1D1B"/>
<path id="Vector_15" d="M85.8706 92.2029C85.7551 91.9441 86.7356 92.0803 65.8369 92.3451C64.8529 92.2983 63.8679 92.4106 62.9197 92.6775C63.8867 103.52 63.7318 101.933 63.8479 102.722C71.4631 102.743 79.0728 102.314 86.6372 101.435C86.6212 98.3425 86.3649 95.2558 85.8706 92.2029ZM83.4194 98.813C77.939 98.5252 72.4495 98.4471 66.9632 98.5788C66.8134 97.3949 66.6597 96.2072 66.5084 95.0236C66.5874 95.0313 82.2747 94.4004 82.8271 94.6857C82.9545 94.7543 82.8994 94.5783 83.4194 98.813Z" fill="#AC47F5"/>
<path id="Vector_16" d="M66.3798 98.9587C66.3954 99.0257 66.4326 99.0857 66.4856 99.1295C66.5386 99.1734 66.6045 99.1986 66.6732 99.2014C72.5534 99.0544 78.5009 99.1579 83.7601 99.4484C83.8082 99.4496 83.8559 99.44 83.8997 99.4203C83.9436 99.4007 83.9825 99.3715 84.0136 99.3348C84.0447 99.2982 84.0673 99.2551 84.0796 99.2086C84.0918 99.1622 84.0936 99.1135 84.0847 99.0663C83.9874 98.2929 83.5613 94.8031 83.5378 94.6987C83.3814 93.985 82.6994 94.0254 82.1137 94.0239C76.7505 93.9935 71.3873 94.1011 66.0295 94.3467C65.9596 94.3476 65.8918 94.3713 65.8366 94.4143C65.7814 94.4573 65.7418 94.5172 65.7239 94.5848C65.7059 94.6524 65.7107 94.7241 65.7373 94.7888C65.7639 94.8535 65.8111 94.9076 65.8714 94.943C66.0382 96.2776 66.2113 97.6199 66.3798 98.9587ZM82.8278 94.6867C82.9545 94.7555 82.9 94.5793 83.42 98.814C77.9396 98.5262 72.4502 98.448 66.9638 98.5798C66.8141 97.3959 66.6604 96.2082 66.5091 95.0246C66.5924 95.0344 82.2728 94.4004 82.8278 94.6867Z" fill="#1D1D1B"/>
<path id="Vector_17" d="M57.5596 101.497C55.7215 93.8713 47.9828 88.42 40.4453 87.5494C30.977 86.455 24.8403 93.3569 24.2115 102.568C23.5729 112.092 29.1241 121.759 39.3913 122.463C43.5567 122.744 47.9416 122.517 51.5039 120.106C57.2876 116.187 59.1309 108.016 57.5596 101.497ZM53.2353 105.131C53.9362 111.536 52.0194 116.983 46.0123 119.234C41.1723 121.054 35.6329 119.433 32.049 115.839C28.2907 112.074 27.2183 106.377 28.5987 101.328C30.6295 93.9324 36.3751 90.8036 40.5987 92.2745C40.6616 92.294 40.7162 92.3339 40.7538 92.3879C40.7915 92.442 40.81 92.507 40.8066 92.5727L42.5874 92.5462C42.5868 92.5041 42.5947 92.4623 42.6105 92.4233C42.6264 92.3843 42.6499 92.3488 42.6797 92.3191C42.7095 92.2893 42.7449 92.2658 42.7839 92.25C42.823 92.2342 42.8648 92.2264 42.9069 92.227C46.0341 92.2163 48.6298 94.3024 50.3649 96.876C51.9704 99.3573 52.9549 102.189 53.2353 105.131Z" fill="#AC47F5"/>
</g>
</g>
<defs>
<clipPath id="clip0_1090_3970">
<rect width="150.648" height="150.648" fill="white" transform="translate(-15 18.1588) rotate(-12.7154)"/>
</clipPath>
</defs>
</svg>
