<svg width="32" height="32" viewBox="0 0 32 32" fill="none" xmlns="http://www.w3.org/2000/svg">
<g id="Frame">
<g id="SVGRepo_iconCarrier">
<g id="Group 4">
<g id="Group 1171278513">
<path id="Path 52" d="M25.445 5.0972H6.55501C5.87785 5.09872 5.22885 5.36841 4.75001 5.84728C4.27118 6.32615 4.00152 6.9752 4 7.65242V26.5438C4.00152 27.221 4.27118 27.8701 4.75001 28.3489C5.22885 28.8278 5.87785 29.0975 6.55501 29.099H25.445C26.1222 29.0975 26.7712 28.8278 27.25 28.3489C27.7288 27.8701 27.9985 27.221 28 26.5438V7.65242C27.9985 6.9752 27.7288 6.32615 27.25 5.84728C26.7712 5.36841 26.1222 5.09872 25.445 5.0972Z" stroke="#2B4EA2" stroke-width="2.1819" stroke-miterlimit="10" stroke-linecap="round"/>
<path id="Line 25" d="M9.13965 13.5396H15.2258" stroke="#2B4EA2" stroke-width="2.1819" stroke-miterlimit="10" stroke-linecap="round"/>
<path id="Line 26" d="M9.13965 18.7943H22.3167" stroke="#2B4EA2" stroke-width="2.1819" stroke-miterlimit="10" stroke-linecap="round"/>
<path id="Line 27" d="M12.2969 1.99896V7.62618" stroke="#2B4EA2" stroke-width="2.1819" stroke-miterlimit="10" stroke-linecap="round"/>
<path id="Line 28" d="M19.7031 1.99896V7.62618" stroke="#2B4EA2" stroke-width="2.1819" stroke-miterlimit="10" stroke-linecap="round"/>
</g>
</g>
</g>
</g>
</svg>
