<svg width="20" height="20" viewBox="0 0 20 20" fill="none" xmlns="http://www.w3.org/2000/svg">
<g id="Frame">
<g id="SVGRepo_iconCarrier">
<path id="Vector" d="M16.3333 2.5H7C6.73736 2.5 6.47728 2.55173 6.23463 2.65224C5.99198 2.75275 5.7715 2.90007 5.58579 3.08579C5.40007 3.2715 5.25275 3.49198 5.15224 3.73463C5.05173 3.97728 5 4.23736 5 4.5V13.8333C5 14.3638 5.21071 14.8725 5.58579 15.2475C5.7715 15.4333 5.99198 15.5806 6.23463 15.6811C6.47728 15.7816 6.73736 15.8333 7 15.8333H16.3333C16.8638 15.8333 17.3725 15.6226 17.7475 15.2475C18.1226 14.8725 18.3333 14.3638 18.3333 13.8333V4.5C18.3333 4.23736 18.2816 3.97728 18.1811 3.73463C18.0806 3.49198 17.9333 3.2715 17.7475 3.08579C17.5618 2.90007 17.3414 2.75275 17.0987 2.65224C16.856 2.55173 16.596 2.5 16.3333 2.5Z" stroke="#1E1F24" stroke-width="1.5" stroke-miterlimit="10"/>
<path id="Vector_2" d="M16.6667 18.3333H7C4.51667 18.3333 2.5 16.3167 2.5 13.8333V4.16666M14.0233 11.5242L9.31 6.80999M14.0233 6.80999L9.31 11.5233" stroke="#1E1F24" stroke-width="1.5" stroke-miterlimit="10" stroke-linecap="round"/>
</g>
</g>
</svg>
