<svg width="18" height="18" viewBox="0 0 18 18" fill="none" xmlns="http://www.w3.org/2000/svg">
<g id="link-svgrepo-com 1" clip-path="url(#clip0_1100_5980)">
<path id="Vector" d="M7.93153 1.72747C9.03762 0.621391 10.5378 0 12.1021 0C15.3594 0 18 2.64061 18 5.89797C18 7.46221 17.3787 8.96238 16.2726 10.0685L13.966 12.375L12.375 10.784L14.6816 8.47747C15.3657 7.79335 15.75 6.86547 15.75 5.89797C15.75 3.88325 14.1167 2.25 12.1021 2.25C11.1345 2.25 10.2067 2.63433 9.52253 3.31847L7.21599 5.625L5.625 4.03401L7.93153 1.72747Z" fill="#4199F2" stroke="#CFE5FC"/>
<path id="Vector_2" d="M8.47747 14.6816L10.784 12.375L12.375 13.966L10.0685 16.2726C8.96238 17.3787 7.46221 18 5.89797 18C2.64061 18 0 15.3594 0 12.1021C0 10.5378 0.62139 9.03762 1.72747 7.93153L4.03401 5.625L5.625 7.21599L3.31847 9.52253C2.63433 10.2067 2.25 11.1345 2.25 12.1021C2.25 14.1167 3.88325 15.75 5.89797 15.75C6.86547 15.75 7.79335 15.3657 8.47747 14.6816Z" fill="#4199F2" stroke="#CFE5FC"/>
<path id="Vector_3" d="M6.41912 13.1691L13.1691 6.41912L11.5781 4.82812L4.82812 11.5781L6.41912 13.1691Z" fill="#4199F2" stroke="#CFE5FC"/>
</g>
<defs>
<clipPath id="clip0_1100_5980">
<rect width="18" height="18" fill="white"/>
</clipPath>
</defs>
</svg>
