<svg width="24" height="16" viewBox="0 0 24 16" fill="none" xmlns="http://www.w3.org/2000/svg">
<g id="Layer_1" clip-path="url(#clip0_1100_6023)">
<g id="SVGRepo_iconCarrier">
<path id="Vector" d="M22.2026 0.136841H1.79742C0.804703 0.136841 0 0.941544 0 1.93426V14.0636C0 15.0563 0.804703 15.861 1.79742 15.861H22.2026C23.1952 15.861 24 15.0563 24 14.0636V1.93426C24 0.941544 23.1953 0.136841 22.2026 0.136841Z" fill="#F5F5F5"/>
<g id="Group">
<path id="Vector_2" d="M0.0976562 1.3464H23.8999C23.6563 0.642481 22.9881 0.136841 22.2014 0.136841H1.79622C1.00947 0.136841 0.341266 0.642481 0.0976562 1.3464Z" fill="#FF4B55"/>
<path id="Vector_3" d="M24 4.97668H0V6.1862H24V4.97668Z" fill="#FF4B55"/>
<path id="Vector_4" d="M24 2.55481H0V3.76432H24V2.55481Z" fill="#FF4B55"/>
<path id="Vector_5" d="M0 8.1904C0 8.41892 0.185297 8.60422 0.413813 8.60422H24V7.39465H0V8.1904Z" fill="#FF4B55"/>
<path id="Vector_6" d="M24 12.2345H0V13.4441H24V12.2345Z" fill="#FF4B55"/>
<path id="Vector_7" d="M23.8999 14.6525H0.0976562C0.341266 15.3564 1.00952 15.862 1.79622 15.862H22.2014C22.9881 15.862 23.6563 15.3564 23.8999 14.6525Z" fill="#FF4B55"/>
<path id="Vector_8" d="M24 9.81262H0V11.0221H24V9.81262Z" fill="#FF4B55"/>
</g>
<path id="Vector_9" d="M0.413813 8.60361H10.7587C10.9872 8.60361 11.1725 8.41831 11.1725 8.1898V0.550531C11.1725 0.321969 10.9872 0.136719 10.7587 0.136719H1.79742C0.804703 0.136766 0 0.941469 0 1.93419V8.1898C0 8.41836 0.185297 8.60361 0.413813 8.60361Z" fill="#41479B"/>
<g id="Group_2">
<path id="Vector_10" d="M1.16186 1.08539L1.25345 1.36008L1.543 1.36228C1.5805 1.36261 1.59602 1.41042 1.56588 1.43269L1.33295 1.60467L1.42033 1.88072C1.43167 1.91644 1.39094 1.94607 1.36042 1.92422L1.12488 1.75589L0.889329 1.92427C0.858814 1.94611 0.818173 1.91649 0.829423 1.88077L0.916798 1.60472L0.683876 1.43274C0.653736 1.41042 0.669251 1.36261 0.706751 1.36233L0.996298 1.36013L1.08789 1.08544C1.0997 1.04982 1.14995 1.04982 1.16186 1.08539Z" fill="#F5F5F5"/>
<path id="Vector_11" d="M1.16186 2.52274L1.25345 2.79742L1.543 2.79963C1.5805 2.79996 1.59602 2.84772 1.56588 2.87003L1.33295 3.04206L1.42033 3.31811C1.43167 3.35383 1.39094 3.38346 1.36042 3.36161L1.12488 3.19328L0.889329 3.36166C0.858814 3.38346 0.818173 3.35388 0.829423 3.31816L0.916798 3.04211L0.683876 2.87008C0.653736 2.84777 0.669251 2.8 0.706751 2.79967L0.996298 2.79747L1.08789 2.52278C1.0997 2.48721 1.14995 2.4872 1.16186 2.52274Z" fill="#F5F5F5"/>
<path id="Vector_12" d="M1.16186 3.96027L1.25345 4.23496L1.543 4.23716C1.5805 4.23749 1.59602 4.28526 1.56588 4.30757L1.33295 4.4796L1.42033 4.75565C1.43167 4.79137 1.39094 4.82099 1.36042 4.79915L1.12488 4.63082L0.889329 4.79919C0.858814 4.82099 0.818173 4.79146 0.829423 4.75569L0.916798 4.47965L0.683876 4.30762C0.653736 4.2853 0.669251 4.23754 0.706751 4.23721L0.996298 4.23501L1.08789 3.96032C1.0997 3.92469 1.14995 3.92469 1.16186 3.96027Z" fill="#F5F5F5"/>
<path id="Vector_13" d="M1.16186 5.39777L1.25345 5.67246L1.543 5.67466C1.5805 5.67499 1.59602 5.7228 1.56588 5.74507L1.33295 5.9171L1.42033 6.19315C1.43167 6.22887 1.39094 6.25849 1.36042 6.23665L1.12488 6.06832L0.889329 6.23669C0.858814 6.25849 0.818173 6.22891 0.829423 6.19319L0.916798 5.91715L0.683876 5.74512C0.653736 5.7229 0.669251 5.67504 0.706751 5.67471L0.996298 5.67251L1.08789 5.39782C1.0997 5.36219 1.14995 5.36219 1.16186 5.39777Z" fill="#F5F5F5"/>
<path id="Vector_14" d="M1.16186 6.83133L1.25345 7.10602L1.543 7.10822C1.5805 7.10855 1.59602 7.15631 1.56588 7.17863L1.33295 7.35066L1.42033 7.6267C1.43167 7.66242 1.39094 7.69205 1.36042 7.67021L1.12488 7.50188L0.889329 7.67025C0.858814 7.69205 0.818173 7.66247 0.829423 7.62675L0.916798 7.3507L0.683876 7.17867C0.653736 7.15636 0.669251 7.1086 0.706751 7.10827L0.996298 7.10606L1.08789 6.83138C1.0997 6.7958 1.14995 6.7958 1.16186 6.83133Z" fill="#F5F5F5"/>
<path id="Vector_15" d="M2.27905 1.78837L2.37064 2.06305L2.66019 2.06526C2.69769 2.06559 2.7132 2.1134 2.68306 2.13566L2.45014 2.3077L2.53752 2.58374C2.54886 2.61946 2.50813 2.64909 2.47761 2.62724L2.24206 2.45887L2.00652 2.62724C1.976 2.64904 1.93536 2.61946 1.94661 2.58374L2.03399 2.3077L1.80106 2.13566C1.77092 2.11335 1.78644 2.06559 1.82394 2.06526L2.11349 2.06305L2.20508 1.78837C2.21689 1.75284 2.26719 1.75284 2.27905 1.78837Z" fill="#F5F5F5"/>
<path id="Vector_16" d="M2.27905 3.2259L2.37064 3.50059L2.66019 3.50279C2.69769 3.50312 2.7132 3.55093 2.68306 3.5732L2.45014 3.74523L2.53752 4.02128C2.54886 4.057 2.50813 4.08662 2.47761 4.06478L2.24206 3.8964L2.00652 4.06478C1.976 4.08657 1.93536 4.05704 1.94661 4.02128L2.03399 3.74523L1.80106 3.5732C1.77092 3.55098 1.78644 3.50312 1.82394 3.50279L2.11349 3.50059L2.20508 3.2259C2.21689 3.19032 2.26719 3.19032 2.27905 3.2259Z" fill="#F5F5F5"/>
<path id="Vector_17" d="M2.27905 4.6634L2.37064 4.93809L2.66019 4.94029C2.69769 4.94062 2.7132 4.98839 2.68306 5.0107L2.45014 5.18273L2.53752 5.45878C2.54886 5.4945 2.50813 5.52412 2.47761 5.50228L2.24206 5.3339L2.00652 5.50228C1.976 5.52407 1.93536 5.4945 1.94661 5.45878L2.03399 5.18273L1.80106 5.0107C1.77092 4.98839 1.78644 4.94062 1.82394 4.94029L2.11349 4.93809L2.20508 4.6634C2.21689 4.62782 2.26719 4.62782 2.27905 4.6634Z" fill="#F5F5F5"/>
<path id="Vector_18" d="M2.27905 6.10087L2.37064 6.37555L2.66019 6.37776C2.69769 6.37809 2.7132 6.42585 2.68306 6.44816L2.45014 6.6202L2.53752 6.89624C2.54886 6.93196 2.50813 6.96159 2.47761 6.93974L2.24206 6.77137L2.00652 6.93974C1.976 6.96159 1.93536 6.93196 1.94661 6.89624L2.03399 6.6202L1.80106 6.44816C1.77092 6.42585 1.78644 6.37809 1.82394 6.37776L2.11349 6.37555L2.20508 6.10087C2.21689 6.06534 2.26719 6.06534 2.27905 6.10087Z" fill="#F5F5F5"/>
<path id="Vector_19" d="M3.39233 1.08528L3.48392 1.35996L3.77347 1.36217C3.81097 1.3625 3.82649 1.41031 3.79635 1.43257L3.56342 1.60456L3.6508 1.88061C3.66214 1.91632 3.62141 1.94595 3.59089 1.92411L3.35534 1.75573L3.1198 1.92411C3.08928 1.94595 3.04864 1.91632 3.05989 1.88061L3.14727 1.60456L2.91434 1.43257C2.8842 1.41026 2.89972 1.36245 2.93722 1.36217L3.22677 1.35996L3.31836 1.08528C3.33017 1.0497 3.38047 1.0497 3.39233 1.08528Z" fill="#F5F5F5"/>
<path id="Vector_20" d="M3.39233 2.52274L3.48392 2.79743L3.77347 2.79963C3.81097 2.79996 3.82649 2.84773 3.79635 2.87004L3.56342 3.04207L3.6508 3.31812C3.66214 3.35384 3.62141 3.38346 3.59089 3.36162L3.35534 3.19324L3.1198 3.36162C3.08928 3.38341 3.04864 3.35384 3.05989 3.31812L3.14727 3.04207L2.91434 2.87004C2.8842 2.84773 2.89972 2.79996 2.93722 2.79963L3.22677 2.79743L3.31836 2.52274C3.33017 2.48721 3.38047 2.48721 3.39233 2.52274Z" fill="#F5F5F5"/>
<path id="Vector_21" d="M3.39233 3.96028L3.48392 4.23496L3.77347 4.23717C3.81097 4.2375 3.82649 4.28526 3.79635 4.30757L3.56342 4.47961L3.6508 4.75565C3.66214 4.79137 3.62141 4.821 3.59089 4.79915L3.35534 4.63078L3.1198 4.79915C3.08928 4.82095 3.04864 4.79142 3.05989 4.75565L3.14727 4.47961L2.91434 4.30757C2.8842 4.28526 2.89972 4.2375 2.93722 4.23717L3.22677 4.23496L3.31836 3.96028C3.33017 3.9247 3.38047 3.9247 3.39233 3.96028Z" fill="#F5F5F5"/>
<path id="Vector_22" d="M3.39233 5.39778L3.48392 5.67246L3.77347 5.67467C3.81097 5.675 3.82649 5.72281 3.79635 5.74507L3.56342 5.91711L3.6508 6.19315C3.66214 6.22887 3.62141 6.2585 3.59089 6.23665L3.35534 6.06828L3.1198 6.23665C3.08928 6.25845 3.04864 6.22887 3.05989 6.19315L3.14727 5.91711L2.91434 5.74507C2.8842 5.72286 2.89972 5.675 2.93722 5.67467L3.22677 5.67246L3.31836 5.39778C3.33017 5.3622 3.38047 5.3622 3.39233 5.39778Z" fill="#F5F5F5"/>
<path id="Vector_23" d="M3.39233 6.83134L3.48392 7.10602L3.77347 7.10823C3.81097 7.10855 3.82649 7.15632 3.79635 7.17863L3.56342 7.35066L3.6508 7.62671C3.66214 7.66243 3.62141 7.69205 3.59089 7.67021L3.35534 7.50184L3.1198 7.67021C3.08928 7.69201 3.04864 7.66243 3.05989 7.62671L3.14727 7.35066L2.91434 7.17863C2.8842 7.15632 2.89972 7.10855 2.93722 7.10823L3.22677 7.10602L3.31836 6.83134C3.33017 6.7958 3.38047 6.7958 3.39233 6.83134Z" fill="#F5F5F5"/>
<path id="Vector_24" d="M4.50952 1.78837L4.60111 2.06305L4.89066 2.06526C4.92816 2.06559 4.94367 2.1134 4.91353 2.13566L4.68061 2.3077L4.76799 2.58374C4.77933 2.61946 4.73859 2.64909 4.70808 2.62724L4.47253 2.45887L4.23699 2.62724C4.20647 2.64904 4.16583 2.61946 4.17708 2.58374L4.26445 2.3077L4.03153 2.13566C4.00139 2.11335 4.01691 2.06559 4.05441 2.06526L4.34395 2.06305L4.43555 1.78837C4.44731 1.75284 4.49766 1.75284 4.50952 1.78837Z" fill="#F5F5F5"/>
<path id="Vector_25" d="M4.50952 3.2259L4.60111 3.50059L4.89066 3.50279C4.92816 3.50312 4.94367 3.55093 4.91353 3.5732L4.68061 3.74523L4.76799 4.02128C4.77933 4.057 4.73859 4.08662 4.70808 4.06478L4.47253 3.8964L4.23699 4.06478C4.20647 4.08657 4.16583 4.05704 4.17708 4.02128L4.26445 3.74523L4.03153 3.5732C4.00139 3.55098 4.01691 3.50312 4.05441 3.50279L4.34395 3.50059L4.43555 3.2259C4.44731 3.19032 4.49766 3.19032 4.50952 3.2259Z" fill="#F5F5F5"/>
<path id="Vector_26" d="M4.50952 4.6634L4.60111 4.93809L4.89066 4.94029C4.92816 4.94062 4.94367 4.98839 4.91353 5.0107L4.68061 5.18273L4.76799 5.45878C4.77933 5.4945 4.73859 5.52412 4.70808 5.50228L4.47253 5.3339L4.23699 5.50228C4.20647 5.52407 4.16583 5.4945 4.17708 5.45878L4.26445 5.18273L4.03153 5.0107C4.00139 4.98839 4.01691 4.94062 4.05441 4.94029L4.34395 4.93809L4.43555 4.6634C4.44731 4.62782 4.49766 4.62782 4.50952 4.6634Z" fill="#F5F5F5"/>
<path id="Vector_27" d="M4.50952 6.10087L4.60111 6.37555L4.89066 6.37776C4.92816 6.37809 4.94367 6.42585 4.91353 6.44816L4.68061 6.6202L4.76799 6.89624C4.77933 6.93196 4.73859 6.96159 4.70808 6.93974L4.47253 6.77137L4.23699 6.93974C4.20647 6.96159 4.16583 6.93196 4.17708 6.89624L4.26445 6.6202L4.03153 6.44816C4.00139 6.42585 4.01691 6.37809 4.05441 6.37776L4.34395 6.37555L4.43555 6.10087C4.44731 6.06534 4.49766 6.06534 4.50952 6.10087Z" fill="#F5F5F5"/>
<path id="Vector_28" d="M5.62284 1.08527L5.71444 1.35996L6.00399 1.36216C6.04149 1.36249 6.057 1.4103 6.02686 1.43257L5.79394 1.60455L5.88131 1.8806C5.89266 1.91632 5.85192 1.94594 5.82141 1.9241L5.58581 1.75577L5.35027 1.92415C5.31975 1.94599 5.27911 1.91636 5.29036 1.88065L5.37774 1.6046L5.14481 1.43262C5.11467 1.4103 5.13019 1.36249 5.16769 1.36221L5.45724 1.36001L5.54883 1.08532C5.56069 1.04969 5.61099 1.04969 5.62284 1.08527Z" fill="#F5F5F5"/>
<path id="Vector_29" d="M5.62284 2.52274L5.71444 2.79743L6.00399 2.79963C6.04149 2.79996 6.057 2.84773 6.02686 2.87004L5.79394 3.04207L5.88131 3.31812C5.89266 3.35384 5.85192 3.38346 5.82141 3.36162L5.58581 3.19324L5.35027 3.36162C5.31975 3.38341 5.27911 3.35384 5.29036 3.31812L5.37774 3.04207L5.14481 2.87004C5.11467 2.84773 5.13019 2.79996 5.16769 2.79963L5.45724 2.79743L5.54883 2.52274C5.56069 2.48721 5.61099 2.48721 5.62284 2.52274Z" fill="#F5F5F5"/>
<path id="Vector_30" d="M5.62284 3.96028L5.71444 4.23497L6.00399 4.23717C6.04149 4.2375 6.057 4.28527 6.02686 4.30758L5.79394 4.47961L5.88131 4.75566C5.89266 4.79138 5.85192 4.821 5.82141 4.79916L5.58581 4.63074L5.35027 4.79911C5.31975 4.82091 5.27911 4.79133 5.29036 4.75561L5.37774 4.47956L5.14481 4.30753C5.11467 4.28522 5.13019 4.23746 5.16769 4.23713L5.45724 4.23492L5.54883 3.96024C5.56069 3.92471 5.61099 3.9247 5.62284 3.96028Z" fill="#F5F5F5"/>
<path id="Vector_31" d="M5.62284 5.39778L5.71444 5.67246L6.00399 5.67467C6.04149 5.675 6.057 5.72281 6.02686 5.74507L5.79394 5.91711L5.88131 6.19315C5.89266 6.22887 5.85192 6.2585 5.82141 6.23665L5.58581 6.06828L5.35027 6.23665C5.31975 6.25845 5.27911 6.22887 5.29036 6.19315L5.37774 5.91711L5.14481 5.74507C5.11467 5.72286 5.13019 5.675 5.16769 5.67467L5.45724 5.67246L5.54883 5.39778C5.56069 5.3622 5.61099 5.3622 5.62284 5.39778Z" fill="#F5F5F5"/>
<path id="Vector_32" d="M5.62284 6.83134L5.71444 7.10602L6.00399 7.10823C6.04149 7.10855 6.057 7.15632 6.02686 7.17863L5.79394 7.35066L5.88131 7.62671C5.89266 7.66243 5.85192 7.69205 5.82141 7.67021L5.58581 7.50184L5.35027 7.67021C5.31975 7.69201 5.27911 7.66243 5.29036 7.62671L5.37774 7.35066L5.14481 7.17863C5.11467 7.15632 5.13019 7.10855 5.16769 7.10823L5.45724 7.10602L5.54883 6.83134C5.56069 6.7958 5.61099 6.7958 5.62284 6.83134Z" fill="#F5F5F5"/>
<path id="Vector_33" d="M6.73999 1.78837L6.83158 2.06305L7.12113 2.06526C7.15863 2.06559 7.17414 2.1134 7.144 2.13566L6.91108 2.3077L6.99845 2.58374C7.0098 2.61946 6.96906 2.64909 6.93855 2.62724L6.703 2.45887L6.46745 2.62724C6.43694 2.64904 6.3963 2.61946 6.40755 2.58374L6.49492 2.3077L6.262 2.13566C6.23186 2.11335 6.24738 2.06559 6.28488 2.06526L6.57442 2.06305L6.66602 1.78837C6.67788 1.75284 6.72813 1.75284 6.73999 1.78837Z" fill="#F5F5F5"/>
<path id="Vector_34" d="M6.73999 3.2259L6.83158 3.50059L7.12113 3.50279C7.15863 3.50312 7.17414 3.55093 7.144 3.5732L6.91108 3.74523L6.99845 4.02128C7.0098 4.057 6.96906 4.08662 6.93855 4.06478L6.703 3.8964L6.46745 4.06478C6.43694 4.08657 6.3963 4.05704 6.40755 4.02128L6.49492 3.74523L6.262 3.5732C6.23186 3.55098 6.24738 3.50312 6.28488 3.50279L6.57442 3.50059L6.66602 3.2259C6.67788 3.19032 6.72813 3.19032 6.73999 3.2259Z" fill="#F5F5F5"/>
<path id="Vector_35" d="M6.73999 4.6634L6.83158 4.93809L7.12113 4.94029C7.15863 4.94062 7.17414 4.98839 7.144 5.0107L6.91108 5.18273L6.99845 5.45878C7.0098 5.4945 6.96906 5.52412 6.93855 5.50228L6.703 5.3339L6.46745 5.50228C6.43694 5.52407 6.3963 5.4945 6.40755 5.45878L6.49492 5.18273L6.262 5.0107C6.23186 4.98839 6.24738 4.94062 6.28488 4.94029L6.57442 4.93809L6.66602 4.6634C6.67788 4.62782 6.72813 4.62782 6.73999 4.6634Z" fill="#F5F5F5"/>
<path id="Vector_36" d="M6.73999 6.10087L6.83158 6.37555L7.12113 6.37776C7.15863 6.37809 7.17414 6.42585 7.144 6.44816L6.91108 6.6202L6.99845 6.89624C7.0098 6.93196 6.96906 6.96159 6.93855 6.93974L6.703 6.77137L6.46745 6.93974C6.43694 6.96159 6.3963 6.93196 6.40755 6.89624L6.49492 6.6202L6.262 6.44816C6.23186 6.42585 6.24738 6.37809 6.28488 6.37776L6.57442 6.37555L6.66602 6.10087C6.67788 6.06534 6.72813 6.06534 6.73999 6.10087Z" fill="#F5F5F5"/>
<path id="Vector_37" d="M7.85327 1.08528L7.94486 1.35996L8.23441 1.36217C8.27191 1.3625 8.28742 1.41031 8.25728 1.43257L8.02436 1.60456L8.11174 1.88061C8.12308 1.91632 8.08235 1.94595 8.05183 1.92411L7.81628 1.75573L7.58074 1.92411C7.55022 1.94595 7.50958 1.91632 7.52083 1.88061L7.6082 1.60456L7.37528 1.43257C7.34514 1.41026 7.36066 1.36245 7.39816 1.36217L7.6877 1.35996L7.7793 1.08528C7.79106 1.0497 7.84141 1.0497 7.85327 1.08528Z" fill="#F5F5F5"/>
<path id="Vector_38" d="M7.85327 2.52274L7.94486 2.79743L8.23441 2.79963C8.27191 2.79996 8.28742 2.84773 8.25728 2.87004L8.02436 3.04207L8.11174 3.31812C8.12308 3.35384 8.08235 3.38346 8.05183 3.36162L7.81628 3.19324L7.58074 3.36162C7.55022 3.38341 7.50958 3.35384 7.52083 3.31812L7.6082 3.04207L7.37528 2.87004C7.34514 2.84773 7.36066 2.79996 7.39816 2.79963L7.6877 2.79743L7.7793 2.52274C7.79106 2.48721 7.84141 2.48721 7.85327 2.52274Z" fill="#F5F5F5"/>
<path id="Vector_39" d="M7.85327 3.96028L7.94486 4.23496L8.23441 4.23717C8.27191 4.2375 8.28742 4.28526 8.25728 4.30757L8.02436 4.47961L8.11174 4.75565C8.12308 4.79137 8.08235 4.821 8.05183 4.79915L7.81628 4.63078L7.58074 4.79915C7.55022 4.82095 7.50958 4.79142 7.52083 4.75565L7.6082 4.47961L7.37528 4.30757C7.34514 4.28526 7.36066 4.2375 7.39816 4.23717L7.6877 4.23496L7.7793 3.96028C7.79106 3.9247 7.84141 3.9247 7.85327 3.96028Z" fill="#F5F5F5"/>
<path id="Vector_40" d="M7.85327 5.39778L7.94486 5.67246L8.23441 5.67467C8.27191 5.675 8.28742 5.72281 8.25728 5.74507L8.02436 5.91711L8.11174 6.19315C8.12308 6.22887 8.08235 6.2585 8.05183 6.23665L7.81628 6.06828L7.58074 6.23665C7.55022 6.25845 7.50958 6.22887 7.52083 6.19315L7.6082 5.91711L7.37528 5.74507C7.34514 5.72286 7.36066 5.675 7.39816 5.67467L7.6877 5.67246L7.7793 5.39778C7.79106 5.3622 7.84141 5.3622 7.85327 5.39778Z" fill="#F5F5F5"/>
<path id="Vector_41" d="M7.85327 6.83134L7.94486 7.10602L8.23441 7.10823C8.27191 7.10855 8.28742 7.15632 8.25728 7.17863L8.02436 7.35066L8.11174 7.62671C8.12308 7.66243 8.08235 7.69205 8.05183 7.67021L7.81628 7.50184L7.58074 7.67021C7.55022 7.69201 7.50958 7.66243 7.52083 7.62671L7.6082 7.35066L7.37528 7.17863C7.34514 7.15632 7.36066 7.10855 7.39816 7.10823L7.6877 7.10602L7.7793 6.83134C7.79106 6.7958 7.84141 6.7958 7.85327 6.83134Z" fill="#F5F5F5"/>
<path id="Vector_42" d="M8.97045 1.78837L9.06205 2.06305L9.3516 2.06526C9.3891 2.06559 9.40461 2.1134 9.37447 2.13566L9.14155 2.3077L9.22892 2.58374C9.24027 2.61946 9.19953 2.64909 9.16902 2.62724L8.93347 2.45887L8.69792 2.62724C8.66741 2.64904 8.62677 2.61946 8.63802 2.58374L8.72539 2.3077L8.49247 2.13566C8.46233 2.11335 8.47784 2.06559 8.51534 2.06526L8.80489 2.06305L8.89649 1.78837C8.9083 1.75284 8.95859 1.75284 8.97045 1.78837Z" fill="#F5F5F5"/>
<path id="Vector_43" d="M8.97045 3.2259L9.06205 3.50059L9.3516 3.50279C9.3891 3.50312 9.40461 3.55093 9.37447 3.5732L9.14155 3.74523L9.22892 4.02128C9.24027 4.057 9.19953 4.08662 9.16902 4.06478L8.93347 3.8964L8.69792 4.06478C8.66741 4.08657 8.62677 4.05704 8.63802 4.02128L8.72539 3.74523L8.49247 3.5732C8.46233 3.55098 8.47784 3.50312 8.51534 3.50279L8.80489 3.50059L8.89649 3.2259C8.9083 3.19032 8.95859 3.19032 8.97045 3.2259Z" fill="#F5F5F5"/>
<path id="Vector_44" d="M8.97045 4.6634L9.06205 4.93809L9.3516 4.94029C9.3891 4.94062 9.40461 4.98839 9.37447 5.0107L9.14155 5.18273L9.22892 5.45878C9.24027 5.4945 9.19953 5.52412 9.16902 5.50228L8.93347 5.3339L8.69792 5.50228C8.66741 5.52407 8.62677 5.4945 8.63802 5.45878L8.72539 5.18273L8.49247 5.0107C8.46233 4.98839 8.47784 4.94062 8.51534 4.94029L8.80489 4.93809L8.89649 4.6634C8.9083 4.62782 8.95859 4.62782 8.97045 4.6634Z" fill="#F5F5F5"/>
<path id="Vector_45" d="M8.97045 6.10087L9.06205 6.37555L9.3516 6.37776C9.3891 6.37809 9.40461 6.42585 9.37447 6.44816L9.14155 6.6202L9.22892 6.89624C9.24027 6.93196 9.19953 6.96159 9.16902 6.93974L8.93347 6.77137L8.69792 6.93974C8.66741 6.96159 8.62677 6.93196 8.63802 6.89624L8.72539 6.6202L8.49247 6.44816C8.46233 6.42585 8.47784 6.37809 8.51534 6.37776L8.80489 6.37555L8.89649 6.10087C8.9083 6.06534 8.95859 6.06534 8.97045 6.10087Z" fill="#F5F5F5"/>
<path id="Vector_46" d="M10.0837 1.08528L10.1753 1.35996L10.4649 1.36217C10.5024 1.3625 10.5179 1.41031 10.4878 1.43257L10.2548 1.60456L10.3422 1.88061C10.3535 1.91632 10.3128 1.94595 10.2823 1.92411L10.0468 1.75573L9.8112 1.92411C9.78069 1.94595 9.74005 1.91632 9.7513 1.88061L9.83867 1.60456L9.60575 1.43257C9.57561 1.41026 9.59113 1.36245 9.62863 1.36217L9.91817 1.35996L10.0098 1.08528C10.0216 1.0497 10.0718 1.0497 10.0837 1.08528Z" fill="#F5F5F5"/>
<path id="Vector_47" d="M10.0837 2.52274L10.1753 2.79743L10.4649 2.79963C10.5024 2.79996 10.5179 2.84773 10.4878 2.87004L10.2548 3.04207L10.3422 3.31812C10.3535 3.35384 10.3128 3.38346 10.2823 3.36162L10.0468 3.19324L9.8112 3.36162C9.78069 3.38341 9.74005 3.35384 9.7513 3.31812L9.83867 3.04207L9.60575 2.87004C9.57561 2.84773 9.59113 2.79996 9.62863 2.79963L9.91817 2.79743L10.0098 2.52274C10.0216 2.48721 10.0718 2.48721 10.0837 2.52274Z" fill="#F5F5F5"/>
<path id="Vector_48" d="M10.0837 3.96028L10.1753 4.23496L10.4649 4.23717C10.5024 4.2375 10.5179 4.28526 10.4878 4.30757L10.2548 4.47961L10.3422 4.75565C10.3535 4.79137 10.3128 4.821 10.2823 4.79915L10.0468 4.63078L9.8112 4.79915C9.78069 4.82095 9.74005 4.79142 9.7513 4.75565L9.83867 4.47961L9.60575 4.30757C9.57561 4.28526 9.59113 4.2375 9.62863 4.23717L9.91817 4.23496L10.0098 3.96028C10.0216 3.9247 10.0718 3.9247 10.0837 3.96028Z" fill="#F5F5F5"/>
<path id="Vector_49" d="M10.0837 5.39778L10.1753 5.67246L10.4649 5.67467C10.5024 5.675 10.5179 5.72281 10.4878 5.74507L10.2548 5.91711L10.3422 6.19315C10.3535 6.22887 10.3128 6.2585 10.2823 6.23665L10.0468 6.06828L9.8112 6.23665C9.78069 6.25845 9.74005 6.22887 9.7513 6.19315L9.83867 5.91711L9.60575 5.74507C9.57561 5.72286 9.59113 5.675 9.62863 5.67467L9.91817 5.67246L10.0098 5.39778C10.0216 5.3622 10.0718 5.3622 10.0837 5.39778Z" fill="#F5F5F5"/>
<path id="Vector_50" d="M10.0837 6.83134L10.1753 7.10602L10.4649 7.10823C10.5024 7.10855 10.5179 7.15632 10.4878 7.17863L10.2548 7.35066L10.3422 7.62671C10.3535 7.66243 10.3128 7.69205 10.2823 7.67021L10.0468 7.50184L9.8112 7.67021C9.78069 7.69201 9.74005 7.66243 9.7513 7.62671L9.83867 7.35066L9.60575 7.17863C9.57561 7.15632 9.59113 7.10855 9.62863 7.10823L9.91817 7.10602L10.0098 6.83134C10.0216 6.7958 10.0718 6.7958 10.0837 6.83134Z" fill="#F5F5F5"/>
</g>
</g>
</g>
<defs>
<clipPath id="clip0_1100_6023">
<rect width="24" height="16" fill="white"/>
</clipPath>
</defs>
</svg>
