<svg width="24" height="24" viewBox="0 0 24 24" fill="none" xmlns="http://www.w3.org/2000/svg">
<g id="Layer_1">
<g id="SVGRepo_iconCarrier">
<g id="Group">
<path id="Vector" d="M22.2026 4.13794H1.79742C0.804703 4.13794 0 4.94264 0 5.93536V9.37931H24V5.93536C24 4.94264 23.1953 4.13794 22.2026 4.13794Z" fill="#82AFFF"/>
<path id="Vector_2" d="M0 18.0647C0 19.0574 0.804703 19.8621 1.79742 19.8621H22.2026C23.1952 19.8621 24 19.0574 24 18.0647V14.6207H0V18.0647Z" fill="#82AFFF"/>
</g>
<path id="Vector_3" d="M24 9.37927H0V14.6204H24V9.37927Z" fill="#F5F5F5"/>
<path id="Vector_4" d="M14.0687 11.8966H12.5788C12.6066 11.8755 12.6286 11.8547 12.6485 11.8351C12.6849 11.7996 12.7138 11.7713 12.7905 11.7397C12.8677 11.7074 12.9081 11.707 12.9592 11.7062C13.0208 11.7058 13.0906 11.7046 13.2045 11.6577C13.3183 11.6104 13.368 11.5619 13.4118 11.5191C13.4482 11.4835 13.4771 11.4553 13.5541 11.4233C13.6306 11.3914 13.6709 11.391 13.7217 11.3906C13.7832 11.3897 13.8528 11.389 13.9668 11.3417L13.8872 11.1509C13.8106 11.1828 13.7704 11.1832 13.7195 11.1836C13.6581 11.1845 13.5884 11.1852 13.4746 11.2321C13.3609 11.2794 13.3112 11.328 13.2673 11.3707C13.2309 11.4063 13.202 11.4346 13.1253 11.4661C13.0481 11.4985 13.0077 11.4989 12.9566 11.4997C12.895 11.5001 12.8252 11.5012 12.7113 11.5485C12.5976 11.5954 12.5478 11.6444 12.504 11.6872C12.4681 11.722 12.4386 11.7499 12.3649 11.781L13.5358 10.6102L13.3895 10.4639L12.3355 11.5177C12.3402 11.4833 12.3414 11.4526 12.3417 11.4248C12.3423 11.3735 12.3428 11.3335 12.3747 11.2563C12.4066 11.1792 12.4349 11.1504 12.4705 11.1141C12.5137 11.07 12.5624 11.02 12.6097 10.906C12.6567 10.7921 12.6576 10.7226 12.6582 10.6612C12.6588 10.6102 12.6592 10.5698 12.6909 10.4931C12.7228 10.4163 12.7509 10.3876 12.7865 10.3512C12.8295 10.3072 12.8782 10.2574 12.9253 10.1439L12.7342 10.0647C12.7023 10.1415 12.6742 10.1702 12.6386 10.2066C12.5956 10.2506 12.5469 10.3004 12.4998 10.4139C12.4527 10.5278 12.4519 10.5974 12.4513 10.6588C12.4507 10.7097 12.4502 10.7501 12.4186 10.8269C12.3866 10.904 12.3584 10.9327 12.3227 10.9691C12.2795 11.0131 12.2308 11.0632 12.1836 11.1772C12.1365 11.2911 12.1357 11.361 12.1349 11.4225C12.1345 11.4723 12.1331 11.5125 12.1032 11.5865V9.93103H11.8963V11.4209C11.8752 11.3932 11.8545 11.3713 11.8351 11.3514C11.7994 11.3151 11.7713 11.286 11.7393 11.2092C11.7074 11.1321 11.7068 11.0917 11.7061 11.0403C11.7055 10.9788 11.7047 10.9089 11.6575 10.795C11.6104 10.6815 11.5617 10.6318 11.5186 10.5877C11.4831 10.5513 11.455 10.5226 11.4231 10.4458C11.3914 10.369 11.391 10.3286 11.3904 10.2777C11.3897 10.2163 11.3889 10.1468 11.3418 10.0332L11.1507 10.1124C11.1824 10.1892 11.1828 10.2292 11.1834 10.2801C11.1841 10.3415 11.1849 10.411 11.232 10.5249C11.279 10.6385 11.3278 10.6882 11.3708 10.7323C11.4064 10.7686 11.4344 10.7973 11.4664 10.8741C11.4983 10.9513 11.4989 10.9917 11.4995 11.043C11.5001 11.1045 11.5009 11.1744 11.5482 11.2883C11.5952 11.4023 11.644 11.452 11.687 11.496C11.7221 11.5317 11.7498 11.5614 11.781 11.6349L10.6099 10.464L10.4636 10.6103L11.6328 11.7794C11.5687 11.7502 11.5378 11.7235 11.5042 11.6909C11.46 11.6476 11.41 11.5987 11.2957 11.5515C11.1817 11.5046 11.112 11.5034 11.0504 11.5026C10.999 11.5021 10.9587 11.5014 10.8809 11.469C10.8031 11.4371 10.774 11.4089 10.737 11.3729C10.6928 11.3301 10.6426 11.2812 10.5281 11.2335C10.4137 11.1862 10.3438 11.1854 10.282 11.1846C10.2305 11.1838 10.1899 11.183 10.1121 11.1507L10.0329 11.3422C10.1473 11.3895 10.2172 11.3903 10.279 11.3911C10.3305 11.3919 10.3711 11.3927 10.4489 11.425C10.5269 11.457 10.556 11.4852 10.593 11.5212C10.6372 11.5644 10.6873 11.6129 10.8016 11.6602C10.916 11.7079 10.986 11.7087 11.0476 11.7095C11.0989 11.7104 11.1392 11.7107 11.2167 11.743C11.2941 11.775 11.323 11.8032 11.3596 11.8388C11.3784 11.8573 11.3994 11.8768 11.4248 11.8966H9.93066V12.1035H11.5832C11.5179 12.1284 11.4771 12.1315 11.4303 12.1322C11.3687 12.1327 11.2989 12.1338 11.1848 12.1807C11.0707 12.228 11.0205 12.2769 10.9763 12.3198C10.9395 12.3557 10.9106 12.384 10.8332 12.4159C10.7554 12.4483 10.7148 12.4491 10.6633 12.4499C10.6015 12.4507 10.5316 12.4515 10.4172 12.4987C10.3027 12.5464 10.2526 12.5949 10.2083 12.6382C10.1713 12.6741 10.1423 12.7024 10.0644 12.7343L10.1436 12.9258C10.258 12.8782 10.3081 12.8297 10.3523 12.7864C10.3893 12.7505 10.4184 12.7222 10.4964 12.6903C10.5742 12.6579 10.6148 12.6571 10.6663 12.6563C10.7281 12.6555 10.798 12.6547 10.9126 12.607C11.0266 12.5597 11.0765 12.5112 11.1207 12.468C11.1572 12.4324 11.1864 12.4042 11.264 12.3722C11.3411 12.3398 11.3818 12.3395 11.4329 12.3387C11.4591 12.3385 11.4886 12.3368 11.5205 12.3329L10.4635 13.3897L10.6098 13.536L11.7784 12.3675C11.7496 12.4314 11.7231 12.4622 11.6904 12.4959C11.6473 12.54 11.5987 12.59 11.5513 12.704C11.504 12.8179 11.503 12.8883 11.5024 12.9496C11.5016 13.001 11.5013 13.0413 11.4691 13.119C11.4369 13.197 11.4084 13.226 11.3727 13.2628C11.3295 13.3069 11.2808 13.3574 11.2333 13.4717C11.1858 13.5861 11.1849 13.656 11.1842 13.7178C11.1834 13.7692 11.1828 13.8099 11.1507 13.8875L11.3418 13.9667C11.3893 13.8523 11.3901 13.7824 11.3909 13.7206C11.3917 13.6693 11.3923 13.6285 11.4244 13.5509C11.4565 13.4729 11.485 13.4438 11.5208 13.407C11.564 13.363 11.6127 13.3125 11.6602 13.1981C11.7075 13.0842 11.7085 13.0138 11.7091 12.9525C11.7099 12.9011 11.7102 12.8608 11.7424 12.7831C11.7744 12.7056 11.8026 12.6768 11.8384 12.6401C11.8568 12.6212 11.8763 12.6002 11.8962 12.5747V14.069H12.1031V12.4165C12.1277 12.4817 12.1309 12.5224 12.1316 12.5694C12.1322 12.6308 12.1332 12.7007 12.1805 12.8147C12.2275 12.9291 12.2764 12.9792 12.3195 13.0232C12.3552 13.06 12.3835 13.089 12.4156 13.1666C12.4478 13.2442 12.4484 13.285 12.4492 13.3363C12.45 13.3981 12.4508 13.468 12.4982 13.5824C12.5457 13.6968 12.5944 13.7473 12.6376 13.7913C12.6734 13.8281 12.7019 13.8572 12.734 13.9352L12.9251 13.856C12.8776 13.7416 12.829 13.6911 12.7857 13.6471C12.75 13.6103 12.7215 13.5812 12.6894 13.5032C12.6572 13.4257 12.6566 13.3848 12.6558 13.3335C12.655 13.2717 12.6542 13.2018 12.6068 13.0875C12.5595 12.9731 12.5108 12.923 12.4677 12.879C12.432 12.8422 12.4037 12.8131 12.3716 12.7355C12.3395 12.6584 12.3391 12.618 12.3382 12.5666C12.3379 12.5405 12.3362 12.5109 12.3323 12.479L13.3894 13.536L13.5357 13.3897L12.4819 12.3361C12.5161 12.3406 12.5468 12.342 12.5744 12.3424C12.6255 12.3428 12.6657 12.3432 12.7429 12.3751C12.82 12.4074 12.849 12.4353 12.8855 12.4712C12.9296 12.5141 12.9795 12.5629 13.0935 12.6103C13.2072 12.6571 13.2769 12.6579 13.3383 12.6584C13.3892 12.6592 13.4295 12.6595 13.5062 12.6915C13.583 12.723 13.6117 12.7513 13.6481 12.7869C13.6921 12.8297 13.7419 12.8786 13.8556 12.9259L13.9348 12.7344C13.858 12.7029 13.8293 12.6746 13.7929 12.639C13.7489 12.5962 13.6991 12.5473 13.5854 12.5C13.4716 12.4531 13.4019 12.4523 13.3405 12.4519C13.2896 12.451 13.2494 12.4507 13.1726 12.4187C13.0955 12.3868 13.0666 12.3589 13.03 12.3229C12.9859 12.2801 12.9361 12.2312 12.8221 12.1843C12.7081 12.1366 12.6384 12.1358 12.5768 12.1354C12.5266 12.1346 12.486 12.1336 12.4116 12.1035H14.0686V11.8966H14.0687Z" fill="#F09146"/>
<path id="Vector_5" d="M12.0004 13.0345C12.5717 13.0345 13.0349 12.5713 13.0349 12C13.0349 11.4286 12.5717 10.9655 12.0004 10.9655C11.429 10.9655 10.9658 11.4286 10.9658 12C10.9658 12.5713 11.429 13.0345 12.0004 13.0345Z" fill="#FFE15A"/>
</g>
</g>
</svg>
