<svg width="24" height="16" viewBox="0 0 24 16" fill="none" xmlns="http://www.w3.org/2000/svg">
<g id="Layer_1" clip-path="url(#clip0_1100_6012)">
<g id="SVGRepo_iconCarrier">
<path id="Vector" d="M18.6202 0.136719H5.37891V15.8609H18.6202V0.136719Z" fill="#F5F5F5"/>
<g id="Group">
<path id="Vector_2" d="M1.79742 0.136719C0.804703 0.136719 0 0.941422 0 1.93414V14.0635C0 15.0561 0.804703 15.8609 1.79742 15.8609H5.37933V0.136719H1.79742Z" fill="#FF4B55"/>
<path id="Vector_3" d="M22.203 0.136719H18.6211V15.8608H22.203C23.1957 15.8608 24.0004 15.0561 24.0004 14.0634V1.93414C24.0004 0.941422 23.1957 0.136719 22.203 0.136719Z" fill="#FF4B55"/>
<path id="Vector_4" d="M14.5116 9.81692L16.967 8.41386L16.4036 8.13214C16.2456 8.05311 16.1551 7.88248 16.1785 7.70731L16.3618 6.33284L15.3223 6.63528C15.0926 6.70213 14.8543 6.56084 14.8027 6.32736L14.7031 5.87736L13.727 7.0197C13.5917 7.17805 13.3339 7.05711 13.3692 6.85184L13.7861 4.42803L13.1479 4.60255C12.9615 4.65355 12.7646 4.5687 12.6737 4.39817L12.0017 3.13859V3.13672L12.0012 3.13766L12.0007 3.13672V3.13859L11.3286 4.39817C11.2376 4.56866 11.0408 4.6535 10.8543 4.60255L10.2161 4.42803L10.633 6.85184C10.6683 7.05706 10.4105 7.17805 10.2752 7.01975L9.29908 5.87741L9.19952 6.32741C9.14786 6.56094 8.90955 6.70212 8.67991 6.63533L7.64036 6.33289L7.82369 7.70736C7.84708 7.88248 7.75661 8.05316 7.59859 8.13219L7.03516 8.41386L9.49061 9.81697C9.74495 9.96233 9.85642 10.2706 9.75381 10.5449L9.54391 11.1064L11.6479 10.9267C11.7643 10.9168 11.8634 11.0105 11.86 11.1273L11.7937 13.3794H12.2075L12.1412 11.1272C12.1377 11.0104 12.2368 10.9167 12.3533 10.9266L14.4582 11.1064L14.2483 10.5449C14.1458 10.2705 14.2572 9.96223 14.5116 9.81692Z" fill="#FF4B55"/>
</g>
</g>
</g>
<defs>
<clipPath id="clip0_1100_6012">
<rect width="24" height="16" fill="white"/>
</clipPath>
</defs>
</svg>
