<svg width="19" height="18" viewBox="0 0 19 18" fill="none" xmlns="http://www.w3.org/2000/svg">
<g id="Group 1171278631">
<rect id="Rectangle 34626620" x="0.5" width="18" height="18" rx="9" fill="#F9DC95"/>
<g id="SVGRepo_iconCarrier">
<path id="Vector" fill-rule="evenodd" clip-rule="evenodd" d="M14.2406 8.58378L14.1301 9.75794C13.948 11.6926 13.857 12.6599 13.2868 13.2432C12.7166 13.8265 11.862 13.8265 10.1529 13.8265H8.84154C7.13238 13.8265 6.2778 13.8265 5.70761 13.2432C5.13742 12.6599 5.04638 11.6926 4.8643 9.75794L4.7538 8.58378C4.66701 7.66163 4.62361 7.20055 4.78136 7.00995C4.8667 6.90685 4.98274 6.84367 5.10681 6.83278C5.33616 6.81263 5.62419 7.14053 6.20025 7.79632C6.49817 8.13548 6.64713 8.30505 6.8133 8.33133C6.90537 8.34584 6.99919 8.33089 7.08421 8.28813C7.23765 8.21089 7.33996 8.00126 7.54456 7.58199L8.62304 5.37201C9.00967 4.57973 9.20301 4.18359 9.49721 4.18359C9.79141 4.18359 9.98475 4.57973 10.3714 5.372L11.4498 7.58198C11.6545 8.00126 11.7568 8.21089 11.9102 8.28813C11.9952 8.33089 12.0891 8.34584 12.1811 8.33133C12.3473 8.30505 12.4962 8.13548 12.7942 7.79632C13.3702 7.14053 13.6582 6.81263 13.8876 6.83278C14.0117 6.84367 14.1277 6.90685 14.213 7.00995C14.3708 7.20055 14.3274 7.66163 14.2406 8.58378ZM9.9564 9.34204L9.90901 9.25704C9.72579 8.92836 9.63419 8.76405 9.49721 8.76405C9.36023 8.76405 9.26862 8.92836 9.08541 9.25704L9.03802 9.34204C8.98599 9.43543 8.95996 9.48215 8.91936 9.51296C8.87876 9.54377 8.82824 9.5552 8.72713 9.5781L8.63509 9.59893C8.2793 9.6794 8.10141 9.71966 8.05909 9.85576C8.01676 9.99187 8.13803 10.1337 8.38058 10.4173L8.44333 10.4907C8.51225 10.5713 8.54671 10.6116 8.56224 10.6614C8.57771 10.7113 8.57251 10.765 8.56209 10.8726L8.55259 10.9705C8.51593 11.3489 8.4976 11.5381 8.60838 11.6222C8.71922 11.7063 8.88576 11.6296 9.21887 11.4762L9.30503 11.4366C9.39972 11.393 9.44702 11.3712 9.49721 11.3712C9.5474 11.3712 9.5947 11.393 9.68939 11.4366L9.77555 11.4762C10.1087 11.6296 10.2752 11.7063 10.386 11.6222C10.4968 11.5381 10.4785 11.3489 10.4418 10.9705L10.4323 10.8726C10.4219 10.765 10.4167 10.7113 10.4322 10.6614C10.4477 10.6116 10.4822 10.5713 10.5511 10.4907L10.6139 10.4173C10.8564 10.1337 10.9777 9.99187 10.9353 9.85576C10.893 9.71966 10.7151 9.6794 10.3593 9.59893L10.2673 9.5781C10.1662 9.5552 10.1157 9.54377 10.0751 9.51296C10.0345 9.48215 10.0084 9.43543 9.9564 9.34204Z" fill="#F58722"/>
</g>
</g>
</svg>
