<svg width="16" height="16" viewBox="0 0 16 16" fill="none" xmlns="http://www.w3.org/2000/svg">
<g id="emoji-1">
<path id="Vector" fill-rule="evenodd" clip-rule="evenodd" d="M2.21378 8C2.21378 6.46553 2.82335 4.99392 3.90838 3.90888C4.99341 2.82385 6.46503 2.21429 7.9995 2.21429C9.53396 2.21429 11.0056 2.82385 12.0906 3.90888C13.1756 4.99392 13.7852 6.46553 13.7852 8C13.7852 9.53447 13.1756 11.0061 12.0906 12.0911C11.0056 13.1762 9.53396 13.7857 7.9995 13.7857C6.46503 13.7857 4.99341 13.1762 3.90838 12.0911C2.82335 11.0061 2.21378 9.53447 2.21378 8ZM7.9995 1.05714C6.15814 1.05714 4.39219 1.78862 3.09016 3.09066C1.78812 4.3927 1.05664 6.15864 1.05664 8C1.05664 9.84136 1.78812 11.6073 3.09016 12.9093C4.39219 14.2114 6.15814 14.9429 7.9995 14.9429C9.84086 14.9429 11.6068 14.2114 12.9088 12.9093C14.2109 11.6073 14.9424 9.84136 14.9424 8C14.9424 6.15864 14.2109 4.3927 12.9088 3.09066C11.6068 1.78862 9.84086 1.05714 7.9995 1.05714ZM6.07093 7.61429C6.37782 7.61429 6.67214 7.49237 6.88915 7.27537C7.10616 7.05836 7.22807 6.76404 7.22807 6.45714C7.22807 6.15025 7.10616 5.85593 6.88915 5.63892C6.67214 5.42191 6.37782 5.3 6.07093 5.3C5.76403 5.3 5.46971 5.42191 5.2527 5.63892C5.0357 5.85593 4.91378 6.15025 4.91378 6.45714C4.91378 6.76404 5.0357 7.05836 5.2527 7.27537C5.46971 7.49237 5.76403 7.61429 6.07093 7.61429ZM11.0852 6.45714C11.0852 6.6091 11.0553 6.75957 10.9971 6.89996C10.939 7.04035 10.8537 7.16792 10.7463 7.27537C10.6388 7.38282 10.5113 7.46805 10.3709 7.5262C10.2305 7.58436 10.08 7.61429 9.92807 7.61429C9.77611 7.61429 9.62564 7.58436 9.48525 7.5262C9.34486 7.46805 9.2173 7.38282 9.10985 7.27537C9.00239 7.16792 8.91716 7.04035 8.85901 6.89996C8.80086 6.75957 8.77093 6.6091 8.77093 6.45714C8.77093 6.15025 8.89284 5.85593 9.10985 5.63892C9.32685 5.42191 9.62118 5.3 9.92807 5.3C10.235 5.3 10.5293 5.42191 10.7463 5.63892C10.9633 5.85593 11.0852 6.15025 11.0852 6.45714ZM6.15964 9.36234C6.13665 9.28929 6.09939 9.22152 6.05001 9.16298C6.00064 9.10443 5.94013 9.05627 5.872 9.02129C5.80386 8.98631 5.72946 8.96521 5.65311 8.9592C5.57676 8.9532 5.49998 8.96241 5.42721 8.98631C5.35445 9.0102 5.28716 9.04831 5.22923 9.09841C5.17131 9.14852 5.12391 9.20963 5.08978 9.27819C5.05566 9.34675 5.03548 9.42141 5.03043 9.49783C5.02538 9.57425 5.03555 9.65091 5.06036 9.72337C5.52784 11.1474 6.78681 11.8571 8.02033 11.8571C9.25384 11.8571 10.512 11.1474 10.9811 9.72337C11.0059 9.65091 11.016 9.57425 11.011 9.49783C11.0059 9.42141 10.9858 9.34675 10.9516 9.27819C10.9175 9.20963 10.8701 9.14852 10.8122 9.09841C10.7543 9.04831 10.687 9.0102 10.6142 8.98631C10.5414 8.96241 10.4647 8.9532 10.3883 8.9592C10.312 8.96521 10.2376 8.98631 10.1694 9.02129C10.1013 9.05627 10.0408 9.10443 9.99141 9.16298C9.94203 9.22152 9.90477 9.28929 9.88178 9.36234C9.58864 10.2533 8.81721 10.7 8.02033 10.7C7.22344 10.7 6.45278 10.2526 6.15964 9.36234Z" fill="#B6B6B6"/>
</g>
</svg>
