<svg width="20" height="20" viewBox="0 0 20 20" fill="none" xmlns="http://www.w3.org/2000/svg">
<g id="Frame" clip-path="url(#clip0_1321_16832)">
<g id="SVGRepo_iconCarrier">
<path id="Vector" d="M11.0026 17.5526H11.0027C13.0043 17.5502 14.9232 16.7539 16.3386 15.3386C17.7539 13.9232 18.5502 12.0043 18.5526 10.0027V10.0026C18.5526 8.50936 18.1098 7.04964 17.2802 5.80805C16.4506 4.56646 15.2715 3.59876 13.8919 3.02731C12.5123 2.45587 10.9942 2.30636 9.52968 2.59768C8.06512 2.88899 6.71984 3.60806 5.66395 4.66395C4.60807 5.71983 3.889 7.06512 3.59768 8.52967C3.30636 9.99423 3.45588 11.5123 4.02732 12.8919C4.59876 14.2714 5.56646 15.4506 6.80805 16.2802C8.04964 17.1098 9.50936 17.5526 11.0026 17.5526ZM14.2859 7.91931V7.91936C14.2868 8.41161 14.1766 8.89771 13.9634 9.3414C13.7503 9.78499 13.4398 10.1748 13.055 10.4816C12.4253 10.9698 11.9959 11.6708 11.8468 12.4526H10.2515C10.3295 11.8366 10.5264 11.2414 10.8315 10.7001C11.1458 10.1426 11.5686 9.65369 12.0749 9.26216L12.0755 9.26164C12.287 9.09241 12.4554 8.87555 12.567 8.62878C12.6786 8.382 12.7302 8.11233 12.7177 7.84178C12.7051 7.57124 12.6287 7.30751 12.4947 7.07213C12.3608 6.83676 12.173 6.63643 11.9468 6.48751L11.9466 6.48742C11.6947 6.32275 11.4048 6.22528 11.1046 6.20426C10.8044 6.18324 10.5038 6.23939 10.2313 6.36735L10.231 6.36752C9.93992 6.50703 9.69565 6.72811 9.52788 7.00386C9.36025 7.27939 9.2762 7.59765 9.28594 7.92001C9.28575 8.1275 9.20324 8.32644 9.05651 8.47317C8.9096 8.62007 8.71036 8.7026 8.50261 8.7026C8.29486 8.7026 8.09561 8.62007 7.94871 8.47317C7.8018 8.32627 7.71927 8.12702 7.71928 7.91927L7.71927 7.9183C7.70706 7.28766 7.88106 6.66742 8.21951 6.13516C8.55796 5.60289 9.04583 5.18223 9.6221 4.92579L9.62218 4.92575C10.1333 4.69733 10.6937 4.60128 11.2517 4.64648C11.8097 4.69168 12.3473 4.87663 12.815 5.1843C13.2668 5.4834 13.6376 5.88969 13.8943 6.36691C14.1509 6.84413 14.2855 7.37745 14.2859 7.91931ZM5.93766 2.42237C7.43688 1.42063 9.19948 0.885944 11.0026 0.885938C13.4196 0.888796 15.7368 1.85022 17.4459 3.55931C19.155 5.26841 20.1164 7.58563 20.1193 10.0027C20.1193 11.8057 19.5846 13.5683 18.5828 15.0676C17.5811 16.5668 16.1573 17.7353 14.4914 18.4253C12.8256 19.1153 10.9925 19.2959 9.22403 18.9441C7.45557 18.5923 5.83114 17.724 4.55615 16.4491C3.28116 15.1741 2.41288 13.5496 2.06112 11.7812C1.70935 10.0127 1.88989 8.17966 2.57991 6.51381C3.26993 4.84795 4.43843 3.42412 5.93766 2.42237ZM11.7859 13.8026V15.3693H10.2193V13.8026H11.7859Z" fill="#686A74" stroke="white" stroke-width="0.1"/>
</g>
</g>
<defs>
<clipPath id="clip0_1321_16832">
<rect width="20" height="20" fill="white"/>
</clipPath>
</defs>
</svg>
