<svg width="20" height="20" viewBox="0 0 20 20" fill="none" xmlns="http://www.w3.org/2000/svg">
<g id="Frame">
<g id="SVGRepo_iconCarrier">
<path id="Vector" d="M7.49999 14L5.49999 15.5V12.5H3.5C3.23478 12.5 2.98043 12.3946 2.79289 12.2071C2.60536 12.0195 2.5 11.7652 2.5 11.5V3.5C2.5 3.23478 2.60536 2.98043 2.79289 2.79289C2.98043 2.60536 3.23478 2.5 3.5 2.5H14.5C14.7652 2.5 15.0195 2.60536 15.2071 2.79289C15.3946 2.98043 15.5 3.23478 15.5 3.5V6.47656" stroke="#686A74" stroke-width="1.4" stroke-linecap="round" stroke-linejoin="round"/>
<path id="Vector_2" d="M5.5 5.5H12.5" stroke="#686A74" stroke-width="1.3" stroke-linecap="round" stroke-linejoin="round"/>
<path id="Vector_3" d="M5.5 8.5H7.5" stroke="#686A74" stroke-width="1.3" stroke-linecap="round" stroke-linejoin="round"/>
<path id="Vector_4" d="M17.5 14.5H15.5V17.5L12.5 14.5H9.5V8.5H17.5V14.5Z" stroke="#686A74" stroke-width="1.4" stroke-linecap="round" stroke-linejoin="round"/>
</g>
</g>
</svg>
