<svg width="26" height="26" viewBox="0 0 26 26" fill="none" xmlns="http://www.w3.org/2000/svg">
<g id="Frame" clip-path="url(#clip0_1604_15000)">
<g id="SVGRepo_iconCarrier">
<path id="Vector" d="M0.550781 9.40227C0.550781 6.30119 0.550781 4.75068 1.15428 3.56624C1.68514 2.52439 2.5322 1.67733 3.57405 1.14647C4.75849 0.542969 6.30901 0.542969 9.41008 0.542969H16.6082C19.7092 0.542969 21.2597 0.542969 22.4442 1.14647C23.486 1.67733 24.3331 2.52439 24.8639 3.56624C25.4674 4.75068 25.4674 6.30119 25.4674 9.40227V16.6003C25.4674 19.7014 25.4674 21.2519 24.8639 22.4364C24.3331 23.4782 23.486 24.3253 22.4442 24.8561C21.2597 25.4596 19.7092 25.4596 16.6082 25.4596H9.41008C6.30901 25.4596 4.75849 25.4596 3.57405 24.8561C2.5322 24.3253 1.68514 23.4782 1.15428 22.4364C0.550781 21.2519 0.550781 19.7014 0.550781 16.6003V9.40227Z" fill="white"/>
<path id="Vector_2" d="M7.63183 20.1135V12.1697L7.625 12.1641L7.63183 20.1135Z" fill="#C5221F"/>
<path id="Vector_3" d="M7.625 6.34766V12.1699L7.63183 12.1755V6.35328L7.625 6.34766Z" fill="#C5221F"/>
<g id="Group 1171278529">
<path id="Vector_4" d="M17.3455 8.01953L13.0654 11.3603L8.6875 8.01953V8.02043L8.69279 8.02495V12.7029L13.0161 16.1159L17.3455 12.8347V8.01953Z" fill="#EA4335"/>
<path id="Vector_5" d="M18.46 7.20205L17.3359 8.01466V12.8299L20.8728 10.114V8.47785C20.8728 8.47785 20.4435 6.14113 18.46 7.20205Z" fill="#FBBC05"/>
<path id="Vector_6" d="M17.3359 12.8292V19.0746H20.0468C20.0468 19.0746 20.8182 18.9952 20.8737 18.1158V10.1133L17.3359 12.8292Z" fill="#34A853"/>
<path id="Vector_7" d="M8.66835 8.014L7.5505 7.2059C5.56693 6.14497 5.13672 8.48081 5.13672 8.48081V10.1169L8.66835 12.692V8.014Z" fill="#C5221F"/>
<path id="Vector_8" d="M5.13672 10.1211V18.1236C5.19138 19.0039 5.96365 19.0825 5.96365 19.0825H8.67452L8.66835 12.6953L5.13672 10.1211Z" fill="#4285F4"/>
</g>
</g>
</g>
<defs>
<clipPath id="clip0_1604_15000">
<rect width="26" height="26" fill="white"/>
</clipPath>
</defs>
</svg>
