<svg width="20" height="18" viewBox="0 0 20 18" fill="none" xmlns="http://www.w3.org/2000/svg">
<g id="SVGRepo_iconCarrier">
<path id="Vector" d="M5.00038 0.665161V5.66554H0" fill="#EA4335"/>
<path id="Vector_2" d="M5.00195 0.665161V5.66554H11.6691V9.11024L16.6695 5.05438V2.33195C16.6695 1.22076 16.1139 0.665161 15.0027 0.665161" fill="#FFBA00"/>
<path id="Vector_3" d="M4.89355 17.3349V12.3345H11.6718V9.00092L16.6722 12.9457V15.6681C16.6722 16.7793 16.1166 17.3349 15.0054 17.3349" fill="#00AC47"/>
<path id="Vector_4" d="M11.666 8.99678L16.6664 4.94092V13.0526" fill="#00832D"/>
<path id="Vector_5" d="M16.668 4.94753L19.0015 3.0585C19.5015 2.66958 20.0016 2.66958 20.0016 3.44742V14.5594C20.0016 15.3372 19.5015 15.3372 19.0015 14.9483L16.668 13.0593" fill="#00AC47"/>
<path id="Vector_6" d="M0 12.2232V15.6679C0 16.7791 0.555597 17.3347 1.66679 17.3347H5.00038V12.2232" fill="#0066DA"/>
<path id="Vector_7" d="M0 5.66559H5.00038V12.3328H0" fill="#2684FC"/>
</g>
</svg>
