<svg width="21" height="20" viewBox="0 0 21 20" fill="none" xmlns="http://www.w3.org/2000/svg">
<g id="Frame">
<g id="SVGRepo_iconCarrier">
<path id="Vector" d="M10.4993 1.66666C5.90768 1.66666 2.16602 5.40832 2.16602 9.99999C2.16602 14.5917 5.90768 18.3333 10.4993 18.3333C15.091 18.3333 18.8327 14.5917 18.8327 9.99999C18.8327 5.40832 15.091 1.66666 10.4993 1.66666ZM14.4827 8.08332L9.75768 12.8083C9.64102 12.925 9.48268 12.9917 9.31602 12.9917C9.14935 12.9917 8.99102 12.925 8.87435 12.8083L6.51602 10.45C6.27435 10.2083 6.27435 9.80832 6.51602 9.56666C6.75768 9.32499 7.15768 9.32499 7.39935 9.56666L9.31602 11.4833L13.5993 7.19999C13.841 6.95832 14.241 6.95832 14.4827 7.19999C14.7243 7.44166 14.7243 7.83332 14.4827 8.08332Z" fill="#00AC47"/>
</g>
</g>
</svg>
