<svg width="33" height="33" viewBox="0 0 33 33" fill="none" xmlns="http://www.w3.org/2000/svg">
<g id="Group">
<path id="Vector" fill-rule="evenodd" clip-rule="evenodd" d="M16.8733 2.4494C9.22738 2.4494 3.00977 8.61928 3.00977 16.2056C3.00977 19.214 3.98988 22.0023 5.6502 24.2709L3.91901 29.3786L9.24549 27.6861C11.4339 29.1219 14.0561 29.9603 16.8733 29.9603C24.516 29.9603 30.7353 23.7899 30.7353 16.2056C30.7353 8.61928 24.516 2.4494 16.8733 2.4494Z" fill="url(#paint0_linear_1622_4343)"/>
<g id="Group_2">
<path id="Vector_2" fill-rule="evenodd" clip-rule="evenodd" d="M32.5 16.0885C32.5 24.696 25.4671 31.6755 16.7915 31.6755C14.0364 31.6755 11.448 30.972 9.19775 29.736L0.5 32.4999L3.33516 24.1373C1.90445 21.788 1.08183 19.0328 1.08183 16.0885C1.08183 7.47914 8.11468 0.500061 16.7915 0.500061C25.467 0.500061 32.5 7.47914 32.5 16.0885ZM16.7915 2.98277C9.50717 2.98277 3.58354 8.86101 3.58354 16.0886C3.58354 18.9548 4.51727 21.6112 6.09912 23.7726L4.44975 28.6387L9.52438 27.0263C11.6093 28.3943 14.1075 29.193 16.7914 29.193C24.0728 29.193 29.9981 23.3143 29.9981 16.0886C29.9982 8.8609 24.0729 2.98277 16.7915 2.98277ZM24.724 19.6787C24.6267 19.5192 24.3698 19.4236 23.9862 19.2325C23.6009 19.0418 21.7066 18.1164 21.3542 17.9898C21.0017 17.8627 20.7431 17.7986 20.488 18.1805C20.2311 18.5627 19.4929 19.4236 19.2675 19.6787C19.0435 19.9343 18.8195 19.9653 18.4342 19.7743C18.0484 19.5836 16.8071 19.1787 15.3369 17.8788C14.1929 16.8646 13.42 15.6147 13.1942 15.2325C12.9707 14.8508 13.172 14.6441 13.3627 14.4534C13.5365 14.2814 13.7485 14.0072 13.9409 13.785C14.1339 13.5609 14.1978 13.401 14.3263 13.1459C14.4547 12.8908 14.3908 12.6686 14.2934 12.4774C14.1978 12.2867 13.4272 10.4063 13.1058 9.64059C12.7867 8.877 12.4654 8.9055 12.2396 8.9055C12.0156 8.9055 11.6 8.97212 11.6 8.97212C11.6 8.97212 10.828 9.0677 10.4757 9.44988C10.1232 9.83162 9.12856 10.757 9.12856 12.6356C9.12856 14.5156 10.5072 16.3334 10.6997 16.5867C10.8925 16.8422 13.3628 20.8263 17.2779 22.3561C21.193 23.8854 21.193 23.3752 21.8992 23.3107C22.6042 23.2485 24.1771 22.3871 24.4983 21.4947C24.8196 20.6023 24.8196 19.8369 24.724 19.6787Z" fill="white"/>
</g>
</g>
<defs>
<linearGradient id="paint0_linear_1622_4343" x1="16.8726" y1="2.4494" x2="16.8726" y2="29.9603" gradientUnits="userSpaceOnUse">
<stop stop-color="#4AC14B"/>
<stop offset="1" stop-color="#06853A"/>
</linearGradient>
</defs>
</svg>
