<svg width="20" height="20" viewBox="0 0 20 20" fill="none" xmlns="http://www.w3.org/2000/svg">
<g id="Frame">
<g id="SVGRepo_iconCarrier">
<path id="Vector" d="M14.2942 10.9148L14.2803 10.8875H14.2497L13.9653 10.8875L13.9647 10.8875C13.1178 10.8969 12.5361 11.0305 12.047 11.3902C11.5602 11.7482 11.1714 12.3261 10.6993 13.2076L10.699 13.2084L10.6461 13.3111L10.6459 13.3115L10.5837 13.4296C10.5837 13.4296 10.5837 13.4297 10.5836 13.4297C10.022 14.4813 9.70662 14.9529 9.13851 15.4531C8.34012 16.1528 7.30897 16.5125 5.93718 16.5125H5.74968H5.71906L5.70514 16.5398C5.53481 16.8736 5.25707 17.1403 4.91668 17.297C4.57629 17.4538 4.19304 17.4914 3.82868 17.4038C3.46432 17.3162 3.14005 17.1085 2.90809 16.8142C2.67614 16.5198 2.55 16.156 2.55 15.7812C2.55 15.4065 2.67614 15.0427 2.90809 14.7483C3.14005 14.454 3.46432 14.2463 3.82868 14.1587C4.19304 14.0711 4.57629 14.1087 4.91668 14.2655C5.25707 14.4222 5.53481 14.6889 5.70514 15.0227L5.71906 15.05H5.74968L6.03406 15.05L6.0346 15.05C6.89732 15.0406 7.48485 14.9022 7.97951 14.5269C8.47129 14.1538 8.86526 13.5507 9.35232 12.6283L9.41686 12.5268L9.41716 12.527L9.41975 12.5217C9.6846 11.9704 10.0086 11.4496 10.3859 10.9684L10.4493 10.8875H10.3466H5.74968H5.71906L5.70514 10.9148C5.53481 11.2486 5.25707 11.5153 4.91668 11.672C4.57629 11.8288 4.19304 11.8664 3.82868 11.7788C3.46432 11.6912 3.14005 11.4835 2.90809 11.1892C2.67614 10.8948 2.55 10.531 2.55 10.1562C2.55 9.78151 2.67614 9.41767 2.90809 9.12334C3.14005 8.82901 3.46432 8.62132 3.82868 8.53373C4.19304 8.44613 4.57629 8.48373 4.91668 8.64046C5.25707 8.79719 5.53481 9.06393 5.70514 9.39773L5.71906 9.425H5.74968H14.2497H14.2802L14.2942 9.39783C14.4294 9.13422 14.6321 8.91112 14.8816 8.75122C15.1307 8.59151 15.4176 8.50053 15.7133 8.4875H15.7809C16.0775 8.48756 16.3687 8.56665 16.6245 8.71663C16.8804 8.86662 17.0917 9.08208 17.2366 9.34084C17.3815 9.5996 17.4548 9.8923 17.449 10.1888C17.4433 10.4853 17.3585 10.775 17.2036 11.0279C17.0487 11.2808 16.8292 11.4878 16.5677 11.6277C16.3062 11.7676 16.0121 11.8353 15.7158 11.8237C15.4194 11.8122 15.1315 11.7219 14.8817 11.5622C14.6318 11.4024 14.429 11.1789 14.2942 10.9148ZM14.2942 4.97727L14.2803 4.95H14.2497H5.74968H5.71906L5.70514 4.97727C5.53481 5.31107 5.25707 5.57781 4.91668 5.73454C4.57629 5.89127 4.19304 5.92887 3.82868 5.84127C3.46432 5.75368 3.14005 5.54599 2.90809 5.25166C2.67614 4.95733 2.55 4.59349 2.55 4.21875C2.55 3.84401 2.67614 3.48017 2.90809 3.18584C3.14005 2.89151 3.46432 2.68383 3.82868 2.59623C4.19304 2.50863 4.57629 2.54623 4.91668 2.70296C5.25707 2.85969 5.53481 3.12644 5.70514 3.46023L5.71906 3.4875H5.74968H14.2497H14.2803L14.2942 3.46023C14.434 3.18621 14.6469 2.95619 14.9093 2.79556C15.1716 2.63493 15.4733 2.54994 15.7809 2.55C16.0775 2.55006 16.3687 2.62915 16.6245 2.77913C16.8804 2.92912 17.0917 3.14458 17.2366 3.40334C17.3815 3.6621 17.4548 3.9548 17.449 4.25132C17.4433 4.54784 17.3585 4.83745 17.2036 5.09036C17.0487 5.34326 16.8292 5.55032 16.5677 5.6902C16.3062 5.83009 16.0121 5.89776 15.7158 5.88624C15.4194 5.87472 15.1315 5.78443 14.8817 5.62467C14.6318 5.46491 14.429 5.24144 14.2942 4.97727Z" fill="#686A74" stroke="white" stroke-width="0.1"/>
</g>
</g>
</svg>
