<svg width="20" height="20" viewBox="0 0 20 20" fill="none" xmlns="http://www.w3.org/2000/svg">
<g id="Frame">
<g id="SVGRepo_iconCarrier">
<g id="Group">
<path id="Vector" d="M8.2519 3.44491L8.2519 3.44492L7.65121 4.04562C7.65121 4.04562 7.65121 4.04562 7.65121 4.04562C7.34856 4.34828 7.34856 4.83899 7.65121 5.14164L7.65121 5.14164C7.95387 5.44429 8.44453 5.44429 8.7472 5.14164C8.7472 5.14164 8.7472 5.14164 8.7472 5.14164L9.34795 4.54093L9.34795 4.54093C11.0359 2.85302 13.7725 2.85302 15.4604 4.54093C17.1483 6.22884 17.1483 8.96551 15.4604 10.6534L14.8597 11.2541C14.5571 11.5568 14.5571 12.0475 14.8597 12.3501C15.1624 12.6528 15.653 12.6528 15.9557 12.3501L16.5564 11.7494C18.8496 9.45623 18.8496 5.73814 16.5565 3.44492L16.4504 3.55098L16.5564 3.44491C14.2632 1.1517 10.5451 1.1517 8.2519 3.44491Z" fill="#686A74" stroke="#686A74" stroke-width="0.3"/>
<path id="Vector_2" d="M5.14164 7.65121L5.14164 7.65121C5.44429 7.95387 5.44429 8.44453 5.14164 8.7472C5.14164 8.7472 5.14164 8.7472 5.14164 8.7472L4.54093 9.34795L4.54093 9.34795C2.85302 11.0359 2.85302 13.7725 4.54093 15.4604C6.22884 17.1483 8.96551 17.1483 10.6534 15.4604L11.2541 14.8597C11.5568 14.5571 12.0475 14.5571 12.3501 14.8597L5.14164 7.65121ZM5.14164 7.65121C4.83899 7.34856 4.34828 7.34856 4.04562 7.65121C4.04562 7.65121 4.04562 7.65121 4.04562 7.65121L3.44492 8.2519L3.44491 8.2519M5.14164 7.65121L3.44491 8.2519M3.44491 8.2519C1.1517 10.5451 1.1517 14.2632 3.44491 16.5564L3.55098 16.4504M3.44491 8.2519L3.55098 16.4504M3.55098 16.4504L3.44492 16.5565C5.73814 18.8496 9.45623 18.8496 11.7494 16.5564L12.3501 15.9557C12.6528 15.6531 12.6528 15.1623 12.3501 14.8597L3.55098 16.4504Z" fill="#686A74" stroke="#686A74" stroke-width="0.3"/>
</g>
<path id="Vector_3" d="M7.65121 11.2555L7.65121 11.2555C7.34856 11.5581 7.34856 12.0488 7.65121 12.3514C7.95386 12.6541 8.44455 12.6541 8.74721 12.3514L12.3515 8.7472C12.6541 8.44454 12.6541 7.95387 12.3515 7.65121L12.2454 7.75728L12.3515 7.65121C12.0488 7.34857 11.5581 7.34854 11.2555 7.65121C11.2555 7.65121 11.2555 7.65122 11.2555 7.65123L7.65121 11.2555Z" fill="#686A74" stroke="#686A74" stroke-width="0.3"/>
</g>
</g>
</svg>
