<svg width="180" height="180" viewBox="0 0 180 180" fill="none" xmlns="http://www.w3.org/2000/svg">
<g id="marketing-digital-ads-performance">
<g id="Group">
<path id="Vector" d="M131.427 98.0974C125.625 92.0098 110.388 83.8972 103.048 79.8652C100.553 84.088 91.3686 84.646 86.2728 83.0971C83.5717 85.1819 81.5436 88.0151 80.4408 91.2439C81.7211 93.0988 80.4408 99.3979 79.9566 104.001C80.63 107.738 81.6511 111.404 83.0067 114.951C80.2167 111.839 77.2953 108.778 74.9355 106.452C64.8555 100.457 67.1397 101.772 63.4956 99.6463C63.0164 99.8893 62.5537 100.164 62.1105 100.467C59.9021 101.96 58.1012 103.981 56.871 106.346C55.6408 108.71 55.0201 111.345 55.0653 114.01C56.4882 115.18 75.7095 129.13 83.7591 134.342C93.2838 140.481 99.9528 137.147 100.927 128.443C101.42 123.919 103.06 102.725 103.15 101.51C105.658 104.167 113.514 110.451 117.241 111.36C116.996 113.93 114.501 135.546 114.334 136.941C118.924 140.793 127.452 141.81 131.297 140.037C132.24 134.457 134.473 114.41 134.785 107.666C134.939 104.307 134.86 101.697 131.427 98.0974Z" fill="#DEDDF7"/>
<path id="Vector_2" d="M129.775 28.2253C128.155 28.5493 127.975 32.9053 127.962 34.5694C129.794 34.3532 131.652 34.6008 133.362 35.2894C132.46 31.0297 131.023 28.0714 129.775 28.2253Z" fill="#DEDDF7"/>
<path id="Vector_3" d="M134.273 42.6071C132.786 43.6858 131.054 44.3791 129.233 44.6249C129.637 46.2017 130.886 50.4371 132.499 50.3363C133.741 50.1824 134.41 46.9676 134.273 42.6071Z" fill="#DEDDF7"/>
<path id="Vector_4" d="M121.602 36.8271L112.146 37.9899C111.256 39.5631 111.516 42.7779 112.539 44.4879C113.259 43.9578 114.879 43.8039 116.198 43.6671C117.293 43.5645 117.515 43.9065 117.686 44.5221C117.72 44.6418 117.737 44.7615 117.772 44.8983C118.574 44.4195 120.238 43.857 120.85 44.163L122.47 43.9578C121.051 42.5556 120.576 38.6226 121.602 36.8271Z" fill="#DEDDF7"/>
<path id="Vector_5" d="M69.8574 150.387L64.7445 146.796C64.1704 146.395 63.7793 145.782 63.6572 145.093C63.535 144.402 63.6919 143.692 64.0933 143.118C64.4947 142.545 65.1076 142.153 65.7974 142.031C66.4871 141.909 67.1971 142.066 67.7712 142.467L68.5578 143.015L69.105 142.228C69.5064 141.655 70.1192 141.263 70.8087 141.142C71.4981 141.02 72.2078 141.177 72.7815 141.578C73.3551 141.98 73.7459 142.592 73.8678 143.282C73.9896 143.971 73.8327 144.681 73.4313 145.255L69.8574 150.387Z" fill="#DEDDF7"/>
</g>
<g id="Group_2">
<path id="Vector_6" d="M50.3984 50.4062C52.665 50.4062 54.5024 48.5688 54.5024 46.3022C54.5024 44.0357 52.665 42.1982 50.3984 42.1982C48.1319 42.1982 46.2944 44.0357 46.2944 46.3022C46.2944 48.5688 48.1319 50.4062 50.3984 50.4062Z" fill="#E9E9E9"/>
<path id="Vector_7" d="M125.93 140.865C122.445 140.78 119.037 139.828 116.012 138.095C115.105 140.885 113.395 142.729 112.78 144.114C115.447 149.723 126.032 159.144 132.154 162.834C131.784 152.836 125.581 148.185 125.93 140.865Z" fill="#E9E9E9"/>
<path id="Vector_8" d="M58.8457 97.637C59.7178 98.2184 60.7096 99.3641 62.0947 100.476C60.3238 101.691 58.8107 103.243 57.6427 105.045C56.4746 106.848 55.6746 108.863 55.2889 110.975C50.2786 111.642 44.8579 114.634 37.1089 113.557C39.7279 108.82 52.8778 99.2957 58.8457 97.637Z" fill="#E9E9E9"/>
<path id="Vector_9" d="M81.4164 110.206C81.861 111.711 82.3911 113.301 83.0067 114.96C80.2167 111.864 77.2953 108.786 74.9355 106.427C77.6544 108.034 80.0484 109.441 81.4164 110.206Z" fill="#E9E9E9"/>
<path id="Vector_10" d="M103.136 101.52C102.982 103.384 102.828 105.47 102.657 107.64C103.802 107.931 111.908 110.051 115.841 111.043C111.22 108.418 106.952 105.218 103.136 101.52Z" fill="#E9E9E9"/>
<path id="Vector_11" d="M102.81 74.0382C103.613 76.5005 104.556 78.9154 105.631 81.2715C104.793 80.8098 103.938 80.3481 103.049 79.8693C103.015 77.6805 102.929 75.7482 102.81 74.0382Z" fill="#E9E9E9"/>
<path id="Vector_12" d="M63.2566 88.4199C62.5366 89.6682 62.3845 90.8139 62.8966 91.4799C63.4267 92.1468 64.3843 92.4033 66.3337 91.8048C65.1189 90.8643 64.0776 89.7186 63.2566 88.4199Z" fill="#E9E9E9"/>
<path id="Vector_13" d="M75.4674 83.7184C75.66 84.0475 75.7264 84.4355 75.654 84.8099C75.5817 85.1844 75.3755 85.5197 75.0741 85.7533C73.9626 84.6589 72.9366 83.6329 72.0645 82.6933C74.0328 82.435 74.8707 82.9966 75.4674 83.7184Z" fill="#E9E9E9"/>
<path id="Vector_14" d="M80.3068 68.7891C79.5079 70.4693 78.6232 72.1074 77.6563 73.6968C76.3225 72.3468 75.1426 71.2173 74.3389 70.5468C76.7158 69.8322 79.0225 69.1482 80.3068 68.7891Z" fill="#E9E9E9"/>
<path id="Vector_15" d="M108.282 58.9554C106.623 59.2974 105.409 59.9985 105.46 60.6483C105.46 61.6032 108.419 61.884 108.538 61.8966C108.487 61.281 108.384 60.1866 108.282 58.9554Z" fill="#E9E9E9"/>
<path id="Vector_16" d="M121.278 59.6574C121.245 60.2388 120.081 60.9057 118.166 61.3845C118.097 60.786 117.858 59.5719 117.619 58.3578C120.235 58.5459 121.313 59.0589 121.278 59.6574Z" fill="#E9E9E9"/>
<path id="Vector_17" d="M121.107 52.4759C120.442 52.8983 119.696 53.1778 118.918 53.2967C117.618 53.5019 116.729 52.4075 118.627 51.296C117.242 51.566 116.131 50.4239 118.148 49.1414C117.986 49.1394 117.824 49.1105 117.67 49.0559C117.259 49.4834 116.473 49.1585 115.72 46.2344C116.039 47.4551 116.051 48.7357 115.754 49.9622C115.825 51.794 116.329 53.5831 117.225 55.1822C117.26 55.2621 117.306 55.3369 117.362 55.4045C118.849 55.0611 120.277 54.5023 121.603 53.7458C121.397 53.3392 121.231 52.9139 121.107 52.4759Z" fill="#E9E9E9"/>
<path id="Vector_18" d="M105.393 35.5978C108.3 34.5376 107.017 31.0321 104.948 30.3139C107.034 29.2708 106.402 25.6627 103.785 25.7995C105.256 23.833 104.076 21.0799 101.049 21.5074C101.443 19.0108 99.7327 17.3674 97.0309 18.5149C97.0993 15.7105 93.7009 14.4964 92.1916 16.3774C91.5616 13.6072 88.4809 12.5974 86.1553 15.2974C85.5253 12.4759 81.0424 12.3904 80.632 15.229C78.7339 12.799 74.5615 14.1859 74.8522 16.9561C72.2701 14.3056 68.7646 17.2126 69.0022 20.1061C66.3175 18.6013 63.838 22.312 64.9522 24.7231C61.5493 25.219 60.8122 28.5031 63.0028 30.4831C59.8051 31.6117 60.2668 34.7239 62.353 36.1603C59.9077 37.8361 60.5062 41.1706 63.4132 41.6152C61.327 43.9552 63.55 47.7712 66.4057 47.224C64.8154 49.8745 66.9871 52.7986 69.8257 51.634C69.5827 52.3115 69.5963 53.0546 69.8639 53.7227C70.1316 54.3908 70.6347 54.9377 71.2783 55.2601C73.3132 54.5248 78.1525 52.6951 78.1525 52.6951C83.7271 50.5234 85.0609 46.2997 86.1382 41.905C83.0431 40.915 84.394 37.8181 85.9501 39.0151C87.4378 40.1608 86.959 38.6218 86.8051 36.9802C88.7929 36.3982 90.8416 36.0482 92.9098 35.9371C95.4424 43.5628 95.0113 47.2879 91.9297 47.1484C90.4483 46.937 89.0287 46.4156 87.7627 45.6184C88.1879 46.6855 88.815 47.6606 89.6095 48.4903C89.6095 50.266 90.8641 52.516 93.5254 53.9974L94.483 54.5275C94.9447 54.784 95.4577 55.0747 95.9878 55.3996C96.6061 55.2405 97.1407 54.8506 97.4809 54.3101C97.8211 53.7694 97.9417 53.1192 97.8175 52.4926C98.353 52.8439 98.9848 53.0185 99.6238 52.9918C100.264 52.9652 100.878 52.7387 101.383 52.3441C101.887 51.9495 102.254 51.4067 102.434 50.7923C102.614 50.1778 102.596 49.5225 102.383 48.9187C105.359 48.8845 105.752 45.6013 104.162 44.0281C106.675 43.4296 106.573 40.933 104.726 39.9241C107.051 39.1888 107.171 36.6067 105.393 35.5978Z" fill="#E9E9E9"/>
</g>
<g id="Group_3">
<path id="Vector_19" d="M115.257 128.946L100.226 131.597" stroke="black" stroke-width="0.675" stroke-linecap="round" stroke-linejoin="round"/>
<path id="Vector_20" d="M131.604 49.9956L144.618 123.765L133.109 125.8" stroke="black" stroke-width="0.675" stroke-linecap="round" stroke-linejoin="round"/>
<path id="Vector_21" d="M103.611 45.0871L109.083 44.1124" stroke="black" stroke-width="0.675" stroke-linecap="round" stroke-linejoin="round"/>
<path id="Vector_22" d="M49.9178 67.1475L47.7632 54.9381L67.0264 51.5364" stroke="black" stroke-width="0.675" stroke-linecap="round" stroke-linejoin="round"/>
<path id="Vector_23" d="M55.5265 98.9704L52.0039 78.9634" stroke="black" stroke-width="0.675" stroke-linecap="round" stroke-linejoin="round"/>
<path id="Vector_24" d="M83.9623 134.47L62.4505 138.267L58.6372 116.686" stroke="black" stroke-width="0.675" stroke-linecap="round" stroke-linejoin="round"/>
<path id="Vector_25" d="M134.536 22.4336C135.369 23.742 135.936 25.2019 136.204 26.7297L160.913 166.86L136.565 28.7789C136.565 28.7789 136.204 25.0549 134.536 22.4336ZM134.536 22.4336C133.704 21.1251 131.35 19.1042 131.35 19.1042M134.536 22.4336C132.875 20.5167 131.35 19.1042 131.35 19.1042M131.35 19.1042C130.079 18.2148 128.646 17.5847 127.131 17.25C125.617 16.9153 124.051 16.8825 122.524 17.1537L101.158 20.9176L118.942 17.7847C118.942 17.7847 122.749 16.8751 125.279 16.9924C128.754 17.1536 131.35 19.1042 131.35 19.1042ZM58.8776 166.86L49.2461 112.46M61.7893 27.8529L46.7537 30.5016C45.2253 30.7694 43.7647 31.3359 42.4554 32.1684C41.146 33.001 40.0135 34.0834 39.1226 35.3538C38.2318 36.6243 37.5999 38.0578 37.2633 39.5725C36.9266 41.0872 36.8918 42.6534 37.1606 44.1816V44.1987L47.7132 103.801" stroke="black" stroke-width="0.675" stroke-linecap="round" stroke-linejoin="round"/>
<path id="Vector_26" d="M158.176 61.4538C160.575 61.4538 162.52 59.5091 162.52 57.1104C162.52 54.7116 160.575 52.767 158.176 52.767C155.778 52.767 153.833 54.7116 153.833 57.1104C153.833 59.5091 155.778 61.4538 158.176 61.4538Z" stroke="black" stroke-width="0.675" stroke-linecap="round" stroke-linejoin="round"/>
<path id="Vector_27" d="M171.157 70.3786C173.556 70.3786 175.501 68.4339 175.501 66.0352C175.501 63.6364 173.556 61.6918 171.157 61.6918C168.759 61.6918 166.814 63.6364 166.814 66.0352C166.814 68.4339 168.759 70.3786 171.157 70.3786Z" stroke="black" stroke-width="0.675" stroke-linecap="round" stroke-linejoin="round"/>
<path id="Vector_28" d="M156.569 73.029L172.728 49.944" stroke="black" stroke-width="0.675" stroke-linecap="round" stroke-linejoin="round"/>
<path id="Vector_29" d="M173.069 25.6114C172.637 25.3011 172.101 25.1737 171.575 25.257C171.051 25.3402 170.58 25.6273 170.265 26.056L169.837 26.6374C169.837 26.6374 169.207 26.1928 169.188 26.1757C168.746 25.8888 168.208 25.7872 167.692 25.893C167.175 25.9986 166.721 26.3031 166.427 26.7408C166.133 27.1784 166.022 27.714 166.12 28.2321C166.218 28.7501 166.515 29.2092 166.947 29.5102L170.829 32.2291L173.548 28.3474C173.838 27.9179 173.949 27.393 173.86 26.8829C173.771 26.3727 173.488 25.917 173.069 25.6114Z" stroke="black" stroke-width="0.675" stroke-linecap="round" stroke-linejoin="round"/>
<path id="Vector_30" d="M87.5883 145.191C87.9634 144.41 88.083 143.53 87.9303 142.677C87.8498 141.69 87.4724 140.75 86.8479 139.982C86.2234 139.213 85.3808 138.65 84.4311 138.37C83.4813 138.089 82.4688 138.101 81.5264 138.407C80.5841 138.712 79.756 139.294 79.1511 140.079C78.5462 140.863 78.1928 141.812 78.1371 142.801C78.0815 143.789 78.3264 144.772 78.8396 145.619C79.3528 146.467 80.1102 147.139 81.0125 147.548C81.9147 147.956 82.9195 148.082 83.8947 147.91C84.8866 147.735 85.8069 147.278 86.5452 146.593L88.6998 147.055L87.5883 145.191Z" stroke="black" stroke-width="0.675" stroke-linecap="round" stroke-linejoin="round"/>
<path id="Vector_31" d="M138.358 139.155L142.086 134.812L147.062 137.616L145.506 128.827L136.802 130.366L138.358 139.155Z" stroke="black" stroke-width="0.675" stroke-linecap="round" stroke-linejoin="round"/>
<path id="Vector_32" d="M56.8252 45.1735L62.5769 44.1594" stroke="black" stroke-width="0.675" stroke-linecap="round" stroke-linejoin="round"/>
<path id="Vector_33" d="M19.1023 108.239C20.2829 108.239 21.2398 107.283 21.2398 106.102C21.2398 104.921 20.2829 103.964 19.1023 103.964C17.9218 103.964 16.9648 104.921 16.9648 106.102C16.9648 107.283 17.9218 108.239 19.1023 108.239Z" stroke="black" stroke-width="0.675" stroke-linecap="round" stroke-linejoin="round"/>
<path id="Vector_34" d="M31.8597 105.981C33.0402 105.981 33.9972 105.024 33.9972 103.843C33.9972 102.663 33.0402 101.706 31.8597 101.706C30.6791 101.706 29.7222 102.663 29.7222 103.843C29.7222 105.024 30.6791 105.981 31.8597 105.981Z" stroke="black" stroke-width="0.675" stroke-linecap="round" stroke-linejoin="round"/>
<path id="Vector_35" d="M21.1899 105.725L29.757 104.22" stroke="black" stroke-width="0.675" stroke-linecap="round" stroke-linejoin="round"/>
<path id="Vector_36" d="M4.49951 86.6067L9.15071 85.7859L18.1624 104.185" stroke="black" stroke-width="0.675" stroke-linecap="round" stroke-linejoin="round"/>
<path id="Vector_37" d="M16.6414 101.089L32.647 96.5237L34.4425 87.854L12.0928 91.8041" stroke="black" stroke-width="0.675" stroke-linecap="round" stroke-linejoin="round"/>
<path id="Vector_38" d="M19.9238 50.2352L21.7706 60.7175" stroke="black" stroke-width="0.675" stroke-linecap="round" stroke-linejoin="round"/>
<path id="Vector_39" d="M26.0975 54.5625L15.6152 56.4093" stroke="black" stroke-width="0.675" stroke-linecap="round" stroke-linejoin="round"/>
<path id="Vector_40" d="M164.453 90.3187L167.685 108.718" stroke="black" stroke-width="0.675" stroke-linecap="round" stroke-linejoin="round"/>
<path id="Vector_41" d="M175.277 97.9106L156.86 101.143" stroke="black" stroke-width="0.675" stroke-linecap="round" stroke-linejoin="round"/>
<path id="Vector_42" d="M118.162 61.3667C118.025 60.1013 117.068 56.0828 117.222 55.1567" stroke="black" stroke-width="0.675" stroke-linecap="round" stroke-linejoin="round"/>
<path id="Vector_43" d="M115.77 50.1156C115.918 51.97 116.46 53.7713 117.36 55.3995C118.849 55.0638 120.279 54.5045 121.601 53.7408C121.393 53.3428 121.227 52.9245 121.105 52.4925" stroke="black" stroke-width="0.675" stroke-linecap="round" stroke-linejoin="round"/>
<path id="Vector_44" d="M134.288 42.6085C134.425 46.969 133.741 50.1874 132.51 50.3377C130.937 50.5303 129.056 45.7378 128.303 39.6331C127.551 33.5284 128.218 28.4182 129.791 28.2274C131.039 28.0753 132.476 31.0318 133.382 35.2897" stroke="black" stroke-width="0.675" stroke-linecap="round" stroke-linejoin="round"/>
<path id="Vector_45" d="M122.473 43.9602C121.054 42.558 120.575 38.625 121.601 36.8295" stroke="black" stroke-width="0.675" stroke-linecap="round" stroke-linejoin="round"/>
<path id="Vector_46" d="M112.538 44.4899C111.512 42.7799 111.255 39.5651 112.145 37.9919" stroke="black" stroke-width="0.675" stroke-linecap="round" stroke-linejoin="round"/>
<path id="Vector_47" d="M127.981 34.5713C132.307 34.1438 136.035 35.9213 136.36 38.6582C136.685 41.3951 133.521 44.0105 129.212 44.6261" stroke="black" stroke-width="0.675" stroke-linecap="round" stroke-linejoin="round"/>
<path id="Vector_48" d="M120.848 44.1638L122.472 43.9586L131.757 50.0975" stroke="black" stroke-width="0.675" stroke-linecap="round" stroke-linejoin="round"/>
<path id="Vector_49" d="M129.125 28.6375L121.601 36.8274L111.392 38.0757C106.912 38.6229 107.288 45.3604 111.82 45.2407" stroke="black" stroke-width="0.675" stroke-linecap="round" stroke-linejoin="round"/>
<path id="Vector_50" d="M108.28 58.9558C106.604 59.2978 105.407 59.9989 105.458 60.6316C105.527 61.4695 107.681 62.2165 113.598 61.9654C118.112 61.7737 121.23 60.6154 121.276 59.6398C121.303 59.0575 120.215 58.5283 117.616 58.3402" stroke="black" stroke-width="0.675" stroke-linecap="round" stroke-linejoin="round"/>
<path id="Vector_51" d="M75.0712 85.7694C75.3735 85.5364 75.5802 85.201 75.6527 84.8262C75.7251 84.4516 75.6582 84.0633 75.4645 83.7345C74.677 82.497 71.905 81.9165 67.6498 84.333C63.7141 86.5677 61.7944 90.0876 62.896 91.4979C63.4135 92.1612 64.3837 92.4213 66.3331 91.8228" stroke="black" stroke-width="0.675" stroke-linecap="round" stroke-linejoin="round"/>
<path id="Vector_52" d="M72.0439 82.6906C74.0446 84.8452 76.8022 87.4228 79.756 90.2659C80.2302 90.76 80.5857 91.3558 80.7961 92.0074C81.0064 92.659 81.0659 93.3502 80.9701 94.0279C80.8675 95.5327 79.9099 104.219 79.756 105.451C79.5508 106.989 77.776 107.81 77.8921 96.5929" stroke="black" stroke-width="0.675" stroke-linecap="round" stroke-linejoin="round"/>
<path id="Vector_53" d="M63.2554 88.4023C64.1206 89.8342 65.2788 91.0663 66.654 92.0194C68.0292 92.9716 69.5903 93.6232 71.2348 93.9301" stroke="black" stroke-width="0.675" stroke-linecap="round" stroke-linejoin="round"/>
<path id="Vector_54" d="M71.5501 93.1218C71.4475 93.4467 70.9003 94.7292 70.8301 94.9218" stroke="black" stroke-width="0.675" stroke-linecap="round" stroke-linejoin="round"/>
<path id="Vector_55" d="M68.6422 93.1571C68.5225 94.5422 68.8132 96.2684 70.1299 97.1414C71.7544 98.2214 72.4555 97.7057 74.1313 94.1147" stroke="black" stroke-width="0.675" stroke-linecap="round" stroke-linejoin="round"/>
<path id="Vector_56" d="M72.1309 97.3622C74.0461 98.4908 74.9011 98.1146 76.5256 94.3184" stroke="black" stroke-width="0.675" stroke-linecap="round" stroke-linejoin="round"/>
<path id="Vector_57" d="M74.5239 97.637C76.2681 98.627 77.2941 98.4236 78.9186 94.4393" stroke="black" stroke-width="0.675" stroke-linecap="round" stroke-linejoin="round"/>
<path id="Vector_58" d="M73.6201 91.7193C75.4593 91.6977 77.2981 91.7877 79.1263 91.9893" stroke="black" stroke-width="0.675" stroke-linecap="round" stroke-linejoin="round"/>
<path id="Vector_59" d="M63.6992 70.1736C66.4694 73.0797 73.9079 81.87 75.464 83.6997" stroke="black" stroke-width="0.675" stroke-linecap="round" stroke-linejoin="round"/>
<path id="Vector_60" d="M66.3174 73.0791C68.1471 72.4293 77.1759 69.6591 80.3052 68.787C79.5015 70.4628 78.6123 72.1044 77.6547 73.6947" stroke="black" stroke-width="0.675" stroke-linecap="round" stroke-linejoin="round"/>
<path id="Vector_61" d="M79.9448 103.929C80.7377 108.236 81.9637 112.453 83.6042 116.514" stroke="black" stroke-width="0.675" stroke-linecap="round" stroke-linejoin="round"/>
<path id="Vector_62" d="M74.3398 70.567C76.8022 72.6019 82.6846 78.9118 86.2756 83.1013C83.5752 85.1653 81.551 87.9872 80.4616 91.2067" stroke="black" stroke-width="0.675" stroke-linecap="round" stroke-linejoin="round"/>
<path id="Vector_63" d="M58.8784 87.1366C58.5364 83.5456 65.4619 77.2186 71.0878 78.5866" stroke="black" stroke-width="0.675" stroke-linecap="round" stroke-linejoin="round"/>
<path id="Vector_64" d="M108.553 61.8961C108.485 60.7675 108.16 58.0657 108.109 55.7914C108.023 51.9952 108.295 51.0538 109.271 49.2214C110.157 47.5448 111.236 45.978 112.486 44.5531C113.161 43.9636 114.863 43.8052 116.231 43.681C117.325 43.582 117.538 43.9177 117.719 44.536C117.988 45.7419 118.098 46.978 118.044 48.2125C118.008 49.2556 116.847 50.4868 115.769 46.2325C116.317 48.7804 116.06 51.0025 114.042 52.3525" stroke="black" stroke-width="0.675" stroke-linecap="round" stroke-linejoin="round"/>
<path id="Vector_65" d="M121.088 48.1144C121.994 48.4393 122.003 49.6831 121.054 50.3203C120.319 50.8067 119.492 51.1384 118.624 51.295C117.236 51.5542 116.127 50.4229 118.145 49.1404" stroke="black" stroke-width="0.675" stroke-linecap="round" stroke-linejoin="round"/>
<path id="Vector_66" d="M121.05 50.321C121.25 50.4182 121.42 50.5688 121.54 50.7561C121.66 50.9433 121.726 51.1601 121.732 51.3827C121.737 51.6053 121.681 51.8249 121.57 52.0177C121.458 52.2106 121.296 52.369 121.101 52.4756C120.437 52.8991 119.692 53.1787 118.912 53.2964C117.612 53.498 116.723 52.4072 118.621 51.2957" stroke="black" stroke-width="0.675" stroke-linecap="round" stroke-linejoin="round"/>
<path id="Vector_67" d="M117.838 44.8813C118.612 44.4203 119.486 44.1517 120.386 44.0983C121.651 44.0236 121.754 45.7183 120.54 46.2016C119.75 46.5587 118.907 46.7839 118.044 46.8685" stroke="black" stroke-width="0.675" stroke-linecap="round" stroke-linejoin="round"/>
<path id="Vector_68" d="M120.934 45.9596C121.84 46.3358 121.84 47.6354 120.848 48.2852C120.352 48.6101 118.796 49.3652 117.736 49.0547" stroke="black" stroke-width="0.675" stroke-linecap="round" stroke-linejoin="round"/>
<path id="Vector_69" d="M96.9072 58.6996C99.7458 61.3501 102.807 63.6757 103.063 79.8694C134.425 96.8155 135.126 100.526 134.801 107.674C134.493 114.446 132.202 134.931 131.291 140.027C127.46 141.806 118.945 140.78 114.328 136.932C114.909 131.802 117.064 113.283 117.235 111.372C114.345 110.671 103.965 107.952 102.665 107.627" stroke="black" stroke-width="0.675" stroke-linecap="round" stroke-linejoin="round"/>
<path id="Vector_70" d="M115.036 131.015C118.114 134.418 127.108 136.197 132.136 134.196" stroke="black" stroke-width="0.675" stroke-linecap="round" stroke-linejoin="round"/>
<path id="Vector_71" d="M103.662 95.0547C103.251 99.8247 101.57 122.585 100.909 128.451C99.9266 137.154 93.2585 140.502 83.7401 134.35C75.7139 129.162 56.9957 115.54 55.0634 114.019C55.0182 111.082 55.7804 108.189 57.2671 105.656C58.7537 103.123 60.9077 101.047 63.4937 99.6546C68.7434 102.698 78.0971 108.358 81.4145 110.185" stroke="black" stroke-width="0.675" stroke-linecap="round" stroke-linejoin="round"/>
<path id="Vector_72" d="M59.3579 117.198C59.3066 112.034 63.0686 104.527 68.5064 102.629" stroke="black" stroke-width="0.675" stroke-linecap="round" stroke-linejoin="round"/>
<path id="Vector_73" d="M86.272 83.101C91.7782 84.8452 100.739 83.7679 103.064 79.8862" stroke="black" stroke-width="0.675" stroke-linecap="round" stroke-linejoin="round"/>
<path id="Vector_74" d="M88.6846 83.6476C82.3234 93.1723 84.3412 108.066 87.5389 123.884C77.5867 117.539 64.8984 109.896 62.2812 108.049" stroke="black" stroke-width="0.675" stroke-linecap="round" stroke-linejoin="round"/>
<path id="Vector_75" d="M116.01 138.113C115.121 140.903 113.394 142.747 112.778 144.132C115.446 149.724 126.048 159.146 132.153 162.839C131.759 152.669 125.347 147.552 125.928 140.9" stroke="black" stroke-width="0.675" stroke-linecap="round" stroke-linejoin="round"/>
<path id="Vector_76" d="M62.0915 100.476C60.7064 99.3812 59.7146 98.2355 58.8425 97.637C52.8746 99.2957 39.7247 108.82 37.1084 113.54C44.8547 114.62 50.2925 111.642 55.2884 110.958" stroke="black" stroke-width="0.675" stroke-linecap="round" stroke-linejoin="round"/>
<path id="Vector_77" d="M121.276 59.6567C121.499 85.1186 121.037 87.7367 119.07 88.9832" stroke="black" stroke-width="0.675" stroke-linecap="round" stroke-linejoin="round"/>
<path id="Vector_78" d="M105.458 60.6489C106.159 64.6161 107.817 75.4575 108.399 78.1593" stroke="black" stroke-width="0.675" stroke-linecap="round" stroke-linejoin="round"/>
<path id="Vector_79" d="M106.518 67.0269C110.568 68.7027 119.138 68.3949 121.327 65.5869" stroke="black" stroke-width="0.675" stroke-linecap="round" stroke-linejoin="round"/>
<path id="Vector_80" d="M103.149 101.52C106.961 105.223 111.231 108.423 115.854 111.045" stroke="black" stroke-width="0.675" stroke-linecap="round" stroke-linejoin="round"/>
<path id="Vector_81" d="M74.9355 106.426C77.2755 108.785 80.2194 111.846 83.0067 114.958" stroke="black" stroke-width="0.675" stroke-linecap="round" stroke-linejoin="round"/>
<path id="Vector_82" d="M102.807 74.0206C103.608 76.4839 104.55 78.8991 105.629 81.2539" stroke="black" stroke-width="0.675" stroke-linecap="round" stroke-linejoin="round"/>
<path id="Vector_83" d="M89.5913 46.5291C88.969 46.2571 88.3634 45.9481 87.7778 45.6039C88.2088 46.6649 88.8321 47.6371 89.6165 48.4713" stroke="black" stroke-width="0.675" stroke-linecap="round" stroke-linejoin="round"/>
<path id="Vector_84" d="M62.8035 91.3658C56.7375 84.9875 53.7459 81.1121 50.7543 77.4068C45.9663 71.4731 48.8211 66.5978 55.0293 62.5811C61.5093 58.3898 70.6893 55.616 78.1656 52.6973C83.7384 50.5211 85.0569 46.3019 86.1684 41.9072C83.0733 40.9172 84.4206 37.8257 85.9803 39.0173C87.4644 40.1504 86.9703 38.6069 86.8353 36.9824C88.8254 36.4101 90.8727 36.0603 92.94 35.9393C96.0081 45.2201 94.7112 48.7319 89.5893 46.526C89.259 50.846 91.3812 52.7981 93.5385 53.996C96.6678 55.7402 101.918 58.5788 106.175 64.94" stroke="black" stroke-width="0.675" stroke-linecap="round" stroke-linejoin="round"/>
<path id="Vector_85" d="M77.2085 53.0735C82.3898 54.7835 89.4485 59.2466 93.1457 62.1878C93.9656 59.7133 94.4201 57.1327 94.4957 54.527" stroke="black" stroke-width="0.675" stroke-linecap="round" stroke-linejoin="round"/>
<path id="Vector_86" d="M71.2939 55.2602C70.6524 54.9365 70.151 54.3901 69.8835 53.7232C69.6161 53.0563 69.6011 52.3148 69.8413 51.6377C67.0027 52.8005 64.831 49.8935 66.4213 47.2277C63.5656 47.7749 61.3426 43.9616 63.4288 41.636C60.5218 41.1743 59.9188 37.8398 62.3686 36.164C60.2824 34.724 59.8207 31.6154 63.0184 30.4868C60.8296 28.5068 61.5649 25.22 64.9678 24.7268C63.8563 22.3157 66.3358 18.6068 69.0178 20.1098C68.7784 17.237 72.2839 14.3129 74.8678 16.9598C74.5771 14.1896 78.7495 12.8045 80.6476 15.2327C81.058 12.3941 85.5382 12.4796 86.1709 15.3011C88.4965 12.6011 91.5709 13.6082 92.2072 16.3811C93.712 14.5001 97.1149 15.7142 97.0465 18.5186C99.7465 17.3729 101.457 19.0145 101.065 21.5111C104.092 21.0836 105.272 23.8367 103.801 25.8032C106.434 25.6664 107.05 29.2745 104.964 30.3176C107.034 31.0376 108.315 34.5413 105.408 35.6015C105.83 35.8298 106.17 36.1828 106.383 36.612C106.596 37.0413 106.671 37.5258 106.598 37.9994C106.525 38.473 106.308 38.9125 105.975 39.2576C105.643 39.6029 105.212 39.8369 104.742 39.9278C106.588 40.9367 106.691 43.4378 104.16 44.0318C105.75 45.605 105.357 48.8918 102.382 48.9224C102.594 49.5262 102.612 50.1815 102.433 50.796C102.253 51.4104 101.886 51.9532 101.382 52.3478C100.877 52.7423 100.262 52.9689 99.6223 52.9955C98.9833 53.0221 98.3515 52.8475 97.816 52.4963C97.9402 53.1228 97.8196 53.7731 97.4794 54.3137C97.1392 54.8543 96.6046 55.2441 95.9863 55.4033" stroke="black" stroke-width="0.675" stroke-linecap="round" stroke-linejoin="round"/>
<path id="Vector_87" d="M69.8554 150.391L64.7425 146.8C64.1685 146.398 63.7773 145.785 63.6552 145.096C63.5331 144.406 63.69 143.696 64.0914 143.121C64.4928 142.548 65.1057 142.157 65.7954 142.034C66.4852 141.913 67.1952 142.069 67.7692 142.471L68.5558 143.018L69.103 142.231C69.5044 141.658 70.1172 141.267 70.8067 141.145C71.4962 141.024 72.2058 141.18 72.7795 141.582C73.3533 141.983 73.7439 142.596 73.8658 143.285C73.9877 143.975 73.8307 144.685 73.4293 145.258L69.8554 150.391Z" stroke="black" stroke-width="0.675" stroke-linejoin="round"/>
</g>
</g>
</svg>
