<svg width="29" height="29" viewBox="0 0 29 29" fill="none" xmlns="http://www.w3.org/2000/svg">
<g id="Frame">
<g id="SVGRepo_iconCarrier">
<path id="Vector" d="M15.711 2.41211V2.31211H15.611H13.7985H13.6985V2.41211V17.3347C12.6736 16.4446 11.3354 15.9059 9.87142 15.9059C6.64631 15.9059 4.03184 18.5203 4.03184 21.7454C4.03184 24.9706 6.64631 27.585 9.87142 27.585C13.0966 27.585 15.711 24.9706 15.711 21.7454V7.81427C17.2248 9.5623 19.4606 10.6684 21.9548 10.6684C22.5105 10.6684 22.961 10.2178 22.961 9.66211C22.961 9.10638 22.5105 8.65586 21.9548 8.65586C18.5064 8.65586 15.711 5.86044 15.711 2.41211ZM9.87142 17.9184C11.985 17.9184 13.6985 19.6318 13.6985 21.7454C13.6985 23.859 11.985 25.5725 9.87142 25.5725C7.75777 25.5725 6.04434 23.8591 6.04434 21.7454C6.04434 19.6318 7.75777 17.9184 9.87142 17.9184Z" fill="white" stroke="white" stroke-width="0.2"/>
</g>
</g>
</svg>
