<svg width="54" height="55" viewBox="0 0 54 55" fill="none" xmlns="http://www.w3.org/2000/svg">
<g id="Notes 1" clip-path="url(#clip0_1604_15030)">
<g id="Group 1171278524">
<g id="notes">
<path id="Vector" d="M13.3573 52.8642C12.8981 52.8819 12.4506 52.7165 12.1132 52.4045C11.7757 52.0925 11.5759 51.6593 11.5576 51.2L9.97407 10.5024C9.96488 10.2749 10.0007 10.0478 10.0794 9.83412C10.1581 9.62045 10.2782 9.42441 10.4328 9.25723C10.5873 9.09005 10.7734 8.95501 10.9803 8.85984C11.1871 8.76468 11.4107 8.71126 11.6382 8.70264L50.3106 7.19628C50.5382 7.18732 50.7653 7.22332 50.979 7.30222C51.1926 7.38112 51.3887 7.50138 51.5558 7.65611C51.723 7.81083 51.858 7.997 51.9531 8.20395C52.0483 8.41091 52.1017 8.63459 52.1103 8.8622L53.6818 49.2339C53.7032 49.7794 53.5069 50.3111 53.1363 50.712C52.7657 51.1129 52.251 51.3502 51.7054 51.3716L13.3573 52.8642Z" fill="#68E1FD"/>
<path id="Vector_2" d="M13.2955 53.186C12.7641 53.1865 12.253 52.9814 11.8693 52.6137C11.4856 52.2459 11.2589 51.744 11.2368 51.213L9.65666 10.5154C9.63669 9.97124 9.83308 9.44136 10.2028 9.04169C10.5726 8.64201 11.0856 8.40509 11.6297 8.38277L50.2986 6.87469C50.8421 6.85517 51.3713 7.05154 51.7705 7.42089C52.1698 7.79025 52.4066 8.30258 52.4294 8.846L54.0009 49.2194C54.0251 49.8495 53.7981 50.4634 53.37 50.9263C52.9418 51.3892 52.3475 51.6632 51.7174 51.6882L13.3779 53.1809L13.2955 53.186ZM50.3792 7.51635H50.3174L11.652 9.02272C11.2775 9.03745 10.9243 9.20023 10.6698 9.47529C10.4153 9.75035 10.2805 10.1152 10.2949 10.4896L11.887 51.1873C11.9017 51.5621 12.0647 51.9158 12.3401 52.1706C12.6154 52.4254 12.9807 52.5605 13.3556 52.5461L51.6899 51.0534C52.1504 51.0356 52.5849 50.8359 52.8985 50.4983C53.212 50.1606 53.3789 49.7125 53.3627 49.252L51.7912 8.88032C51.777 8.51527 51.622 8.16988 51.3588 7.91657C51.0956 7.66325 50.7445 7.52167 50.3792 7.5215V7.51635Z" fill="#093F68"/>
<path id="Vector_3" d="M42.075 49.3394H9.19643C8.73671 49.3394 8.29579 49.1569 7.97055 48.832C7.64531 48.5071 7.46237 48.0663 7.46191 47.6066V6.87636C7.46191 6.64858 7.50678 6.42302 7.59395 6.21258C7.68111 6.00213 7.80888 5.81091 7.96994 5.64985C8.13101 5.48878 8.32222 5.36101 8.53266 5.27384C8.7431 5.18667 8.96865 5.14181 9.19643 5.14181H47.8911C48.3508 5.14226 48.7915 5.32521 49.1165 5.65045C49.4414 5.97569 49.6239 6.41663 49.6239 6.87636V41.4216L42.075 49.3394Z" fill="white"/>
<path id="Vector_4" d="M42.078 49.6571H9.1994C8.65338 49.6571 8.12972 49.4402 7.74363 49.0541C7.35753 48.668 7.14062 48.1443 7.14062 47.5983V6.87492C7.14062 6.32889 7.35753 5.80522 7.74363 5.41912C8.12972 5.03302 8.65338 4.81611 9.1994 4.81611H47.894C48.4401 4.81611 48.9637 5.03302 49.3498 5.41912C49.7359 5.80522 49.9528 6.32889 49.9528 6.87492V41.4201C49.9531 41.5024 49.9218 41.5816 49.8653 41.6415L42.3165 49.5593C42.2855 49.5911 42.2484 49.6161 42.2074 49.6329C42.1664 49.6497 42.1223 49.658 42.078 49.6571ZM9.1994 5.4612C8.82415 5.46166 8.4644 5.61093 8.19906 5.87628C7.93371 6.14162 7.78445 6.50138 7.78399 6.87664V47.6052C7.7849 47.9801 7.93437 48.3394 8.19966 48.6044C8.46495 48.8694 8.82445 49.0184 9.1994 49.0189H41.9459L49.3077 41.2983V6.87492C49.3073 6.49996 49.1582 6.14046 48.8933 5.87517C48.6283 5.60987 48.269 5.4604 47.894 5.45949L9.1994 5.4612Z" fill="#093F68"/>
<path id="Vector_5" d="M42.0771 49.3338V43.2226C42.0771 43.0055 42.1199 42.7905 42.2031 42.5899C42.2862 42.3894 42.4081 42.2071 42.5617 42.0537C42.7153 41.9003 42.8976 41.7786 43.0982 41.6957C43.2989 41.6127 43.5139 41.5702 43.731 41.5704H49.626L42.0771 49.3338Z" fill="#FFBC0E"/>
<path id="Vector_6" d="M42.0828 49.6563C42.0408 49.6568 41.9991 49.6489 41.9601 49.633C41.9212 49.6171 41.8859 49.5936 41.8561 49.5639C41.8264 49.5342 41.8029 49.4988 41.787 49.4599C41.7712 49.421 41.7632 49.3793 41.7637 49.3372V43.226C41.7641 42.7028 41.9722 42.2012 42.3421 41.8313C42.712 41.4614 43.2136 41.2534 43.7367 41.2529H49.6316C49.6946 41.2531 49.7561 41.2717 49.8085 41.3066C49.8609 41.3414 49.9019 41.3909 49.9264 41.4489C49.9509 41.5068 49.9578 41.5707 49.9463 41.6326C49.9348 41.6945 49.9053 41.7516 49.8615 41.7968L42.3127 49.5603C42.283 49.5911 42.2472 49.6156 42.2077 49.6321C42.1681 49.6486 42.1256 49.6569 42.0828 49.6563ZM43.7367 41.8929C43.3831 41.8933 43.0441 42.0339 42.794 42.2837C42.5438 42.5336 42.4028 42.8724 42.4019 43.226V48.5446L48.8699 41.8877L43.7367 41.8929Z" fill="#093F68"/>
<path id="Vector_7" d="M42.0744 15.4743H23.5454C23.4646 15.4684 23.389 15.4321 23.3339 15.3728C23.2787 15.3134 23.248 15.2354 23.248 15.1544C23.248 15.0733 23.2787 14.9953 23.3339 14.9359C23.389 14.8766 23.4646 14.8403 23.5454 14.8344H42.0744C42.1552 14.8403 42.2308 14.8766 42.2859 14.9359C42.3411 14.9953 42.3718 15.0733 42.3718 15.1544C42.3718 15.2354 42.3411 15.3134 42.2859 15.3728C42.2308 15.4321 42.1552 15.4684 42.0744 15.4743Z" fill="#093F68"/>
<path id="Vector_8" d="M42.077 20.5379H15.2769C15.2329 20.5411 15.1887 20.5353 15.1471 20.5206C15.1055 20.506 15.0673 20.483 15.035 20.453C15.0027 20.4229 14.977 20.3866 14.9593 20.3461C14.9417 20.3057 14.9326 20.2621 14.9326 20.2179C14.9326 20.1738 14.9417 20.1302 14.9593 20.0898C14.977 20.0493 15.0027 20.013 15.035 19.9829C15.0673 19.9529 15.1055 19.9299 15.1471 19.9152C15.1887 19.9006 15.2329 19.8947 15.2769 19.898H42.077C42.1578 19.9039 42.2334 19.9402 42.2885 19.9995C42.3437 20.0589 42.3743 20.1369 42.3743 20.2179C42.3743 20.299 42.3437 20.377 42.2885 20.4364C42.2334 20.4957 42.1578 20.532 42.077 20.5379Z" fill="#093F68"/>
<path id="Vector_9" d="M42.077 25.6089H15.2769C15.2329 25.6121 15.1887 25.6062 15.1471 25.5916C15.1055 25.577 15.0673 25.554 15.035 25.5239C15.0027 25.4939 14.977 25.4575 14.9593 25.4171C14.9417 25.3767 14.9326 25.333 14.9326 25.2889C14.9326 25.2448 14.9417 25.2012 14.9593 25.1607C14.977 25.1203 15.0027 25.0839 15.035 25.0539C15.0673 25.0239 15.1055 25.0008 15.1471 24.9862C15.1887 24.9716 15.2329 24.9657 15.2769 24.9689H42.077C42.1578 24.9749 42.2334 25.0112 42.2885 25.0705C42.3437 25.1299 42.3743 25.2079 42.3743 25.2889C42.3743 25.37 42.3437 25.448 42.2885 25.5073C42.2334 25.5667 42.1578 25.603 42.077 25.6089Z" fill="#093F68"/>
<path id="Vector_10" d="M42.0811 30.6773H15.281C15.1964 30.6773 15.1152 30.6437 15.0554 30.5838C14.9955 30.524 14.9619 30.4428 14.9619 30.3582C14.9619 30.2736 14.9955 30.1924 15.0554 30.1325C15.1152 30.0727 15.1964 30.0391 15.281 30.0391H42.0811C42.1657 30.0391 42.2469 30.0727 42.3068 30.1325C42.3666 30.1924 42.4002 30.2736 42.4002 30.3582C42.4002 30.4428 42.3666 30.524 42.3068 30.5838C42.2469 30.6437 42.1657 30.6773 42.0811 30.6773Z" fill="#093F68"/>
<path id="Vector_11" d="M42.077 35.7467H15.2769C15.2329 35.75 15.1887 35.7441 15.1471 35.7295C15.1055 35.7148 15.0673 35.6918 15.035 35.6618C15.0027 35.6317 14.977 35.5954 14.9593 35.5549C14.9417 35.5145 14.9326 35.4709 14.9326 35.4268C14.9326 35.3826 14.9417 35.339 14.9593 35.2986C14.977 35.2581 15.0027 35.2218 15.035 35.1917C15.0673 35.1617 15.1055 35.1387 15.1471 35.1241C15.1887 35.1094 15.2329 35.1036 15.2769 35.1068H42.077C42.1578 35.1127 42.2334 35.149 42.2885 35.2083C42.3437 35.2677 42.3743 35.3457 42.3743 35.4268C42.3743 35.5078 42.3437 35.5858 42.2885 35.6452C42.2334 35.7045 42.1578 35.7408 42.077 35.7467Z" fill="#093F68"/>
<path id="Vector_12" d="M31.8191 40.8177H15.2769C15.2329 40.8209 15.1887 40.815 15.1471 40.8004C15.1055 40.7858 15.0673 40.7628 15.035 40.7327C15.0027 40.7027 14.977 40.6663 14.9593 40.6259C14.9417 40.5855 14.9326 40.5418 14.9326 40.4977C14.9326 40.4536 14.9417 40.41 14.9593 40.3696C14.977 40.3291 15.0027 40.2928 15.035 40.2627C15.0673 40.2327 15.1055 40.2097 15.1471 40.195C15.1887 40.1804 15.2329 40.1745 15.2769 40.1778H31.8191C31.8999 40.1837 31.9755 40.22 32.0307 40.2793C32.0858 40.3387 32.1165 40.4167 32.1165 40.4977C32.1165 40.5788 32.0858 40.6568 32.0307 40.7161C31.9755 40.7755 31.8999 40.8118 31.8191 40.8177Z" fill="#093F68"/>
<path id="Vector_13" d="M18.356 11.0055C17.5616 11.0055 16.7742 10.556 16.6026 9.58324L15.5938 3.8786C15.543 3.63456 15.5488 3.38212 15.6107 3.14065C15.6725 2.89917 15.7888 2.67506 15.9507 2.48547C16.2568 2.15011 16.6652 1.92538 17.1124 1.84625C17.5595 1.76712 18.0203 1.83805 18.4229 2.04797C18.6399 2.17104 18.8261 2.34189 18.9673 2.5476C19.1085 2.7533 19.201 2.98845 19.2378 3.23522L19.5175 4.81536C19.5323 4.89886 19.5133 4.98481 19.4647 5.05431C19.4161 5.12381 19.3419 5.17116 19.2584 5.18595C19.1749 5.20074 19.089 5.18175 19.0195 5.13317C18.95 5.08458 18.9026 5.01038 18.8878 4.92688L18.6082 3.33988C18.5879 3.18617 18.5322 3.03926 18.4456 2.91066C18.359 2.78207 18.2437 2.67529 18.1089 2.59871C17.8356 2.46085 17.525 2.41509 17.2235 2.46828C16.922 2.52146 16.6459 2.67074 16.4362 2.8938C16.3365 3.0125 16.2655 3.15253 16.2286 3.30307C16.1917 3.45361 16.19 3.61061 16.2234 3.76194L17.2322 9.46657C17.3643 10.2129 18.0232 10.4411 18.6151 10.3364C19.207 10.2318 19.7491 9.79084 19.617 9.04451L19.4111 7.87785C19.402 7.8359 19.4014 7.79253 19.4095 7.75035C19.4175 7.70818 19.434 7.66805 19.4579 7.63239C19.4818 7.59672 19.5126 7.56625 19.5486 7.54279C19.5845 7.51933 19.6249 7.50337 19.6671 7.49586C19.7094 7.48835 19.7528 7.48945 19.7946 7.49909C19.8364 7.50874 19.8759 7.52672 19.9106 7.55198C19.9454 7.57723 19.9746 7.60923 19.9967 7.64606C20.0187 7.6829 20.0332 7.7238 20.039 7.76633L20.2466 8.933C20.4456 10.0568 19.6324 10.8065 18.7266 10.9661C18.6045 10.9904 18.4805 11.0036 18.356 11.0055Z" fill="#093F68"/>
</g>
<g id="pencil">
<path id="Vector_14" d="M12.0698 39.1969L8.52051 40.6251L0.626714 21.0081C0.459569 20.5927 0.464273 20.128 0.639793 19.7161C0.815313 19.3041 1.14727 18.9788 1.56264 18.8117L1.98601 18.6413C2.40138 18.4742 2.86613 18.4789 3.27803 18.6544C3.68993 18.8299 4.01523 19.1619 4.18238 19.5773L12.0762 39.1943L12.0698 39.1969Z" fill="#F56132"/>
<path id="Vector_15" d="M8.51377 40.9475C8.44994 40.9473 8.38761 40.9282 8.33473 40.8924C8.28186 40.8567 8.24086 40.8059 8.21696 40.7468L0.216914 20.886C0.0441907 20.4565 0.0490898 19.9759 0.230533 19.55C0.411977 19.124 0.755117 18.7875 1.18454 18.6145L2.09383 18.249C2.52338 18.0763 3.00394 18.0812 3.42988 18.2627C3.85582 18.4441 4.19229 18.7873 4.36534 19.2167L12.3585 39.0774C12.3904 39.1552 12.3903 39.2425 12.3582 39.3203C12.3261 39.3981 12.2645 39.46 12.187 39.4926L8.63043 40.9235C8.59346 40.9389 8.55384 40.9471 8.51377 40.9475ZM2.75264 18.762C2.61087 18.7617 2.47042 18.7891 2.33917 18.8427L1.42987 19.2081C1.15785 19.3179 0.940538 19.5311 0.825689 19.8011C0.71084 20.071 0.707855 20.3754 0.817389 20.6476L8.69048 40.2063L11.6534 39.0053L3.77859 19.4466C3.72477 19.3116 3.64476 19.1886 3.54317 19.0846C3.44158 18.9807 3.32043 18.8979 3.18669 18.841C3.04867 18.7861 2.90112 18.7593 2.75264 18.762Z" fill="#093F68"/>
<path id="Vector_16" d="M8.51367 40.6293L12.0685 39.1984L12.4511 43.8651L12.5969 45.6459L11.468 44.2597L8.51367 40.6293Z" fill="white"/>
<path id="Vector_17" d="M12.5997 45.9693C12.5521 45.969 12.5051 45.9582 12.4622 45.9377C12.4192 45.9173 12.3812 45.8877 12.3509 45.851L8.26767 40.8326C8.23639 40.7936 8.21454 40.748 8.20383 40.6992C8.19312 40.6503 8.19383 40.5997 8.20591 40.5512C8.2186 40.5028 8.24243 40.4581 8.2755 40.4206C8.30856 40.383 8.34995 40.3537 8.39635 40.3351L11.9529 38.9042C11.9992 38.8855 12.0492 38.8779 12.099 38.8821C12.1488 38.8863 12.1968 38.9021 12.2394 38.9282C12.282 38.9549 12.3178 38.9911 12.344 39.0339C12.3702 39.0768 12.3861 39.1252 12.3904 39.1753L12.9136 45.6228C12.9189 45.6909 12.9023 45.7589 12.8661 45.817C12.83 45.875 12.7764 45.92 12.7129 45.9453C12.677 45.9602 12.6386 45.9683 12.5997 45.9693ZM9.038 40.7657L12.1965 44.6483L11.7882 39.6591L9.038 40.7657Z" fill="#093F68"/>
<path id="Vector_18" d="M11.4697 44.26L12.4528 43.8654L12.5986 45.6463L11.4697 44.26Z" fill="#093F68"/>
<path id="Vector_19" d="M12.5928 45.9661C12.5452 45.9658 12.4982 45.955 12.4553 45.9345C12.4123 45.9141 12.3743 45.8845 12.344 45.8478L11.2151 44.4615C11.1835 44.4225 11.1616 44.3767 11.1509 44.3278C11.1402 44.2788 11.1412 44.228 11.1537 44.1795C11.1662 44.1309 11.1899 44.086 11.2229 44.0483C11.2559 44.0105 11.2973 43.9811 11.3438 43.9622L12.3268 43.5676C12.3733 43.5485 12.4237 43.5407 12.4738 43.5449C12.524 43.5491 12.5724 43.5651 12.6151 43.5916C12.6576 43.6179 12.6934 43.6538 12.7196 43.6964C12.7458 43.739 12.7617 43.7872 12.766 43.837L12.9119 45.6196C12.9171 45.6877 12.9005 45.7557 12.8644 45.8138C12.8283 45.8718 12.7746 45.9167 12.7111 45.9421C12.6736 45.9576 12.6334 45.9658 12.5928 45.9661ZM11.9854 44.3946L12.1896 44.6451L12.1638 44.3225L11.9854 44.3946Z" fill="#093F68"/>
</g>
</g>
</g>
<defs>
<clipPath id="clip0_1604_15030">
<rect width="54" height="54" fill="white" transform="translate(0 0.5)"/>
</clipPath>
</defs>
</svg>
