<svg width="20" height="20" viewBox="0 0 20 20" fill="none" xmlns="http://www.w3.org/2000/svg">
<g id="Frame">
<g id="SVGRepo_iconCarrier">
<path id="Vector" d="M16.6713 16.671L16.6713 16.671C16.1966 17.1458 15.5543 17.4182 14.489 17.5614C13.4057 17.7071 11.9822 17.7084 10.0003 17.7084C8.01847 17.7084 6.59495 17.7071 5.51164 17.5614C4.44631 17.4182 3.80404 17.1458 3.32933 16.671L3.32931 16.671C2.85461 16.1963 2.5822 15.5541 2.43897 14.4887C2.29332 13.4054 2.29199 11.9819 2.29199 10.0001C2.29199 8.01819 2.29332 6.59468 2.43897 5.51136C2.5822 4.44603 2.85461 3.80376 3.32932 3.32905L3.32933 3.32905C3.80404 2.85434 4.4463 2.58192 5.51164 2.43869C6.59495 2.29304 8.01847 2.29172 10.0003 2.29172C11.9822 2.29172 13.4057 2.29304 14.489 2.43869C15.5543 2.58192 16.1966 2.85434 16.6713 3.32904L16.6713 3.32906C17.146 3.80377 17.4184 4.44603 17.5617 5.51136C17.7073 6.59468 17.7087 8.01819 17.7087 10.0001C17.7087 11.9819 17.7073 13.4054 17.5617 14.4887C17.4184 15.5541 17.146 16.1963 16.6713 16.671Z" stroke="#1E1F24" stroke-width="1.25"/>
<path id="Vector_2" d="M5.83398 13.9584C5.48881 13.9584 5.20898 14.2382 5.20898 14.5834C5.20898 14.9285 5.48881 15.2084 5.83398 15.2084H10.834C11.1792 15.2084 11.459 14.9285 11.459 14.5834C11.459 14.2382 11.1792 13.9584 10.834 13.9584H5.83398Z" fill="#1E1F24"/>
<path id="Vector_3" d="M5.83398 11.0417C5.48881 11.0417 5.20898 11.3216 5.20898 11.6667C5.20898 12.0119 5.48881 12.2917 5.83398 12.2917H13.334C13.6792 12.2917 13.959 12.0119 13.959 11.6667C13.959 11.3216 13.6792 11.0417 13.334 11.0417H5.83398Z" fill="#1E1F24"/>
</g>
</g>
</svg>
