<svg width="26" height="26" viewBox="0 0 26 26" fill="none" xmlns="http://www.w3.org/2000/svg">
<g id="Frame">
<g id="SVGRepo_iconCarrier">
<path id="Vector" opacity="0.5" d="M16.8604 15.7639L16.3669 16.2834C16.3669 16.2834 15.1941 17.5182 11.9928 14.1478C8.79161 10.7775 9.9644 9.54273 9.9644 9.54273L10.2751 9.21561C11.0406 8.40975 11.1127 7.11596 10.4449 6.17143L9.07884 4.23932C8.25228 3.07028 6.6551 2.91585 5.70771 3.91327L4.00731 5.70347C3.53756 6.19804 3.22276 6.83914 3.26094 7.55034C3.3586 9.36982 4.13608 13.2845 8.47445 17.852C13.0751 22.6956 17.3918 22.8881 19.1571 22.7139C19.7155 22.6588 20.201 22.3577 20.5923 21.9457L22.1313 20.3255C23.1701 19.2319 22.8772 17.357 21.5481 16.5919L19.4783 15.4006C18.6056 14.8982 17.5424 15.0458 16.8604 15.7639Z" fill="#00AC47"/>
<path id="Vector_2" d="M14.3697 2.03779C14.4414 1.59482 14.8601 1.29434 15.3031 1.36604C15.3305 1.3713 15.4188 1.38779 15.4649 1.39808C15.5574 1.41867 15.6863 1.45036 15.8471 1.49719C16.1686 1.59084 16.6178 1.74511 17.1569 1.99225C18.2362 2.48708 19.6725 3.35266 21.1629 4.84311C22.6534 6.33356 23.5189 7.76986 24.0137 8.84916C24.2609 9.38825 24.4152 9.8374 24.5088 10.1589C24.5556 10.3197 24.5873 10.4486 24.6079 10.5411C24.6182 10.5873 24.6258 10.6244 24.631 10.6518L24.6373 10.6856C24.7089 11.1285 24.4112 11.5647 23.9682 11.6364C23.5265 11.7079 23.1104 11.4088 23.037 10.968C23.0347 10.9561 23.0284 10.9243 23.0218 10.8943C23.0084 10.8343 22.9853 10.7392 22.9487 10.6133C22.8753 10.3616 22.748 9.98754 22.5366 9.52638C22.1143 8.60521 21.3549 7.33319 20.0138 5.99216C18.6729 4.65114 17.4008 3.89174 16.4797 3.46942C16.0185 3.258 15.6444 3.13068 15.3926 3.05736C15.2669 3.02071 15.1087 2.9844 15.0487 2.97105C14.6078 2.89756 14.2982 2.47948 14.3697 2.03779Z" fill="#00AC47"/>
<path id="Vector_3" fill-rule="evenodd" clip-rule="evenodd" d="M14.6213 5.77701C14.7446 5.34554 15.1943 5.0957 15.6258 5.21897L15.4026 6.00022C15.6258 5.21897 15.6258 5.21897 15.6258 5.21897L15.6274 5.21942L15.629 5.2199L15.6326 5.22095L15.641 5.22347L15.6625 5.23014C15.6787 5.23536 15.6992 5.24216 15.7235 5.2508C15.7721 5.26807 15.8365 5.29261 15.9153 5.32641C16.0732 5.39406 16.2888 5.49851 16.5537 5.65528C17.0839 5.9691 17.8078 6.49038 18.6582 7.34076C19.5086 8.19116 20.0298 8.91502 20.3437 9.44528C20.5004 9.71017 20.6049 9.92581 20.6726 10.0836C20.7064 10.1625 20.731 10.2268 20.7482 10.2755C20.7569 10.2998 20.7636 10.3202 20.7689 10.3365L20.7755 10.358L20.778 10.3664L20.7791 10.37L20.7795 10.3716C20.7795 10.3716 20.78 10.3732 19.9987 10.5964L20.78 10.3732C20.9033 10.8047 20.6534 11.2543 20.222 11.3776C19.7942 11.4998 19.3484 11.2553 19.2207 10.8306L19.2167 10.8189C19.2109 10.8026 19.199 10.7706 19.179 10.7238C19.1389 10.6302 19.0662 10.4772 18.9453 10.2729C18.7037 9.86479 18.2675 9.2481 17.5091 8.48981C16.7509 7.73153 16.1342 7.29528 15.7261 7.05372C15.5218 6.9328 15.3688 6.86011 15.2752 6.82003C15.2284 6.79998 15.1963 6.78802 15.1801 6.78224L15.1684 6.77824C14.7437 6.65054 14.4991 6.2048 14.6213 5.77701Z" fill="#00AC47"/>
</g>
</g>
</svg>
