<svg width="28" height="28" viewBox="0 0 28 28" fill="none" xmlns="http://www.w3.org/2000/svg">
<g id="Frame">
<g id="SVGRepo_iconCarrier">
<g id="Vector">
<path d="M24.4987 2.33203H17.4987C17.1893 2.33203 16.8925 2.45495 16.6737 2.67374C16.455 2.89253 16.332 3.18928 16.332 3.4987V10.4987C16.332 10.8081 16.455 11.1049 16.6737 11.3237C16.8925 11.5424 17.1893 11.6654 17.4987 11.6654H18.6654V13.9987H20.9987V11.6654H23.332V13.9987H25.6654V3.4987C25.6654 3.18928 25.5425 2.89253 25.3237 2.67374C25.1049 2.45495 24.8081 2.33203 24.4987 2.33203ZM20.9987 9.33203H18.6654V4.66536H23.332V9.33203H20.9987ZM3.4987 11.6654H10.4987C10.8081 11.6654 11.1049 11.5424 11.3237 11.3237C11.5424 11.1049 11.6654 10.8081 11.6654 10.4987V3.4987C11.6654 3.18928 11.5424 2.89253 11.3237 2.67374C11.1049 2.45495 10.8081 2.33203 10.4987 2.33203H3.4987C3.18928 2.33203 2.89253 2.45495 2.67374 2.67374C2.45495 2.89253 2.33203 3.18928 2.33203 3.4987V10.4987C2.33203 10.8081 2.45495 11.1049 2.67374 11.3237C2.89253 11.5424 3.18928 11.6654 3.4987 11.6654ZM4.66536 4.66536H9.33203V9.33203H4.66536V4.66536ZM5.83203 18.6654V20.9987H3.4987V18.6654H5.83203ZM3.4987 23.332H5.83203V25.6654H3.4987V23.332ZM8.16537 20.9987V23.332H5.83203V20.9987H8.16537ZM8.16537 18.6654H5.83203V16.332H8.16537V13.9987H10.4987V18.6654H8.16537ZM5.83203 13.9987V16.332H3.4987V13.9987H5.83203ZM16.332 17.4987V18.6654H15.1654V16.332H12.832V20.9987H16.332V24.4987C16.332 24.8081 16.455 25.1049 16.6737 25.3237C16.8925 25.5425 17.1893 25.6654 17.4987 25.6654H24.4987C24.8081 25.6654 25.1049 25.5425 25.3237 25.3237C25.5425 25.1049 25.6654 24.8081 25.6654 24.4987V17.4987C25.6654 17.1893 25.5425 16.8925 25.3237 16.6737C25.1049 16.455 24.8081 16.332 24.4987 16.332H18.6654V13.9987H16.332V17.4987ZM23.332 18.6654V23.332H18.6654V18.6654H23.332ZM10.4987 20.9987H12.832V23.332H13.9987V25.6654H8.16537V23.332H10.4987V20.9987ZM15.1654 6.9987H12.832V4.66536H15.1654V6.9987ZM12.832 9.33203H15.1654V13.9987H12.832V9.33203ZM5.83203 5.83203H8.16537V8.16537H5.83203V5.83203ZM19.832 5.83203H22.1654V8.16537H19.832V5.83203ZM22.1654 22.1654H19.832V19.832H22.1654V22.1654Z" fill="black"/>
<path d="M18.6654 13.9987V11.6654H17.4987C17.1893 11.6654 16.8925 11.5424 16.6737 11.3237C16.455 11.1049 16.332 10.8081 16.332 10.4987V3.4987C16.332 3.18928 16.455 2.89253 16.6737 2.67374C16.8925 2.45495 17.1893 2.33203 17.4987 2.33203H24.4987C24.8081 2.33203 25.1049 2.45495 25.3237 2.67374C25.5425 2.89253 25.6654 3.18928 25.6654 3.4987V13.9987H23.332V11.6654H20.9987V13.9987H18.6654ZM18.6654 13.9987V16.332H24.4987C24.8081 16.332 25.1049 16.455 25.3237 16.6737C25.5425 16.8925 25.6654 17.1893 25.6654 17.4987V24.4987C25.6654 24.8081 25.5425 25.1049 25.3237 25.3237C25.1049 25.5425 24.8081 25.6654 24.4987 25.6654H17.4987C17.1893 25.6654 16.8925 25.5425 16.6737 25.3237C16.455 25.1049 16.332 24.8081 16.332 24.4987V20.9987H12.832M18.6654 13.9987H16.332V17.4987V18.6654H15.1654V16.332H12.832V20.9987M5.83203 18.6654V20.9987M5.83203 18.6654H3.4987V20.9987H5.83203M5.83203 18.6654H8.16537H10.4987V13.9987H8.16537V16.332H5.83203M5.83203 18.6654V16.332M5.83203 20.9987V23.332M5.83203 20.9987H8.16537V23.332M5.83203 23.332H3.4987V25.6654H5.83203V23.332ZM5.83203 23.332H8.16537M8.16537 23.332V25.6654H13.9987V23.332H12.832V20.9987M8.16537 23.332H10.4987V20.9987H12.832M5.83203 16.332V13.9987H3.4987V16.332H5.83203ZM20.9987 9.33203H18.6654V4.66536H23.332V9.33203H20.9987ZM3.4987 11.6654H10.4987C10.8081 11.6654 11.1049 11.5424 11.3237 11.3237C11.5424 11.1049 11.6654 10.8081 11.6654 10.4987V3.4987C11.6654 3.18928 11.5424 2.89253 11.3237 2.67374C11.1049 2.45495 10.8081 2.33203 10.4987 2.33203H3.4987C3.18928 2.33203 2.89253 2.45495 2.67374 2.67374C2.45495 2.89253 2.33203 3.18928 2.33203 3.4987V10.4987C2.33203 10.8081 2.45495 11.1049 2.67374 11.3237C2.89253 11.5424 3.18928 11.6654 3.4987 11.6654ZM4.66536 4.66536H9.33203V9.33203H4.66536V4.66536ZM23.332 18.6654V23.332H18.6654V18.6654H23.332ZM15.1654 6.9987H12.832V4.66536H15.1654V6.9987ZM12.832 9.33203H15.1654V13.9987H12.832V9.33203ZM5.83203 5.83203H8.16537V8.16537H5.83203V5.83203ZM19.832 5.83203H22.1654V8.16537H19.832V5.83203ZM22.1654 22.1654H19.832V19.832H22.1654V22.1654Z" stroke="white" stroke-width="0.5"/>
</g>
</g>
</g>
</svg>
