<svg width="150" height="115" viewBox="0 0 150 115" fill="none" xmlns="http://www.w3.org/2000/svg">
<g id="shopping-add-products-to-cart-or-basket">
<g id="Group">
<path id="Vector" d="M97.9015 43.1485C96.3933 41.6483 94.393 40.7448 92.2705 40.605C90.148 40.4651 88.0465 41.0986 86.3545 42.388C84.6625 43.6775 83.4948 45.5359 83.0665 47.6197C82.639 49.7034 82.9795 51.8716 84.0265 53.7235C85.0953 53.0403 87.574 51.0595 87.4458 52.0135C87.3033 52.9683 85.0525 54.8921 85.0525 54.8921C85.0645 54.9866 85.069 55.0818 85.0668 55.1771C85.8438 56.067 86.7925 56.7913 87.856 57.3067C88.9195 57.8222 90.0753 58.1182 91.2558 58.1771C92.4355 58.2361 93.616 58.0567 94.7253 57.6499C95.8345 57.243 96.8508 56.6169 97.7125 55.8089C98.575 55.0009 99.2658 54.0275 99.7435 52.9468C100.221 51.8661 100.477 50.7003 100.494 49.5187C100.512 48.3373 100.292 47.1643 99.8463 46.0699C99.4008 44.9755 98.7393 43.9819 97.9015 43.1485Z" fill="#D8CCFC"/>
<path id="Vector_2" d="M77.824 86.879C76.7545 85.8995 75.5673 85.0572 74.29 84.371C67.0525 80.4222 59.5897 76.901 51.94 73.8252C51.724 73.0265 51.553 72.488 51.553 72.488L43.4455 70.1367C43.4455 70.1367 33.913 77.6742 36.2358 84.428C37.5183 88.178 42.5905 93.191 59.7033 97.1232C57.9535 106.023 55.7136 114.82 52.9938 123.474C53.6575 122.036 57.4518 121.185 61.9405 121.688C66.7705 122.229 70.5325 123.982 70.3615 125.621L70.4178 125.692C71.4864 115.919 71.8519 106.081 71.5113 96.2555L86.1693 117.922C85.3443 116.755 87.5478 113.402 91.1643 110.347C94.8393 107.241 98.5735 105.63 99.514 106.728L99.571 106.756L77.824 86.879Z" fill="#D8CCFC"/>
</g>
<g id="Group_2">
<path id="Vector_3" d="M132.982 81.5191C132.66 80.9904 132.187 80.5696 131.625 80.3094C131.064 80.0491 130.437 79.9613 129.825 80.0573C129.214 80.1533 128.644 80.4286 128.189 80.8479C127.734 81.2679 127.413 81.8131 127.267 82.4146C127.122 83.0161 127.158 83.6476 127.371 84.2289C127.585 84.8101 127.966 85.3156 128.466 85.6801C128.967 86.0446 129.564 86.2531 130.182 86.2779C130.801 86.3034 131.413 86.1444 131.942 85.8219C132.293 85.6081 132.599 85.3269 132.841 84.9954C133.084 84.6631 133.258 84.2859 133.355 83.8861C133.452 83.4864 133.469 83.0716 133.404 82.6659C133.341 82.2594 133.197 81.8701 132.982 81.5191Z" fill="#E9E9E9"/>
<path id="Vector_4" d="M106.406 98.9294C106.728 99.4581 107.201 99.8789 107.763 100.139C108.324 100.399 108.951 100.487 109.563 100.391C110.174 100.295 110.744 100.02 111.199 99.6006C111.654 99.1806 111.975 98.6354 112.121 98.0339C112.266 97.4324 112.23 96.8009 112.017 96.2196C111.803 95.6384 111.422 95.1329 110.922 94.7684C110.421 94.4039 109.824 94.1954 109.206 94.1706C108.587 94.1451 107.975 94.3041 107.446 94.6266C107.095 94.8404 106.789 95.1216 106.547 95.4539C106.304 95.7854 106.13 96.1626 106.033 96.5624C105.936 96.9621 105.919 97.3769 105.984 97.7826C106.047 98.1891 106.191 98.5784 106.406 98.9294Z" fill="#E9E9E9"/>
<path id="Vector_5" d="M126.057 31.2204C126.304 31.4566 126.614 31.6143 126.95 31.6737C127.287 31.7331 127.633 31.6914 127.946 31.5539C128.258 31.4164 128.522 31.1893 128.706 30.9013C128.889 30.6134 128.983 30.2775 128.975 29.9362C128.968 29.595 128.859 29.2637 128.663 28.9843C128.467 28.7048 128.192 28.4898 127.874 28.3665C127.556 28.2432 127.208 28.2171 126.875 28.2915C126.542 28.3659 126.238 28.5375 126.002 28.7845C125.688 29.1156 125.518 29.5574 125.528 30.0137C125.538 30.4701 125.729 30.9038 126.057 31.2204Z" fill="#E9E9E9"/>
<path id="Vector_6" d="M20.7871 32.875C20.6455 33.0962 20.5703 33.3533 20.5703 33.616C20.5703 33.8786 20.6455 34.1358 20.7871 34.357C20.9227 34.5161 21.0943 34.6404 21.2876 34.7198C21.481 34.799 21.6904 34.8311 21.8986 34.813L20.7871 32.875Z" fill="#E9E9E9"/>
<path id="Vector_7" d="M27.4707 29.5993C27.3486 29.4137 27.1722 29.2704 26.9656 29.1888C26.7591 29.1071 26.5323 29.0913 26.3164 29.1433C26.7012 29.756 27.0717 30.383 27.4707 30.995C27.5877 30.7811 27.6489 30.5411 27.6489 30.2972C27.6489 30.0533 27.5877 29.8133 27.4707 29.5993Z" fill="#E9E9E9"/>
<path id="Vector_8" d="M99.5966 106.738C98.9696 105.997 97.0886 106.467 94.8086 107.792L97.9293 111.055C99.4968 109.132 100.195 107.464 99.5966 106.738Z" fill="#E9E9E9"/>
<path id="Vector_9" d="M88.4528 113.066C86.5433 115.247 85.617 117.199 86.2875 117.997C86.9708 118.808 89.151 118.168 91.7018 116.543L88.4528 113.066Z" fill="#E9E9E9"/>
<path id="Vector_10" d="M56.6915 38.1894C56.2191 37.7206 55.5988 37.4303 54.9362 37.3679C54.2736 37.3055 53.61 37.475 53.0585 37.8474C52.0067 37.6113 50.9081 37.7007 49.9085 38.1039C49.5891 37.5699 49.1367 37.1277 48.5956 36.8206C48.0544 36.5135 47.4428 36.3519 46.8206 36.3516C46.1983 36.3513 45.5866 36.5123 45.0451 36.8189C44.5036 37.1254 44.0508 37.5672 43.7309 38.1009C43.411 38.6346 43.2349 39.2422 43.2198 39.8643C43.2047 40.4864 43.3511 41.1017 43.6448 41.6504C43.9384 42.199 44.3693 42.6621 44.8952 42.9946C45.4212 43.3271 46.0244 43.5176 46.646 43.5474C46.7733 44.7543 47.3114 45.881 48.17 46.7387C48.17 46.7387 50.8775 50.0162 49.1817 51.6684C49.7506 51.224 50.2133 50.6583 50.5362 50.0127C50.8592 49.367 51.0341 48.6575 51.0485 47.9357C51.0614 47.7941 51.0369 47.6515 50.9772 47.5224C49.2395 45.5424 51.0057 43.9322 51.7752 45.3137C52.1457 45.9834 52.388 45.9834 52.559 45.6272C53.2145 43.8609 56.207 41.4527 56.933 44.6019V44.5877C57.0481 45.1884 57.1007 45.7994 57.0897 46.4109C57.0897 46.0554 57.104 44.9439 57.104 43.8894C57.2206 43.2036 57.2012 42.5016 57.047 41.8232C57.4208 41.2711 57.59 40.6057 57.525 39.9422C57.4601 39.2786 57.1652 38.6586 56.6915 38.1894Z" fill="#E9E9E9"/>
<path id="Vector_11" d="M55.7944 61.4727C55.6325 62.5758 55.3931 63.6663 55.0781 64.7359C55.6525 65.1615 56.2585 65.5426 56.8909 65.8759C56.5489 64.4082 56.1641 62.6697 55.7944 61.4727Z" fill="#E9E9E9"/>
<path id="Vector_12" d="M52.1914 50.5586C52.4622 51.2711 52.7164 52.0113 52.9609 52.8671C52.9317 52.3413 53.0607 51.8188 53.3314 51.3671C52.8987 51.1808 52.5103 50.9053 52.1914 50.5586Z" fill="#E9E9E9"/>
<path id="Vector_13" d="M59.7307 97.1367L57.9922 105.615L61.3267 97.4937L59.7307 97.1367Z" fill="#E9E9E9"/>
<path id="Vector_14" d="M40.293 56.6992L41.517 61.155L42.642 58.5622C42.642 58.5622 40.4242 56.8005 40.293 56.6992Z" fill="#E9E9E9"/>
<path id="Vector_15" d="M72.5503 25.4799L65.4688 23.6417L68.1335 13.3974L72.2937 11.9297L75.215 15.2492L72.5503 25.4799Z" fill="#E9E9E9"/>
</g>
<g id="Group_3">
<path id="Vector_16" d="M105.98 20.0792C106.079 20.4513 106.064 20.8443 105.94 21.2085C105.815 21.5727 105.585 21.8918 105.279 22.1253C104.973 22.3589 104.605 22.4964 104.221 22.5207C103.837 22.5448 103.454 22.4545 103.121 22.2612C102.788 22.0678 102.52 21.7801 102.35 21.4344C102.182 21.0887 102.119 20.7006 102.17 20.319C102.221 19.9375 102.384 19.5798 102.638 19.291C102.893 19.0023 103.228 18.7956 103.6 18.6969C104.099 18.5658 104.629 18.6375 105.075 18.8966C105.521 19.1557 105.846 19.5809 105.98 20.0792Z" stroke="black" stroke-width="0.564931" stroke-linecap="round" stroke-linejoin="round"/>
<path id="Vector_17" d="M112.093 23.5707C112.192 23.9427 112.178 24.3357 112.053 24.7C111.929 25.0643 111.699 25.3835 111.393 25.6171C111.087 25.8508 110.719 25.9885 110.335 26.0128C109.95 26.0371 109.568 25.9469 109.235 25.7536C108.902 25.5603 108.634 25.2726 108.464 24.927C108.295 24.5813 108.232 24.1931 108.283 23.8116C108.334 23.43 108.497 23.0722 108.752 22.7834C109.007 22.4946 109.341 22.2878 109.713 22.1892C110.212 22.058 110.742 22.1297 111.188 22.3886C111.634 22.6475 111.959 23.0725 112.093 23.5707Z" stroke="black" stroke-width="0.564931" stroke-linecap="round" stroke-linejoin="round"/>
<path id="Vector_18" d="M103.984 27.7158L110.311 16.8438" stroke="black" stroke-width="0.564931" stroke-linecap="round" stroke-linejoin="round"/>
<path id="Vector_19" d="M132.978 81.5191C132.656 80.9904 132.183 80.5696 131.622 80.3094C131.06 80.0491 130.434 79.9613 129.822 80.0573C129.21 80.1533 128.64 80.4286 128.185 80.8479C127.73 81.2679 127.409 81.8131 127.263 82.4146C127.118 83.0161 127.155 83.6476 127.368 84.2289C127.581 84.8101 127.962 85.3156 128.463 85.6801C128.963 86.0446 129.56 86.2531 130.179 86.2779C130.797 86.3034 131.409 86.1444 131.938 85.8219C132.289 85.6081 132.595 85.3269 132.837 84.9954C133.08 84.6631 133.254 84.2859 133.351 83.8861C133.448 83.4864 133.465 83.0716 133.401 82.6659C133.337 82.2594 133.193 81.8701 132.978 81.5191Z" stroke="black" stroke-width="0.564931" stroke-linecap="round" stroke-linejoin="round"/>
<path id="Vector_20" d="M106.406 98.9294C106.728 99.4581 107.201 99.8789 107.763 100.139C108.324 100.399 108.951 100.487 109.563 100.391C110.174 100.295 110.744 100.02 111.199 99.6006C111.654 99.1806 111.975 98.6354 112.121 98.0339C112.266 97.4324 112.23 96.8009 112.017 96.2196C111.803 95.6384 111.422 95.1329 110.922 94.7684C110.421 94.4039 109.824 94.1954 109.206 94.1706C108.587 94.1451 107.975 94.3041 107.446 94.6266C107.095 94.8404 106.789 95.1216 106.547 95.4539C106.304 95.7854 106.13 96.1626 106.033 96.5624C105.936 96.9621 105.919 97.3769 105.984 97.7826C106.047 98.1891 106.191 98.5784 106.406 98.9294Z" stroke="black" stroke-width="0.564931" stroke-linecap="round" stroke-linejoin="round"/>
<path id="Vector_21" d="M127.692 84.9805L111.848 95.8525" stroke="black" stroke-width="0.564931" stroke-linecap="round" stroke-linejoin="round"/>
<path id="Vector_22" d="M129.844 80.064L120.91 35.6655L127.251 29.9805" stroke="black" stroke-width="0.564931" stroke-linecap="round" stroke-linejoin="round"/>
<path id="Vector_23" d="M128.15 71.602L96.7457 88.7432L79.918 73.6255L123.02 46.168L128.15 71.602Z" stroke="black" stroke-width="0.564931" stroke-linecap="round" stroke-linejoin="round"/>
<path id="Vector_24" d="M126.053 31.2204C126.3 31.4566 126.611 31.6143 126.947 31.6737C127.283 31.7331 127.629 31.6914 127.942 31.5539C128.254 31.4164 128.519 31.1893 128.702 30.9013C128.885 30.6134 128.979 30.2775 128.972 29.9362C128.964 29.595 128.855 29.2637 128.659 28.9843C128.463 28.7048 128.189 28.4898 127.87 28.3665C127.552 28.2432 127.204 28.2171 126.871 28.2915C126.538 28.3659 126.234 28.5375 125.999 28.7845C125.684 29.1156 125.514 29.5574 125.524 30.0137C125.534 30.4701 125.725 30.9038 126.053 31.2204Z" stroke="black" stroke-width="0.564931" stroke-linecap="round" stroke-linejoin="round"/>
<path id="Vector_25" d="M80.5586 62.026C80.8586 61.927 86.0336 60.208 88.8678 57.7383" stroke="black" stroke-width="0.564931" stroke-linecap="round" stroke-linejoin="round"/>
<path id="Vector_26" d="M87.358 58.1944C87.3333 57.7762 87.2718 57.3609 87.1758 56.9531" stroke="black" stroke-width="0.564931" stroke-linecap="round" stroke-linejoin="round"/>
<path id="Vector_27" d="M85.0621 55.172C85.1903 55.3287 85.3283 55.472 85.4753 55.628C87.0563 57.2028 89.1758 58.1188 91.4063 58.191C93.6368 58.2633 95.8111 57.4864 97.4911 56.0172C99.1703 54.5481 100.23 52.4963 100.455 50.2762C100.681 48.0561 100.055 45.8333 98.7046 44.0567C97.3546 42.2801 95.3806 41.0822 93.1808 40.7049C90.9818 40.3277 88.7206 40.7993 86.8561 42.0243C84.9908 43.2494 83.6596 45.1367 83.1323 47.3049C82.6051 49.4732 82.9201 51.7608 84.0143 53.7057" stroke="black" stroke-width="0.564931" stroke-linecap="round" stroke-linejoin="round"/>
<path id="Vector_28" d="M41.5312 61.2547L42.6285 58.5765L40.293 56.6992" stroke="black" stroke-width="0.564931" stroke-linecap="round" stroke-linejoin="round"/>
<path id="Vector_29" d="M52.9629 52.9273L52.1484 50.5273C52.5288 50.8296 52.9349 51.0982 53.3619 51.3298" stroke="black" stroke-width="0.564931" stroke-linecap="round" stroke-linejoin="round"/>
<path id="Vector_30" d="M54.6424 55.5448C52.2057 55.5021 49.6692 53.7208 47.5039 51.7266" stroke="black" stroke-width="0.564931" stroke-linecap="round" stroke-linejoin="round"/>
<path id="Vector_31" d="M47.4884 51.7266L47.0039 55.3311L51.4207 54.9606L54.3419 58.1668L54.6412 55.5448" stroke="black" stroke-width="0.564931" stroke-linecap="round" stroke-linejoin="round"/>
<path id="Vector_32" d="M26.3165 29.1415C26.5324 29.0915 26.7584 29.1083 26.9646 29.1897C27.1708 29.2712 27.3473 29.4134 27.4707 29.5975C28.0865 30.4502 27.0717 32.2045 25.2342 33.5155C23.3967 34.8265 21.4017 35.1962 20.8025 34.3405C20.6611 34.1192 20.5859 33.8621 20.5859 33.5995C20.5859 33.3368 20.6611 33.0797 20.8025 32.8585" stroke="black" stroke-width="0.564931" stroke-linecap="round" stroke-linejoin="round"/>
<path id="Vector_33" d="M82.4389 58.3638C83.1942 57.8508 85.2319 56.3973 85.0467 54.8725C85.0467 54.8725 87.2967 52.9488 87.4399 51.9948C87.5832 51.0408 85.0467 53.0485 83.9899 53.7198C82.2154 54.8604 80.3689 55.8838 78.4609 56.7835" stroke="black" stroke-width="0.564931" stroke-linecap="round" stroke-linejoin="round"/>
<path id="Vector_34" d="M55.7969 61.4727L56.8934 65.8759" stroke="black" stroke-width="0.564931" stroke-linecap="round" stroke-linejoin="round"/>
<path id="Vector_35" d="M57.0905 46.4102C57.0905 46.0539 57.1047 44.9432 57.1047 43.8887C57.2213 43.2028 57.202 42.5007 57.0477 41.8224C57.4187 41.2698 57.5859 40.6053 57.5208 39.9429C57.4556 39.2805 57.1622 38.6613 56.6907 38.1915C56.2192 37.7216 55.5989 37.4304 54.9363 37.3676C54.2737 37.3049 53.6098 37.4745 53.0585 37.8474C52.0068 37.6106 50.9079 37.7001 49.9085 38.1039C49.5891 37.5699 49.1367 37.1277 48.5956 36.8206C48.0544 36.5135 47.4428 36.3519 46.8206 36.3516C46.1983 36.3513 45.5866 36.5123 45.0451 36.8188C44.5036 37.1254 44.0508 37.5672 43.7309 38.1009C43.411 38.6346 43.2349 39.2421 43.2198 39.8643C43.2047 40.4863 43.3511 41.1017 43.6448 41.6503C43.9384 42.1989 44.3693 42.6621 44.8952 42.9946C45.4212 43.3271 46.0244 43.5175 46.646 43.5474C46.7732 44.7544 47.3112 45.881 48.17 46.7387C48.17 46.7387 50.999 50.1632 49.0625 51.7764" stroke="black" stroke-width="0.564931" stroke-linecap="round" stroke-linejoin="round"/>
<path id="Vector_36" d="M91.7 116.54C89.15 118.164 86.9577 118.803 86.2707 117.993C84.9207 116.4 89.453 111.843 91.2867 110.295C93.0117 108.84 98.255 105.149 99.5938 106.737C100.194 107.448 99.494 109.145 97.9265 111.069" stroke="black" stroke-width="0.564931" stroke-linecap="round" stroke-linejoin="round"/>
<path id="Vector_37" d="M94.8079 107.809L98.4416 111.599C99.9206 113.296 101.679 114.727 103.642 115.831C107.07 117.645 110.222 119.938 113.004 122.641C107.366 123.686 101.553 123.229 96.1474 121.316L88.4531 113.066" stroke="black" stroke-width="0.564931" stroke-linecap="round" stroke-linejoin="round"/>
<path id="Vector_38" d="M57.6484 106.681L61.2964 97.4484L59.6869 97.0898" stroke="black" stroke-width="0.564931" stroke-linecap="round" stroke-linejoin="round"/>
<path id="Vector_39" d="M52.9995 123.406C55.7448 114.773 57.9777 105.986 59.6865 97.0905C42.5722 93.1635 37.5045 88.1295 36.2325 84.3967C33.9075 77.6467 43.4422 70.1055 43.4422 70.1055" stroke="black" stroke-width="0.564931" stroke-linecap="round" stroke-linejoin="round"/>
<path id="Vector_40" d="M50.7109 77.3438C57.1741 80.8755 63.2818 85.0223 68.9494 89.7263C69.6983 90.3285 70.3105 91.0837 70.7452 91.941C71.1799 92.7982 71.4274 93.7387 71.4709 94.6987C71.905 105.031 71.5575 115.382 70.4314 125.661" stroke="black" stroke-width="0.564931" stroke-linecap="round" stroke-linejoin="round"/>
<path id="Vector_41" d="M51.5508 72.457C52.1766 74.422 52.5968 76.4463 52.8048 78.4983" stroke="black" stroke-width="0.564931" stroke-linecap="round" stroke-linejoin="round"/>
<path id="Vector_42" d="M86.1192 117.754L71.5234 96.1797" stroke="black" stroke-width="0.564931" stroke-linecap="round" stroke-linejoin="round"/>
<path id="Vector_43" d="M51.9219 73.7812C59.5791 76.8697 67.0528 80.3948 74.3064 84.339C75.5859 85.0215 76.7739 85.8645 77.8404 86.847L99.4404 106.586" stroke="black" stroke-width="0.564931" stroke-linecap="round" stroke-linejoin="round"/>
<path id="Vector_44" d="M27.456 30.9933C27.456 30.9933 23.9512 26.2915 24.5497 22.843C25.1625 19.3098 24.4552 19.243 22.911 22.4305C21.8887 24.541 21.543 29.4693 21.543 29.4693" stroke="black" stroke-width="0.564931" stroke-linecap="round" stroke-linejoin="round"/>
<path id="Vector_45" d="M21.9005 34.812C21.9005 34.812 18.761 29.4285 17.042 25.737C15.7558 22.9748 17.4125 24.0698 17.8828 24.996" stroke="black" stroke-width="0.564931" stroke-linecap="round" stroke-linejoin="round"/>
<path id="Vector_46" d="M20.3732 22.8297C20.1593 21.7983 20.0448 20.7487 20.0312 19.6954C20.0312 16.5319 20.8045 16.6879 21.4847 19.3677C21.8021 20.6271 22.1874 21.8684 22.639 23.0862" stroke="black" stroke-width="0.564931" stroke-linecap="round" stroke-linejoin="round"/>
<path id="Vector_47" d="M20.9567 22.2891C19.7001 23.6688 18.9556 25.4383 18.8477 27.3013" stroke="black" stroke-width="0.564931" stroke-linecap="round" stroke-linejoin="round"/>
<path id="Vector_48" d="M20.1441 21.3468C19.8591 20.6913 19.5748 19.9218 19.3033 19.0968C18.3501 16.1898 17.7508 16.831 18.0643 19.4815C18.2901 21.3291 18.7397 23.1424 19.4031 24.8815" stroke="black" stroke-width="0.564931" stroke-linecap="round" stroke-linejoin="round"/>
<path id="Vector_49" d="M18.3645 21.4051C17.382 18.2274 16.6515 18.7981 17.0543 21.7051C17.3627 23.6478 17.968 25.5316 18.849 27.2904" stroke="black" stroke-width="0.564931" stroke-linecap="round" stroke-linejoin="round"/>
<path id="Vector_50" d="M37.2737 102.551L35.293 110.231" stroke="black" stroke-width="0.564931" stroke-linecap="round" stroke-linejoin="round"/>
<path id="Vector_51" d="M40.1214 107.393L32.4414 105.398" stroke="black" stroke-width="0.564931" stroke-linecap="round" stroke-linejoin="round"/>
<path id="Vector_52" d="M72.5503 25.4799L65.4688 23.6417L68.1335 13.3974L72.2937 11.9297L75.215 15.2492L72.5503 25.4799Z" stroke="black" stroke-width="0.564931" stroke-linecap="round" stroke-linejoin="round"/>
<path id="Vector_53" d="M72.422 14.8072C72.3799 14.9679 72.291 15.1124 72.1666 15.2226C72.0424 15.3327 71.8881 15.4035 71.7236 15.4261C71.559 15.4487 71.3915 15.4219 71.2421 15.3493C71.0928 15.2766 70.9683 15.1614 70.8844 15.018C70.8006 14.8746 70.7611 14.7096 70.771 14.5437C70.7809 14.3779 70.8398 14.2188 70.9402 14.0865C71.0405 13.9541 71.1778 13.8544 71.3348 13.8001C71.4918 13.7458 71.6613 13.7392 71.822 13.7812C72.0351 13.8417 72.2166 13.9823 72.3284 14.1735C72.4403 14.3647 72.4738 14.5918 72.422 14.8072Z" stroke="black" stroke-width="0.564931" stroke-linecap="round" stroke-linejoin="round"/>
<path id="Vector_54" d="M71.7461 13.7625C76.3638 11.0685 70.7298 6.44175 75.3746 3.75" stroke="black" stroke-width="0.564931" stroke-linecap="round" stroke-linejoin="round"/>
<path id="Vector_55" d="M93.4848 46.2227L89.8945 52.5347" stroke="black" stroke-width="0.564931" stroke-linecap="round" stroke-linejoin="round"/>
<path id="Vector_56" d="M94.8511 51.1834L88.5391 47.5781" stroke="black" stroke-width="0.564931" stroke-linecap="round" stroke-linejoin="round"/>
<path id="Vector_57" d="M20.7227 34.2347C24.3849 41.533 31.7027 49.6682 40.2977 56.7032C41.5847 61.1122 42.6361 65.5865 43.4477 70.1072L51.5552 72.4585C52.9175 69.9724 54.0973 67.3906 55.0854 64.7335C57.2604 66.2095 59.6308 67.3748 62.1279 68.1955C63.3579 68.6363 64.6976 68.6663 65.9462 68.281C70.981 66.7507 75.8957 64.8505 80.6507 62.596C80.3919 60.3144 79.5152 58.1467 78.1149 56.3267C73.8535 58.2847 69.371 59.7201 64.7649 60.6018C60.9185 59.2253 57.2639 57.3627 53.8899 55.0593C52.6899 54.2695 52.8129 52.5648 53.3649 51.331C54.7944 52.0308 56.9904 52.168 57.0954 46.51C57.2072 40.81 53.4887 43.4657 52.6187 45.4915C52.4192 45.9572 52.2144 46.0915 51.7809 45.313C51.0137 43.93 49.2309 45.538 50.9829 47.5217C51.0544 47.7521 51.0738 47.9954 51.0399 48.2342C50.4519 51.331 48.8882 53.1093 46.3952 51.0093C39.1554 44.926 33.4427 39.4532 27.4727 29.5938" stroke="black" stroke-width="0.564931" stroke-linecap="round" stroke-linejoin="round"/>
<path id="Vector_58" d="M55.0781 64.733C55.6467 63.2738 55.8862 61.707 55.7794 60.1445" stroke="black" stroke-width="0.564931" stroke-linecap="round" stroke-linejoin="round"/>
</g>
</g>
</svg>
