<svg width="20" height="20" viewBox="0 0 20 20" fill="none" xmlns="http://www.w3.org/2000/svg">
<g id="trash-2">
<path id="Vector" d="M2.5 5H4.16667H17.5" stroke="#1E1F24" stroke-width="1.5" stroke-linecap="round" stroke-linejoin="round"/>
<path id="Vector_2" d="M15.8317 4.9999V16.6666C15.8317 17.1086 15.6561 17.5325 15.3436 17.8451C15.031 18.1576 14.6071 18.3332 14.165 18.3332H5.83171C5.38968 18.3332 4.96576 18.1576 4.65319 17.8451C4.34063 17.5325 4.16504 17.1086 4.16504 16.6666V4.9999M6.66504 4.9999V3.33323C6.66504 2.8912 6.84063 2.46728 7.1532 2.15472C7.46576 1.84216 7.88968 1.66656 8.33171 1.66656H11.665C12.1071 1.66656 12.531 1.84216 12.8436 2.15472C13.1561 2.46728 13.3317 2.8912 13.3317 3.33323V4.9999" stroke="#1E1F24" stroke-width="1.5" stroke-linecap="round" stroke-linejoin="round"/>
<path id="Vector_3" d="M8.33496 9.16656V14.1666" stroke="#1E1F24" stroke-width="1.5" stroke-linecap="round" stroke-linejoin="round"/>
<path id="Vector_4" d="M11.665 9.16656V14.1666" stroke="#1E1F24" stroke-width="1.5" stroke-linecap="round" stroke-linejoin="round"/>
</g>
</svg>
