<svg width="20" height="21" viewBox="0 0 20 21" fill="none" xmlns="http://www.w3.org/2000/svg">
<g id="more-vertical">
<path id="Vector" d="M10.8337 10.5002C10.8337 10.0399 10.4606 9.66683 10.0003 9.66683C9.54009 9.66683 9.16699 10.0399 9.16699 10.5002C9.16699 10.9604 9.54009 11.3335 10.0003 11.3335C10.4606 11.3335 10.8337 10.9604 10.8337 10.5002Z" stroke="black" stroke-width="1.66667" stroke-linecap="round" stroke-linejoin="round"/>
<path id="Vector_2" d="M4.99967 10.5002C4.99967 10.0399 4.62658 9.66683 4.16634 9.66683C3.7061 9.66683 3.33301 10.0399 3.33301 10.5002C3.33301 10.9604 3.7061 11.3335 4.16634 11.3335C4.62658 11.3335 4.99967 10.9604 4.99967 10.5002Z" stroke="black" stroke-width="1.66667" stroke-linecap="round" stroke-linejoin="round"/>
<path id="Vector_3" d="M16.6667 10.5002C16.6667 10.0399 16.2936 9.66683 15.8333 9.66683C15.3731 9.66683 15 10.0399 15 10.5002C15 10.9604 15.3731 11.3335 15.8333 11.3335C16.2936 11.3335 16.6667 10.9604 16.6667 10.5002Z" stroke="black" stroke-width="1.66667" stroke-linecap="round" stroke-linejoin="round"/>
</g>
</svg>
