<svg width="32" height="32" viewBox="0 0 32 32" fill="none" xmlns="http://www.w3.org/2000/svg">
<g id="Layer_1">
<g id="SVGRepo_iconCarrier">
<path id="Vector" d="M26 10H28C28.5519 10 28.9999 10.448 28.9999 11V20.9998C28.9999 21.5518 28.5519 21.9998 28 21.9998H26C25.448 21.9998 25 21.5518 25 20.9998V11C25 10.448 25.448 10 26 10Z" stroke="white" stroke-width="1.5"/>
<path id="Vector_2" d="M22 6H24C24.5519 6 24.9999 6.44799 24.9999 6.99999V24.9997C24.9999 25.5517 24.5519 25.9997 24 25.9997H22C21.448 25.9997 21 25.5517 21 24.9997V6.99999C21 6.44799 21.448 6 22 6Z" stroke="white" stroke-width="1.5"/>
<path id="Vector_3" d="M7.99999 6H9.99996C10.5519 6 10.9999 6.44799 10.9999 6.99999V24.9997C10.9999 25.5517 10.5519 25.9997 9.99996 25.9997H7.99999C7.44799 25.9997 7 25.5517 7 24.9997V6.99999C7 6.44799 7.44799 6 7.99999 6Z" stroke="white" stroke-width="1.5"/>
<path id="Vector_4" d="M3.99999 9.99994H5.99996C6.55195 9.99994 6.99994 10.4479 6.99994 10.9999V20.9998C6.99994 21.5518 6.55195 21.9998 5.99996 21.9998H3.99999C3.44799 21.9998 3 21.5518 3 20.9998V10.9999C3 10.4479 3.44799 9.99994 3.99999 9.99994Z" stroke="white" stroke-width="1.5"/>
<path id="Vector_5" d="M29 16H32" stroke="white" stroke-width="1.5"/>
<path id="Vector_6" d="M11 15.9998H20.9999" stroke="white" stroke-width="1.5"/>
<path id="Vector_7" d="M0 15.9998H2.99996" stroke="white" stroke-width="1.5"/>
</g>
</g>
</svg>
