<svg width="182" height="181" viewBox="0 0 182 181" fill="none" xmlns="http://www.w3.org/2000/svg">
<g id="work-work-from-home">
<g id="Group">
<path id="Vector" d="M109.78 4.68974L109.591 21.9201L120.403 40.6608L120.592 23.4304L109.78 4.68974Z" fill="#DEDDF7"/>
<path id="Vector_2" d="M114.073 29.7561L108.41 35.3852L106.848 54.3146L120.423 40.7396L114.073 29.7561Z" fill="#DEDDF7"/>
<path id="Vector_3" fill-rule="evenodd" clip-rule="evenodd" d="M114.033 81.8143C125.53 71.4875 136.428 60.5146 146.677 48.9486C143.863 44.0711 140.293 40.6387 135.78 38.9605C122.608 53.8775 108.315 67.7677 93.0297 80.51C90.4639 85.7279 88.601 88.2118 82.5801 88.4602C82.46 91.9126 82.0292 95.3477 81.293 98.7232C81.293 98.7232 83.8644 103.234 90.936 103.91C97.6796 104.555 117.159 96.5472 117.159 96.5472C126.526 99.005 135.613 102.426 144.275 106.754C147.415 102.91 149.921 98.8767 150.093 93.7797C140.841 88.8282 131.067 84.9203 120.952 82.1277C118.45 81.4164 116.15 81.4092 114.033 81.8143ZM90.1465 97.8949C90.1465 98.118 90.0579 98.332 89.9002 98.4892C89.7425 98.6473 89.5286 98.7358 89.3056 98.7358C89.0826 98.7358 88.8687 98.6473 88.711 98.4892C88.5533 98.332 88.4647 98.118 88.4647 97.8949C88.4647 97.6718 88.5533 97.4577 88.711 97.3005C88.8687 97.1425 89.0826 97.0539 89.3056 97.0539C89.5286 97.0539 89.7425 97.1425 89.9002 97.3005C90.0579 97.4577 90.1465 97.6718 90.1465 97.8949ZM102.445 89.205C102.603 89.0473 102.692 88.8334 102.692 88.6104C102.692 88.3874 102.603 88.1735 102.445 88.0158C102.288 87.858 102.074 87.7694 101.851 87.7694C101.628 87.7694 101.414 87.858 101.257 88.0158C101.098 88.1735 101.01 88.3874 101.01 88.6104C101.01 88.8334 101.098 89.0473 101.257 89.205C101.414 89.3627 101.628 89.4513 101.851 89.4513C102.074 89.4513 102.288 89.3627 102.445 89.205ZM117.674 93.9133C117.674 94.1364 117.585 94.3505 117.427 94.5077C117.27 94.6658 117.056 94.7543 116.833 94.7543C116.61 94.7543 116.396 94.6658 116.239 94.5077C116.081 94.3505 115.992 94.1364 115.992 93.9133C115.992 93.6902 116.081 93.4762 116.239 93.319C116.396 93.1609 116.61 93.0724 116.833 93.0724C117.056 93.0724 117.27 93.1609 117.427 93.319C117.585 93.4762 117.674 93.6902 117.674 93.9133ZM133.336 90.0459C133.494 89.8882 133.583 89.6743 133.583 89.4513C133.583 89.2283 133.494 89.0144 133.336 88.8567C133.179 88.699 132.965 88.6104 132.742 88.6104C132.519 88.6104 132.305 88.699 132.148 88.8567C131.99 89.0144 131.901 89.2283 131.901 89.4513C131.901 89.6743 131.99 89.8882 132.148 90.0459C132.305 90.2036 132.519 90.2922 132.742 90.2922C132.965 90.2922 133.179 90.2036 133.336 90.0459ZM142.438 101.773C142.438 101.997 142.35 102.211 142.192 102.368C142.035 102.526 141.821 102.614 141.597 102.614C141.374 102.614 141.16 102.526 141.003 102.368C140.845 102.211 140.757 101.997 140.757 101.773C140.757 101.55 140.845 101.336 141.003 101.179C141.16 101.021 141.374 100.933 141.597 100.933C141.821 100.933 142.035 101.021 142.192 101.179C142.35 101.336 142.438 101.55 142.438 101.773ZM98.9785 80.8987C99.1366 80.741 99.2251 80.5271 99.2251 80.3041C99.2251 80.0811 99.1366 79.8672 98.9785 79.7095C98.8214 79.5518 98.6073 79.4631 98.3842 79.4631C98.1611 79.4631 97.947 79.5518 97.7898 79.7095C97.6318 79.8672 97.5433 80.0811 97.5433 80.3041C97.5433 80.5271 97.6318 80.741 97.7898 80.8987C97.947 81.0564 98.1611 81.145 98.3842 81.145C98.6073 81.145 98.8214 81.0564 98.9785 80.8987ZM114.499 76.7344C114.499 76.9574 114.411 77.1713 114.252 77.329C114.095 77.4868 113.881 77.5754 113.658 77.5754C113.435 77.5754 113.221 77.4868 113.064 77.329C112.906 77.1713 112.817 76.9574 112.817 76.7344C112.817 76.5114 112.906 76.2975 113.064 76.1398C113.221 75.9821 113.435 75.8935 113.658 75.8935C113.881 75.8935 114.095 75.9821 114.252 76.1398C114.411 76.2975 114.499 76.5114 114.499 76.7344ZM117.427 63.4795C117.585 63.3218 117.674 63.1079 117.674 62.8849C117.674 62.6619 117.585 62.448 117.427 62.2903C117.27 62.1326 117.056 62.044 116.833 62.044C116.61 62.044 116.396 62.1326 116.239 62.2903C116.081 62.448 115.992 62.6619 115.992 62.8849C115.992 63.1079 116.081 63.3218 116.239 63.4795C116.396 63.6372 116.61 63.7258 116.833 63.7258C117.056 63.7258 117.27 63.6372 117.427 63.4795ZM133.583 58.5601C133.583 58.7831 133.494 58.997 133.336 59.1547C133.179 59.3125 132.965 59.4011 132.742 59.4011C132.519 59.4011 132.305 59.3125 132.148 59.1547C131.99 58.997 131.901 58.7831 131.901 58.5601C131.901 58.3371 131.99 58.1232 132.148 57.9655C132.305 57.8078 132.519 57.7192 132.742 57.7192C132.965 57.7192 133.179 57.8078 133.336 57.9655C133.494 58.1232 133.583 58.3371 133.583 58.5601ZM137.271 44.4851C137.429 44.3274 137.517 44.1135 137.517 43.8905C137.517 43.6674 137.429 43.4535 137.271 43.2958C137.114 43.1381 136.9 43.0495 136.677 43.0495C136.453 43.0495 136.239 43.1381 136.082 43.2958C135.924 43.4535 135.836 43.6674 135.836 43.8905C135.836 44.1135 135.924 44.3274 136.082 44.4851C136.239 44.6428 136.453 44.7314 136.677 44.7314C136.9 44.7314 137.114 44.6428 137.271 44.4851Z" fill="#DEDDF7"/>
</g>
<g id="Group_2">
<path id="Vector_4" d="M90.9301 65.5814C90.7756 65.8731 90.1108 67.0573 89.4415 68.2911C87.7082 66.5939 88.4759 65.3411 90.9301 65.5814Z" fill="#E9E9E9"/>
<path id="Vector_5" d="M96.6153 68.121L95.6055 71.0214C96.5087 71.0729 97.6549 70.8787 97.7037 69.9908C97.6577 69.6218 97.5375 69.266 97.3505 68.9446C97.1636 68.6233 96.9134 68.3431 96.6153 68.121Z" fill="#E9E9E9"/>
<path id="Vector_6" d="M85.9077 53.962C86.1651 55.1977 86.4054 56.2617 86.54 56.8452C87.2951 56.4505 87.772 55.9699 87.7585 55.4551C87.7485 54.7849 87.0576 54.2709 85.9077 53.962Z" fill="#E9E9E9"/>
<path id="Vector_7" d="M80.0379 57.4798C77.2577 56.8105 77.1719 55.1458 79.8663 54.1848C79.9994 55.2779 80.0567 56.3789 80.0379 57.4798Z" fill="#E9E9E9"/>
<path id="Vector_8" d="M167.735 104.984C167.666 104.366 164.835 103.114 161.54 101.861C158.45 100.677 152.976 98.0671 149.784 96.472C149.139 99.319 147.899 101.997 146.146 104.33C148.651 105.532 151.054 106.956 152.513 107.076C153.477 107.133 154.445 107.005 155.361 106.699C159.24 105.465 167.957 107.198 167.735 104.984Z" fill="#E9E9E9"/>
<path id="Vector_9" d="M151.789 24.1016C151.171 24.0329 149.35 26.5557 147.43 29.5075C145.748 32.099 141.749 37.2475 139.055 40.594C141.369 42.098 143.373 44.0323 144.958 46.2917C146.88 43.6145 150.124 41.1604 150.639 39.427C150.892 38.494 150.967 37.5219 150.862 36.561C150.487 32.5118 154.005 24.3419 151.789 24.1016Z" fill="#E9E9E9"/>
<path id="Vector_10" d="M67.2858 64.637C67.7718 64.3153 68.1362 63.8402 68.3206 63.2873C68.5051 62.7344 68.499 62.1356 68.3035 61.5865C68.108 61.0375 67.7343 60.5697 67.2418 60.2579C66.7494 59.9461 66.1668 59.8081 65.5868 59.866C65.9079 59.3934 66.064 58.828 66.0309 58.2575C65.9978 57.6871 65.7774 57.1435 65.4038 56.7112C65.0302 56.2789 64.5244 55.9819 63.9648 55.8663C63.4052 55.7509 62.8232 55.8233 62.3089 56.0724C63.1597 53.5252 59.6317 51.5092 57.7782 53.7555C57.7638 53.1255 57.5292 52.5205 57.115 52.0456C56.7009 51.5707 56.1334 51.2558 55.5112 51.1559C54.889 51.0559 54.2514 51.1771 53.7093 51.4984C53.1673 51.8197 52.7548 52.3208 52.5438 52.9146C51.5241 50.2311 47.5155 50.9609 47.5155 53.7041C47.1061 53.3027 46.5753 53.0484 46.0059 52.9807C45.4367 52.913 44.861 53.0357 44.3689 53.3298C43.8768 53.6239 43.4959 54.0728 43.2859 54.6062C43.0758 55.1397 43.0484 55.7277 43.2079 56.2783C42.6772 56.0407 42.0822 55.9878 41.5179 56.1281C40.9536 56.2684 40.4526 56.5937 40.095 57.0521C39.7373 57.5106 39.5436 58.0757 39.5448 58.6571C39.546 59.2386 39.7421 59.8029 40.1016 60.2598C39.4909 60.1893 38.875 60.3374 38.3631 60.678C37.8513 61.0185 37.4767 61.5295 37.3059 62.12C37.1351 62.7106 37.1792 63.3425 37.4302 63.9037C37.6812 64.4649 38.1231 64.919 38.6772 65.1853C38.0694 65.2686 37.5108 65.5646 37.1006 66.0209C36.6905 66.477 36.4552 67.0638 36.4367 67.6771C36.4182 68.2902 36.6176 68.8901 36.9995 69.3703C37.3813 69.8504 37.9211 70.1796 38.5227 70.2995C36.1977 71.8278 37.7152 75.4552 40.2389 75.0361C39.9214 75.5128 39.7695 76.0808 39.8068 76.6524C39.8441 77.224 40.0683 77.7674 40.4451 78.1988C40.8218 78.6303 41.33 78.9259 41.8914 79.0399C42.4526 79.1539 43.036 79.0801 43.5511 78.8298C42.693 81.3995 46.3196 83.3695 48.0818 81.1123C48.085 81.7281 48.3068 82.3228 48.7077 82.7903C49.1087 83.2578 49.6627 83.5676 50.2708 83.6645C50.879 83.7614 51.5019 83.639 52.0282 83.3194C52.5546 82.9996 52.9502 82.5033 53.1445 81.9189C53.2871 82.3151 53.5245 82.6704 53.8359 82.9539C54.1472 83.2374 54.5231 83.4405 54.931 83.5454C55.3388 83.6503 55.7661 83.6538 56.1755 83.5558C56.5851 83.4578 56.9644 83.2611 57.2805 82.9829C56.4476 80.4572 55.7657 77.8841 55.2382 75.2773C53.6539 68.3692 54.0396 70.8947 53.2818 67.8634C51.1194 67.4 51.7887 64.8429 53.299 65.6495C54.0216 66.0443 54.2772 65.9928 54.2772 65.5294C54.4832 61.7195 57.3321 60.5353 59.443 64.2938C61.0905 67.2284 62.1888 72.5486 59.1854 73.3037C58.8728 73.3911 58.5489 73.4317 58.2244 73.4238C58.2244 74.2178 59.9821 76.708 60.3181 77.1271C61.3496 76.9578 62.4039 76.987 63.4244 77.2129L65.9815 76.4407C66.0661 76.1385 66.0774 75.8206 66.0146 75.5131C65.9518 75.2057 65.8166 74.9178 65.6202 74.673C66.2294 74.7464 66.8447 74.6016 67.3571 74.2642C67.8696 73.9268 68.2459 73.4188 68.4192 72.8302C68.5924 72.2417 68.5515 71.6108 68.3037 71.0495C68.0559 70.4883 67.6171 70.0331 67.0654 69.7647C67.6727 69.6844 68.2323 69.3925 68.6458 68.9405C69.0594 68.4885 69.3005 67.9054 69.3268 67.2934C69.3531 66.6813 69.1629 66.0796 68.7897 65.5938C68.4165 65.108 67.884 64.7692 67.2858 64.637Z" fill="#E9E9E9"/>
<path id="Vector_11" d="M58.2935 73.4403C57.5263 73.3825 56.7733 73.2029 56.0625 72.9082L59.0143 75.105C58.6656 74.6036 58.4204 74.0377 58.2935 73.4403Z" fill="#E9E9E9"/>
<path id="Vector_12" d="M82.577 88.4921C79.2208 88.7692 75.8513 88.8495 72.4858 88.7324L82.4911 90.9462C82.5626 90.1302 82.5912 89.3111 82.577 88.4921Z" fill="#E9E9E9"/>
<path id="Vector_13" d="M50.81 29.4896C50.8093 30.6061 50.4775 31.6974 49.8567 32.6255C49.2358 33.5535 48.3538 34.2766 47.322 34.7034C46.2902 35.1302 45.1551 35.2415 44.06 35.0233C42.965 34.8049 41.9593 34.267 41.1701 33.4772C40.3808 32.6874 39.8434 31.6813 39.6258 30.5861C39.4083 29.491 39.5203 28.3559 39.9477 27.3244C40.3752 26.2929 41.0989 25.4113 42.0273 24.7911C42.9557 24.1708 44.0472 23.8398 45.1638 23.8398C45.9058 23.8389 46.6407 23.9845 47.3263 24.2682C48.012 24.5519 48.6349 24.9681 49.1594 25.4929C49.6839 26.0178 50.0997 26.6409 50.3829 27.3268C50.6662 28.0126 50.8113 28.7476 50.81 29.4896Z" fill="#E9E9E9"/>
</g>
<g id="Group_3">
<path id="Vector_14" d="M86.8023 113.29C86.5673 109.933 87.0229 106.563 88.1409 103.388" stroke="black" stroke-width="0.677438" stroke-linecap="round" stroke-linejoin="round"/>
<path id="Vector_15" d="M88.3987 66.7466L87.7637 55.4542" stroke="black" stroke-width="0.677438" stroke-linecap="round" stroke-linejoin="round"/>
<path id="Vector_16" d="M78.9934 74.8471L77.895 55.9691" stroke="black" stroke-width="0.677438" stroke-linecap="round" stroke-linejoin="round"/>
<path id="Vector_17" d="M59.0509 75.1726L55.9961 72.873" stroke="black" stroke-width="0.677438" stroke-linecap="round" stroke-linejoin="round"/>
<path id="Vector_18" d="M55.9961 72.8725C62.7921 75.4982 61.5718 67.9994 59.4971 64.3087C57.3844 60.5512 54.5373 61.7345 54.3314 65.5444C54.3314 66.0078 54.0758 66.0556 53.3532 65.6645C51.8474 64.8516 51.1736 67.415 53.336 67.8784C53.6277 69.0626 53.8716 69.7138 54.1598 70.6586C54.4732 71.6874 55.063 74.2463 55.2924 75.2923C56.3673 80.2231 57.3844 84.2859 59.4474 87.46C65.0891 96.1474 72.2844 99.0613 81.2943 98.7506C82.0305 95.3751 82.4613 91.9401 82.5814 88.4879C88.9656 87.9558 90.5463 86.5766 95.8303 74.4324C96.3605 73.213 96.9142 71.9096 97.5293 70.468" stroke="black" stroke-width="0.677438" stroke-linecap="round" stroke-linejoin="round"/>
<path id="Vector_19" d="M60.3901 77.1455C59.466 76.0534 58.7557 74.7971 58.2964 73.4422" stroke="black" stroke-width="0.677438" stroke-linecap="round" stroke-linejoin="round"/>
<path id="Vector_20" d="M88.3981 66.7422C87.1281 69.8313 84.2215 76.2408 81.7222 77.9488C78.5743 80.1004 64.4575 77.3996 64.4575 77.3996C62.1578 76.9191 60.1155 76.6617 58.2964 78.0689" stroke="black" stroke-width="0.677438" stroke-linecap="round" stroke-linejoin="round"/>
<path id="Vector_21" d="M63.481 77.214L78.8579 72.5288" stroke="black" stroke-width="0.677438" stroke-linecap="round" stroke-linejoin="round"/>
<path id="Vector_22" d="M94.3374 56.2781C95.5559 55.1797 98.131 52.1457 99.5889 50.5117C100.26 49.7584 100.582 51.7817 96.6027 56.4668" stroke="black" stroke-width="0.677438" stroke-linecap="round" stroke-linejoin="round"/>
<path id="Vector_23" d="M95.6089 57.1687C96.999 56.2419 98.7919 54.7714 100.466 53.4789C101.251 52.8728 101.856 54.0281 97.7559 57.8723" stroke="black" stroke-width="0.677438" stroke-linecap="round" stroke-linejoin="round"/>
<path id="Vector_24" d="M96.6184 68.1199C97.9732 69.3845 97.7546 70.0935 97.5279 70.4684C96.2724 72.143 89.6742 69.8054 88.6147 67.1471C88.1856 66.0722 89.0807 65.3975 90.9333 65.5773" stroke="black" stroke-width="0.677438" stroke-linecap="round" stroke-linejoin="round"/>
<path id="Vector_25" d="M95.6089 71.0204L96.6214 68.1201C97.5138 65.3914 97.7198 64.7221 97.2393 63.0231C96.8617 61.6845 96.4859 61.0522 97.3251 60.5518C101.881 57.8366 101.994 56.5892 101.101 56.8963C99.1966 57.5521 98.0115 57.8059 96.7416 58.132" stroke="black" stroke-width="0.677438" stroke-linecap="round" stroke-linejoin="round"/>
<path id="Vector_26" d="M91.2638 62.2327C90.7474 60.4915 89.9546 58.8446 88.9155 57.3552C88.2976 56.4971 88.9154 55.6561 91.5583 58.5565" stroke="black" stroke-width="0.677438" stroke-linecap="round" stroke-linejoin="round"/>
<path id="Vector_27" d="M79.8702 54.1872C77.1812 55.1347 77.2372 56.8292 80.0418 57.4823C82.2215 57.971 84.5005 57.7495 86.5452 56.85C88.4691 55.8447 87.9904 54.5521 85.9129 53.9668" stroke="black" stroke-width="0.677438" stroke-linecap="round" stroke-linejoin="round"/>
<path id="Vector_28" d="M82.6659 51.3513C82.4085 50.7335 82.2026 50.2186 81.9966 49.7553C80.8409 47.2852 79.401 44.9584 77.7062 42.8219C75.6414 40.5105 75.2051 41.1888 76.4877 43.7315C78.5823 47.8864 80.2181 52.848 80.0402 57.478" stroke="black" stroke-width="0.677438" stroke-linecap="round" stroke-linejoin="round"/>
<path id="Vector_29" d="M78.3089 43.5447C78.1865 42.4 78.2327 41.2436 78.4462 40.1124C78.532 39.8034 78.9755 39.5126 79.373 41.4338C79.4579 41.8457 79.8544 43.6134 80.0251 44.2339C80.3175 45.5033 80.6901 46.7529 81.1406 47.9752" stroke="black" stroke-width="0.677438" stroke-linecap="round" stroke-linejoin="round"/>
<path id="Vector_30" d="M81.998 49.7571C82.839 50.9241 83.5724 47.8332 84.0403 46.565C84.4657 45.4134 85.3952 44.3006 85.1901 47.6634C85.0474 50.0317 85.9353 54.2481 86.545 56.8449" stroke="black" stroke-width="0.677438" stroke-linecap="round" stroke-linejoin="round"/>
<path id="Vector_31" d="M93.2227 86.9976L113.285 82.0081C115.808 81.3754 118.454 81.4169 120.956 82.1282C131.072 84.9208 140.845 88.8287 150.097 93.7801C149.925 98.8772 147.419 102.91 144.279 106.754C135.617 102.426 126.53 99.0054 117.163 96.5477C117.163 96.5477 97.6838 104.555 90.9402 103.91C83.8686 103.234 81.2754 98.7101 81.2754 98.7101" stroke="black" stroke-width="0.677438" stroke-linecap="round" stroke-linejoin="round"/>
<path id="Vector_32" d="M114.036 81.8143C125.533 71.4875 136.431 60.5146 146.68 48.9486C143.866 44.0711 140.296 40.6387 135.783 38.9605C122.611 53.8775 108.318 67.7677 93.0327 80.51" stroke="black" stroke-width="0.677438" stroke-linecap="round" stroke-linejoin="round"/>
<path id="Vector_33" d="M167.737 104.983C167.669 104.365 164.837 103.112 161.542 101.86C158.453 100.676 152.978 98.066 149.786 96.4709C149.141 99.3179 147.901 101.996 146.148 104.329C148.654 105.53 151.056 106.955 152.515 107.075C153.48 107.132 154.447 107.004 155.364 106.697C159.242 105.464 167.96 107.197 167.737 104.983Z" stroke="black" stroke-width="0.677438" stroke-linecap="round" stroke-linejoin="round"/>
<path id="Vector_34" d="M151.791 24.0993C151.173 24.0306 149.352 26.5534 147.432 29.5052C145.75 32.0967 141.752 37.2452 139.057 40.5917C141.371 42.0957 143.376 44.03 144.961 46.2894C146.883 43.6122 150.126 41.1581 150.641 39.4247C150.894 38.4917 150.969 37.5196 150.864 36.5587C150.49 32.5095 154.008 24.3396 151.791 24.0993Z" stroke="black" stroke-width="0.677438" stroke-linecap="round" stroke-linejoin="round"/>
<path id="Vector_35" d="M66.036 76.4426C66.0924 75.9949 66.0632 75.5407 65.9502 75.1039C65.8762 74.9513 65.7853 74.8073 65.6792 74.6749C66.2895 74.751 66.9069 74.6078 67.4212 74.2707C67.9355 73.9336 68.3133 73.4246 68.4871 72.8347C68.6608 72.2448 68.619 71.6123 68.3695 71.0503C68.1198 70.4883 67.6786 70.0333 67.1244 69.7666C67.7381 69.6897 68.3042 69.3965 68.7212 68.9396C69.1381 68.4829 69.3785 67.8923 69.3992 67.2741C69.4198 66.656 69.2195 66.0508 68.834 65.5671C68.4485 65.0834 67.9032 64.7531 67.296 64.6353C67.7398 64.345 68.0844 63.926 68.2836 63.4345C68.4827 62.9429 68.527 62.4024 68.4105 61.885C68.294 61.3676 68.0223 60.8982 67.6317 60.5395C67.241 60.1808 66.7502 59.9499 66.2248 59.8779C66.0154 59.848 65.8032 59.8423 65.5925 59.8607C65.8209 59.534 65.9681 59.1574 66.0216 58.7623C66.0688 58.4243 66.0489 58.0802 65.9631 57.7499C65.8772 57.4196 65.7271 57.1094 65.5212 56.8371C65.3153 56.5648 65.0577 56.3359 64.7632 56.1633C64.4688 55.9907 64.1431 55.8779 63.805 55.8313C63.2945 55.7589 62.774 55.8427 62.3119 56.0716C62.3434 55.9649 62.3664 55.8558 62.3806 55.7455C62.4585 55.1824 62.3497 54.6093 62.0708 54.114C61.7919 53.6186 61.3584 53.2283 60.8365 53.0029C60.3147 52.7774 59.7334 52.7292 59.1816 52.8657C58.6297 53.0021 58.1378 53.3157 57.7812 53.7583C57.7843 53.13 57.5602 52.5217 57.1502 52.0455C56.7402 51.5693 56.172 51.2573 55.5502 51.1669L55.3786 51.1326C54.7721 51.0502 54.156 51.1839 53.6383 51.5102C53.1205 51.8366 52.7341 52.3347 52.5469 52.9174C52.3445 52.3756 51.9674 51.9167 51.4751 51.6133C50.9827 51.3099 50.4033 51.1792 49.8284 51.2421C49.2534 51.3048 48.7159 51.5575 48.3007 51.9601C47.8855 52.3626 47.6162 52.8921 47.5356 53.4648C47.5214 53.544 47.5157 53.6246 47.5185 53.705C47.1238 53.3119 46.6116 53.0582 46.0597 52.9824C45.7218 52.9344 45.3778 52.9537 45.0474 53.0391C44.7169 53.1245 44.4067 53.2744 44.1344 53.4801C43.862 53.6859 43.6331 53.9434 43.4607 54.238C43.2883 54.5324 43.1757 54.8581 43.1296 55.1963C43.0799 55.5599 43.1107 55.9299 43.2199 56.2802C42.9971 56.1765 42.7599 56.1071 42.5163 56.0743C42.1782 56.0267 41.834 56.0463 41.5035 56.1318C41.173 56.2174 40.8626 56.3673 40.5901 56.5729C40.3175 56.7784 40.0882 57.0358 39.9151 57.3302C39.742 57.6244 39.6288 57.95 39.5816 58.2881C39.5349 58.636 39.5579 58.9896 39.6492 59.3284C39.7405 59.6673 39.8984 59.9845 40.1136 60.2617C39.5018 60.1884 38.8839 60.335 38.3701 60.6753C37.8563 61.0155 37.4803 61.5274 37.309 62.1194C37.1379 62.7113 37.1827 63.3448 37.4355 63.9068C37.6883 64.4688 38.1327 64.9226 38.6892 65.1872C38.0788 65.2669 37.5166 65.5615 37.1035 66.018C36.6904 66.4745 36.4534 67.0631 36.4348 67.6785C36.4162 68.2939 36.6173 68.8958 37.0021 69.3763C37.3869 69.857 37.9302 70.1848 38.5347 70.3014C38.2272 70.5033 37.9668 70.7692 37.7713 71.081C37.5759 71.3928 37.4499 71.743 37.4021 72.1079C37.3097 72.7879 37.4895 73.4769 37.9024 74.0251C38.3153 74.5733 38.9278 74.9363 39.6069 75.0353C39.8164 75.0689 40.0298 75.0689 40.2392 75.0353C40.0234 75.367 39.8828 75.7418 39.8273 76.1337C39.7623 76.6019 39.8259 77.0789 40.0115 77.5137C40.197 77.9485 40.4975 78.3245 40.8806 78.6014C41.2636 78.8785 41.7149 79.0458 42.1859 79.0857C42.6569 79.1257 43.1299 79.0366 43.5541 78.828C43.5227 78.9289 43.4997 79.0323 43.4855 79.137C43.4362 79.4752 43.4546 79.82 43.5394 80.1512C43.6243 80.4823 43.774 80.7934 43.9799 81.0664C44.1857 81.3394 44.4437 81.5687 44.7389 81.7412C45.0341 81.9138 45.3605 82.0261 45.6993 82.0716C46.1464 82.1371 46.6029 82.0825 47.022 81.9137C47.4412 81.7448 47.808 81.4677 48.0848 81.1106C48.084 81.7287 48.3038 82.3268 48.7046 82.7972C49.1055 83.2677 49.6612 83.5797 50.2716 83.6769C50.882 83.7742 51.507 83.6503 52.0343 83.3277C52.5615 83.0051 52.9563 82.5049 53.1475 81.9172C53.2901 82.3133 53.5274 82.6687 53.8388 82.9522C54.1502 83.2356 54.5262 83.4387 54.934 83.5436C55.3418 83.6485 55.769 83.6521 56.1786 83.5541C56.5881 83.4561 56.9675 83.2594 57.2835 82.9812" stroke="black" stroke-width="0.677438" stroke-linecap="round" stroke-linejoin="round"/>
<path id="Vector_36" d="M55.4141 75.8084L59.0524 75.1735" stroke="black" stroke-width="0.677438" stroke-linecap="round" stroke-linejoin="round"/>
<path id="Vector_37" d="M154.077 153.876C152.777 153.434 151.587 152.719 150.583 151.782C149.581 150.843 148.788 149.703 148.259 148.436L146.08 143.253L154.455 139.889L155.244 141.743C156.091 143.763 157.683 145.38 159.689 146.259L169.025 150.378C169.151 150.431 169.266 150.51 169.362 150.608C169.458 150.707 169.532 150.824 169.581 150.952C169.631 151.08 169.654 151.216 169.651 151.354C169.646 151.491 169.615 151.626 169.557 151.751C168.764 153.519 167.338 154.929 165.561 155.7C163.782 156.471 161.78 156.551 159.946 155.921L154.077 153.876Z" stroke="black" stroke-width="0.677438" stroke-linecap="round" stroke-linejoin="round"/>
<path id="Vector_38" d="M146.08 143.253L154.455 139.89L151.778 133.574C151.701 133.4 151.56 133.261 151.385 133.188C151.209 133.114 151.012 133.112 150.834 133.179L143.832 135.979C143.743 136.016 143.661 136.071 143.593 136.138C143.525 136.207 143.471 136.288 143.434 136.378C143.397 136.467 143.379 136.563 143.379 136.66C143.38 136.756 143.399 136.851 143.437 136.94L146.08 143.253Z" stroke="black" stroke-width="0.677438" stroke-linecap="round" stroke-linejoin="round"/>
<path id="Vector_39" d="M86.7515 70.4534C87.8747 71.7478 89.2725 72.7754 90.8429 73.4617C92.413 74.1479 94.1175 74.4755 95.83 74.4205" stroke="black" stroke-width="0.677438" stroke-linecap="round" stroke-linejoin="round"/>
<path id="Vector_40" d="M78.1191 59.7442C79.6923 60.398 81.3879 60.705 83.0905 60.6444C84.7931 60.5838 86.4625 60.1569 87.9853 59.3928" stroke="black" stroke-width="0.677438" stroke-linecap="round" stroke-linejoin="round"/>
<path id="Vector_41" d="M32.6221 116.723L110.039 154.341" stroke="black" stroke-width="0.677438" stroke-linecap="round" stroke-linejoin="round"/>
<path id="Vector_42" d="M125.949 155.747C126.405 154.806 126.469 153.724 126.128 152.736C125.787 151.749 125.068 150.937 124.13 150.478L117.78 147.407C116.839 146.951 115.757 146.887 114.769 147.227C113.782 147.569 112.97 148.288 112.511 149.226L103.604 167.555C103.148 168.495 103.084 169.577 103.424 170.565C103.766 171.553 104.485 172.365 105.423 172.824L111.773 175.913C112.713 176.369 113.795 176.433 114.784 176.092C115.771 175.751 116.583 175.032 117.042 174.094L125.949 155.747Z" stroke="black" stroke-width="0.677438" stroke-linecap="round" stroke-linejoin="round"/>
<path id="Vector_43" d="M30.1001 104.794L32.7258 99.4052C34.0153 96.7533 36.3049 94.721 39.0915 93.7554C41.8782 92.7907 44.934 92.9705 47.5879 94.2567L118.432 128.671C121.084 129.96 123.116 132.249 124.081 135.037C125.046 137.823 124.866 140.879 123.58 143.533L120.954 148.939" stroke="black" stroke-width="0.677438" stroke-linecap="round" stroke-linejoin="round"/>
<path id="Vector_44" d="M20.9199 131.773L105.441 172.824" stroke="black" stroke-width="0.677438" stroke-linecap="round" stroke-linejoin="round"/>
<path id="Vector_45" d="M153.338 60.9803L154.711 69.7671" stroke="black" stroke-width="0.677438" stroke-linecap="round" stroke-linejoin="round"/>
<path id="Vector_46" d="M158.42 64.6868L149.633 66.0598" stroke="black" stroke-width="0.677438" stroke-linecap="round" stroke-linejoin="round"/>
<path id="Vector_47" d="M50.8144 29.4885C50.8137 30.605 50.4819 31.6963 49.8611 32.6244C49.2402 33.5524 48.3582 34.2755 47.3264 34.7023C46.2946 35.1291 45.1595 35.2404 44.0644 35.0222C42.9694 34.8038 41.9637 34.2659 41.1744 33.4761C40.3852 32.6863 39.8478 31.6802 39.6302 30.585C39.4127 29.4899 39.5247 28.3548 39.9521 27.3233C40.3796 26.2918 41.1033 25.4102 42.0317 24.79C42.9601 24.1697 44.0516 23.8387 45.1682 23.8387C45.9102 23.8378 46.6451 23.9834 47.3307 24.2671C48.0164 24.5508 48.6393 24.967 49.1638 25.4918C49.6883 26.0167 50.1041 26.6398 50.3873 27.3257C50.6706 28.0115 50.8157 28.7465 50.8144 29.4885Z" stroke="black" stroke-width="0.677438" stroke-linecap="round" stroke-linejoin="round"/>
<path id="Vector_48" d="M44.1241 19.843C44.8397 21.0505 45.2015 22.4348 45.1682 23.8381C43.8865 23.2778 42.7869 22.3706 41.9933 21.2187C41.2761 20.0104 40.9133 18.6247 40.9464 17.22C42.2296 17.7808 43.3303 18.6894 44.1241 19.843Z" stroke="black" stroke-width="0.677438" stroke-linecap="round" stroke-linejoin="round"/>
<path id="Vector_49" d="M82.483 90.942L72.4912 88.7137" stroke="black" stroke-width="0.677438" stroke-linecap="round" stroke-linejoin="round"/>
<path id="Vector_50" d="M82.5818 88.491C76.5405 89.0307 70.4564 88.8464 64.459 87.9418" stroke="black" stroke-width="0.677438" stroke-linecap="round" stroke-linejoin="round"/>
<path id="Vector_51" d="M20.1108 79.4292L20.5056 81.6259" stroke="black" stroke-width="0.677438" stroke-linecap="round" stroke-linejoin="round"/>
<path id="Vector_52" d="M18.79 84.0632L16.5933 84.4579" stroke="black" stroke-width="0.677438" stroke-linecap="round" stroke-linejoin="round"/>
<path id="Vector_53" d="M25.1425 82.9636L22.9458 83.3412" stroke="black" stroke-width="0.677438" stroke-linecap="round" stroke-linejoin="round"/>
<path id="Vector_54" d="M21.6056 87.9759L21.228 85.7792" stroke="black" stroke-width="0.677438" stroke-linecap="round" stroke-linejoin="round"/>
<path id="Vector_55" d="M22.944 83.3422C22.6711 83.3904 22.3914 83.3842 22.1209 83.324C21.8504 83.2637 21.5945 83.1507 21.3678 82.9911C21.1411 82.8316 20.9483 82.6289 20.8002 82.3946C20.6522 82.1603 20.5519 81.8991 20.5052 81.626C20.5535 81.8988 20.5473 82.1786 20.4871 82.4491C20.4268 82.7196 20.3137 82.9755 20.1542 83.2022C19.9948 83.4289 19.792 83.6217 19.5578 83.7697C19.3235 83.9178 19.0623 84.0181 18.7891 84.0647C19.062 84.0165 19.3418 84.0227 19.6122 84.0829C19.8827 84.1432 20.1387 84.2562 20.3653 84.4158C20.5919 84.5753 20.7848 84.778 20.9328 85.0123C21.0809 85.2466 21.1811 85.5078 21.2278 85.7809C21.1796 85.5081 21.1857 85.2283 21.246 84.9578C21.3062 84.6873 21.4193 84.4314 21.5788 84.2047C21.7384 83.978 21.941 83.7852 22.1753 83.6372C22.4096 83.4891 22.6709 83.3889 22.944 83.3422Z" stroke="black" stroke-width="0.677438" stroke-linecap="round" stroke-linejoin="round"/>
<path id="Vector_56" d="M140.897 105.12C142.405 111.479 141.585 118.169 138.584 123.975C135.584 129.781 130.601 134.319 124.542 136.766" stroke="black" stroke-width="0.677438" stroke-linecap="round" stroke-linejoin="round"/>
<path id="Vector_57" d="M89.4463 68.2906C90.1156 67.055 90.9222 65.5962 90.9222 65.5962C91.2998 64.8239 91.2094 58.6954 91.7974 57.3766C91.951 57.0334 94.8206 53.6733 96.1737 52.0393C97.3253 50.651 98.3876 50.4948 95.5215 55.077" stroke="black" stroke-width="0.677438" stroke-linecap="round" stroke-linejoin="round"/>
<path id="Vector_58" d="M35.0916 111.608C35.5474 110.668 35.6119 109.586 35.2709 108.597C34.9299 107.61 34.2112 106.798 33.2724 106.339L26.9397 103.268C25.9996 102.812 24.9171 102.748 23.9295 103.089C22.9419 103.43 22.1297 104.149 21.6711 105.087L12.747 123.416C12.2912 124.356 12.2267 125.439 12.5677 126.427C12.9087 127.414 13.6274 128.226 14.5661 128.685L20.916 131.774C21.8562 132.23 22.9386 132.294 23.9262 131.954C24.9138 131.612 25.7261 130.893 26.1846 129.955L35.0916 111.608Z" stroke="black" stroke-width="0.677438" stroke-linecap="round" stroke-linejoin="round"/>
<path id="Vector_59" d="M109.782 4.68971L109.593 21.9201L120.405 40.6607L120.593 23.4303L109.782 4.68971Z" stroke="black" stroke-width="0.677438" stroke-linejoin="round"/>
<path id="Vector_60" d="M114.077 29.7561L108.413 35.3852L106.852 54.3146L120.427 40.7396L114.077 29.7561Z" stroke="black" stroke-width="0.677438" stroke-linejoin="round"/>
</g>
</g>
</svg>
